%TF.GenerationSoftware,KiCad,Pcbnew,(6.0.10)*%
%TF.CreationDate,2023-04-05T20:35:32-05:00*%
%TF.ProjectId,445_PD,3434355f-5044-42e6-9b69-6361645f7063,rev?*%
%TF.SameCoordinates,Original*%
%TF.FileFunction,Legend,Top*%
%TF.FilePolarity,Positive*%
%FSLAX46Y46*%
G04 Gerber Fmt 4.6, Leading zero omitted, Abs format (unit mm)*
G04 Created by KiCad (PCBNEW (6.0.10)) date 2023-04-05 20:35:32*
%MOMM*%
%LPD*%
G01*
G04 APERTURE LIST*
%ADD10C,0.250000*%
%ADD11C,0.150000*%
%ADD12C,0.120000*%
%ADD13C,0.127000*%
%ADD14C,0.200000*%
G04 APERTURE END LIST*
D10*
X118440247Y-98318628D02*
X119202152Y-98318628D01*
X123317047Y-98369428D02*
X124078952Y-98369428D01*
X123698000Y-98750380D02*
X123698000Y-97988476D01*
X118440247Y-92578228D02*
X119202152Y-92578228D01*
X123317047Y-92629028D02*
X124078952Y-92629028D01*
X123698000Y-93009980D02*
X123698000Y-92248076D01*
X135970971Y-118999047D02*
X135970971Y-119760952D01*
X135920171Y-123875847D02*
X135920171Y-124637752D01*
X135539219Y-124256800D02*
X136301123Y-124256800D01*
D11*
%TO.C,U1*%
X164642895Y-96614780D02*
X164642895Y-97424304D01*
X164690514Y-97519542D01*
X164738133Y-97567161D01*
X164833371Y-97614780D01*
X165023847Y-97614780D01*
X165119085Y-97567161D01*
X165166704Y-97519542D01*
X165214323Y-97424304D01*
X165214323Y-96614780D01*
X166214323Y-97614780D02*
X165642895Y-97614780D01*
X165928609Y-97614780D02*
X165928609Y-96614780D01*
X165833371Y-96757638D01*
X165738133Y-96852876D01*
X165642895Y-96900495D01*
%TO.C,S2*%
X124250195Y-125858161D02*
X124393052Y-125905780D01*
X124631147Y-125905780D01*
X124726385Y-125858161D01*
X124774004Y-125810542D01*
X124821623Y-125715304D01*
X124821623Y-125620066D01*
X124774004Y-125524828D01*
X124726385Y-125477209D01*
X124631147Y-125429590D01*
X124440671Y-125381971D01*
X124345433Y-125334352D01*
X124297814Y-125286733D01*
X124250195Y-125191495D01*
X124250195Y-125096257D01*
X124297814Y-125001019D01*
X124345433Y-124953400D01*
X124440671Y-124905780D01*
X124678766Y-124905780D01*
X124821623Y-124953400D01*
X125202576Y-125001019D02*
X125250195Y-124953400D01*
X125345433Y-124905780D01*
X125583528Y-124905780D01*
X125678766Y-124953400D01*
X125726385Y-125001019D01*
X125774004Y-125096257D01*
X125774004Y-125191495D01*
X125726385Y-125334352D01*
X125154957Y-125905780D01*
X125774004Y-125905780D01*
%TO.C,R13*%
X157903942Y-87039980D02*
X157570609Y-86563790D01*
X157332514Y-87039980D02*
X157332514Y-86039980D01*
X157713466Y-86039980D01*
X157808704Y-86087600D01*
X157856323Y-86135219D01*
X157903942Y-86230457D01*
X157903942Y-86373314D01*
X157856323Y-86468552D01*
X157808704Y-86516171D01*
X157713466Y-86563790D01*
X157332514Y-86563790D01*
X158856323Y-87039980D02*
X158284895Y-87039980D01*
X158570609Y-87039980D02*
X158570609Y-86039980D01*
X158475371Y-86182838D01*
X158380133Y-86278076D01*
X158284895Y-86325695D01*
X159189657Y-86039980D02*
X159808704Y-86039980D01*
X159475371Y-86420933D01*
X159618228Y-86420933D01*
X159713466Y-86468552D01*
X159761085Y-86516171D01*
X159808704Y-86611409D01*
X159808704Y-86849504D01*
X159761085Y-86944742D01*
X159713466Y-86992361D01*
X159618228Y-87039980D01*
X159332514Y-87039980D01*
X159237276Y-86992361D01*
X159189657Y-86944742D01*
%TO.C,R12*%
X139925642Y-85907980D02*
X139592309Y-85431790D01*
X139354214Y-85907980D02*
X139354214Y-84907980D01*
X139735166Y-84907980D01*
X139830404Y-84955600D01*
X139878023Y-85003219D01*
X139925642Y-85098457D01*
X139925642Y-85241314D01*
X139878023Y-85336552D01*
X139830404Y-85384171D01*
X139735166Y-85431790D01*
X139354214Y-85431790D01*
X140878023Y-85907980D02*
X140306595Y-85907980D01*
X140592309Y-85907980D02*
X140592309Y-84907980D01*
X140497071Y-85050838D01*
X140401833Y-85146076D01*
X140306595Y-85193695D01*
X141258976Y-85003219D02*
X141306595Y-84955600D01*
X141401833Y-84907980D01*
X141639928Y-84907980D01*
X141735166Y-84955600D01*
X141782785Y-85003219D01*
X141830404Y-85098457D01*
X141830404Y-85193695D01*
X141782785Y-85336552D01*
X141211357Y-85907980D01*
X141830404Y-85907980D01*
%TO.C,R11*%
X130487942Y-89071980D02*
X130154609Y-88595790D01*
X129916514Y-89071980D02*
X129916514Y-88071980D01*
X130297466Y-88071980D01*
X130392704Y-88119600D01*
X130440323Y-88167219D01*
X130487942Y-88262457D01*
X130487942Y-88405314D01*
X130440323Y-88500552D01*
X130392704Y-88548171D01*
X130297466Y-88595790D01*
X129916514Y-88595790D01*
X131440323Y-89071980D02*
X130868895Y-89071980D01*
X131154609Y-89071980D02*
X131154609Y-88071980D01*
X131059371Y-88214838D01*
X130964133Y-88310076D01*
X130868895Y-88357695D01*
X132392704Y-89071980D02*
X131821276Y-89071980D01*
X132106990Y-89071980D02*
X132106990Y-88071980D01*
X132011752Y-88214838D01*
X131916514Y-88310076D01*
X131821276Y-88357695D01*
%TO.C,R10*%
X130319542Y-91410780D02*
X129986209Y-90934590D01*
X129748114Y-91410780D02*
X129748114Y-90410780D01*
X130129066Y-90410780D01*
X130224304Y-90458400D01*
X130271923Y-90506019D01*
X130319542Y-90601257D01*
X130319542Y-90744114D01*
X130271923Y-90839352D01*
X130224304Y-90886971D01*
X130129066Y-90934590D01*
X129748114Y-90934590D01*
X131271923Y-91410780D02*
X130700495Y-91410780D01*
X130986209Y-91410780D02*
X130986209Y-90410780D01*
X130890971Y-90553638D01*
X130795733Y-90648876D01*
X130700495Y-90696495D01*
X131890971Y-90410780D02*
X131986209Y-90410780D01*
X132081447Y-90458400D01*
X132129066Y-90506019D01*
X132176685Y-90601257D01*
X132224304Y-90791733D01*
X132224304Y-91029828D01*
X132176685Y-91220304D01*
X132129066Y-91315542D01*
X132081447Y-91363161D01*
X131986209Y-91410780D01*
X131890971Y-91410780D01*
X131795733Y-91363161D01*
X131748114Y-91315542D01*
X131700495Y-91220304D01*
X131652876Y-91029828D01*
X131652876Y-90791733D01*
X131700495Y-90601257D01*
X131748114Y-90506019D01*
X131795733Y-90458400D01*
X131890971Y-90410780D01*
%TO.C,R9*%
X130913333Y-113254780D02*
X130580000Y-112778590D01*
X130341904Y-113254780D02*
X130341904Y-112254780D01*
X130722857Y-112254780D01*
X130818095Y-112302400D01*
X130865714Y-112350019D01*
X130913333Y-112445257D01*
X130913333Y-112588114D01*
X130865714Y-112683352D01*
X130818095Y-112730971D01*
X130722857Y-112778590D01*
X130341904Y-112778590D01*
X131389523Y-113254780D02*
X131580000Y-113254780D01*
X131675238Y-113207161D01*
X131722857Y-113159542D01*
X131818095Y-113016685D01*
X131865714Y-112826209D01*
X131865714Y-112445257D01*
X131818095Y-112350019D01*
X131770476Y-112302400D01*
X131675238Y-112254780D01*
X131484761Y-112254780D01*
X131389523Y-112302400D01*
X131341904Y-112350019D01*
X131294285Y-112445257D01*
X131294285Y-112683352D01*
X131341904Y-112778590D01*
X131389523Y-112826209D01*
X131484761Y-112873828D01*
X131675238Y-112873828D01*
X131770476Y-112826209D01*
X131818095Y-112778590D01*
X131865714Y-112683352D01*
%TO.C,R8*%
X130811733Y-102535980D02*
X130478400Y-102059790D01*
X130240304Y-102535980D02*
X130240304Y-101535980D01*
X130621257Y-101535980D01*
X130716495Y-101583600D01*
X130764114Y-101631219D01*
X130811733Y-101726457D01*
X130811733Y-101869314D01*
X130764114Y-101964552D01*
X130716495Y-102012171D01*
X130621257Y-102059790D01*
X130240304Y-102059790D01*
X131383161Y-101964552D02*
X131287923Y-101916933D01*
X131240304Y-101869314D01*
X131192685Y-101774076D01*
X131192685Y-101726457D01*
X131240304Y-101631219D01*
X131287923Y-101583600D01*
X131383161Y-101535980D01*
X131573638Y-101535980D01*
X131668876Y-101583600D01*
X131716495Y-101631219D01*
X131764114Y-101726457D01*
X131764114Y-101774076D01*
X131716495Y-101869314D01*
X131668876Y-101916933D01*
X131573638Y-101964552D01*
X131383161Y-101964552D01*
X131287923Y-102012171D01*
X131240304Y-102059790D01*
X131192685Y-102155028D01*
X131192685Y-102345504D01*
X131240304Y-102440742D01*
X131287923Y-102488361D01*
X131383161Y-102535980D01*
X131573638Y-102535980D01*
X131668876Y-102488361D01*
X131716495Y-102440742D01*
X131764114Y-102345504D01*
X131764114Y-102155028D01*
X131716495Y-102059790D01*
X131668876Y-102012171D01*
X131573638Y-101964552D01*
%TO.C,R7*%
X130897333Y-107920780D02*
X130564000Y-107444590D01*
X130325904Y-107920780D02*
X130325904Y-106920780D01*
X130706857Y-106920780D01*
X130802095Y-106968400D01*
X130849714Y-107016019D01*
X130897333Y-107111257D01*
X130897333Y-107254114D01*
X130849714Y-107349352D01*
X130802095Y-107396971D01*
X130706857Y-107444590D01*
X130325904Y-107444590D01*
X131230666Y-106920780D02*
X131897333Y-106920780D01*
X131468761Y-107920780D01*
%TO.C,R6*%
X121042133Y-117011980D02*
X120708800Y-116535790D01*
X120470704Y-117011980D02*
X120470704Y-116011980D01*
X120851657Y-116011980D01*
X120946895Y-116059600D01*
X120994514Y-116107219D01*
X121042133Y-116202457D01*
X121042133Y-116345314D01*
X120994514Y-116440552D01*
X120946895Y-116488171D01*
X120851657Y-116535790D01*
X120470704Y-116535790D01*
X121899276Y-116011980D02*
X121708800Y-116011980D01*
X121613561Y-116059600D01*
X121565942Y-116107219D01*
X121470704Y-116250076D01*
X121423085Y-116440552D01*
X121423085Y-116821504D01*
X121470704Y-116916742D01*
X121518323Y-116964361D01*
X121613561Y-117011980D01*
X121804038Y-117011980D01*
X121899276Y-116964361D01*
X121946895Y-116916742D01*
X121994514Y-116821504D01*
X121994514Y-116583409D01*
X121946895Y-116488171D01*
X121899276Y-116440552D01*
X121804038Y-116392933D01*
X121613561Y-116392933D01*
X121518323Y-116440552D01*
X121470704Y-116488171D01*
X121423085Y-116583409D01*
%TO.C,R5*%
X131049733Y-80742780D02*
X130716400Y-80266590D01*
X130478304Y-80742780D02*
X130478304Y-79742780D01*
X130859257Y-79742780D01*
X130954495Y-79790400D01*
X131002114Y-79838019D01*
X131049733Y-79933257D01*
X131049733Y-80076114D01*
X131002114Y-80171352D01*
X130954495Y-80218971D01*
X130859257Y-80266590D01*
X130478304Y-80266590D01*
X131954495Y-79742780D02*
X131478304Y-79742780D01*
X131430685Y-80218971D01*
X131478304Y-80171352D01*
X131573542Y-80123733D01*
X131811638Y-80123733D01*
X131906876Y-80171352D01*
X131954495Y-80218971D01*
X132002114Y-80314209D01*
X132002114Y-80552304D01*
X131954495Y-80647542D01*
X131906876Y-80695161D01*
X131811638Y-80742780D01*
X131573542Y-80742780D01*
X131478304Y-80695161D01*
X131430685Y-80647542D01*
%TO.C,R4*%
X140717733Y-116757980D02*
X140384400Y-116281790D01*
X140146304Y-116757980D02*
X140146304Y-115757980D01*
X140527257Y-115757980D01*
X140622495Y-115805600D01*
X140670114Y-115853219D01*
X140717733Y-115948457D01*
X140717733Y-116091314D01*
X140670114Y-116186552D01*
X140622495Y-116234171D01*
X140527257Y-116281790D01*
X140146304Y-116281790D01*
X141574876Y-116091314D02*
X141574876Y-116757980D01*
X141336780Y-115710361D02*
X141098685Y-116424647D01*
X141717733Y-116424647D01*
%TO.C,R3*%
X140666933Y-106293180D02*
X140333600Y-105816990D01*
X140095504Y-106293180D02*
X140095504Y-105293180D01*
X140476457Y-105293180D01*
X140571695Y-105340800D01*
X140619314Y-105388419D01*
X140666933Y-105483657D01*
X140666933Y-105626514D01*
X140619314Y-105721752D01*
X140571695Y-105769371D01*
X140476457Y-105816990D01*
X140095504Y-105816990D01*
X141000266Y-105293180D02*
X141619314Y-105293180D01*
X141285980Y-105674133D01*
X141428838Y-105674133D01*
X141524076Y-105721752D01*
X141571695Y-105769371D01*
X141619314Y-105864609D01*
X141619314Y-106102704D01*
X141571695Y-106197942D01*
X141524076Y-106245561D01*
X141428838Y-106293180D01*
X141143123Y-106293180D01*
X141047885Y-106245561D01*
X141000266Y-106197942D01*
%TO.C,R2*%
X140759333Y-108103180D02*
X140426000Y-107626990D01*
X140187904Y-108103180D02*
X140187904Y-107103180D01*
X140568857Y-107103180D01*
X140664095Y-107150800D01*
X140711714Y-107198419D01*
X140759333Y-107293657D01*
X140759333Y-107436514D01*
X140711714Y-107531752D01*
X140664095Y-107579371D01*
X140568857Y-107626990D01*
X140187904Y-107626990D01*
X141140285Y-107198419D02*
X141187904Y-107150800D01*
X141283142Y-107103180D01*
X141521238Y-107103180D01*
X141616476Y-107150800D01*
X141664095Y-107198419D01*
X141711714Y-107293657D01*
X141711714Y-107388895D01*
X141664095Y-107531752D01*
X141092666Y-108103180D01*
X141711714Y-108103180D01*
%TO.C,R1*%
X130795733Y-100247980D02*
X130462400Y-99771790D01*
X130224304Y-100247980D02*
X130224304Y-99247980D01*
X130605257Y-99247980D01*
X130700495Y-99295600D01*
X130748114Y-99343219D01*
X130795733Y-99438457D01*
X130795733Y-99581314D01*
X130748114Y-99676552D01*
X130700495Y-99724171D01*
X130605257Y-99771790D01*
X130224304Y-99771790D01*
X131748114Y-100247980D02*
X131176685Y-100247980D01*
X131462400Y-100247980D02*
X131462400Y-99247980D01*
X131367161Y-99390838D01*
X131271923Y-99486076D01*
X131176685Y-99533695D01*
%TO.C,Q1*%
X147120219Y-84103838D02*
X147072600Y-84199076D01*
X146977361Y-84294314D01*
X146834504Y-84437171D01*
X146786885Y-84532409D01*
X146786885Y-84627647D01*
X147024980Y-84580028D02*
X146977361Y-84675266D01*
X146882123Y-84770504D01*
X146691647Y-84818123D01*
X146358314Y-84818123D01*
X146167838Y-84770504D01*
X146072600Y-84675266D01*
X146024980Y-84580028D01*
X146024980Y-84389552D01*
X146072600Y-84294314D01*
X146167838Y-84199076D01*
X146358314Y-84151457D01*
X146691647Y-84151457D01*
X146882123Y-84199076D01*
X146977361Y-84294314D01*
X147024980Y-84389552D01*
X147024980Y-84580028D01*
X147024980Y-83199076D02*
X147024980Y-83770504D01*
X147024980Y-83484790D02*
X146024980Y-83484790D01*
X146167838Y-83580028D01*
X146263076Y-83675266D01*
X146310695Y-83770504D01*
%TO.C,J8*%
X182699066Y-69679780D02*
X182699066Y-70394066D01*
X182651447Y-70536923D01*
X182556209Y-70632161D01*
X182413352Y-70679780D01*
X182318114Y-70679780D01*
X183318114Y-70108352D02*
X183222876Y-70060733D01*
X183175257Y-70013114D01*
X183127638Y-69917876D01*
X183127638Y-69870257D01*
X183175257Y-69775019D01*
X183222876Y-69727400D01*
X183318114Y-69679780D01*
X183508590Y-69679780D01*
X183603828Y-69727400D01*
X183651447Y-69775019D01*
X183699066Y-69870257D01*
X183699066Y-69917876D01*
X183651447Y-70013114D01*
X183603828Y-70060733D01*
X183508590Y-70108352D01*
X183318114Y-70108352D01*
X183222876Y-70155971D01*
X183175257Y-70203590D01*
X183127638Y-70298828D01*
X183127638Y-70489304D01*
X183175257Y-70584542D01*
X183222876Y-70632161D01*
X183318114Y-70679780D01*
X183508590Y-70679780D01*
X183603828Y-70632161D01*
X183651447Y-70584542D01*
X183699066Y-70489304D01*
X183699066Y-70298828D01*
X183651447Y-70203590D01*
X183603828Y-70155971D01*
X183508590Y-70108352D01*
%TO.C,J7*%
X152219066Y-91574580D02*
X152219066Y-92288866D01*
X152171447Y-92431723D01*
X152076209Y-92526961D01*
X151933352Y-92574580D01*
X151838114Y-92574580D01*
X152600019Y-91574580D02*
X153266685Y-91574580D01*
X152838114Y-92574580D01*
%TO.C,J6*%
X139976266Y-73982780D02*
X139976266Y-74697066D01*
X139928647Y-74839923D01*
X139833409Y-74935161D01*
X139690552Y-74982780D01*
X139595314Y-74982780D01*
X140881028Y-73982780D02*
X140690552Y-73982780D01*
X140595314Y-74030400D01*
X140547695Y-74078019D01*
X140452457Y-74220876D01*
X140404838Y-74411352D01*
X140404838Y-74792304D01*
X140452457Y-74887542D01*
X140500076Y-74935161D01*
X140595314Y-74982780D01*
X140785790Y-74982780D01*
X140881028Y-74935161D01*
X140928647Y-74887542D01*
X140976266Y-74792304D01*
X140976266Y-74554209D01*
X140928647Y-74458971D01*
X140881028Y-74411352D01*
X140785790Y-74363733D01*
X140595314Y-74363733D01*
X140500076Y-74411352D01*
X140452457Y-74458971D01*
X140404838Y-74554209D01*
%TO.C,J5*%
X168068666Y-84540580D02*
X168068666Y-85254866D01*
X168021047Y-85397723D01*
X167925809Y-85492961D01*
X167782952Y-85540580D01*
X167687714Y-85540580D01*
X169021047Y-84540580D02*
X168544857Y-84540580D01*
X168497238Y-85016771D01*
X168544857Y-84969152D01*
X168640095Y-84921533D01*
X168878190Y-84921533D01*
X168973428Y-84969152D01*
X169021047Y-85016771D01*
X169068666Y-85112009D01*
X169068666Y-85350104D01*
X169021047Y-85445342D01*
X168973428Y-85492961D01*
X168878190Y-85540580D01*
X168640095Y-85540580D01*
X168544857Y-85492961D01*
X168497238Y-85445342D01*
%TO.C,J4*%
X159270980Y-113871333D02*
X159985266Y-113871333D01*
X160128123Y-113918952D01*
X160223361Y-114014190D01*
X160270980Y-114157047D01*
X160270980Y-114252285D01*
X159604314Y-112966571D02*
X160270980Y-112966571D01*
X159223361Y-113204666D02*
X159937647Y-113442761D01*
X159937647Y-112823714D01*
%TO.C,J3*%
X178025466Y-105368580D02*
X178025466Y-106082866D01*
X177977847Y-106225723D01*
X177882609Y-106320961D01*
X177739752Y-106368580D01*
X177644514Y-106368580D01*
X178406419Y-105368580D02*
X179025466Y-105368580D01*
X178692133Y-105749533D01*
X178834990Y-105749533D01*
X178930228Y-105797152D01*
X178977847Y-105844771D01*
X179025466Y-105940009D01*
X179025466Y-106178104D01*
X178977847Y-106273342D01*
X178930228Y-106320961D01*
X178834990Y-106368580D01*
X178549276Y-106368580D01*
X178454038Y-106320961D01*
X178406419Y-106273342D01*
%TO.C,J2*%
X152269866Y-105118180D02*
X152269866Y-105832466D01*
X152222247Y-105975323D01*
X152127009Y-106070561D01*
X151984152Y-106118180D01*
X151888914Y-106118180D01*
X152698438Y-105213419D02*
X152746057Y-105165800D01*
X152841295Y-105118180D01*
X153079390Y-105118180D01*
X153174628Y-105165800D01*
X153222247Y-105213419D01*
X153269866Y-105308657D01*
X153269866Y-105403895D01*
X153222247Y-105546752D01*
X152650819Y-106118180D01*
X153269866Y-106118180D01*
%TO.C,J1*%
X157152933Y-77523219D02*
X157152933Y-76808933D01*
X157200552Y-76666076D01*
X157295790Y-76570838D01*
X157438647Y-76523219D01*
X157533885Y-76523219D01*
X156152933Y-76523219D02*
X156724361Y-76523219D01*
X156438647Y-76523219D02*
X156438647Y-77523219D01*
X156533885Y-77380361D01*
X156629123Y-77285123D01*
X156724361Y-77237504D01*
%TO.C,D4*%
X141376904Y-118246380D02*
X141376904Y-117246380D01*
X141615000Y-117246380D01*
X141757857Y-117294000D01*
X141853095Y-117389238D01*
X141900714Y-117484476D01*
X141948333Y-117674952D01*
X141948333Y-117817809D01*
X141900714Y-118008285D01*
X141853095Y-118103523D01*
X141757857Y-118198761D01*
X141615000Y-118246380D01*
X141376904Y-118246380D01*
X142805476Y-117579714D02*
X142805476Y-118246380D01*
X142567380Y-117198761D02*
X142329285Y-117913047D01*
X142948333Y-117913047D01*
%TO.C,D3*%
X120572304Y-91630780D02*
X120572304Y-90630780D01*
X120810400Y-90630780D01*
X120953257Y-90678400D01*
X121048495Y-90773638D01*
X121096114Y-90868876D01*
X121143733Y-91059352D01*
X121143733Y-91202209D01*
X121096114Y-91392685D01*
X121048495Y-91487923D01*
X120953257Y-91583161D01*
X120810400Y-91630780D01*
X120572304Y-91630780D01*
X121477066Y-90630780D02*
X122096114Y-90630780D01*
X121762780Y-91011733D01*
X121905638Y-91011733D01*
X122000876Y-91059352D01*
X122048495Y-91106971D01*
X122096114Y-91202209D01*
X122096114Y-91440304D01*
X122048495Y-91535542D01*
X122000876Y-91583161D01*
X121905638Y-91630780D01*
X121619923Y-91630780D01*
X121524685Y-91583161D01*
X121477066Y-91535542D01*
%TO.C,D2*%
X120408504Y-97320380D02*
X120408504Y-96320380D01*
X120646600Y-96320380D01*
X120789457Y-96368000D01*
X120884695Y-96463238D01*
X120932314Y-96558476D01*
X120979933Y-96748952D01*
X120979933Y-96891809D01*
X120932314Y-97082285D01*
X120884695Y-97177523D01*
X120789457Y-97272761D01*
X120646600Y-97320380D01*
X120408504Y-97320380D01*
X121360885Y-96415619D02*
X121408504Y-96368000D01*
X121503742Y-96320380D01*
X121741838Y-96320380D01*
X121837076Y-96368000D01*
X121884695Y-96415619D01*
X121932314Y-96510857D01*
X121932314Y-96606095D01*
X121884695Y-96748952D01*
X121313266Y-97320380D01*
X121932314Y-97320380D01*
%TO.C,D1*%
X136820780Y-122607295D02*
X135820780Y-122607295D01*
X135820780Y-122369200D01*
X135868400Y-122226342D01*
X135963638Y-122131104D01*
X136058876Y-122083485D01*
X136249352Y-122035866D01*
X136392209Y-122035866D01*
X136582685Y-122083485D01*
X136677923Y-122131104D01*
X136773161Y-122226342D01*
X136820780Y-122369200D01*
X136820780Y-122607295D01*
X136820780Y-121083485D02*
X136820780Y-121654914D01*
X136820780Y-121369200D02*
X135820780Y-121369200D01*
X135963638Y-121464438D01*
X136058876Y-121559676D01*
X136106495Y-121654914D01*
%TO.C,C4*%
X140578633Y-91641142D02*
X140531014Y-91688761D01*
X140388157Y-91736380D01*
X140292919Y-91736380D01*
X140150061Y-91688761D01*
X140054823Y-91593523D01*
X140007204Y-91498285D01*
X139959585Y-91307809D01*
X139959585Y-91164952D01*
X140007204Y-90974476D01*
X140054823Y-90879238D01*
X140150061Y-90784000D01*
X140292919Y-90736380D01*
X140388157Y-90736380D01*
X140531014Y-90784000D01*
X140578633Y-90831619D01*
X141435776Y-91069714D02*
X141435776Y-91736380D01*
X141197680Y-90688761D02*
X140959585Y-91403047D01*
X141578633Y-91403047D01*
%TO.C,C3*%
X131049733Y-78643542D02*
X131002114Y-78691161D01*
X130859257Y-78738780D01*
X130764019Y-78738780D01*
X130621161Y-78691161D01*
X130525923Y-78595923D01*
X130478304Y-78500685D01*
X130430685Y-78310209D01*
X130430685Y-78167352D01*
X130478304Y-77976876D01*
X130525923Y-77881638D01*
X130621161Y-77786400D01*
X130764019Y-77738780D01*
X130859257Y-77738780D01*
X131002114Y-77786400D01*
X131049733Y-77834019D01*
X131383066Y-77738780D02*
X132002114Y-77738780D01*
X131668780Y-78119733D01*
X131811638Y-78119733D01*
X131906876Y-78167352D01*
X131954495Y-78214971D01*
X132002114Y-78310209D01*
X132002114Y-78548304D01*
X131954495Y-78643542D01*
X131906876Y-78691161D01*
X131811638Y-78738780D01*
X131525923Y-78738780D01*
X131430685Y-78691161D01*
X131383066Y-78643542D01*
%TO.C,C2*%
X120940533Y-102613942D02*
X120892914Y-102661561D01*
X120750057Y-102709180D01*
X120654819Y-102709180D01*
X120511961Y-102661561D01*
X120416723Y-102566323D01*
X120369104Y-102471085D01*
X120321485Y-102280609D01*
X120321485Y-102137752D01*
X120369104Y-101947276D01*
X120416723Y-101852038D01*
X120511961Y-101756800D01*
X120654819Y-101709180D01*
X120750057Y-101709180D01*
X120892914Y-101756800D01*
X120940533Y-101804419D01*
X121321485Y-101804419D02*
X121369104Y-101756800D01*
X121464342Y-101709180D01*
X121702438Y-101709180D01*
X121797676Y-101756800D01*
X121845295Y-101804419D01*
X121892914Y-101899657D01*
X121892914Y-101994895D01*
X121845295Y-102137752D01*
X121273866Y-102709180D01*
X121892914Y-102709180D01*
%TO.C,C1*%
X121092933Y-107998742D02*
X121045314Y-108046361D01*
X120902457Y-108093980D01*
X120807219Y-108093980D01*
X120664361Y-108046361D01*
X120569123Y-107951123D01*
X120521504Y-107855885D01*
X120473885Y-107665409D01*
X120473885Y-107522552D01*
X120521504Y-107332076D01*
X120569123Y-107236838D01*
X120664361Y-107141600D01*
X120807219Y-107093980D01*
X120902457Y-107093980D01*
X121045314Y-107141600D01*
X121092933Y-107189219D01*
X122045314Y-108093980D02*
X121473885Y-108093980D01*
X121759600Y-108093980D02*
X121759600Y-107093980D01*
X121664361Y-107236838D01*
X121569123Y-107332076D01*
X121473885Y-107379695D01*
D12*
%TO.C,U1*%
X167039800Y-98372400D02*
X167514800Y-98372400D01*
X163769800Y-102592400D02*
X163294800Y-102592400D01*
X167514800Y-102592400D02*
X167514800Y-102117400D01*
X167039800Y-102592400D02*
X167514800Y-102592400D01*
X163294800Y-102592400D02*
X163294800Y-102117400D01*
X167514800Y-98372400D02*
X167514800Y-98847400D01*
X163769800Y-98372400D02*
X163294800Y-98372400D01*
D13*
%TO.C,S2*%
X125787100Y-119568400D02*
X125787100Y-124068400D01*
X125787100Y-124068400D02*
X121287100Y-124068400D01*
X121287100Y-124068400D02*
X121287100Y-119568400D01*
X121287100Y-119568400D02*
X125787100Y-119568400D01*
D14*
X128637100Y-120318400D02*
G75*
G03*
X128637100Y-120318400I-100000J0D01*
G01*
D12*
%TO.C,R13*%
X158773864Y-85672600D02*
X158319736Y-85672600D01*
X158773864Y-84202600D02*
X158319736Y-84202600D01*
%TO.C,R12*%
X140341436Y-86370600D02*
X140795564Y-86370600D01*
X140341436Y-87840600D02*
X140795564Y-87840600D01*
%TO.C,R11*%
X131357864Y-87704600D02*
X130903736Y-87704600D01*
X131357864Y-86234600D02*
X130903736Y-86234600D01*
%TO.C,R10*%
X130735336Y-91873400D02*
X131189464Y-91873400D01*
X130735336Y-93343400D02*
X131189464Y-93343400D01*
%TO.C,R9*%
X130852936Y-113717400D02*
X131307064Y-113717400D01*
X130852936Y-115187400D02*
X131307064Y-115187400D01*
%TO.C,R8*%
X130751336Y-104468600D02*
X131205464Y-104468600D01*
X130751336Y-102998600D02*
X131205464Y-102998600D01*
%TO.C,R7*%
X130836936Y-108383400D02*
X131291064Y-108383400D01*
X130836936Y-109853400D02*
X131291064Y-109853400D01*
%TO.C,R6*%
X121435864Y-115644600D02*
X120981736Y-115644600D01*
X121435864Y-114174600D02*
X120981736Y-114174600D01*
%TO.C,R5*%
X130989336Y-81205400D02*
X131443464Y-81205400D01*
X130989336Y-82675400D02*
X131443464Y-82675400D01*
%TO.C,R4*%
X141111464Y-115390600D02*
X140657336Y-115390600D01*
X141111464Y-113920600D02*
X140657336Y-113920600D01*
%TO.C,R3*%
X141060664Y-104925800D02*
X140606536Y-104925800D01*
X141060664Y-103455800D02*
X140606536Y-103455800D01*
%TO.C,R2*%
X140698936Y-108565800D02*
X141153064Y-108565800D01*
X140698936Y-110035800D02*
X141153064Y-110035800D01*
%TO.C,R1*%
X131189464Y-98880600D02*
X130735336Y-98880600D01*
X131189464Y-97410600D02*
X130735336Y-97410600D01*
D14*
%TO.C,Q1*%
X148807600Y-87183600D02*
G75*
G03*
X148807600Y-87183600I-100000J0D01*
G01*
D13*
X151282600Y-85203600D02*
X151282600Y-86183600D01*
X151282600Y-83183600D02*
X151282600Y-84163600D01*
X148132600Y-85203600D02*
X148132600Y-86183600D01*
X148132600Y-83183600D02*
X148132600Y-84163600D01*
D12*
%TO.C,J8*%
X181702400Y-73827400D02*
X184362400Y-73827400D01*
X181702400Y-91667400D02*
X184362400Y-91667400D01*
X181702400Y-73827400D02*
X181702400Y-91667400D01*
X181702400Y-72557400D02*
X181702400Y-71227400D01*
X184362400Y-73827400D02*
X184362400Y-91667400D01*
X181702400Y-71227400D02*
X183032400Y-71227400D01*
%TO.C,J7*%
X151222400Y-100862200D02*
X153882400Y-100862200D01*
X151222400Y-95722200D02*
X151222400Y-100862200D01*
X151222400Y-94452200D02*
X151222400Y-93122200D01*
X153882400Y-95722200D02*
X153882400Y-100862200D01*
X151222400Y-93122200D02*
X152552400Y-93122200D01*
X151222400Y-95722200D02*
X153882400Y-95722200D01*
%TO.C,J6*%
X138979600Y-75530400D02*
X140309600Y-75530400D01*
X138979600Y-78130400D02*
X141639600Y-78130400D01*
X138979600Y-78190400D02*
X141639600Y-78190400D01*
X141639600Y-78130400D02*
X141639600Y-78190400D01*
X138979600Y-78130400D02*
X138979600Y-78190400D01*
X138979600Y-76860400D02*
X138979600Y-75530400D01*
%TO.C,J5*%
X169732000Y-82758200D02*
X169732000Y-84088200D01*
X169732000Y-78888200D02*
X167072000Y-78888200D01*
X169732000Y-81488200D02*
X169732000Y-78888200D01*
X169732000Y-81488200D02*
X167072000Y-81488200D01*
X169732000Y-84088200D02*
X168402000Y-84088200D01*
X167072000Y-81488200D02*
X167072000Y-78888200D01*
%TO.C,J4*%
X162148600Y-114868000D02*
X160818600Y-114868000D01*
X166018600Y-114868000D02*
X166018600Y-112208000D01*
X163418600Y-114868000D02*
X166018600Y-114868000D01*
X163418600Y-114868000D02*
X163418600Y-112208000D01*
X160818600Y-114868000D02*
X160818600Y-113538000D01*
X163418600Y-112208000D02*
X166018600Y-112208000D01*
%TO.C,J3*%
X179688800Y-103586200D02*
X179688800Y-104916200D01*
X179688800Y-99716200D02*
X177028800Y-99716200D01*
X179688800Y-102316200D02*
X179688800Y-99716200D01*
X179688800Y-102316200D02*
X177028800Y-102316200D01*
X179688800Y-104916200D02*
X178358800Y-104916200D01*
X177028800Y-102316200D02*
X177028800Y-99716200D01*
%TO.C,J2*%
X151273200Y-107995800D02*
X151273200Y-106665800D01*
X151273200Y-111865800D02*
X153933200Y-111865800D01*
X151273200Y-109265800D02*
X151273200Y-111865800D01*
X151273200Y-109265800D02*
X153933200Y-109265800D01*
X151273200Y-106665800D02*
X152603200Y-106665800D01*
X153933200Y-109265800D02*
X153933200Y-111865800D01*
%TO.C,J1*%
X161489600Y-71475600D02*
X161489600Y-73275600D01*
X161489600Y-69375600D02*
X161489600Y-68225600D01*
X152149600Y-69375600D02*
X152149600Y-68225600D01*
X152149600Y-71475600D02*
X152149600Y-73275600D01*
%TO.C,D4*%
X144742000Y-118895800D02*
X147202000Y-118895800D01*
X147202000Y-117425800D02*
X144742000Y-117425800D01*
X147202000Y-118895800D02*
X147202000Y-117425800D01*
%TO.C,D3*%
X122110400Y-91873400D02*
X119650400Y-91873400D01*
X119650400Y-93343400D02*
X122110400Y-93343400D01*
X119650400Y-91873400D02*
X119650400Y-93343400D01*
%TO.C,D2*%
X121946600Y-97563000D02*
X119486600Y-97563000D01*
X119486600Y-99033000D02*
X121946600Y-99033000D01*
X119486600Y-97563000D02*
X119486600Y-99033000D01*
%TO.C,D1*%
X135368400Y-120369200D02*
X133668400Y-120369200D01*
X133668400Y-120369200D02*
X133668400Y-122919200D01*
X135368400Y-120369200D02*
X135368400Y-122919200D01*
%TO.C,C4*%
X140484048Y-92229000D02*
X141006552Y-92229000D01*
X140484048Y-93699000D02*
X141006552Y-93699000D01*
%TO.C,C3*%
X131477652Y-77341400D02*
X130955148Y-77341400D01*
X131477652Y-75871400D02*
X130955148Y-75871400D01*
%TO.C,C2*%
X120845948Y-103201800D02*
X121368452Y-103201800D01*
X120845948Y-104671800D02*
X121368452Y-104671800D01*
%TO.C,C1*%
X120998348Y-108586600D02*
X121520852Y-108586600D01*
X120998348Y-110056600D02*
X121520852Y-110056600D01*
%TD*%
M02*
