M48
; DRILL file {KiCad (6.0.10)} date Wed Apr  5 20:35:29 2023
; FORMAT={-:-/ absolute / inch / decimal}
; #@! TF.CreationDate,2023-04-05T20:35:29-05:00
; #@! TF.GenerationSoftware,Kicad,Pcbnew,(6.0.10)
; #@! TF.FileFunction,Plated,1,2,PTH
FMAT,2
INCH
; #@! TA.AperFunction,Plated,PTH,ViaDrill
T1C0.0157
; #@! TA.AperFunction,Plated,PTH,ComponentDrill
T2C0.0236
; #@! TA.AperFunction,Plated,PTH,ComponentDrill
T3C0.0394
%
G90
G05
T1
X4.62Y-3.974
X4.62Y-4.096
X4.68Y-4.212
X4.724Y-3.922
X4.898Y-4.624
X4.924Y-4.198
X5.104Y-4.804
X5.308Y-3.864
X5.332Y-3.654
X5.346Y-4.56
X5.382Y-3.126
X5.486Y-3.5
X5.736Y-4.176
X5.802Y-3.4598
X5.922Y-3.508
X5.9702Y-3.584
X6.004Y-4.66
X6.022Y-3.446
X6.086Y-4.088
X6.1Y-3.722
X6.106Y-3.204
X6.106Y-3.614
X6.15Y-3.454
X6.1631Y-4.0959
X6.206Y-4.66
X6.2436Y-3.0313
X6.3049Y-4.2289
X6.3126Y-3.0614
X6.386Y-3.438
X6.476Y-4.288
X6.52Y-3.788
X6.56Y-4.288
X6.596Y-3.7
X6.6366Y-3.9353
X6.6765Y-3.9357
X6.724Y-3.862
X6.828Y-3.744
X6.83Y-3.962
X6.9412Y-4.2728
X6.9964Y-3.3604
X7.0614Y-3.2954
X7.094Y-3.418
X7.134Y-3.846
X7.3Y-3.56
X7.374Y-4.3
T3
X5.524Y-3.026
X6.006Y-3.7186
X6.006Y-3.8186
X6.006Y-3.9186
X6.008Y-4.2518
X6.008Y-4.3518
X6.3838Y-4.47
X6.4838Y-4.47
X6.63Y-3.1582
X6.63Y-3.2582
X7.022Y-3.9782
X7.022Y-4.0782
X7.206Y-2.8566
X7.206Y-2.9566
X7.206Y-3.0566
X7.206Y-3.1566
X7.206Y-3.2566
X7.206Y-3.3566
X7.206Y-3.4566
X7.206Y-3.5566
T2
G00X6.0039Y-2.7874
M15
G01X6.0039Y-2.7559
M16
G05
G00X6.0039Y-2.9579
M15
G01X6.0039Y-2.9146
M16
G05
G00X6.3441Y-2.7874
M15
G01X6.3441Y-2.7559
M16
G05
G00X6.3441Y-2.9579
M15
G01X6.3441Y-2.9146
M16
G05
T0
M30
