%TF.GenerationSoftware,KiCad,Pcbnew,(6.0.10)*%
%TF.CreationDate,2023-04-05T20:35:31-05:00*%
%TF.ProjectId,445_PD,3434355f-5044-42e6-9b69-6361645f7063,rev?*%
%TF.SameCoordinates,Original*%
%TF.FileFunction,Copper,L1,Top*%
%TF.FilePolarity,Positive*%
%FSLAX46Y46*%
G04 Gerber Fmt 4.6, Leading zero omitted, Abs format (unit mm)*
G04 Created by KiCad (PCBNEW (6.0.10)) date 2023-04-05 20:35:31*
%MOMM*%
%LPD*%
G01*
G04 APERTURE LIST*
G04 Aperture macros list*
%AMRoundRect*
0 Rectangle with rounded corners*
0 $1 Rounding radius*
0 $2 $3 $4 $5 $6 $7 $8 $9 X,Y pos of 4 corners*
0 Add a 4 corners polygon primitive as box body*
4,1,4,$2,$3,$4,$5,$6,$7,$8,$9,$2,$3,0*
0 Add four circle primitives for the rounded corners*
1,1,$1+$1,$2,$3*
1,1,$1+$1,$4,$5*
1,1,$1+$1,$6,$7*
1,1,$1+$1,$8,$9*
0 Add four rect primitives between the rounded corners*
20,1,$1+$1,$2,$3,$4,$5,0*
20,1,$1+$1,$4,$5,$6,$7,0*
20,1,$1+$1,$6,$7,$8,$9,0*
20,1,$1+$1,$8,$9,$2,$3,0*%
%AMFreePoly0*
4,1,29,-0.496464,1.758536,-0.495000,1.755000,-0.495000,1.230000,1.200000,1.230000,1.203536,1.228536,1.205000,1.225000,1.205000,-1.225000,1.203536,-1.228536,1.200000,-1.230000,-0.495000,-1.230000,-0.495000,-1.755000,-0.496464,-1.758536,-0.500000,-1.760000,-0.900000,-1.760000,-0.903536,-1.758536,-0.905000,-1.755000,-0.905000,-1.230000,-1.200000,-1.230000,-1.203536,-1.228536,-1.205000,-1.225000,
-1.205000,1.225000,-1.203536,1.228536,-1.200000,1.230000,-0.905000,1.230000,-0.905000,1.755000,-0.903536,1.758536,-0.900000,1.760000,-0.500000,1.760000,-0.496464,1.758536,-0.496464,1.758536,$1*%
G04 Aperture macros list end*
%TA.AperFunction,SMDPad,CuDef*%
%ADD10R,2.700000X2.700000*%
%TD*%
%TA.AperFunction,SMDPad,CuDef*%
%ADD11RoundRect,0.062500X-0.062500X-0.350000X0.062500X-0.350000X0.062500X0.350000X-0.062500X0.350000X0*%
%TD*%
%TA.AperFunction,SMDPad,CuDef*%
%ADD12RoundRect,0.062500X-0.350000X-0.062500X0.350000X-0.062500X0.350000X0.062500X-0.350000X0.062500X0*%
%TD*%
%TA.AperFunction,SMDPad,CuDef*%
%ADD13R,1.600000X1.400000*%
%TD*%
%TA.AperFunction,SMDPad,CuDef*%
%ADD14RoundRect,0.250000X0.350000X0.450000X-0.350000X0.450000X-0.350000X-0.450000X0.350000X-0.450000X0*%
%TD*%
%TA.AperFunction,SMDPad,CuDef*%
%ADD15RoundRect,0.250000X-0.350000X-0.450000X0.350000X-0.450000X0.350000X0.450000X-0.350000X0.450000X0*%
%TD*%
%TA.AperFunction,SMDPad,CuDef*%
%ADD16FreePoly0,90.000000*%
%TD*%
%TA.AperFunction,SMDPad,CuDef*%
%ADD17R,0.400000X0.750000*%
%TD*%
%TA.AperFunction,ComponentPad*%
%ADD18R,1.700000X1.700000*%
%TD*%
%TA.AperFunction,ComponentPad*%
%ADD19O,1.700000X1.700000*%
%TD*%
%TA.AperFunction,SMDPad,CuDef*%
%ADD20R,0.600000X1.150000*%
%TD*%
%TA.AperFunction,SMDPad,CuDef*%
%ADD21R,0.300000X1.150000*%
%TD*%
%TA.AperFunction,ComponentPad*%
%ADD22O,1.000000X1.800000*%
%TD*%
%TA.AperFunction,ComponentPad*%
%ADD23O,1.000000X2.100000*%
%TD*%
%TA.AperFunction,SMDPad,CuDef*%
%ADD24RoundRect,0.237500X0.287500X0.237500X-0.287500X0.237500X-0.287500X-0.237500X0.287500X-0.237500X0*%
%TD*%
%TA.AperFunction,SMDPad,CuDef*%
%ADD25RoundRect,0.237500X-0.287500X-0.237500X0.287500X-0.237500X0.287500X0.237500X-0.287500X0.237500X0*%
%TD*%
%TA.AperFunction,SMDPad,CuDef*%
%ADD26R,0.450000X0.600000*%
%TD*%
%TA.AperFunction,SMDPad,CuDef*%
%ADD27RoundRect,0.250000X-0.337500X-0.475000X0.337500X-0.475000X0.337500X0.475000X-0.337500X0.475000X0*%
%TD*%
%TA.AperFunction,SMDPad,CuDef*%
%ADD28RoundRect,0.250000X0.337500X0.475000X-0.337500X0.475000X-0.337500X-0.475000X0.337500X-0.475000X0*%
%TD*%
%TA.AperFunction,ViaPad*%
%ADD29C,0.800000*%
%TD*%
%TA.AperFunction,Conductor*%
%ADD30C,0.250000*%
%TD*%
%TA.AperFunction,Conductor*%
%ADD31C,1.250000*%
%TD*%
%TA.AperFunction,Conductor*%
%ADD32C,0.200000*%
%TD*%
%TA.AperFunction,Conductor*%
%ADD33C,1.000000*%
%TD*%
%TA.AperFunction,Conductor*%
%ADD34C,0.500000*%
%TD*%
G04 APERTURE END LIST*
D10*
%TO.P,U1,25,GND*%
%TO.N,GND*%
X165404800Y-100482400D03*
D11*
%TO.P,U1,24,VDD*%
%TO.N,Net-(C3-Pad1)*%
X164154800Y-98519900D03*
%TO.P,U1,23,VREG_2V7*%
%TO.N,Net-(C1-Pad1)*%
X164654800Y-98519900D03*
%TO.P,U1,22,VSYS*%
%TO.N,/VDD_USBC*%
X165154800Y-98519900D03*
%TO.P,U1,21,VREG_1V2*%
%TO.N,Net-(C2-Pad1)*%
X165654800Y-98519900D03*
%TO.P,U1,20,POWER_OK2*%
%TO.N,/POWER_OK2*%
X166154800Y-98519900D03*
%TO.P,U1,19,ALERT*%
%TO.N,/alert*%
X166654800Y-98519900D03*
D12*
%TO.P,U1,18,VBUS_VS_DISCH*%
%TO.N,Net-(R5-Pad1)*%
X167367300Y-99232400D03*
%TO.P,U1,17,A_B_SIDE*%
%TO.N,unconnected-(U1-Pad17)*%
X167367300Y-99732400D03*
%TO.P,U1,16,VBUS_EN_SNK*%
%TO.N,Net-(R10-Pad2)*%
X167367300Y-100232400D03*
%TO.P,U1,15,GPIO*%
%TO.N,/GPIO*%
X167367300Y-100732400D03*
%TO.P,U1,14,POWER_OK3*%
%TO.N,/POWER_OK3*%
X167367300Y-101232400D03*
%TO.P,U1,13,ADDR1*%
%TO.N,Net-(J3-Pad2)*%
X167367300Y-101732400D03*
D11*
%TO.P,U1,12,ADDR0*%
%TO.N,Net-(J3-Pad1)*%
X166654800Y-102444900D03*
%TO.P,U1,11,ATTACH*%
%TO.N,unconnected-(U1-Pad11)*%
X166154800Y-102444900D03*
%TO.P,U1,10,GND*%
%TO.N,GND*%
X165654800Y-102444900D03*
%TO.P,U1,9,DISCH*%
%TO.N,Net-(R13-Pad1)*%
X165154800Y-102444900D03*
%TO.P,U1,8,SDA*%
%TO.N,/USBC_SCL*%
X164654800Y-102444900D03*
%TO.P,U1,7,SCL*%
%TO.N,/USBC_SDA*%
X164154800Y-102444900D03*
D12*
%TO.P,U1,6,RESET*%
%TO.N,Net-(R6-Pad2)*%
X163442300Y-101732400D03*
%TO.P,U1,5,CC2DB*%
%TO.N,Net-(J1-PadB5)*%
X163442300Y-101232400D03*
%TO.P,U1,4,CC2*%
X163442300Y-100732400D03*
%TO.P,U1,3,NC*%
%TO.N,unconnected-(U1-Pad3)*%
X163442300Y-100232400D03*
%TO.P,U1,2,CC1*%
%TO.N,Net-(J1-PadA5)*%
X163442300Y-99732400D03*
%TO.P,U1,1,CC1DB*%
X163442300Y-99232400D03*
%TD*%
D13*
%TO.P,S2,3*%
%TO.N,/VDD_USBC*%
X127137100Y-123318400D03*
%TO.P,S2,1*%
%TO.N,Net-(R6-Pad2)*%
X127137100Y-120318400D03*
%TO.P,S2,2*%
X119937100Y-120318400D03*
%TO.P,S2,4*%
%TO.N,/VDD_USBC*%
X119937100Y-123318400D03*
%TD*%
D14*
%TO.P,R13,1,1*%
%TO.N,Net-(R13-Pad1)*%
X159546800Y-84937600D03*
%TO.P,R13,2,2*%
%TO.N,/VSNK_USBC*%
X157546800Y-84937600D03*
%TD*%
D15*
%TO.P,R12,1,1*%
%TO.N,Net-(Q1-Pad4)*%
X139568500Y-87105600D03*
%TO.P,R12,2,2*%
%TO.N,Net-(C4-Pad2)*%
X141568500Y-87105600D03*
%TD*%
D14*
%TO.P,R11,1,1*%
%TO.N,Net-(Q1-Pad4)*%
X132130800Y-86969600D03*
%TO.P,R11,2,2*%
%TO.N,Net-(C3-Pad1)*%
X130130800Y-86969600D03*
%TD*%
D15*
%TO.P,R10,1,1*%
%TO.N,Net-(Q1-Pad4)*%
X129962400Y-92608400D03*
%TO.P,R10,2,2*%
%TO.N,Net-(R10-Pad2)*%
X131962400Y-92608400D03*
%TD*%
%TO.P,R9,1,1*%
%TO.N,Net-(D4-Pad2)*%
X130080000Y-114452400D03*
%TO.P,R9,2,2*%
%TO.N,/VDD_USBC*%
X132080000Y-114452400D03*
%TD*%
%TO.P,R8,2,2*%
%TO.N,/VDD_USBC*%
X131978400Y-103733600D03*
%TO.P,R8,1,1*%
%TO.N,Net-(D3-Pad2)*%
X129978400Y-103733600D03*
%TD*%
%TO.P,R7,1,1*%
%TO.N,Net-(D2-Pad2)*%
X130064000Y-109118400D03*
%TO.P,R7,2,2*%
%TO.N,/VDD_USBC*%
X132064000Y-109118400D03*
%TD*%
D14*
%TO.P,R6,1,1*%
%TO.N,GND*%
X122208800Y-114909600D03*
%TO.P,R6,2,2*%
%TO.N,Net-(R6-Pad2)*%
X120208800Y-114909600D03*
%TD*%
D15*
%TO.P,R5,1,1*%
%TO.N,Net-(R5-Pad1)*%
X130216400Y-81940400D03*
%TO.P,R5,2,2*%
%TO.N,Net-(C3-Pad1)*%
X132216400Y-81940400D03*
%TD*%
D14*
%TO.P,R4,1,1*%
%TO.N,Net-(J2-Pad2)*%
X141884400Y-114655600D03*
%TO.P,R4,2,2*%
%TO.N,/VDD_USBC*%
X139884400Y-114655600D03*
%TD*%
%TO.P,R3,1,1*%
%TO.N,Net-(J2-Pad1)*%
X141833600Y-104190800D03*
%TO.P,R3,2,2*%
%TO.N,/VDD_USBC*%
X139833600Y-104190800D03*
%TD*%
D15*
%TO.P,R2,1,1*%
%TO.N,/VDD_USBC*%
X139926000Y-109300800D03*
%TO.P,R2,2,2*%
%TO.N,/USBC_SCL*%
X141926000Y-109300800D03*
%TD*%
D14*
%TO.P,R1,1,1*%
%TO.N,/VDD_USBC*%
X131962400Y-98145600D03*
%TO.P,R1,2,2*%
%TO.N,/USBC_SDA*%
X129962400Y-98145600D03*
%TD*%
D16*
%TO.P,Q1,5_8*%
%TO.N,/VSNK_USBC*%
X149707600Y-83983600D03*
D17*
%TO.P,Q1,4*%
%TO.N,Net-(Q1-Pad4)*%
X150682600Y-86208600D03*
%TO.P,Q1,1*%
%TO.N,Net-(C3-Pad1)*%
X148732600Y-86208600D03*
%TO.P,Q1,3*%
X150032600Y-86208600D03*
%TO.P,Q1,2*%
X149382600Y-86208600D03*
%TD*%
D18*
%TO.P,J8,1,Pin_1*%
%TO.N,/alert*%
X183032400Y-72557400D03*
D19*
%TO.P,J8,2,Pin_2*%
%TO.N,/VSNK_USBC*%
X183032400Y-75097400D03*
%TO.P,J8,3,Pin_3*%
%TO.N,/USBC_SDA*%
X183032400Y-77637400D03*
%TO.P,J8,4,Pin_4*%
%TO.N,/USBC_SCL*%
X183032400Y-80177400D03*
%TO.P,J8,5,Pin_5*%
%TO.N,/GPIO*%
X183032400Y-82717400D03*
%TO.P,J8,6,Pin_6*%
%TO.N,/POWER_OK2*%
X183032400Y-85257400D03*
%TO.P,J8,7,Pin_7*%
%TO.N,/POWER_OK3*%
X183032400Y-87797400D03*
%TO.P,J8,8,Pin_8*%
%TO.N,GND*%
X183032400Y-90337400D03*
%TD*%
D18*
%TO.P,J7,1,Pin_1*%
%TO.N,Net-(C3-Pad1)*%
X152552400Y-94452200D03*
D19*
%TO.P,J7,2,Pin_2*%
%TO.N,Net-(J1-PadA5)*%
X152552400Y-96992200D03*
%TO.P,J7,3,Pin_3*%
%TO.N,Net-(J1-PadB5)*%
X152552400Y-99532200D03*
%TD*%
D18*
%TO.P,J6,1,Pin_1*%
%TO.N,/VSNK_USBC*%
X140309600Y-76860400D03*
%TD*%
%TO.P,J5,1,Pin_1*%
%TO.N,/D+*%
X168402000Y-82758200D03*
D19*
%TO.P,J5,2,Pin_2*%
%TO.N,/D-*%
X168402000Y-80218200D03*
%TD*%
D18*
%TO.P,J4,1,Pin_1*%
%TO.N,GND*%
X162148600Y-113538000D03*
D19*
%TO.P,J4,2,Pin_2*%
X164688600Y-113538000D03*
%TD*%
D18*
%TO.P,J3,1,Pin_1*%
%TO.N,Net-(J3-Pad1)*%
X178358800Y-103586200D03*
D19*
%TO.P,J3,2,Pin_2*%
%TO.N,Net-(J3-Pad2)*%
X178358800Y-101046200D03*
%TD*%
D18*
%TO.P,J2,1,Pin_1*%
%TO.N,Net-(J2-Pad1)*%
X152603200Y-107995800D03*
D19*
%TO.P,J2,2,Pin_2*%
%TO.N,Net-(J2-Pad2)*%
X152603200Y-110535800D03*
%TD*%
D20*
%TO.P,J1,A1,GND*%
%TO.N,GND*%
X160019600Y-75155600D03*
%TO.P,J1,A4,VBUS*%
%TO.N,Net-(C3-Pad1)*%
X159219600Y-75155600D03*
D21*
%TO.P,J1,A5,CC1*%
%TO.N,Net-(J1-PadA5)*%
X158069600Y-75155600D03*
%TO.P,J1,A6,D+*%
%TO.N,/D+*%
X157069600Y-75155600D03*
%TO.P,J1,A7,D-*%
%TO.N,/D-*%
X156569600Y-75155600D03*
%TO.P,J1,A8,SBU1*%
%TO.N,unconnected-(J1-PadA8)*%
X155569600Y-75155600D03*
D20*
%TO.P,J1,A9,VBUS*%
%TO.N,Net-(C3-Pad1)*%
X154419600Y-75155600D03*
%TO.P,J1,A12,GND*%
%TO.N,GND*%
X153619600Y-75155600D03*
%TO.P,J1,B1,GND*%
X153619600Y-75155600D03*
%TO.P,J1,B4,VBUS*%
%TO.N,Net-(C3-Pad1)*%
X154419600Y-75155600D03*
D21*
%TO.P,J1,B5,CC2*%
%TO.N,Net-(J1-PadB5)*%
X155069600Y-75155600D03*
%TO.P,J1,B6,D+*%
%TO.N,/D+*%
X156069600Y-75155600D03*
%TO.P,J1,B7,D-*%
%TO.N,/D-*%
X157569600Y-75155600D03*
%TO.P,J1,B8,SBU2*%
%TO.N,unconnected-(J1-PadB8)*%
X158569600Y-75155600D03*
D20*
%TO.P,J1,B9,VBUS*%
%TO.N,Net-(C3-Pad1)*%
X159219600Y-75155600D03*
%TO.P,J1,B12,GND*%
%TO.N,GND*%
X160019600Y-75155600D03*
D22*
%TO.P,J1,S1,SHIELD*%
%TO.N,unconnected-(J1-PadS1)*%
X161139600Y-70400600D03*
D23*
X152499600Y-74580600D03*
D22*
X152499600Y-70400600D03*
D23*
X161139600Y-74580600D03*
%TD*%
D24*
%TO.P,D4,1,K*%
%TO.N,/GPIO*%
X146417000Y-118160800D03*
%TO.P,D4,2,A*%
%TO.N,Net-(D4-Pad2)*%
X144667000Y-118160800D03*
%TD*%
D25*
%TO.P,D3,1,K*%
%TO.N,/POWER_OK3*%
X120435400Y-92608400D03*
%TO.P,D3,2,A*%
%TO.N,Net-(D3-Pad2)*%
X122185400Y-92608400D03*
%TD*%
%TO.P,D2,1,K*%
%TO.N,/POWER_OK2*%
X120271600Y-98298000D03*
%TO.P,D2,2,A*%
%TO.N,Net-(D2-Pad2)*%
X122021600Y-98298000D03*
%TD*%
D26*
%TO.P,D1,1,K*%
%TO.N,/VDD_USBC*%
X134518400Y-120819200D03*
%TO.P,D1,2,A*%
%TO.N,Net-(C1-Pad1)*%
X134518400Y-122919200D03*
%TD*%
D27*
%TO.P,C4,1*%
%TO.N,/VSNK_USBC*%
X139707800Y-92964000D03*
%TO.P,C4,2*%
%TO.N,Net-(C4-Pad2)*%
X141782800Y-92964000D03*
%TD*%
D28*
%TO.P,C3,1*%
%TO.N,Net-(C3-Pad1)*%
X132253900Y-76606400D03*
%TO.P,C3,2*%
%TO.N,GND*%
X130178900Y-76606400D03*
%TD*%
D27*
%TO.P,C2,1*%
%TO.N,Net-(C2-Pad1)*%
X120069700Y-103936800D03*
%TO.P,C2,2*%
%TO.N,GND*%
X122144700Y-103936800D03*
%TD*%
%TO.P,C1,1*%
%TO.N,Net-(C1-Pad1)*%
X120222100Y-109321600D03*
%TO.P,C1,2*%
%TO.N,GND*%
X122297100Y-109321600D03*
%TD*%
D29*
%TO.N,Net-(R13-Pad1)*%
X164490400Y-108915200D03*
X162204400Y-87325200D03*
%TO.N,/POWER_OK2*%
X187299600Y-109220000D03*
X185420000Y-90424000D03*
X119989600Y-99618800D03*
X117348000Y-104038400D03*
X180187600Y-86817200D03*
X177708950Y-85354550D03*
%TO.N,Net-(J1-PadA5)*%
X158587833Y-76995999D03*
X147370800Y-87878700D03*
%TO.N,/POWER_OK3*%
X179359950Y-83703550D03*
%TO.N,/GPIO*%
X157632400Y-118364000D03*
X152501600Y-118364000D03*
%TO.N,Net-(C3-Pad1)*%
X160338922Y-77760678D03*
X156210000Y-87731600D03*
%TO.N,Net-(Q1-Pad4)*%
X139344400Y-88900000D03*
X152958800Y-87528400D03*
%TO.N,Net-(J1-PadB5)*%
X155092400Y-81381600D03*
X154940000Y-94538800D03*
X155092400Y-91795600D03*
%TO.N,/VDD_USBC*%
X166624000Y-108915200D03*
X176305699Y-108529901D03*
X173431200Y-95097600D03*
X167538400Y-93980000D03*
%TO.N,GND*%
X125069600Y-106629200D03*
%TO.N,Net-(C1-Pad1)*%
X118872000Y-106984800D03*
X151643300Y-91033600D03*
%TO.N,Net-(R6-Pad2)*%
X124409200Y-117449600D03*
X145694400Y-106070400D03*
%TO.N,/USBC_SDA*%
X156542453Y-104036700D03*
%TO.N,Net-(C2-Pad1)*%
X165608000Y-96215200D03*
X117348000Y-100939600D03*
%TO.N,/VDD_USBC*%
X135788400Y-115824000D03*
X129641600Y-122021600D03*
%TO.N,/POWER_OK3*%
X173482000Y-100634800D03*
%TO.N,/GPIO*%
X169583750Y-99966209D03*
X170789600Y-98094800D03*
%TO.N,/USBC_SCL*%
X160145304Y-107414904D03*
%TO.N,/USBC_SDA*%
X134823200Y-98145600D03*
%TO.N,Net-(R10-Pad2)*%
X135432800Y-92811600D03*
X168568460Y-99956900D03*
%TO.N,Net-(R5-Pad1)*%
X181203600Y-97688400D03*
X154584400Y-103835200D03*
%TO.N,Net-(C3-Pad1)*%
X150418800Y-89103200D03*
X136702800Y-79400400D03*
%TD*%
D30*
%TO.N,Net-(R13-Pad1)*%
X165150800Y-102972400D02*
X165150800Y-108254800D01*
X165154800Y-102968400D02*
X165150800Y-102972400D01*
X165150800Y-108254800D02*
X164490400Y-108915200D01*
X165154800Y-102444900D02*
X165154800Y-102968400D01*
D31*
X159816800Y-84937600D02*
X162204400Y-87325200D01*
X159546800Y-84937600D02*
X159816800Y-84937600D01*
D30*
%TO.N,/VDD_USBC*%
X181928600Y-105599400D02*
X179070000Y-108458000D01*
X179070000Y-108458000D02*
X178998099Y-108529901D01*
X179638105Y-95097600D02*
X181928600Y-97388095D01*
X173431200Y-95097600D02*
X179638105Y-95097600D01*
X181928600Y-97388095D02*
X181928600Y-105599400D01*
X178998099Y-108529901D02*
X176305699Y-108529901D01*
%TO.N,/POWER_OK2*%
X185369200Y-88087200D02*
X185369200Y-90373200D01*
X185369200Y-87594200D02*
X185369200Y-88087200D01*
X183032400Y-85257400D02*
X185369200Y-87594200D01*
X185369200Y-90373200D02*
X185420000Y-90424000D01*
X173888400Y-122631200D02*
X187299600Y-109220000D01*
X172770800Y-122631200D02*
X173888400Y-122631200D01*
X133858000Y-127965200D02*
X139192000Y-122631200D01*
X133604000Y-128219200D02*
X133858000Y-127965200D01*
X117805200Y-128219200D02*
X133604000Y-128219200D01*
X114757200Y-125171200D02*
X117805200Y-128219200D01*
X114757200Y-124510800D02*
X114757200Y-125171200D01*
X114757200Y-112471200D02*
X114757200Y-124510800D01*
X115366800Y-111861600D02*
X114757200Y-112471200D01*
X117348000Y-104038400D02*
X117348000Y-109880400D01*
X139192000Y-122631200D02*
X172770800Y-122631200D01*
X120271600Y-99336800D02*
X119989600Y-99618800D01*
X120271600Y-98298000D02*
X120271600Y-99336800D01*
X117348000Y-109880400D02*
X115366800Y-111861600D01*
X180187600Y-86817200D02*
X181472600Y-86817200D01*
X181472600Y-86817200D02*
X183032400Y-85257400D01*
X171653200Y-91490800D02*
X177708950Y-85435050D01*
X177708950Y-85435050D02*
X177708950Y-85354550D01*
X166154800Y-96989200D02*
X171653200Y-91490800D01*
X166154800Y-98519900D02*
X166154800Y-96989200D01*
%TO.N,/VDD_USBC*%
X165154800Y-97590800D02*
X165154800Y-98519900D01*
X164642800Y-96155095D02*
X164642800Y-97078800D01*
X167538400Y-93980000D02*
X166817895Y-93980000D01*
X166817895Y-93980000D02*
X164642800Y-96155095D01*
X164642800Y-97078800D02*
X165154800Y-97590800D01*
%TO.N,Net-(J1-PadA5)*%
X158069600Y-76477766D02*
X158587833Y-76995999D01*
X158069600Y-75155600D02*
X158069600Y-76477766D01*
D32*
%TO.N,/D-*%
X157569600Y-78038418D02*
X157569600Y-75980600D01*
X159749382Y-80218200D02*
X157569600Y-78038418D01*
X168402000Y-80218200D02*
X159749382Y-80218200D01*
%TO.N,/D+*%
X161266349Y-82758200D02*
X168402000Y-82758200D01*
X156069600Y-77561451D02*
X161266349Y-82758200D01*
X156069600Y-75155600D02*
X156069600Y-77561451D01*
D30*
%TO.N,Net-(J1-PadA5)*%
X147370800Y-93218000D02*
X147370800Y-87878700D01*
X148691600Y-94538800D02*
X147370800Y-93218000D01*
X151145000Y-96992200D02*
X148691600Y-94538800D01*
X152552400Y-96992200D02*
X151145000Y-96992200D01*
%TO.N,/POWER_OK3*%
X180543200Y-82520300D02*
X179359950Y-83703550D01*
X180543200Y-82397600D02*
X180543200Y-82520300D01*
X182465200Y-79002400D02*
X180543200Y-80924400D01*
X183519101Y-79002400D02*
X182465200Y-79002400D01*
X185064400Y-77457101D02*
X183519101Y-79002400D01*
X185064400Y-75467699D02*
X185064400Y-77457101D01*
X183519101Y-73922400D02*
X185064400Y-75467699D01*
X182545699Y-73922400D02*
X183519101Y-73922400D01*
X172218672Y-84249427D02*
X182545699Y-73922400D01*
X160471800Y-84249427D02*
X172218672Y-84249427D01*
X180543200Y-80924400D02*
X180543200Y-82397600D01*
X131303900Y-75930727D02*
X131678227Y-75556400D01*
X142623902Y-75556400D02*
X149521102Y-82453600D01*
X131303900Y-79239727D02*
X131303900Y-75930727D01*
X131678227Y-75556400D02*
X142623902Y-75556400D01*
X149521102Y-82453600D02*
X158675973Y-82453600D01*
X120435400Y-90108227D02*
X131303900Y-79239727D01*
X158675973Y-82453600D02*
X160471800Y-84249427D01*
X120435400Y-92608400D02*
X120435400Y-90108227D01*
%TO.N,/GPIO*%
X186182000Y-85867000D02*
X183032400Y-82717400D01*
X186182000Y-107848400D02*
X186182000Y-85867000D01*
X175666400Y-118364000D02*
X186182000Y-107848400D01*
X157632400Y-118364000D02*
X175666400Y-118364000D01*
X152298400Y-118160800D02*
X152501600Y-118364000D01*
X146417000Y-118160800D02*
X152298400Y-118160800D01*
%TO.N,Net-(C3-Pad1)*%
X159219600Y-76641356D02*
X160338922Y-77760678D01*
X159219600Y-75155600D02*
X159219600Y-76641356D01*
D31*
X154838400Y-89103200D02*
X156210000Y-87731600D01*
X150418800Y-89103200D02*
X154838400Y-89103200D01*
D30*
X148732600Y-86208600D02*
X149382600Y-86208600D01*
X150032600Y-86208600D02*
X149382600Y-86208600D01*
%TO.N,Net-(Q1-Pad4)*%
X139344400Y-87329700D02*
X139568500Y-87105600D01*
X139344400Y-88900000D02*
X139344400Y-87329700D01*
X151639000Y-86208600D02*
X152958800Y-87528400D01*
X150682600Y-86208600D02*
X151639000Y-86208600D01*
%TO.N,Net-(J1-PadB5)*%
X155092400Y-94386400D02*
X154940000Y-94538800D01*
X155092400Y-91795600D02*
X155092400Y-94386400D01*
X155069600Y-81358800D02*
X155092400Y-81381600D01*
X155069600Y-75155600D02*
X155069600Y-81358800D01*
%TO.N,/USBC_SCL*%
X160145304Y-107414904D02*
X158259408Y-109300800D01*
D31*
%TO.N,/VDD_USBC*%
X164795200Y-110744000D02*
X166624000Y-108915200D01*
X157022800Y-112776000D02*
X159054800Y-110744000D01*
X152400000Y-120853200D02*
X157022800Y-116230400D01*
X157022800Y-116230400D02*
X157022800Y-112776000D01*
X145786202Y-120819200D02*
X145820202Y-120853200D01*
X145820202Y-120853200D02*
X152400000Y-120853200D01*
X134518400Y-120819200D02*
X145786202Y-120819200D01*
X159054800Y-110744000D02*
X164795200Y-110744000D01*
D30*
%TO.N,/alert*%
X185521600Y-79349901D02*
X185521600Y-75046600D01*
X182735699Y-81352400D02*
X183519101Y-81352400D01*
X183519101Y-81352400D02*
X185521600Y-79349901D01*
X166654800Y-97433299D02*
X182735699Y-81352400D01*
X185521600Y-75046600D02*
X183032400Y-72557400D01*
X166654800Y-98519900D02*
X166654800Y-97433299D01*
D31*
%TO.N,/VSNK_USBC*%
X169229800Y-88900000D02*
X183032400Y-75097400D01*
X157546800Y-85257880D02*
X161188920Y-88900000D01*
X161188920Y-88900000D02*
X169229800Y-88900000D01*
X157546800Y-84937600D02*
X157546800Y-85257880D01*
%TO.N,GND*%
X124989500Y-106629200D02*
X122297100Y-109321600D01*
X125069600Y-106629200D02*
X124989500Y-106629200D01*
D30*
X167081200Y-105156000D02*
X171907200Y-105156000D01*
X171907200Y-105156000D02*
X176784000Y-110032800D01*
X176784000Y-110032800D02*
X176784000Y-113538000D01*
X165658800Y-103733600D02*
X167081200Y-105156000D01*
X165658800Y-102448900D02*
X165658800Y-103733600D01*
X165654800Y-102444900D02*
X165658800Y-102448900D01*
D33*
X132842000Y-71577200D02*
X151434800Y-71577200D01*
X130403600Y-74015600D02*
X132842000Y-71577200D01*
X130403600Y-76381700D02*
X130403600Y-74015600D01*
X130178900Y-76606400D02*
X130403600Y-76381700D01*
D30*
%TO.N,Net-(C1-Pad1)*%
X120222100Y-108334900D02*
X120222100Y-109321600D01*
X118872000Y-106984800D02*
X120222100Y-108334900D01*
X157632400Y-91033600D02*
X151643300Y-91033600D01*
X164654800Y-98056000D02*
X157632400Y-91033600D01*
X164654800Y-98519900D02*
X164654800Y-98056000D01*
%TO.N,Net-(R6-Pad2)*%
X124409200Y-117449600D02*
X121540400Y-120318400D01*
X121540400Y-120318400D02*
X119937100Y-120318400D01*
X146151600Y-105613200D02*
X145694400Y-106070400D01*
X154178000Y-105613200D02*
X146507200Y-105613200D01*
X146507200Y-105613200D02*
X146151600Y-105613200D01*
X155549600Y-104241600D02*
X154178000Y-105613200D01*
X155549600Y-103987600D02*
X155549600Y-104241600D01*
X157804800Y-101732400D02*
X155549600Y-103987600D01*
X163442300Y-101732400D02*
X157804800Y-101732400D01*
%TO.N,/USBC_SDA*%
X162662900Y-103936800D02*
X164154800Y-102444900D01*
X156642353Y-103936800D02*
X162662900Y-103936800D01*
X156542453Y-104036700D02*
X156642353Y-103936800D01*
%TO.N,Net-(C2-Pad1)*%
X165654800Y-98519900D02*
X165654800Y-96262000D01*
X165654800Y-96262000D02*
X165608000Y-96215200D01*
D34*
X120069700Y-103661300D02*
X117348000Y-100939600D01*
X120069700Y-103936800D02*
X120069700Y-103661300D01*
%TO.N,Net-(C1-Pad1)*%
X116027200Y-113516500D02*
X120222100Y-109321600D01*
X130606800Y-126796800D02*
X118364000Y-126796800D01*
X134484400Y-122919200D02*
X130606800Y-126796800D01*
X134518400Y-122919200D02*
X134484400Y-122919200D01*
X118364000Y-126796800D02*
X116027200Y-124460000D01*
X116027200Y-124460000D02*
X116027200Y-113516500D01*
D31*
%TO.N,/VDD_USBC*%
X130844000Y-120819200D02*
X129641600Y-122021600D01*
X134518400Y-120819200D02*
X130844000Y-120819200D01*
X135788400Y-115824000D02*
X135788400Y-112842800D01*
X135788400Y-112842800D02*
X132064000Y-109118400D01*
X128344800Y-123318400D02*
X129641600Y-122021600D01*
X127137100Y-123318400D02*
X128344800Y-123318400D01*
X119937100Y-123318400D02*
X127137100Y-123318400D01*
%TO.N,Net-(R6-Pad2)*%
X127137100Y-120318400D02*
X119937100Y-120318400D01*
X119937100Y-115181300D02*
X120208800Y-114909600D01*
X119937100Y-120318400D02*
X119937100Y-115181300D01*
%TO.N,Net-(J2-Pad2)*%
X141884400Y-114655600D02*
X148483400Y-114655600D01*
X148483400Y-114655600D02*
X152603200Y-110535800D01*
%TO.N,GND*%
X176784000Y-113538000D02*
X164688600Y-113538000D01*
X183032400Y-107289600D02*
X176784000Y-113538000D01*
X183032400Y-90337400D02*
X183032400Y-107289600D01*
D30*
%TO.N,/POWER_OK3*%
X172884400Y-101232400D02*
X173482000Y-100634800D01*
X167367300Y-101232400D02*
X172884400Y-101232400D01*
%TO.N,/GPIO*%
X168818265Y-100732400D02*
X167367300Y-100732400D01*
X169293460Y-100257205D02*
X168818265Y-100732400D01*
X169583750Y-99966209D02*
X169293460Y-100256499D01*
X169293460Y-100256499D02*
X169293460Y-100257205D01*
%TO.N,Net-(R10-Pad2)*%
X168292960Y-100232400D02*
X167367300Y-100232400D01*
X168568460Y-99956900D02*
X168292960Y-100232400D01*
%TO.N,/GPIO*%
X170789600Y-94960200D02*
X170789600Y-98094800D01*
X183032400Y-82717400D02*
X170789600Y-94960200D01*
%TO.N,/USBC_SDA*%
X133553200Y-96875600D02*
X134823200Y-98145600D01*
X131232400Y-96875600D02*
X133553200Y-96875600D01*
X129962400Y-98145600D02*
X131232400Y-96875600D01*
%TO.N,Net-(R10-Pad2)*%
X132165600Y-92811600D02*
X131962400Y-92608400D01*
X135432800Y-92811600D02*
X132165600Y-92811600D01*
%TO.N,Net-(R5-Pad1)*%
X179659600Y-99232400D02*
X181203600Y-97688400D01*
X167367300Y-99232400D02*
X179659600Y-99232400D01*
D31*
X147574000Y-103835200D02*
X154584400Y-103835200D01*
X146304000Y-102565200D02*
X147574000Y-103835200D01*
X146304000Y-102412800D02*
X146304000Y-102565200D01*
X143916400Y-100025200D02*
X146304000Y-102412800D01*
X139141200Y-100025200D02*
X143916400Y-100025200D01*
X138176000Y-99060000D02*
X139141200Y-100025200D01*
X131318000Y-95250000D02*
X134366000Y-95250000D01*
X127304800Y-93065600D02*
X129489200Y-95250000D01*
X125933200Y-91694000D02*
X127304800Y-93065600D01*
X125933200Y-86309200D02*
X125933200Y-91694000D01*
X130216400Y-82026000D02*
X125933200Y-86309200D01*
X134366000Y-95250000D02*
X138176000Y-99060000D01*
X129489200Y-95250000D02*
X131318000Y-95250000D01*
X130216400Y-81940400D02*
X130216400Y-82026000D01*
D33*
%TO.N,GND*%
X129133600Y-76606400D02*
X130178900Y-76606400D01*
X117348000Y-99059097D02*
X117348000Y-88392000D01*
X117348000Y-88392000D02*
X129133600Y-76606400D01*
X122144700Y-103855797D02*
X117348000Y-99059097D01*
X122144700Y-103936800D02*
X122144700Y-103855797D01*
D31*
%TO.N,Net-(C3-Pad1)*%
X149382600Y-88067000D02*
X150418800Y-89103200D01*
X149382600Y-86208600D02*
X149382600Y-88067000D01*
X133908800Y-76606400D02*
X136702800Y-79400400D01*
X150418800Y-89103200D02*
X150418800Y-92318600D01*
X132253900Y-76606400D02*
X133908800Y-76606400D01*
X150418800Y-92318600D02*
X152552400Y-94452200D01*
X132253900Y-81902900D02*
X132216400Y-81940400D01*
X132253900Y-76606400D02*
X132253900Y-81902900D01*
D30*
X153685000Y-94452200D02*
X152552400Y-94452200D01*
X164154800Y-98519900D02*
X157752700Y-98519900D01*
X157752700Y-98519900D02*
X153685000Y-94452200D01*
%TO.N,Net-(J1-PadA5)*%
X161344800Y-99232400D02*
X160844800Y-99732400D01*
X163442300Y-99732400D02*
X160844800Y-99732400D01*
X160844800Y-99732400D02*
X155292600Y-99732400D01*
X163442300Y-99232400D02*
X161344800Y-99232400D01*
X155292600Y-99732400D02*
X152552400Y-96992200D01*
%TO.N,Net-(J1-PadB5)*%
X161243200Y-100732400D02*
X160743200Y-101232400D01*
X163442300Y-100732400D02*
X161243200Y-100732400D01*
X160743200Y-101232400D02*
X154252600Y-101232400D01*
X163442300Y-101232400D02*
X160743200Y-101232400D01*
X154252600Y-101232400D02*
X152552400Y-99532200D01*
%TO.N,Net-(J2-Pad1)*%
X152603200Y-107995800D02*
X145638600Y-107995800D01*
X145638600Y-107995800D02*
X141833600Y-104190800D01*
%TO.N,/USBC_SCL*%
X164654800Y-102905408D02*
X158259408Y-109300800D01*
X158259408Y-109300800D02*
X141926000Y-109300800D01*
X164654800Y-102444900D02*
X164654800Y-102905408D01*
%TO.N,GND*%
X165654800Y-100732400D02*
X165404800Y-100482400D01*
X165654800Y-102444900D02*
X165654800Y-100732400D01*
%TO.N,Net-(J3-Pad2)*%
X177672600Y-101732400D02*
X178358800Y-101046200D01*
X167367300Y-101732400D02*
X177672600Y-101732400D01*
%TO.N,Net-(J3-Pad1)*%
X178358800Y-103586200D02*
X167796100Y-103586200D01*
X167796100Y-103586200D02*
X166654800Y-102444900D01*
D31*
%TO.N,/VSNK_USBC*%
X142584400Y-76860400D02*
X149707600Y-83983600D01*
X140309600Y-76860400D02*
X142584400Y-76860400D01*
X150661600Y-84937600D02*
X149707600Y-83983600D01*
X157546800Y-84937600D02*
X150661600Y-84937600D01*
X145186400Y-96469200D02*
X145186400Y-87274400D01*
X148477200Y-83983600D02*
X149707600Y-83983600D01*
X143764000Y-97891600D02*
X145186400Y-96469200D01*
X141325600Y-97891600D02*
X143764000Y-97891600D01*
X139707800Y-96273800D02*
X141325600Y-97891600D01*
X139707800Y-92964000D02*
X139707800Y-96273800D01*
X145186400Y-87274400D02*
X148477200Y-83983600D01*
D33*
%TO.N,Net-(D4-Pad2)*%
X131419600Y-118160800D02*
X144667000Y-118160800D01*
X130098800Y-114471200D02*
X130098800Y-116840000D01*
X130080000Y-114452400D02*
X130098800Y-114471200D01*
X130098800Y-116840000D02*
X131419600Y-118160800D01*
%TO.N,Net-(D2-Pad2)*%
X130064000Y-106340400D02*
X122021600Y-98298000D01*
X130064000Y-109118400D02*
X130064000Y-106340400D01*
%TO.N,Net-(D3-Pad2)*%
X129978400Y-100401400D02*
X122185400Y-92608400D01*
X129978400Y-103733600D02*
X129978400Y-100401400D01*
%TO.N,Net-(Q1-Pad4)*%
X129962400Y-90408000D02*
X129962400Y-92608400D01*
X132130800Y-88239600D02*
X129962400Y-90408000D01*
X132130800Y-86969600D02*
X132130800Y-88239600D01*
X139432500Y-86969600D02*
X139568500Y-87105600D01*
X132130800Y-86969600D02*
X139432500Y-86969600D01*
%TO.N,Net-(C3-Pad1)*%
X130130800Y-86826097D02*
X130130800Y-86969600D01*
X132216400Y-84740497D02*
X130130800Y-86826097D01*
X132216400Y-81940400D02*
X132216400Y-84740497D01*
%TO.N,Net-(C4-Pad2)*%
X141782800Y-87319900D02*
X141568500Y-87105600D01*
X141782800Y-92964000D02*
X141782800Y-87319900D01*
%TO.N,/VDD_USBC*%
X131978400Y-98161600D02*
X131962400Y-98145600D01*
X131978400Y-103733600D02*
X131978400Y-98161600D01*
X139833600Y-104253200D02*
X137356000Y-106730800D01*
X139833600Y-104190800D02*
X139833600Y-104253200D01*
X139926000Y-114614000D02*
X139884400Y-114655600D01*
X139926000Y-109300800D02*
X139926000Y-114614000D01*
X137356000Y-106730800D02*
X139926000Y-109300800D01*
X131978400Y-106730800D02*
X137356000Y-106730800D01*
X131978400Y-106730800D02*
X131978400Y-109032800D01*
X131978400Y-103733600D02*
X131978400Y-106730800D01*
X131978400Y-109032800D02*
X132064000Y-109118400D01*
X132064000Y-109118400D02*
X132064000Y-114436400D01*
X132064000Y-114436400D02*
X132080000Y-114452400D01*
%TO.N,GND*%
X122297100Y-114821300D02*
X122208800Y-114909600D01*
X122297100Y-109321600D02*
X122297100Y-114821300D01*
X122297100Y-109321600D02*
X122297100Y-104089200D01*
X122297100Y-104089200D02*
X122144700Y-103936800D01*
D30*
%TO.N,Net-(C3-Pad1)*%
X155144551Y-73855600D02*
X158494649Y-73855600D01*
X154594600Y-74405551D02*
X155144551Y-73855600D01*
X159219600Y-74580551D02*
X159219600Y-75155600D01*
X154594600Y-74980600D02*
X154594600Y-74405551D01*
X158494649Y-73855600D02*
X159219600Y-74580551D01*
X154419600Y-75155600D02*
X154594600Y-74980600D01*
%TO.N,GND*%
X160782000Y-76200000D02*
X160019600Y-75437600D01*
X161645600Y-76200000D02*
X160782000Y-76200000D01*
X162255200Y-75590400D02*
X161645600Y-76200000D01*
X162255200Y-68834000D02*
X162255200Y-75590400D01*
X151841200Y-68783200D02*
X162204400Y-68783200D01*
X151674600Y-68949800D02*
X151841200Y-68783200D01*
X151674600Y-75474600D02*
X151674600Y-68949800D01*
X160019600Y-75437600D02*
X160019600Y-75155600D01*
X162204400Y-68783200D02*
X162255200Y-68834000D01*
X152647726Y-76149200D02*
X152349200Y-76149200D01*
X152349200Y-76149200D02*
X151674600Y-75474600D01*
X153619600Y-75177326D02*
X152647726Y-76149200D01*
X153619600Y-75155600D02*
X153619600Y-75177326D01*
%TO.N,unconnected-(J1-PadS1)*%
X156379600Y-70400600D02*
X158910600Y-70400600D01*
X152499600Y-74580600D02*
X152499600Y-74280600D01*
X158910600Y-70400600D02*
X161139600Y-70400600D01*
X152499600Y-74280600D02*
X156379600Y-70400600D01*
X152499600Y-70400600D02*
X158910600Y-70400600D01*
X152499600Y-70400600D02*
X152499600Y-74580600D01*
X161139600Y-74580600D02*
X161139600Y-70400600D01*
D32*
%TO.N,/D+*%
X156069600Y-74330600D02*
X156069600Y-75155600D01*
X157019600Y-74280600D02*
X156119600Y-74280600D01*
X157069600Y-74330600D02*
X157019600Y-74280600D01*
X156119600Y-74280600D02*
X156069600Y-74330600D01*
X157069600Y-75155600D02*
X157069600Y-74330600D01*
%TO.N,/D-*%
X156569600Y-75980600D02*
X156569600Y-75155600D01*
X156619600Y-76030600D02*
X156569600Y-75980600D01*
X157519600Y-76030600D02*
X156619600Y-76030600D01*
X157569600Y-75155600D02*
X157569600Y-75980600D01*
X157569600Y-75980600D02*
X157519600Y-76030600D01*
%TD*%
%TA.AperFunction,Conductor*%
%TO.N,GND*%
G36*
X198620421Y-68194102D02*
G01*
X198666914Y-68247758D01*
X198678300Y-68300100D01*
X198678300Y-128549900D01*
X198658298Y-128618021D01*
X198604642Y-128664514D01*
X198552300Y-128675900D01*
X134347394Y-128675900D01*
X134279273Y-128655898D01*
X134232780Y-128602242D01*
X134222676Y-128531968D01*
X134252170Y-128467388D01*
X134258299Y-128460805D01*
X139417499Y-123301605D01*
X139479811Y-123267579D01*
X139506594Y-123264700D01*
X173809633Y-123264700D01*
X173820816Y-123265227D01*
X173828309Y-123266902D01*
X173836235Y-123266653D01*
X173836236Y-123266653D01*
X173896386Y-123264762D01*
X173900345Y-123264700D01*
X173928256Y-123264700D01*
X173932191Y-123264203D01*
X173932256Y-123264195D01*
X173944093Y-123263262D01*
X173976351Y-123262248D01*
X173980370Y-123262122D01*
X173988289Y-123261873D01*
X174007743Y-123256221D01*
X174027100Y-123252213D01*
X174039330Y-123250668D01*
X174039331Y-123250668D01*
X174047197Y-123249674D01*
X174054568Y-123246755D01*
X174054570Y-123246755D01*
X174088312Y-123233396D01*
X174099542Y-123229551D01*
X174134383Y-123219429D01*
X174134384Y-123219429D01*
X174141993Y-123217218D01*
X174148812Y-123213185D01*
X174148817Y-123213183D01*
X174159428Y-123206907D01*
X174177176Y-123198212D01*
X174196017Y-123190752D01*
X174231787Y-123164764D01*
X174241707Y-123158248D01*
X174272935Y-123139780D01*
X174272938Y-123139778D01*
X174279762Y-123135742D01*
X174294083Y-123121421D01*
X174309117Y-123108580D01*
X174319094Y-123101331D01*
X174325507Y-123096672D01*
X174353698Y-123062595D01*
X174361688Y-123053816D01*
X187250100Y-110165405D01*
X187312412Y-110131379D01*
X187339195Y-110128500D01*
X187395087Y-110128500D01*
X187401539Y-110127128D01*
X187401544Y-110127128D01*
X187488487Y-110108647D01*
X187581888Y-110088794D01*
X187608077Y-110077134D01*
X187750322Y-110013803D01*
X187750324Y-110013802D01*
X187756352Y-110011118D01*
X187910853Y-109898866D01*
X187915275Y-109893955D01*
X188034221Y-109761852D01*
X188034222Y-109761851D01*
X188038640Y-109756944D01*
X188120283Y-109615534D01*
X188130823Y-109597279D01*
X188130824Y-109597278D01*
X188134127Y-109591556D01*
X188193142Y-109409928D01*
X188194179Y-109400067D01*
X188212414Y-109226565D01*
X188213104Y-109220000D01*
X188206264Y-109154923D01*
X188193832Y-109036635D01*
X188193832Y-109036633D01*
X188193142Y-109030072D01*
X188134127Y-108848444D01*
X188102118Y-108793002D01*
X188067624Y-108733258D01*
X188038640Y-108683056D01*
X188023855Y-108666635D01*
X187915275Y-108546045D01*
X187915274Y-108546044D01*
X187910853Y-108541134D01*
X187756352Y-108428882D01*
X187750324Y-108426198D01*
X187750322Y-108426197D01*
X187587919Y-108353891D01*
X187587918Y-108353891D01*
X187581888Y-108351206D01*
X187477639Y-108329047D01*
X187401544Y-108312872D01*
X187401539Y-108312872D01*
X187395087Y-108311500D01*
X187204113Y-108311500D01*
X187197661Y-108312872D01*
X187197656Y-108312872D01*
X187121561Y-108329047D01*
X187017312Y-108351206D01*
X187011282Y-108353891D01*
X187011281Y-108353891D01*
X186939105Y-108386026D01*
X186842848Y-108428882D01*
X186842179Y-108429368D01*
X186775266Y-108445600D01*
X186708174Y-108422379D01*
X186664287Y-108366572D01*
X186657539Y-108295897D01*
X186689413Y-108233489D01*
X186693159Y-108229500D01*
X186698586Y-108223721D01*
X186708346Y-108205968D01*
X186719199Y-108189445D01*
X186726753Y-108179706D01*
X186731613Y-108173441D01*
X186749176Y-108132857D01*
X186754383Y-108122227D01*
X186775695Y-108083460D01*
X186777666Y-108075783D01*
X186777668Y-108075778D01*
X186780732Y-108063842D01*
X186787138Y-108045130D01*
X186792033Y-108033819D01*
X186795181Y-108026545D01*
X186796421Y-108018717D01*
X186796423Y-108018710D01*
X186802099Y-107982876D01*
X186804505Y-107971256D01*
X186813528Y-107936111D01*
X186813528Y-107936110D01*
X186815500Y-107928430D01*
X186815500Y-107908176D01*
X186817051Y-107888465D01*
X186818980Y-107876286D01*
X186820220Y-107868457D01*
X186816059Y-107824438D01*
X186815500Y-107812581D01*
X186815500Y-85945767D01*
X186816027Y-85934584D01*
X186817702Y-85927091D01*
X186817208Y-85911359D01*
X186815562Y-85859014D01*
X186815500Y-85855055D01*
X186815500Y-85827144D01*
X186814995Y-85823144D01*
X186814062Y-85811301D01*
X186812922Y-85775030D01*
X186812673Y-85767111D01*
X186807021Y-85747657D01*
X186803013Y-85728300D01*
X186801468Y-85716070D01*
X186801468Y-85716069D01*
X186800474Y-85708203D01*
X186797555Y-85700830D01*
X186784196Y-85667088D01*
X186780351Y-85655858D01*
X186770229Y-85621017D01*
X186770229Y-85621016D01*
X186768018Y-85613407D01*
X186763985Y-85606588D01*
X186763983Y-85606583D01*
X186757707Y-85595972D01*
X186749012Y-85578224D01*
X186741552Y-85559383D01*
X186715564Y-85523613D01*
X186709048Y-85513693D01*
X186690580Y-85482465D01*
X186690578Y-85482462D01*
X186686542Y-85475638D01*
X186672221Y-85461317D01*
X186659380Y-85446283D01*
X186652131Y-85436306D01*
X186647472Y-85429893D01*
X186613395Y-85401702D01*
X186604616Y-85393712D01*
X184383618Y-83172713D01*
X184349592Y-83110401D01*
X184352155Y-83046989D01*
X184363265Y-83010422D01*
X184364770Y-83005469D01*
X184393929Y-82783990D01*
X184394328Y-82767671D01*
X184395474Y-82720765D01*
X184395474Y-82720761D01*
X184395556Y-82717400D01*
X184377252Y-82494761D01*
X184322831Y-82278102D01*
X184233754Y-82073240D01*
X184170226Y-81975041D01*
X184115224Y-81890020D01*
X184115222Y-81890017D01*
X184112414Y-81885677D01*
X184083405Y-81853797D01*
X184052353Y-81789952D01*
X184060747Y-81719453D01*
X184087503Y-81679902D01*
X185913847Y-79853558D01*
X185922137Y-79846014D01*
X185928618Y-79841901D01*
X185975259Y-79792233D01*
X185978013Y-79789392D01*
X185997734Y-79769671D01*
X186000212Y-79766476D01*
X186007918Y-79757454D01*
X186032758Y-79731002D01*
X186038186Y-79725222D01*
X186047946Y-79707469D01*
X186058799Y-79690946D01*
X186066353Y-79681207D01*
X186071213Y-79674942D01*
X186088776Y-79634358D01*
X186093983Y-79623728D01*
X186115295Y-79584961D01*
X186117266Y-79577284D01*
X186117268Y-79577279D01*
X186120332Y-79565343D01*
X186126738Y-79546631D01*
X186131633Y-79535320D01*
X186134781Y-79528046D01*
X186136021Y-79520218D01*
X186136023Y-79520211D01*
X186141699Y-79484377D01*
X186144105Y-79472757D01*
X186153128Y-79437612D01*
X186153128Y-79437611D01*
X186155100Y-79429931D01*
X186155100Y-79409677D01*
X186156651Y-79389966D01*
X186158580Y-79377787D01*
X186159820Y-79369958D01*
X186155659Y-79325939D01*
X186155100Y-79314082D01*
X186155100Y-75125363D01*
X186155627Y-75114179D01*
X186157301Y-75106691D01*
X186155162Y-75038632D01*
X186155100Y-75034675D01*
X186155100Y-75006744D01*
X186154594Y-75002738D01*
X186153661Y-74990892D01*
X186153144Y-74974419D01*
X186152273Y-74946710D01*
X186146622Y-74927258D01*
X186142614Y-74907906D01*
X186141068Y-74895668D01*
X186141067Y-74895666D01*
X186140074Y-74887803D01*
X186123794Y-74846686D01*
X186119959Y-74835485D01*
X186107618Y-74793006D01*
X186103585Y-74786187D01*
X186103583Y-74786182D01*
X186097307Y-74775571D01*
X186088610Y-74757821D01*
X186081152Y-74738983D01*
X186055171Y-74703223D01*
X186048653Y-74693301D01*
X186030178Y-74662060D01*
X186030174Y-74662055D01*
X186026142Y-74655237D01*
X186011818Y-74640913D01*
X185998976Y-74625878D01*
X185987072Y-74609493D01*
X185953006Y-74581311D01*
X185944227Y-74573322D01*
X184427805Y-73056900D01*
X184393779Y-72994588D01*
X184390900Y-72967805D01*
X184390900Y-71659266D01*
X184384145Y-71597084D01*
X184333015Y-71460695D01*
X184245661Y-71344139D01*
X184129105Y-71256785D01*
X183992716Y-71205655D01*
X183930534Y-71198900D01*
X182134266Y-71198900D01*
X182072084Y-71205655D01*
X181935695Y-71256785D01*
X181819139Y-71344139D01*
X181731785Y-71460695D01*
X181680655Y-71597084D01*
X181673900Y-71659266D01*
X181673900Y-73455534D01*
X181680655Y-73517716D01*
X181731785Y-73654105D01*
X181737168Y-73661288D01*
X181737170Y-73661291D01*
X181746084Y-73673184D01*
X181770931Y-73739690D01*
X181755878Y-73809073D01*
X181734352Y-73837843D01*
X171993172Y-83579022D01*
X171930860Y-83613048D01*
X171904077Y-83615927D01*
X169886500Y-83615927D01*
X169818379Y-83595925D01*
X169771886Y-83542269D01*
X169760500Y-83489927D01*
X169760500Y-81860066D01*
X169753745Y-81797884D01*
X169702615Y-81661495D01*
X169615261Y-81544939D01*
X169498705Y-81457585D01*
X169486132Y-81452872D01*
X169380203Y-81413160D01*
X169323439Y-81370518D01*
X169298739Y-81303956D01*
X169313947Y-81234608D01*
X169335493Y-81205927D01*
X169436435Y-81105337D01*
X169440096Y-81101689D01*
X169570453Y-80920277D01*
X169576191Y-80908668D01*
X169667136Y-80724653D01*
X169667137Y-80724651D01*
X169669430Y-80720011D01*
X169734370Y-80506269D01*
X169763529Y-80284790D01*
X169764574Y-80242035D01*
X169765074Y-80221565D01*
X169765074Y-80221561D01*
X169765156Y-80218200D01*
X169746852Y-79995561D01*
X169692431Y-79778902D01*
X169603354Y-79574040D01*
X169497023Y-79409677D01*
X169484822Y-79390817D01*
X169484820Y-79390814D01*
X169482014Y-79386477D01*
X169331670Y-79221251D01*
X169327619Y-79218052D01*
X169327615Y-79218048D01*
X169160414Y-79086000D01*
X169160410Y-79085998D01*
X169156359Y-79082798D01*
X168960789Y-78974838D01*
X168955920Y-78973114D01*
X168955916Y-78973112D01*
X168755087Y-78901995D01*
X168755083Y-78901994D01*
X168750212Y-78900269D01*
X168745119Y-78899362D01*
X168745116Y-78899361D01*
X168535373Y-78862000D01*
X168535367Y-78861999D01*
X168530284Y-78861094D01*
X168456452Y-78860192D01*
X168312081Y-78858428D01*
X168312079Y-78858428D01*
X168306911Y-78858365D01*
X168086091Y-78892155D01*
X167873756Y-78961557D01*
X167675607Y-79064707D01*
X167671474Y-79067810D01*
X167671471Y-79067812D01*
X167501100Y-79195730D01*
X167496965Y-79198835D01*
X167493393Y-79202573D01*
X167375501Y-79325940D01*
X167342629Y-79360338D01*
X167216743Y-79544880D01*
X167215945Y-79546600D01*
X167165589Y-79595288D01*
X167107074Y-79609700D01*
X160053621Y-79609700D01*
X159985500Y-79589698D01*
X159964526Y-79572795D01*
X158511325Y-78119594D01*
X158477299Y-78057282D01*
X158482364Y-77986467D01*
X158524911Y-77929631D01*
X158591431Y-77904820D01*
X158600420Y-77904499D01*
X158683320Y-77904499D01*
X158689772Y-77903127D01*
X158689777Y-77903127D01*
X158776720Y-77884646D01*
X158870121Y-77864793D01*
X158927155Y-77839400D01*
X159038555Y-77789802D01*
X159038557Y-77789801D01*
X159044585Y-77787117D01*
X159065706Y-77771772D01*
X159199086Y-77674865D01*
X159199979Y-77676094D01*
X159256934Y-77648752D01*
X159327389Y-77657507D01*
X159366348Y-77684008D01*
X159391800Y-77709460D01*
X159425826Y-77771772D01*
X159428014Y-77785381D01*
X159445380Y-77950606D01*
X159504395Y-78132234D01*
X159507698Y-78137956D01*
X159507699Y-78137957D01*
X159537687Y-78189897D01*
X159599882Y-78297622D01*
X159727669Y-78439544D01*
X159882170Y-78551796D01*
X159888198Y-78554480D01*
X159888200Y-78554481D01*
X160050603Y-78626787D01*
X160056634Y-78629472D01*
X160150035Y-78649325D01*
X160236978Y-78667806D01*
X160236983Y-78667806D01*
X160243435Y-78669178D01*
X160434409Y-78669178D01*
X160440861Y-78667806D01*
X160440866Y-78667806D01*
X160527809Y-78649325D01*
X160621210Y-78629472D01*
X160627241Y-78626787D01*
X160789644Y-78554481D01*
X160789646Y-78554480D01*
X160795674Y-78551796D01*
X160950175Y-78439544D01*
X161077962Y-78297622D01*
X161140157Y-78189897D01*
X161170145Y-78137957D01*
X161170146Y-78137956D01*
X161173449Y-78132234D01*
X161232464Y-77950606D01*
X161237457Y-77903106D01*
X161251736Y-77767243D01*
X161252426Y-77760678D01*
X161243407Y-77674865D01*
X161233154Y-77577313D01*
X161233154Y-77577311D01*
X161232464Y-77570750D01*
X161173449Y-77389122D01*
X161077962Y-77223734D01*
X160950175Y-77081812D01*
X160851079Y-77009814D01*
X160801016Y-76973441D01*
X160801015Y-76973440D01*
X160795674Y-76969560D01*
X160789646Y-76966876D01*
X160789644Y-76966875D01*
X160627241Y-76894569D01*
X160627240Y-76894569D01*
X160621210Y-76891884D01*
X160500683Y-76866265D01*
X160440866Y-76853550D01*
X160440861Y-76853550D01*
X160434409Y-76852178D01*
X160378517Y-76852178D01*
X160310396Y-76832176D01*
X160289422Y-76815273D01*
X159890005Y-76415856D01*
X159855979Y-76353544D01*
X159853100Y-76326761D01*
X159853100Y-76174013D01*
X159873102Y-76105892D01*
X159882702Y-76093980D01*
X159882861Y-76093861D01*
X159890061Y-76084255D01*
X159964829Y-75984491D01*
X159970215Y-75977305D01*
X160021345Y-75840916D01*
X160022198Y-75833064D01*
X160022199Y-75833060D01*
X160022337Y-75831785D01*
X160022722Y-75830859D01*
X160024025Y-75825378D01*
X160024912Y-75825589D01*
X160049579Y-75766223D01*
X160107941Y-75725796D01*
X160178896Y-75723340D01*
X160239914Y-75759635D01*
X160271623Y-75823157D01*
X160273600Y-75845392D01*
X160273600Y-76220484D01*
X160278075Y-76235723D01*
X160279465Y-76236928D01*
X160287148Y-76238599D01*
X160364269Y-76238599D01*
X160371090Y-76238229D01*
X160421952Y-76232705D01*
X160437204Y-76229079D01*
X160557654Y-76183924D01*
X160573249Y-76175386D01*
X160677004Y-76097626D01*
X160743511Y-76072778D01*
X160789828Y-76078087D01*
X160837172Y-76092742D01*
X160935832Y-76123282D01*
X160941957Y-76123926D01*
X160941958Y-76123926D01*
X161126396Y-76143311D01*
X161126398Y-76143311D01*
X161132525Y-76143955D01*
X161215024Y-76136447D01*
X161323349Y-76126589D01*
X161323352Y-76126588D01*
X161329488Y-76126030D01*
X161335394Y-76124292D01*
X161335398Y-76124291D01*
X161442593Y-76092742D01*
X161519219Y-76070190D01*
X161524677Y-76067337D01*
X161524681Y-76067335D01*
X161615453Y-76019880D01*
X161694490Y-75978560D01*
X161848625Y-75854632D01*
X161975754Y-75703126D01*
X161978721Y-75697728D01*
X161978725Y-75697723D01*
X162068067Y-75535208D01*
X162071033Y-75529813D01*
X162073446Y-75522208D01*
X162128973Y-75347164D01*
X162128973Y-75347163D01*
X162130835Y-75341294D01*
X162148100Y-75187373D01*
X162148100Y-73980831D01*
X162147414Y-73973827D01*
X162134281Y-73839901D01*
X162133680Y-73833767D01*
X162126225Y-73809073D01*
X162081606Y-73661291D01*
X162076516Y-73644431D01*
X161983666Y-73469804D01*
X161903403Y-73371392D01*
X161862560Y-73321313D01*
X161862557Y-73321310D01*
X161858665Y-73316538D01*
X161851780Y-73310842D01*
X161818784Y-73283545D01*
X161779046Y-73224711D01*
X161773100Y-73186461D01*
X161773100Y-71645724D01*
X161793102Y-71577603D01*
X161820144Y-71547531D01*
X161848625Y-71524632D01*
X161975754Y-71373126D01*
X161978721Y-71367728D01*
X161978725Y-71367723D01*
X162068067Y-71205208D01*
X162071033Y-71199813D01*
X162073446Y-71192208D01*
X162128973Y-71017164D01*
X162128973Y-71017163D01*
X162130835Y-71011294D01*
X162148100Y-70857373D01*
X162148100Y-69950831D01*
X162147414Y-69943827D01*
X162134281Y-69809901D01*
X162133680Y-69803767D01*
X162076516Y-69614431D01*
X161983666Y-69439804D01*
X161913309Y-69353538D01*
X161862560Y-69291313D01*
X161862557Y-69291310D01*
X161858665Y-69286538D01*
X161852324Y-69281292D01*
X161711025Y-69164399D01*
X161711021Y-69164397D01*
X161706275Y-69160470D01*
X161532301Y-69066402D01*
X161343368Y-69007918D01*
X161337243Y-69007274D01*
X161337242Y-69007274D01*
X161152804Y-68987889D01*
X161152802Y-68987889D01*
X161146675Y-68987245D01*
X161064176Y-68994753D01*
X160955851Y-69004611D01*
X160955848Y-69004612D01*
X160949712Y-69005170D01*
X160943806Y-69006908D01*
X160943802Y-69006909D01*
X160838676Y-69037849D01*
X160759981Y-69061010D01*
X160754523Y-69063863D01*
X160754519Y-69063865D01*
X160663747Y-69111320D01*
X160584710Y-69152640D01*
X160430575Y-69276568D01*
X160303446Y-69428074D01*
X160300479Y-69433472D01*
X160300475Y-69433477D01*
X160296997Y-69439804D01*
X160208167Y-69601387D01*
X160206304Y-69607260D01*
X160183484Y-69679198D01*
X160143821Y-69738083D01*
X160078619Y-69766175D01*
X160063382Y-69767100D01*
X156458368Y-69767100D01*
X156447185Y-69766573D01*
X156439692Y-69764898D01*
X156431766Y-69765147D01*
X156431765Y-69765147D01*
X156371602Y-69767038D01*
X156367644Y-69767100D01*
X153576185Y-69767100D01*
X153508064Y-69747098D01*
X153461571Y-69693442D01*
X153455563Y-69677518D01*
X153438297Y-69620331D01*
X153436516Y-69614431D01*
X153343666Y-69439804D01*
X153273309Y-69353538D01*
X153222560Y-69291313D01*
X153222557Y-69291310D01*
X153218665Y-69286538D01*
X153212324Y-69281292D01*
X153071025Y-69164399D01*
X153071021Y-69164397D01*
X153066275Y-69160470D01*
X152892301Y-69066402D01*
X152703368Y-69007918D01*
X152697243Y-69007274D01*
X152697242Y-69007274D01*
X152512804Y-68987889D01*
X152512802Y-68987889D01*
X152506675Y-68987245D01*
X152424176Y-68994753D01*
X152315851Y-69004611D01*
X152315848Y-69004612D01*
X152309712Y-69005170D01*
X152303806Y-69006908D01*
X152303802Y-69006909D01*
X152198676Y-69037849D01*
X152119981Y-69061010D01*
X152114523Y-69063863D01*
X152114519Y-69063865D01*
X152023747Y-69111320D01*
X151944710Y-69152640D01*
X151790575Y-69276568D01*
X151663446Y-69428074D01*
X151660479Y-69433472D01*
X151660475Y-69433477D01*
X151656997Y-69439804D01*
X151568167Y-69601387D01*
X151566306Y-69607254D01*
X151566305Y-69607256D01*
X151510227Y-69784036D01*
X151508365Y-69789906D01*
X151491100Y-69943827D01*
X151491100Y-70850369D01*
X151491400Y-70853425D01*
X151491400Y-70853432D01*
X151492130Y-70860873D01*
X151505520Y-70997433D01*
X151562684Y-71186769D01*
X151655534Y-71361396D01*
X151725891Y-71447662D01*
X151776640Y-71509887D01*
X151776643Y-71509890D01*
X151780535Y-71514662D01*
X151785283Y-71518590D01*
X151785284Y-71518591D01*
X151820416Y-71547655D01*
X151860154Y-71606489D01*
X151866100Y-71644739D01*
X151866100Y-73185476D01*
X151846098Y-73253597D01*
X151819056Y-73283669D01*
X151790575Y-73306568D01*
X151663446Y-73458074D01*
X151660479Y-73463472D01*
X151660475Y-73463477D01*
X151618343Y-73540116D01*
X151568167Y-73631387D01*
X151566306Y-73637254D01*
X151566305Y-73637256D01*
X151560960Y-73654105D01*
X151508365Y-73819906D01*
X151491100Y-73973827D01*
X151491100Y-75180369D01*
X151491400Y-75183425D01*
X151491400Y-75183432D01*
X151492130Y-75190873D01*
X151505520Y-75327433D01*
X151507302Y-75333334D01*
X151507302Y-75333336D01*
X151523368Y-75386549D01*
X151562684Y-75516769D01*
X151655534Y-75691396D01*
X151705436Y-75752582D01*
X151776640Y-75839887D01*
X151776643Y-75839890D01*
X151780535Y-75844662D01*
X151785282Y-75848589D01*
X151785284Y-75848591D01*
X151928175Y-75966801D01*
X151928179Y-75966803D01*
X151932925Y-75970730D01*
X152106899Y-76064798D01*
X152295832Y-76123282D01*
X152301957Y-76123926D01*
X152301958Y-76123926D01*
X152486396Y-76143311D01*
X152486398Y-76143311D01*
X152492525Y-76143955D01*
X152575024Y-76136447D01*
X152683349Y-76126589D01*
X152683352Y-76126588D01*
X152689488Y-76126030D01*
X152695398Y-76124290D01*
X152695401Y-76124290D01*
X152851920Y-76078225D01*
X152922916Y-76078181D01*
X152963059Y-76098273D01*
X153065951Y-76175386D01*
X153081546Y-76183924D01*
X153201994Y-76229078D01*
X153217249Y-76232705D01*
X153268114Y-76238231D01*
X153274928Y-76238600D01*
X153347485Y-76238600D01*
X153362724Y-76234125D01*
X153363929Y-76232735D01*
X153365600Y-76225052D01*
X153365600Y-75845392D01*
X153385602Y-75777271D01*
X153439258Y-75730778D01*
X153509532Y-75720674D01*
X153574112Y-75750168D01*
X153612496Y-75809894D01*
X153616863Y-75831785D01*
X153617001Y-75833060D01*
X153617002Y-75833064D01*
X153617855Y-75840916D01*
X153668985Y-75977305D01*
X153756339Y-76093861D01*
X153796942Y-76124291D01*
X153825489Y-76145686D01*
X153868003Y-76202546D01*
X153870819Y-76211013D01*
X153878075Y-76235723D01*
X153879465Y-76236928D01*
X153887148Y-76238599D01*
X153964270Y-76238599D01*
X153971088Y-76238230D01*
X154003667Y-76234691D01*
X154030880Y-76234691D01*
X154071466Y-76239100D01*
X154310100Y-76239100D01*
X154378221Y-76259102D01*
X154424714Y-76312758D01*
X154436100Y-76365100D01*
X154436100Y-80704398D01*
X154416098Y-80772519D01*
X154403742Y-80788701D01*
X154353360Y-80844656D01*
X154309700Y-80920277D01*
X154286640Y-80960219D01*
X154257873Y-81010044D01*
X154198858Y-81191672D01*
X154178896Y-81381600D01*
X154198858Y-81571528D01*
X154200898Y-81577806D01*
X154226033Y-81655164D01*
X154228061Y-81726131D01*
X154191398Y-81786929D01*
X154127686Y-81818255D01*
X154106200Y-81820100D01*
X149835696Y-81820100D01*
X149767575Y-81800098D01*
X149746601Y-81783195D01*
X143127554Y-75164147D01*
X143120014Y-75155861D01*
X143115902Y-75149382D01*
X143066250Y-75102756D01*
X143063409Y-75100002D01*
X143043672Y-75080265D01*
X143040475Y-75077785D01*
X143031453Y-75070080D01*
X143018018Y-75057464D01*
X142999223Y-75039814D01*
X142992277Y-75035995D01*
X142992274Y-75035993D01*
X142981468Y-75030052D01*
X142964949Y-75019201D01*
X142964485Y-75018841D01*
X142948943Y-75006786D01*
X142941674Y-75003641D01*
X142941670Y-75003638D01*
X142908365Y-74989226D01*
X142897715Y-74984009D01*
X142858962Y-74962705D01*
X142839339Y-74957667D01*
X142820636Y-74951263D01*
X142809322Y-74946367D01*
X142809321Y-74946367D01*
X142802047Y-74943219D01*
X142794224Y-74941980D01*
X142794214Y-74941977D01*
X142758378Y-74936301D01*
X142746758Y-74933895D01*
X142711613Y-74924872D01*
X142711612Y-74924872D01*
X142703932Y-74922900D01*
X142683678Y-74922900D01*
X142663967Y-74921349D01*
X142661436Y-74920948D01*
X142643959Y-74918180D01*
X142636067Y-74918926D01*
X142599941Y-74922341D01*
X142588083Y-74922900D01*
X131756990Y-74922900D01*
X131745806Y-74922373D01*
X131738318Y-74920699D01*
X131730395Y-74920948D01*
X131670260Y-74922838D01*
X131666302Y-74922900D01*
X131638371Y-74922900D01*
X131634456Y-74923395D01*
X131634452Y-74923395D01*
X131634394Y-74923403D01*
X131634365Y-74923406D01*
X131622523Y-74924339D01*
X131578337Y-74925727D01*
X131560971Y-74930772D01*
X131558885Y-74931378D01*
X131539533Y-74935386D01*
X131532462Y-74936280D01*
X131519430Y-74937926D01*
X131512061Y-74940843D01*
X131512059Y-74940844D01*
X131478324Y-74954200D01*
X131467096Y-74958045D01*
X131424634Y-74970382D01*
X131417812Y-74974416D01*
X131417806Y-74974419D01*
X131407195Y-74980694D01*
X131389445Y-74989390D01*
X131377983Y-74993928D01*
X131377978Y-74993931D01*
X131370610Y-74996848D01*
X131353197Y-75009499D01*
X131334852Y-75022827D01*
X131324934Y-75029343D01*
X131313690Y-75035993D01*
X131286864Y-75051858D01*
X131272540Y-75066182D01*
X131257508Y-75079021D01*
X131241120Y-75090928D01*
X131228080Y-75106691D01*
X131212939Y-75124993D01*
X131204949Y-75133773D01*
X130938995Y-75399727D01*
X130876683Y-75433753D01*
X130810232Y-75430225D01*
X130677690Y-75386262D01*
X130664314Y-75383395D01*
X130569962Y-75373728D01*
X130563545Y-75373400D01*
X130451015Y-75373400D01*
X130435776Y-75377875D01*
X130434571Y-75379265D01*
X130432900Y-75386948D01*
X130432900Y-77821284D01*
X130437375Y-77836523D01*
X130438765Y-77837728D01*
X130446448Y-77839399D01*
X130544400Y-77839399D01*
X130612521Y-77859401D01*
X130659014Y-77913057D01*
X130670400Y-77965399D01*
X130670400Y-78925133D01*
X130650398Y-78993254D01*
X130633495Y-79014228D01*
X120043147Y-89604575D01*
X120034861Y-89612115D01*
X120028382Y-89616227D01*
X119991056Y-89655976D01*
X119981757Y-89665878D01*
X119979002Y-89668720D01*
X119959265Y-89688457D01*
X119956785Y-89691654D01*
X119949082Y-89700674D01*
X119918814Y-89732906D01*
X119914995Y-89739852D01*
X119914993Y-89739855D01*
X119909052Y-89750661D01*
X119898201Y-89767180D01*
X119885786Y-89783186D01*
X119882641Y-89790455D01*
X119882638Y-89790459D01*
X119868226Y-89823764D01*
X119863009Y-89834414D01*
X119841705Y-89873167D01*
X119839734Y-89880842D01*
X119839734Y-89880843D01*
X119836667Y-89892789D01*
X119830263Y-89911493D01*
X119822219Y-89930082D01*
X119820980Y-89937905D01*
X119820977Y-89937915D01*
X119815301Y-89973751D01*
X119812895Y-89985371D01*
X119805749Y-90013206D01*
X119801900Y-90028197D01*
X119801900Y-90048451D01*
X119800349Y-90068161D01*
X119797180Y-90088170D01*
X119797926Y-90096062D01*
X119801341Y-90132188D01*
X119801900Y-90144046D01*
X119801900Y-91637495D01*
X119781898Y-91705616D01*
X119742207Y-91744636D01*
X119681369Y-91782284D01*
X119676196Y-91787466D01*
X119563642Y-91900216D01*
X119563638Y-91900221D01*
X119558471Y-91905397D01*
X119554631Y-91911627D01*
X119554630Y-91911628D01*
X119471764Y-92046062D01*
X119467191Y-92053480D01*
X119412426Y-92218591D01*
X119411726Y-92225427D01*
X119411725Y-92225430D01*
X119410507Y-92237320D01*
X119401900Y-92321328D01*
X119401900Y-92895472D01*
X119402237Y-92898718D01*
X119402237Y-92898722D01*
X119411304Y-92986102D01*
X119412693Y-92999493D01*
X119414874Y-93006029D01*
X119414874Y-93006031D01*
X119448817Y-93107771D01*
X119467746Y-93164507D01*
X119559284Y-93312431D01*
X119564466Y-93317604D01*
X119677216Y-93430158D01*
X119677221Y-93430162D01*
X119682397Y-93435329D01*
X119688627Y-93439169D01*
X119688628Y-93439170D01*
X119820787Y-93520634D01*
X119830480Y-93526609D01*
X119995591Y-93581374D01*
X120002427Y-93582074D01*
X120002430Y-93582075D01*
X120050717Y-93587022D01*
X120098328Y-93591900D01*
X120772472Y-93591900D01*
X120775718Y-93591563D01*
X120775722Y-93591563D01*
X120869635Y-93581819D01*
X120869639Y-93581818D01*
X120876493Y-93581107D01*
X120883029Y-93578926D01*
X120883031Y-93578926D01*
X121024575Y-93531703D01*
X121041507Y-93526054D01*
X121129795Y-93471420D01*
X121183205Y-93438369D01*
X121183206Y-93438368D01*
X121189431Y-93434516D01*
X121221279Y-93402613D01*
X121283559Y-93368534D01*
X121354379Y-93373537D01*
X121399467Y-93402457D01*
X121417490Y-93420448D01*
X121432397Y-93435329D01*
X121438627Y-93439169D01*
X121438628Y-93439170D01*
X121570787Y-93520634D01*
X121580480Y-93526609D01*
X121697140Y-93565304D01*
X121746566Y-93595801D01*
X128932995Y-100782229D01*
X128967021Y-100844541D01*
X128969900Y-100871324D01*
X128969900Y-102870615D01*
X128951159Y-102936732D01*
X128940126Y-102954630D01*
X128940124Y-102954633D01*
X128936285Y-102960862D01*
X128925497Y-102993388D01*
X128885659Y-103113497D01*
X128880603Y-103128739D01*
X128879903Y-103135575D01*
X128879902Y-103135578D01*
X128878935Y-103145016D01*
X128869900Y-103233200D01*
X128869900Y-103415875D01*
X128849898Y-103483996D01*
X128796242Y-103530489D01*
X128725968Y-103540593D01*
X128661388Y-103511099D01*
X128654805Y-103504970D01*
X123059104Y-97909270D01*
X123028676Y-97860052D01*
X122991574Y-97748846D01*
X122991573Y-97748844D01*
X122989254Y-97741893D01*
X122897716Y-97593969D01*
X122876262Y-97572552D01*
X122779784Y-97476242D01*
X122779779Y-97476238D01*
X122774603Y-97471071D01*
X122753458Y-97458037D01*
X122632750Y-97383631D01*
X122632748Y-97383630D01*
X122626520Y-97379791D01*
X122461409Y-97325026D01*
X122454573Y-97324326D01*
X122454570Y-97324325D01*
X122403074Y-97319049D01*
X122358672Y-97314500D01*
X122273071Y-97314500D01*
X122236237Y-97308996D01*
X122221902Y-97304613D01*
X122164049Y-97298736D01*
X122031266Y-97285248D01*
X122031261Y-97285248D01*
X122025138Y-97284626D01*
X121903505Y-97296124D01*
X121834371Y-97302659D01*
X121834369Y-97302659D01*
X121828238Y-97303239D01*
X121822330Y-97305000D01*
X121822331Y-97305000D01*
X121808076Y-97309249D01*
X121772081Y-97314500D01*
X121684528Y-97314500D01*
X121681282Y-97314837D01*
X121681278Y-97314837D01*
X121587365Y-97324581D01*
X121587361Y-97324582D01*
X121580507Y-97325293D01*
X121573971Y-97327474D01*
X121573969Y-97327474D01*
X121523524Y-97344304D01*
X121415493Y-97380346D01*
X121363405Y-97412579D01*
X121275090Y-97467230D01*
X121267569Y-97471884D01*
X121235721Y-97503787D01*
X121173441Y-97537866D01*
X121102621Y-97532863D01*
X121057533Y-97503943D01*
X121029784Y-97476243D01*
X121029783Y-97476242D01*
X121024603Y-97471071D01*
X121003458Y-97458037D01*
X120882750Y-97383631D01*
X120882748Y-97383630D01*
X120876520Y-97379791D01*
X120711409Y-97325026D01*
X120704573Y-97324326D01*
X120704570Y-97324325D01*
X120653074Y-97319049D01*
X120608672Y-97314500D01*
X119934528Y-97314500D01*
X119931282Y-97314837D01*
X119931278Y-97314837D01*
X119837365Y-97324581D01*
X119837361Y-97324582D01*
X119830507Y-97325293D01*
X119823971Y-97327474D01*
X119823969Y-97327474D01*
X119773524Y-97344304D01*
X119665493Y-97380346D01*
X119517569Y-97471884D01*
X119512396Y-97477066D01*
X119399842Y-97589816D01*
X119399838Y-97589821D01*
X119394671Y-97594997D01*
X119390831Y-97601227D01*
X119390830Y-97601228D01*
X119307964Y-97735662D01*
X119303391Y-97743080D01*
X119248626Y-97908191D01*
X119238100Y-98010928D01*
X119238100Y-98585072D01*
X119238437Y-98588318D01*
X119238437Y-98588322D01*
X119247398Y-98674682D01*
X119248893Y-98689093D01*
X119251074Y-98695629D01*
X119251074Y-98695631D01*
X119265595Y-98739155D01*
X119303946Y-98854107D01*
X119307795Y-98860328D01*
X119307797Y-98860331D01*
X119315993Y-98873576D01*
X119334830Y-98942028D01*
X119313668Y-99009797D01*
X119302486Y-99024186D01*
X119250560Y-99081856D01*
X119247257Y-99087577D01*
X119173346Y-99215595D01*
X119155073Y-99247244D01*
X119096058Y-99428872D01*
X119095368Y-99435433D01*
X119095368Y-99435435D01*
X119092173Y-99465838D01*
X119076096Y-99618800D01*
X119076786Y-99625365D01*
X119090879Y-99759448D01*
X119096058Y-99808728D01*
X119155073Y-99990356D01*
X119158376Y-99996078D01*
X119158377Y-99996079D01*
X119172378Y-100020329D01*
X119250560Y-100155744D01*
X119254978Y-100160651D01*
X119254979Y-100160652D01*
X119364254Y-100282014D01*
X119378347Y-100297666D01*
X119444296Y-100345581D01*
X119522853Y-100402656D01*
X119532848Y-100409918D01*
X119538876Y-100412602D01*
X119538878Y-100412603D01*
X119634032Y-100454968D01*
X119707312Y-100487594D01*
X119780511Y-100503153D01*
X119887656Y-100525928D01*
X119887661Y-100525928D01*
X119894113Y-100527300D01*
X120085087Y-100527300D01*
X120091539Y-100525928D01*
X120091544Y-100525928D01*
X120198689Y-100503153D01*
X120271888Y-100487594D01*
X120345168Y-100454968D01*
X120440322Y-100412603D01*
X120440324Y-100412602D01*
X120446352Y-100409918D01*
X120456348Y-100402656D01*
X120534904Y-100345581D01*
X120600853Y-100297666D01*
X120614946Y-100282014D01*
X120724221Y-100160652D01*
X120724222Y-100160651D01*
X120728640Y-100155744D01*
X120806822Y-100020329D01*
X120820823Y-99996079D01*
X120820824Y-99996078D01*
X120824127Y-99990356D01*
X120883142Y-99808728D01*
X120888322Y-99759448D01*
X120902414Y-99625365D01*
X120903104Y-99618800D01*
X120890992Y-99503556D01*
X120894260Y-99459053D01*
X120903128Y-99424511D01*
X120903128Y-99424510D01*
X120905100Y-99416830D01*
X120905100Y-99396576D01*
X120906651Y-99376865D01*
X120908580Y-99364686D01*
X120909820Y-99356857D01*
X120905659Y-99312838D01*
X120905100Y-99300981D01*
X120905100Y-99268905D01*
X120925102Y-99200784D01*
X120964793Y-99161764D01*
X121025631Y-99124116D01*
X121057479Y-99092213D01*
X121119759Y-99058134D01*
X121190579Y-99063137D01*
X121235667Y-99092057D01*
X121247874Y-99104242D01*
X121268597Y-99124929D01*
X121274827Y-99128769D01*
X121274828Y-99128770D01*
X121402164Y-99207261D01*
X121416680Y-99216209D01*
X121533340Y-99254904D01*
X121582766Y-99285401D01*
X129018595Y-106721229D01*
X129052621Y-106783541D01*
X129055500Y-106810324D01*
X129055500Y-108255415D01*
X129036759Y-108321532D01*
X129025726Y-108339430D01*
X129025724Y-108339433D01*
X129021885Y-108345662D01*
X128966203Y-108513539D01*
X128965503Y-108520375D01*
X128965502Y-108520378D01*
X128961091Y-108563431D01*
X128955500Y-108618000D01*
X128955500Y-109618800D01*
X128955837Y-109622046D01*
X128955837Y-109622050D01*
X128961915Y-109680624D01*
X128966474Y-109724566D01*
X128968655Y-109731102D01*
X128968655Y-109731104D01*
X128992041Y-109801200D01*
X129022450Y-109892346D01*
X129115522Y-110042748D01*
X129240697Y-110167705D01*
X129246927Y-110171545D01*
X129246928Y-110171546D01*
X129384090Y-110256094D01*
X129391262Y-110260515D01*
X129471005Y-110286964D01*
X129552611Y-110314032D01*
X129552613Y-110314032D01*
X129559139Y-110316197D01*
X129565975Y-110316897D01*
X129565978Y-110316898D01*
X129609031Y-110321309D01*
X129663600Y-110326900D01*
X130464400Y-110326900D01*
X130467646Y-110326563D01*
X130467650Y-110326563D01*
X130563308Y-110316638D01*
X130563312Y-110316637D01*
X130570166Y-110315926D01*
X130576702Y-110313745D01*
X130576704Y-110313745D01*
X130727725Y-110263360D01*
X130737946Y-110259950D01*
X130863197Y-110182442D01*
X130931649Y-110163604D01*
X130999419Y-110184765D01*
X131044990Y-110239206D01*
X131055500Y-110289586D01*
X131055500Y-113271228D01*
X131035498Y-113339349D01*
X130981842Y-113385842D01*
X130911568Y-113395946D01*
X130863384Y-113378488D01*
X130758968Y-113314125D01*
X130758966Y-113314124D01*
X130752738Y-113310285D01*
X130664820Y-113281124D01*
X130591389Y-113256768D01*
X130591387Y-113256768D01*
X130584861Y-113254603D01*
X130578025Y-113253903D01*
X130578022Y-113253902D01*
X130534969Y-113249491D01*
X130480400Y-113243900D01*
X129679600Y-113243900D01*
X129676354Y-113244237D01*
X129676350Y-113244237D01*
X129580692Y-113254162D01*
X129580688Y-113254163D01*
X129573834Y-113254874D01*
X129567298Y-113257055D01*
X129567296Y-113257055D01*
X129486533Y-113284000D01*
X129406054Y-113310850D01*
X129255652Y-113403922D01*
X129130695Y-113529097D01*
X129126855Y-113535327D01*
X129126854Y-113535328D01*
X129096450Y-113584653D01*
X129037885Y-113679662D01*
X129026247Y-113714749D01*
X128987719Y-113830910D01*
X128982203Y-113847539D01*
X128981503Y-113854375D01*
X128981502Y-113854378D01*
X128980896Y-113860295D01*
X128971500Y-113952000D01*
X128971500Y-114952800D01*
X128971837Y-114956046D01*
X128971837Y-114956050D01*
X128976424Y-115000255D01*
X128982474Y-115058566D01*
X128984655Y-115065102D01*
X128984655Y-115065104D01*
X129000764Y-115113389D01*
X129038450Y-115226346D01*
X129071445Y-115279664D01*
X129090300Y-115345966D01*
X129090300Y-116778157D01*
X129089563Y-116791764D01*
X129087194Y-116813577D01*
X129085476Y-116829388D01*
X129086013Y-116835523D01*
X129089850Y-116879388D01*
X129090179Y-116884214D01*
X129090300Y-116886686D01*
X129090300Y-116889769D01*
X129090601Y-116892837D01*
X129094490Y-116932506D01*
X129094612Y-116933819D01*
X129095898Y-116948514D01*
X129102713Y-117026413D01*
X129104200Y-117031532D01*
X129104720Y-117036833D01*
X129131591Y-117125834D01*
X129131926Y-117126967D01*
X129150237Y-117189991D01*
X129157891Y-117216336D01*
X129160344Y-117221068D01*
X129161884Y-117226169D01*
X129164778Y-117231612D01*
X129205531Y-117308260D01*
X129206143Y-117309426D01*
X129235773Y-117366586D01*
X129248908Y-117391926D01*
X129252231Y-117396089D01*
X129254734Y-117400796D01*
X129313555Y-117472918D01*
X129314246Y-117473774D01*
X129345538Y-117512973D01*
X129348042Y-117515477D01*
X129348684Y-117516195D01*
X129352385Y-117520528D01*
X129379735Y-117554062D01*
X129384482Y-117557989D01*
X129384484Y-117557991D01*
X129415062Y-117583287D01*
X129423842Y-117591277D01*
X130662745Y-118830179D01*
X130671847Y-118840322D01*
X130695568Y-118869825D01*
X130734056Y-118902120D01*
X130737675Y-118905278D01*
X130739490Y-118906924D01*
X130741675Y-118909109D01*
X130744055Y-118911064D01*
X130744065Y-118911073D01*
X130774836Y-118936349D01*
X130775851Y-118937191D01*
X130786329Y-118945983D01*
X130847074Y-118996954D01*
X130851748Y-118999523D01*
X130855861Y-119002902D01*
X130937636Y-119046749D01*
X130937647Y-119046755D01*
X130938807Y-119047384D01*
X131000524Y-119081313D01*
X131020387Y-119092233D01*
X131025469Y-119093845D01*
X131030163Y-119096362D01*
X131119131Y-119123562D01*
X131120159Y-119123882D01*
X131208906Y-119152035D01*
X131214202Y-119152629D01*
X131219298Y-119154187D01*
X131311857Y-119163590D01*
X131312993Y-119163711D01*
X131346608Y-119167481D01*
X131359330Y-119168908D01*
X131359334Y-119168908D01*
X131362827Y-119169300D01*
X131366354Y-119169300D01*
X131367339Y-119169355D01*
X131373019Y-119169802D01*
X131402425Y-119172789D01*
X131409937Y-119173552D01*
X131409939Y-119173552D01*
X131416062Y-119174174D01*
X131461708Y-119169859D01*
X131473567Y-119169300D01*
X144716769Y-119169300D01*
X144719825Y-119169000D01*
X144719832Y-119169000D01*
X144778340Y-119163263D01*
X144863833Y-119154880D01*
X144869732Y-119153099D01*
X144869737Y-119153098D01*
X144881063Y-119149678D01*
X144917481Y-119144300D01*
X145004072Y-119144300D01*
X145007318Y-119143963D01*
X145007322Y-119143963D01*
X145101235Y-119134219D01*
X145101239Y-119134218D01*
X145108093Y-119133507D01*
X145114629Y-119131326D01*
X145114631Y-119131326D01*
X145247395Y-119087032D01*
X145273107Y-119078454D01*
X145396738Y-119001949D01*
X145414805Y-118990769D01*
X145414806Y-118990768D01*
X145421031Y-118986916D01*
X145452879Y-118955013D01*
X145515159Y-118920934D01*
X145585979Y-118925937D01*
X145631067Y-118954857D01*
X145652636Y-118976388D01*
X145663997Y-118987729D01*
X145670227Y-118991569D01*
X145670228Y-118991570D01*
X145759755Y-119046755D01*
X145812080Y-119079009D01*
X145977191Y-119133774D01*
X145984027Y-119134474D01*
X145984030Y-119134475D01*
X146035526Y-119139751D01*
X146079928Y-119144300D01*
X146754072Y-119144300D01*
X146757318Y-119143963D01*
X146757322Y-119143963D01*
X146851235Y-119134219D01*
X146851239Y-119134218D01*
X146858093Y-119133507D01*
X146864629Y-119131326D01*
X146864631Y-119131326D01*
X146997395Y-119087032D01*
X147023107Y-119078454D01*
X147171031Y-118986916D01*
X147195553Y-118962351D01*
X147288758Y-118868984D01*
X147288762Y-118868979D01*
X147293929Y-118863803D01*
X147297938Y-118857300D01*
X147299857Y-118854186D01*
X147301886Y-118852359D01*
X147302307Y-118851827D01*
X147302398Y-118851899D01*
X147352628Y-118806692D01*
X147407118Y-118794300D01*
X151628243Y-118794300D01*
X151696364Y-118814302D01*
X151737362Y-118857300D01*
X151762560Y-118900944D01*
X151766978Y-118905851D01*
X151766979Y-118905852D01*
X151849052Y-118997003D01*
X151890347Y-119042866D01*
X151982611Y-119109900D01*
X152037361Y-119149678D01*
X152044848Y-119155118D01*
X152050876Y-119157802D01*
X152050878Y-119157803D01*
X152188891Y-119219250D01*
X152242987Y-119265230D01*
X152263636Y-119333157D01*
X152244284Y-119401466D01*
X152226737Y-119423452D01*
X151967394Y-119682795D01*
X151905082Y-119716821D01*
X151878299Y-119719700D01*
X146089117Y-119719700D01*
X146050705Y-119713702D01*
X146034478Y-119708508D01*
X146034477Y-119708508D01*
X146028770Y-119706681D01*
X146022821Y-119705966D01*
X146022815Y-119705965D01*
X145967247Y-119699289D01*
X145958127Y-119697853D01*
X145908642Y-119688190D01*
X145897315Y-119685978D01*
X145891631Y-119685700D01*
X145861657Y-119685700D01*
X145846629Y-119684801D01*
X145819969Y-119681598D01*
X145819965Y-119681598D01*
X145814022Y-119680884D01*
X145808046Y-119681307D01*
X145808043Y-119681307D01*
X145750451Y-119685385D01*
X145741552Y-119685700D01*
X130950367Y-119685700D01*
X130939306Y-119684767D01*
X130939285Y-119685047D01*
X130933312Y-119684608D01*
X130927393Y-119683602D01*
X130832630Y-119685670D01*
X130829881Y-119685700D01*
X130789959Y-119685700D01*
X130782295Y-119686431D01*
X130773099Y-119686969D01*
X130731295Y-119687881D01*
X130717150Y-119688190D01*
X130717149Y-119688190D01*
X130711152Y-119688321D01*
X130705292Y-119689583D01*
X130705289Y-119689583D01*
X130677500Y-119695566D01*
X130662948Y-119697818D01*
X130657927Y-119698297D01*
X130628685Y-119701087D01*
X130569231Y-119718529D01*
X130560286Y-119720800D01*
X130505577Y-119732579D01*
X130505571Y-119732581D01*
X130499704Y-119733844D01*
X130468020Y-119747325D01*
X130454185Y-119752279D01*
X130421140Y-119761974D01*
X130415806Y-119764721D01*
X130415804Y-119764722D01*
X130366055Y-119790345D01*
X130357695Y-119794270D01*
X130306198Y-119816182D01*
X130300680Y-119818530D01*
X130272131Y-119837751D01*
X130259453Y-119845249D01*
X130228852Y-119861009D01*
X130224138Y-119864712D01*
X130224130Y-119864717D01*
X130180119Y-119899288D01*
X130172657Y-119904720D01*
X130121260Y-119939323D01*
X130117044Y-119943145D01*
X130095851Y-119964338D01*
X130084590Y-119974328D01*
X130058761Y-119994617D01*
X130054830Y-119999147D01*
X130054829Y-119999148D01*
X130016981Y-120042764D01*
X130010911Y-120049278D01*
X127987194Y-122072995D01*
X127924882Y-122107021D01*
X127898099Y-122109900D01*
X126288966Y-122109900D01*
X126226784Y-122116655D01*
X126090395Y-122167785D01*
X126087258Y-122170136D01*
X126029550Y-122184900D01*
X121044650Y-122184900D01*
X120986942Y-122170136D01*
X120983805Y-122167785D01*
X120847416Y-122116655D01*
X120785234Y-122109900D01*
X119088966Y-122109900D01*
X119026784Y-122116655D01*
X118890395Y-122167785D01*
X118773839Y-122255139D01*
X118686485Y-122371695D01*
X118635355Y-122508084D01*
X118628600Y-122570266D01*
X118628600Y-124066534D01*
X118635355Y-124128716D01*
X118686485Y-124265105D01*
X118773839Y-124381661D01*
X118890395Y-124469015D01*
X119026784Y-124520145D01*
X119088966Y-124526900D01*
X120785234Y-124526900D01*
X120847416Y-124520145D01*
X120983805Y-124469015D01*
X120986942Y-124466664D01*
X121044650Y-124451900D01*
X126029550Y-124451900D01*
X126087258Y-124466664D01*
X126090395Y-124469015D01*
X126226784Y-124520145D01*
X126288966Y-124526900D01*
X127985234Y-124526900D01*
X128047416Y-124520145D01*
X128088723Y-124504660D01*
X128175396Y-124472168D01*
X128175399Y-124472166D01*
X128183805Y-124469015D01*
X128186104Y-124467292D01*
X128252858Y-124452799D01*
X128255494Y-124452993D01*
X128261407Y-124453998D01*
X128356171Y-124451930D01*
X128358919Y-124451900D01*
X128398841Y-124451900D01*
X128406505Y-124451169D01*
X128415701Y-124450631D01*
X128451365Y-124449853D01*
X128471652Y-124449410D01*
X128471653Y-124449410D01*
X128477648Y-124449279D01*
X128511295Y-124442035D01*
X128525844Y-124439783D01*
X128546310Y-124437830D01*
X128560115Y-124436513D01*
X128619568Y-124419071D01*
X128628519Y-124416797D01*
X128689095Y-124403756D01*
X128720766Y-124390280D01*
X128734627Y-124385317D01*
X128767660Y-124375626D01*
X128822741Y-124347258D01*
X128831086Y-124343339D01*
X128888120Y-124319071D01*
X128916679Y-124299844D01*
X128929354Y-124292348D01*
X128934612Y-124289640D01*
X128959948Y-124276591D01*
X129008674Y-124238317D01*
X129016124Y-124232894D01*
X129063781Y-124200809D01*
X129063783Y-124200807D01*
X129067540Y-124198278D01*
X129071756Y-124194455D01*
X129092949Y-124173262D01*
X129104211Y-124163271D01*
X129125322Y-124146688D01*
X129130039Y-124142983D01*
X129149237Y-124120860D01*
X129171819Y-124094836D01*
X129177889Y-124088322D01*
X131276606Y-121989605D01*
X131338918Y-121955579D01*
X131365701Y-121952700D01*
X133956531Y-121952700D01*
X134024652Y-121972702D01*
X134071145Y-122026358D01*
X134081249Y-122096632D01*
X134051755Y-122161212D01*
X134032096Y-122179526D01*
X133938386Y-122249758D01*
X133930139Y-122255939D01*
X133842785Y-122372495D01*
X133791655Y-122508884D01*
X133791115Y-122513853D01*
X133758276Y-122572643D01*
X130329524Y-126001395D01*
X130267212Y-126035421D01*
X130240429Y-126038300D01*
X118730371Y-126038300D01*
X118662250Y-126018298D01*
X118641276Y-126001395D01*
X116822605Y-124182724D01*
X116788579Y-124120412D01*
X116785700Y-124093629D01*
X116785700Y-121066534D01*
X118628600Y-121066534D01*
X118635355Y-121128716D01*
X118686485Y-121265105D01*
X118773839Y-121381661D01*
X118890395Y-121469015D01*
X119026784Y-121520145D01*
X119088966Y-121526900D01*
X120785234Y-121526900D01*
X120847416Y-121520145D01*
X120983805Y-121469015D01*
X120986942Y-121466664D01*
X121044650Y-121451900D01*
X126029550Y-121451900D01*
X126087258Y-121466664D01*
X126090395Y-121469015D01*
X126226784Y-121520145D01*
X126288966Y-121526900D01*
X127985234Y-121526900D01*
X128047416Y-121520145D01*
X128183805Y-121469015D01*
X128300361Y-121381661D01*
X128387715Y-121265105D01*
X128438845Y-121128716D01*
X128445600Y-121066534D01*
X128445600Y-119570266D01*
X128438845Y-119508084D01*
X128387715Y-119371695D01*
X128300361Y-119255139D01*
X128183805Y-119167785D01*
X128047416Y-119116655D01*
X127985234Y-119109900D01*
X126288966Y-119109900D01*
X126226784Y-119116655D01*
X126090395Y-119167785D01*
X126087258Y-119170136D01*
X126029550Y-119184900D01*
X123873995Y-119184900D01*
X123805874Y-119164898D01*
X123759381Y-119111242D01*
X123749277Y-119040968D01*
X123778771Y-118976388D01*
X123784900Y-118969805D01*
X124359700Y-118395005D01*
X124422012Y-118360979D01*
X124448795Y-118358100D01*
X124504687Y-118358100D01*
X124511139Y-118356728D01*
X124511144Y-118356728D01*
X124598088Y-118338247D01*
X124691488Y-118318394D01*
X124706656Y-118311641D01*
X124859922Y-118243403D01*
X124859924Y-118243402D01*
X124865952Y-118240718D01*
X125020453Y-118128466D01*
X125148240Y-117986544D01*
X125243727Y-117821156D01*
X125302742Y-117639528D01*
X125308256Y-117587071D01*
X125322014Y-117456165D01*
X125322704Y-117449600D01*
X125316067Y-117386453D01*
X125303432Y-117266235D01*
X125303432Y-117266233D01*
X125302742Y-117259672D01*
X125243727Y-117078044D01*
X125219805Y-117036609D01*
X125170549Y-116951296D01*
X125148240Y-116912656D01*
X125143328Y-116907200D01*
X125024875Y-116775645D01*
X125024874Y-116775644D01*
X125020453Y-116770734D01*
X124921357Y-116698736D01*
X124871294Y-116662363D01*
X124871293Y-116662362D01*
X124865952Y-116658482D01*
X124859924Y-116655798D01*
X124859922Y-116655797D01*
X124697519Y-116583491D01*
X124697518Y-116583491D01*
X124691488Y-116580806D01*
X124590570Y-116559355D01*
X124511144Y-116542472D01*
X124511139Y-116542472D01*
X124504687Y-116541100D01*
X124313713Y-116541100D01*
X124307261Y-116542472D01*
X124307256Y-116542472D01*
X124227830Y-116559355D01*
X124126912Y-116580806D01*
X124120882Y-116583491D01*
X124120881Y-116583491D01*
X123958478Y-116655797D01*
X123958476Y-116655798D01*
X123952448Y-116658482D01*
X123947107Y-116662362D01*
X123947106Y-116662363D01*
X123897043Y-116698736D01*
X123797947Y-116770734D01*
X123793526Y-116775644D01*
X123793525Y-116775645D01*
X123675073Y-116907200D01*
X123670160Y-116912656D01*
X123647851Y-116951296D01*
X123598596Y-117036609D01*
X123574673Y-117078044D01*
X123515658Y-117259672D01*
X123514968Y-117266233D01*
X123514968Y-117266235D01*
X123508263Y-117330030D01*
X123500324Y-117405573D01*
X123498293Y-117424893D01*
X123471280Y-117490550D01*
X123462078Y-117500818D01*
X121814900Y-119147995D01*
X121752588Y-119182021D01*
X121725805Y-119184900D01*
X121196600Y-119184900D01*
X121128479Y-119164898D01*
X121081986Y-119111242D01*
X121070600Y-119058900D01*
X121070600Y-115972688D01*
X121090602Y-115904567D01*
X121107426Y-115883671D01*
X121119937Y-115871138D01*
X121182220Y-115837058D01*
X121253040Y-115842061D01*
X121298129Y-115870982D01*
X121380629Y-115953339D01*
X121392040Y-115962351D01*
X121530043Y-116047416D01*
X121543224Y-116053563D01*
X121697510Y-116104738D01*
X121710886Y-116107605D01*
X121805238Y-116117272D01*
X121811654Y-116117600D01*
X121936685Y-116117600D01*
X121951924Y-116113125D01*
X121953129Y-116111735D01*
X121954800Y-116104052D01*
X121954800Y-116099484D01*
X122462800Y-116099484D01*
X122467275Y-116114723D01*
X122468665Y-116115928D01*
X122476348Y-116117599D01*
X122605895Y-116117599D01*
X122612414Y-116117262D01*
X122708006Y-116107343D01*
X122721400Y-116104451D01*
X122875584Y-116053012D01*
X122888762Y-116046839D01*
X123026607Y-115961537D01*
X123038008Y-115952501D01*
X123152539Y-115837771D01*
X123161551Y-115826360D01*
X123246616Y-115688357D01*
X123252763Y-115675176D01*
X123303938Y-115520890D01*
X123306805Y-115507514D01*
X123316472Y-115413162D01*
X123316800Y-115406746D01*
X123316800Y-115181715D01*
X123312325Y-115166476D01*
X123310935Y-115165271D01*
X123303252Y-115163600D01*
X122480915Y-115163600D01*
X122465676Y-115168075D01*
X122464471Y-115169465D01*
X122462800Y-115177148D01*
X122462800Y-116099484D01*
X121954800Y-116099484D01*
X121954800Y-114637485D01*
X122462800Y-114637485D01*
X122467275Y-114652724D01*
X122468665Y-114653929D01*
X122476348Y-114655600D01*
X123298684Y-114655600D01*
X123313923Y-114651125D01*
X123315128Y-114649735D01*
X123316799Y-114642052D01*
X123316799Y-114412505D01*
X123316462Y-114405986D01*
X123306543Y-114310394D01*
X123303651Y-114297000D01*
X123252212Y-114142816D01*
X123246039Y-114129638D01*
X123160737Y-113991793D01*
X123151701Y-113980392D01*
X123036971Y-113865861D01*
X123025560Y-113856849D01*
X122887557Y-113771784D01*
X122874376Y-113765637D01*
X122720090Y-113714462D01*
X122706714Y-113711595D01*
X122612362Y-113701928D01*
X122605945Y-113701600D01*
X122480915Y-113701600D01*
X122465676Y-113706075D01*
X122464471Y-113707465D01*
X122462800Y-113715148D01*
X122462800Y-114637485D01*
X121954800Y-114637485D01*
X121954800Y-113719716D01*
X121950325Y-113704477D01*
X121948935Y-113703272D01*
X121941252Y-113701601D01*
X121811705Y-113701601D01*
X121805186Y-113701938D01*
X121709594Y-113711857D01*
X121696200Y-113714749D01*
X121542016Y-113766188D01*
X121528838Y-113772361D01*
X121390993Y-113857663D01*
X121379592Y-113866699D01*
X121298370Y-113948062D01*
X121236087Y-113982141D01*
X121165267Y-113977138D01*
X121120180Y-113948217D01*
X121037288Y-113865470D01*
X121037283Y-113865466D01*
X121032103Y-113860295D01*
X121000819Y-113841011D01*
X120887768Y-113771325D01*
X120887766Y-113771324D01*
X120881538Y-113767485D01*
X120753832Y-113725127D01*
X120720189Y-113713968D01*
X120720187Y-113713968D01*
X120713661Y-113711803D01*
X120706825Y-113711103D01*
X120706822Y-113711102D01*
X120663769Y-113706691D01*
X120609200Y-113701100D01*
X119808400Y-113701100D01*
X119805154Y-113701437D01*
X119805150Y-113701437D01*
X119709492Y-113711362D01*
X119709488Y-113711363D01*
X119702634Y-113712074D01*
X119696098Y-113714255D01*
X119696096Y-113714255D01*
X119642018Y-113732297D01*
X119534854Y-113768050D01*
X119384452Y-113861122D01*
X119259495Y-113986297D01*
X119255655Y-113992527D01*
X119255654Y-113992528D01*
X119215557Y-114057578D01*
X119166685Y-114136862D01*
X119111003Y-114304739D01*
X119110302Y-114311577D01*
X119110302Y-114311579D01*
X119103899Y-114374071D01*
X119077057Y-114439798D01*
X119069573Y-114448358D01*
X119047663Y-114471246D01*
X119047660Y-114471250D01*
X119043510Y-114475585D01*
X119040257Y-114480624D01*
X119040254Y-114480627D01*
X119024840Y-114504500D01*
X119016142Y-114516383D01*
X118994224Y-114542925D01*
X118964506Y-114597319D01*
X118959793Y-114605239D01*
X118929441Y-114652246D01*
X118929439Y-114652250D01*
X118926184Y-114657291D01*
X118913316Y-114689220D01*
X118907028Y-114702522D01*
X118890521Y-114732735D01*
X118888695Y-114738440D01*
X118888694Y-114738442D01*
X118871631Y-114791749D01*
X118868495Y-114800435D01*
X118845334Y-114857904D01*
X118844184Y-114863790D01*
X118844184Y-114863792D01*
X118838737Y-114891685D01*
X118835075Y-114905948D01*
X118824581Y-114938732D01*
X118823866Y-114944681D01*
X118823865Y-114944687D01*
X118817189Y-115000255D01*
X118815753Y-115009375D01*
X118807738Y-115050422D01*
X118803878Y-115070187D01*
X118803600Y-115075871D01*
X118803600Y-115105845D01*
X118802701Y-115120873D01*
X118798784Y-115153480D01*
X118799207Y-115159456D01*
X118799207Y-115159459D01*
X118803285Y-115217051D01*
X118803600Y-115225950D01*
X118803600Y-119174987D01*
X118783598Y-119243108D01*
X118773998Y-119255020D01*
X118773839Y-119255139D01*
X118773005Y-119256252D01*
X118773000Y-119256258D01*
X118734043Y-119308238D01*
X118686485Y-119371695D01*
X118635355Y-119508084D01*
X118628600Y-119570266D01*
X118628600Y-121066534D01*
X116785700Y-121066534D01*
X116785700Y-113882871D01*
X116805702Y-113814750D01*
X116822605Y-113793776D01*
X120024376Y-110592005D01*
X120086688Y-110557979D01*
X120113471Y-110555100D01*
X120610000Y-110555100D01*
X120613246Y-110554763D01*
X120613250Y-110554763D01*
X120708908Y-110544838D01*
X120708912Y-110544837D01*
X120715766Y-110544126D01*
X120722302Y-110541945D01*
X120722304Y-110541945D01*
X120876598Y-110490468D01*
X120883546Y-110488150D01*
X121033948Y-110395078D01*
X121158905Y-110269903D01*
X121161702Y-110265365D01*
X121218953Y-110224776D01*
X121289876Y-110221546D01*
X121351287Y-110257172D01*
X121358662Y-110265668D01*
X121366698Y-110275807D01*
X121481429Y-110390339D01*
X121492840Y-110399351D01*
X121630843Y-110484416D01*
X121644024Y-110490563D01*
X121798310Y-110541738D01*
X121811686Y-110544605D01*
X121906038Y-110554272D01*
X121912454Y-110554600D01*
X122024985Y-110554600D01*
X122040224Y-110550125D01*
X122041429Y-110548735D01*
X122043100Y-110541052D01*
X122043100Y-110536484D01*
X122551100Y-110536484D01*
X122555575Y-110551723D01*
X122556965Y-110552928D01*
X122564648Y-110554599D01*
X122681695Y-110554599D01*
X122688214Y-110554262D01*
X122783806Y-110544343D01*
X122797200Y-110541451D01*
X122951384Y-110490012D01*
X122964562Y-110483839D01*
X123102407Y-110398537D01*
X123113808Y-110389501D01*
X123228339Y-110274771D01*
X123237351Y-110263360D01*
X123322416Y-110125357D01*
X123328563Y-110112176D01*
X123379738Y-109957890D01*
X123382605Y-109944514D01*
X123392272Y-109850162D01*
X123392600Y-109843746D01*
X123392600Y-109593715D01*
X123388125Y-109578476D01*
X123386735Y-109577271D01*
X123379052Y-109575600D01*
X122569215Y-109575600D01*
X122553976Y-109580075D01*
X122552771Y-109581465D01*
X122551100Y-109589148D01*
X122551100Y-110536484D01*
X122043100Y-110536484D01*
X122043100Y-109049485D01*
X122551100Y-109049485D01*
X122555575Y-109064724D01*
X122556965Y-109065929D01*
X122564648Y-109067600D01*
X123374484Y-109067600D01*
X123389723Y-109063125D01*
X123390928Y-109061735D01*
X123392599Y-109054052D01*
X123392599Y-108799505D01*
X123392262Y-108792986D01*
X123382343Y-108697394D01*
X123379451Y-108684000D01*
X123328012Y-108529816D01*
X123321839Y-108516638D01*
X123236537Y-108378793D01*
X123227501Y-108367392D01*
X123112771Y-108252861D01*
X123101360Y-108243849D01*
X122963357Y-108158784D01*
X122950176Y-108152637D01*
X122795890Y-108101462D01*
X122782514Y-108098595D01*
X122688162Y-108088928D01*
X122681745Y-108088600D01*
X122569215Y-108088600D01*
X122553976Y-108093075D01*
X122552771Y-108094465D01*
X122551100Y-108102148D01*
X122551100Y-109049485D01*
X122043100Y-109049485D01*
X122043100Y-108106716D01*
X122038625Y-108091477D01*
X122037235Y-108090272D01*
X122029552Y-108088601D01*
X121912505Y-108088601D01*
X121905986Y-108088938D01*
X121810394Y-108098857D01*
X121797000Y-108101749D01*
X121642816Y-108153188D01*
X121629638Y-108159361D01*
X121491793Y-108244663D01*
X121480392Y-108253699D01*
X121365862Y-108368428D01*
X121358806Y-108377362D01*
X121300888Y-108418423D01*
X121229965Y-108421653D01*
X121168554Y-108386026D01*
X121161754Y-108378193D01*
X121158078Y-108372252D01*
X121032903Y-108247295D01*
X121008822Y-108232451D01*
X120888568Y-108158325D01*
X120888566Y-108158324D01*
X120882338Y-108154485D01*
X120875391Y-108152181D01*
X120871557Y-108150393D01*
X120818272Y-108103477D01*
X120810018Y-108087845D01*
X120808118Y-108081307D01*
X120804085Y-108074487D01*
X120804082Y-108074481D01*
X120797807Y-108063872D01*
X120789112Y-108046124D01*
X120781652Y-108027283D01*
X120775424Y-108018710D01*
X120755664Y-107991513D01*
X120749148Y-107981593D01*
X120730680Y-107950365D01*
X120730678Y-107950362D01*
X120726642Y-107943538D01*
X120712321Y-107929217D01*
X120699480Y-107914183D01*
X120698840Y-107913302D01*
X120687572Y-107897793D01*
X120653495Y-107869602D01*
X120644716Y-107861612D01*
X119819122Y-107036018D01*
X119785096Y-106973706D01*
X119782907Y-106960093D01*
X119766232Y-106801435D01*
X119766232Y-106801433D01*
X119765542Y-106794872D01*
X119706527Y-106613244D01*
X119611040Y-106447856D01*
X119483253Y-106305934D01*
X119355630Y-106213210D01*
X119334094Y-106197563D01*
X119334093Y-106197562D01*
X119328752Y-106193682D01*
X119322724Y-106190998D01*
X119322722Y-106190997D01*
X119160319Y-106118691D01*
X119160318Y-106118691D01*
X119154288Y-106116006D01*
X119060888Y-106096153D01*
X118973944Y-106077672D01*
X118973939Y-106077672D01*
X118967487Y-106076300D01*
X118776513Y-106076300D01*
X118770061Y-106077672D01*
X118770056Y-106077672D01*
X118683112Y-106096153D01*
X118589712Y-106116006D01*
X118583682Y-106118691D01*
X118583681Y-106118691D01*
X118421278Y-106190997D01*
X118421276Y-106190998D01*
X118415248Y-106193682D01*
X118409907Y-106197562D01*
X118409906Y-106197563D01*
X118388370Y-106213210D01*
X118260747Y-106305934D01*
X118256326Y-106310844D01*
X118256325Y-106310845D01*
X118201136Y-106372139D01*
X118140690Y-106409379D01*
X118069707Y-106408027D01*
X118010722Y-106368514D01*
X117982464Y-106303383D01*
X117981500Y-106287829D01*
X117981500Y-104740924D01*
X118001502Y-104672803D01*
X118013858Y-104656621D01*
X118087040Y-104575344D01*
X118154243Y-104458946D01*
X118179223Y-104415679D01*
X118179224Y-104415678D01*
X118182527Y-104409956D01*
X118241542Y-104228328D01*
X118243583Y-104208915D01*
X118260814Y-104044965D01*
X118261504Y-104038400D01*
X118241542Y-103848472D01*
X118182527Y-103666844D01*
X118087040Y-103501456D01*
X118003060Y-103408186D01*
X117963675Y-103364445D01*
X117963674Y-103364444D01*
X117959253Y-103359534D01*
X117854324Y-103283298D01*
X117810094Y-103251163D01*
X117810093Y-103251162D01*
X117804752Y-103247282D01*
X117798724Y-103244598D01*
X117798722Y-103244597D01*
X117636319Y-103172291D01*
X117636318Y-103172291D01*
X117630288Y-103169606D01*
X117526307Y-103147504D01*
X117449944Y-103131272D01*
X117449939Y-103131272D01*
X117443487Y-103129900D01*
X117252513Y-103129900D01*
X117246061Y-103131272D01*
X117246056Y-103131272D01*
X117169693Y-103147504D01*
X117065712Y-103169606D01*
X117059682Y-103172291D01*
X117059681Y-103172291D01*
X116897278Y-103244597D01*
X116897276Y-103244598D01*
X116891248Y-103247282D01*
X116885907Y-103251162D01*
X116885906Y-103251163D01*
X116841676Y-103283298D01*
X116736747Y-103359534D01*
X116732326Y-103364444D01*
X116732325Y-103364445D01*
X116692941Y-103408186D01*
X116608960Y-103501456D01*
X116513473Y-103666844D01*
X116454458Y-103848472D01*
X116434496Y-104038400D01*
X116435186Y-104044965D01*
X116452418Y-104208915D01*
X116454458Y-104228328D01*
X116513473Y-104409956D01*
X116516776Y-104415678D01*
X116516777Y-104415679D01*
X116541757Y-104458946D01*
X116608960Y-104575344D01*
X116682137Y-104656615D01*
X116712853Y-104720621D01*
X116714500Y-104740924D01*
X116714500Y-109565806D01*
X116694498Y-109633927D01*
X116677595Y-109654901D01*
X115783760Y-110548735D01*
X114890662Y-111441833D01*
X114364942Y-111967552D01*
X114356662Y-111975087D01*
X114350182Y-111979200D01*
X114313161Y-112018624D01*
X114303557Y-112028851D01*
X114300802Y-112031693D01*
X114281065Y-112051430D01*
X114278585Y-112054627D01*
X114270882Y-112063647D01*
X114240614Y-112095879D01*
X114236795Y-112102825D01*
X114236793Y-112102828D01*
X114230852Y-112113634D01*
X114220001Y-112130153D01*
X114207586Y-112146159D01*
X114204441Y-112153428D01*
X114204438Y-112153432D01*
X114190026Y-112186737D01*
X114184809Y-112197387D01*
X114163505Y-112236140D01*
X114161534Y-112243815D01*
X114161534Y-112243816D01*
X114158467Y-112255762D01*
X114152063Y-112274466D01*
X114149577Y-112280212D01*
X114144019Y-112293055D01*
X114142780Y-112300878D01*
X114142777Y-112300888D01*
X114137101Y-112336724D01*
X114134695Y-112348344D01*
X114131509Y-112360753D01*
X114123700Y-112391170D01*
X114123700Y-112411424D01*
X114122149Y-112431134D01*
X114118980Y-112451143D01*
X114119726Y-112459035D01*
X114123141Y-112495161D01*
X114123700Y-112507019D01*
X114123700Y-125092433D01*
X114123173Y-125103616D01*
X114121498Y-125111109D01*
X114121747Y-125119035D01*
X114121747Y-125119036D01*
X114123638Y-125179186D01*
X114123700Y-125183145D01*
X114123700Y-125211056D01*
X114124197Y-125214990D01*
X114124197Y-125214991D01*
X114124205Y-125215056D01*
X114125138Y-125226893D01*
X114126527Y-125271089D01*
X114132178Y-125290539D01*
X114136187Y-125309900D01*
X114138726Y-125329997D01*
X114141645Y-125337368D01*
X114141645Y-125337370D01*
X114155004Y-125371112D01*
X114158849Y-125382342D01*
X114171182Y-125424793D01*
X114175215Y-125431612D01*
X114175217Y-125431617D01*
X114181493Y-125442228D01*
X114190188Y-125459976D01*
X114197648Y-125478817D01*
X114202310Y-125485233D01*
X114202310Y-125485234D01*
X114223636Y-125514587D01*
X114230152Y-125524507D01*
X114252658Y-125562562D01*
X114266979Y-125576883D01*
X114279819Y-125591916D01*
X114291728Y-125608307D01*
X114297834Y-125613358D01*
X114325805Y-125636498D01*
X114334584Y-125644488D01*
X117150900Y-128460805D01*
X117184926Y-128523117D01*
X117179861Y-128593933D01*
X117137314Y-128650768D01*
X117070794Y-128675579D01*
X117061805Y-128675900D01*
X112292900Y-128675900D01*
X112224779Y-128655898D01*
X112178286Y-128602242D01*
X112166900Y-128549900D01*
X112166900Y-100939600D01*
X116434496Y-100939600D01*
X116435186Y-100946165D01*
X116453138Y-101116966D01*
X116454458Y-101129528D01*
X116513473Y-101311156D01*
X116516776Y-101316878D01*
X116516777Y-101316879D01*
X116550686Y-101375610D01*
X116608960Y-101476544D01*
X116613378Y-101481451D01*
X116613379Y-101481452D01*
X116716638Y-101596133D01*
X116736747Y-101618466D01*
X116829758Y-101686043D01*
X116864120Y-101711008D01*
X116891248Y-101730718D01*
X116897276Y-101733402D01*
X116897278Y-101733403D01*
X117059681Y-101805709D01*
X117065712Y-101808394D01*
X117072167Y-101809766D01*
X117072176Y-101809769D01*
X117128772Y-101821799D01*
X117191669Y-101855950D01*
X118936795Y-103601076D01*
X118970821Y-103663388D01*
X118973700Y-103690171D01*
X118973700Y-104462200D01*
X118974037Y-104465446D01*
X118974037Y-104465450D01*
X118983938Y-104560871D01*
X118984674Y-104567966D01*
X118986855Y-104574502D01*
X118986855Y-104574504D01*
X119010616Y-104645724D01*
X119040650Y-104735746D01*
X119133722Y-104886148D01*
X119138904Y-104891321D01*
X119153102Y-104905494D01*
X119258897Y-105011105D01*
X119265127Y-105014945D01*
X119265128Y-105014946D01*
X119402488Y-105099616D01*
X119409462Y-105103915D01*
X119466948Y-105122982D01*
X119570811Y-105157432D01*
X119570813Y-105157432D01*
X119577339Y-105159597D01*
X119584175Y-105160297D01*
X119584178Y-105160298D01*
X119627231Y-105164709D01*
X119681800Y-105170300D01*
X120457600Y-105170300D01*
X120460846Y-105169963D01*
X120460850Y-105169963D01*
X120556508Y-105160038D01*
X120556512Y-105160037D01*
X120563366Y-105159326D01*
X120569902Y-105157145D01*
X120569904Y-105157145D01*
X120715236Y-105108658D01*
X120731146Y-105103350D01*
X120881548Y-105010278D01*
X120899609Y-104992186D01*
X120984780Y-104906866D01*
X121006505Y-104885103D01*
X121009302Y-104880565D01*
X121066553Y-104839976D01*
X121137476Y-104836746D01*
X121198887Y-104872372D01*
X121206262Y-104880868D01*
X121214298Y-104891007D01*
X121329029Y-105005539D01*
X121340440Y-105014551D01*
X121478443Y-105099616D01*
X121491624Y-105105763D01*
X121645910Y-105156938D01*
X121659286Y-105159805D01*
X121753638Y-105169472D01*
X121760054Y-105169800D01*
X121872585Y-105169800D01*
X121887824Y-105165325D01*
X121889029Y-105163935D01*
X121890700Y-105156252D01*
X121890700Y-105151684D01*
X122398700Y-105151684D01*
X122403175Y-105166923D01*
X122404565Y-105168128D01*
X122412248Y-105169799D01*
X122529295Y-105169799D01*
X122535814Y-105169462D01*
X122631406Y-105159543D01*
X122644800Y-105156651D01*
X122798984Y-105105212D01*
X122812162Y-105099039D01*
X122950007Y-105013737D01*
X122961408Y-105004701D01*
X123075939Y-104889971D01*
X123084951Y-104878560D01*
X123170016Y-104740557D01*
X123176163Y-104727376D01*
X123227338Y-104573090D01*
X123230205Y-104559714D01*
X123239872Y-104465362D01*
X123240200Y-104458946D01*
X123240200Y-104208915D01*
X123235725Y-104193676D01*
X123234335Y-104192471D01*
X123226652Y-104190800D01*
X122416815Y-104190800D01*
X122401576Y-104195275D01*
X122400371Y-104196665D01*
X122398700Y-104204348D01*
X122398700Y-105151684D01*
X121890700Y-105151684D01*
X121890700Y-103664685D01*
X122398700Y-103664685D01*
X122403175Y-103679924D01*
X122404565Y-103681129D01*
X122412248Y-103682800D01*
X123222084Y-103682800D01*
X123237323Y-103678325D01*
X123238528Y-103676935D01*
X123240199Y-103669252D01*
X123240199Y-103414705D01*
X123239862Y-103408186D01*
X123229943Y-103312594D01*
X123227051Y-103299200D01*
X123175612Y-103145016D01*
X123169439Y-103131838D01*
X123084137Y-102993993D01*
X123075101Y-102982592D01*
X122960371Y-102868061D01*
X122948960Y-102859049D01*
X122810957Y-102773984D01*
X122797776Y-102767837D01*
X122643490Y-102716662D01*
X122630114Y-102713795D01*
X122535762Y-102704128D01*
X122529345Y-102703800D01*
X122416815Y-102703800D01*
X122401576Y-102708275D01*
X122400371Y-102709665D01*
X122398700Y-102717348D01*
X122398700Y-103664685D01*
X121890700Y-103664685D01*
X121890700Y-102721916D01*
X121886225Y-102706677D01*
X121884835Y-102705472D01*
X121877152Y-102703801D01*
X121760105Y-102703801D01*
X121753586Y-102704138D01*
X121657994Y-102714057D01*
X121644600Y-102716949D01*
X121490416Y-102768388D01*
X121477238Y-102774561D01*
X121339393Y-102859863D01*
X121327992Y-102868899D01*
X121213462Y-102983628D01*
X121206406Y-102992562D01*
X121148488Y-103033623D01*
X121077565Y-103036853D01*
X121016154Y-103001226D01*
X121009354Y-102993393D01*
X121005678Y-102987452D01*
X120880503Y-102862495D01*
X120874272Y-102858654D01*
X120736168Y-102773525D01*
X120736166Y-102773524D01*
X120729938Y-102769685D01*
X120647326Y-102742284D01*
X120568589Y-102716168D01*
X120568587Y-102716168D01*
X120562061Y-102714003D01*
X120555225Y-102713303D01*
X120555222Y-102713302D01*
X120512169Y-102708891D01*
X120457600Y-102703300D01*
X120236571Y-102703300D01*
X120168450Y-102683298D01*
X120147476Y-102666395D01*
X118268125Y-100787044D01*
X118237387Y-100736885D01*
X118206351Y-100641365D01*
X118182527Y-100568044D01*
X118173107Y-100551727D01*
X118115204Y-100451437D01*
X118087040Y-100402656D01*
X118082571Y-100397692D01*
X117963675Y-100265645D01*
X117963674Y-100265644D01*
X117959253Y-100260734D01*
X117815288Y-100156137D01*
X117810094Y-100152363D01*
X117810093Y-100152362D01*
X117804752Y-100148482D01*
X117798724Y-100145798D01*
X117798722Y-100145797D01*
X117636319Y-100073491D01*
X117636318Y-100073491D01*
X117630288Y-100070806D01*
X117528880Y-100049251D01*
X117449944Y-100032472D01*
X117449939Y-100032472D01*
X117443487Y-100031100D01*
X117252513Y-100031100D01*
X117246061Y-100032472D01*
X117246056Y-100032472D01*
X117167120Y-100049251D01*
X117065712Y-100070806D01*
X117059682Y-100073491D01*
X117059681Y-100073491D01*
X116897278Y-100145797D01*
X116897276Y-100145798D01*
X116891248Y-100148482D01*
X116885907Y-100152362D01*
X116885906Y-100152363D01*
X116880712Y-100156137D01*
X116736747Y-100260734D01*
X116732326Y-100265644D01*
X116732325Y-100265645D01*
X116613430Y-100397692D01*
X116608960Y-100402656D01*
X116580796Y-100451437D01*
X116522894Y-100551727D01*
X116513473Y-100568044D01*
X116454458Y-100749672D01*
X116453768Y-100756233D01*
X116453768Y-100756235D01*
X116439294Y-100893953D01*
X116434496Y-100939600D01*
X112166900Y-100939600D01*
X112166900Y-77128495D01*
X129083401Y-77128495D01*
X129083738Y-77135014D01*
X129093657Y-77230606D01*
X129096549Y-77244000D01*
X129147988Y-77398184D01*
X129154161Y-77411362D01*
X129239463Y-77549207D01*
X129248499Y-77560608D01*
X129363229Y-77675139D01*
X129374640Y-77684151D01*
X129512643Y-77769216D01*
X129525824Y-77775363D01*
X129680110Y-77826538D01*
X129693486Y-77829405D01*
X129787838Y-77839072D01*
X129794254Y-77839400D01*
X129906785Y-77839400D01*
X129922024Y-77834925D01*
X129923229Y-77833535D01*
X129924900Y-77825852D01*
X129924900Y-76878515D01*
X129920425Y-76863276D01*
X129919035Y-76862071D01*
X129911352Y-76860400D01*
X129101516Y-76860400D01*
X129086277Y-76864875D01*
X129085072Y-76866265D01*
X129083401Y-76873948D01*
X129083401Y-77128495D01*
X112166900Y-77128495D01*
X112166900Y-76334285D01*
X129083400Y-76334285D01*
X129087875Y-76349524D01*
X129089265Y-76350729D01*
X129096948Y-76352400D01*
X129906785Y-76352400D01*
X129922024Y-76347925D01*
X129923229Y-76346535D01*
X129924900Y-76338852D01*
X129924900Y-75391516D01*
X129920425Y-75376277D01*
X129919035Y-75375072D01*
X129911352Y-75373401D01*
X129794305Y-75373401D01*
X129787786Y-75373738D01*
X129692194Y-75383657D01*
X129678800Y-75386549D01*
X129524616Y-75437988D01*
X129511438Y-75444161D01*
X129373593Y-75529463D01*
X129362192Y-75538499D01*
X129247661Y-75653229D01*
X129238649Y-75664640D01*
X129153584Y-75802643D01*
X129147437Y-75815824D01*
X129096262Y-75970110D01*
X129093395Y-75983486D01*
X129083728Y-76077838D01*
X129083400Y-76084255D01*
X129083400Y-76334285D01*
X112166900Y-76334285D01*
X112166900Y-68300100D01*
X112186902Y-68231979D01*
X112240558Y-68185486D01*
X112292900Y-68174100D01*
X198552300Y-68174100D01*
X198620421Y-68194102D01*
G37*
%TD.AperFunction*%
%TA.AperFunction,Conductor*%
G36*
X179413414Y-87336456D02*
G01*
X179463017Y-87370201D01*
X179576347Y-87496066D01*
X179730848Y-87608318D01*
X179736876Y-87611002D01*
X179736878Y-87611003D01*
X179806189Y-87641862D01*
X179905312Y-87685994D01*
X179991312Y-87704274D01*
X180085656Y-87724328D01*
X180085661Y-87724328D01*
X180092113Y-87725700D01*
X180283087Y-87725700D01*
X180289539Y-87724328D01*
X180289544Y-87724328D01*
X180383888Y-87704274D01*
X180469888Y-87685994D01*
X180569011Y-87641862D01*
X180638322Y-87611003D01*
X180638324Y-87611002D01*
X180644352Y-87608318D01*
X180694227Y-87572082D01*
X180777271Y-87511746D01*
X180798853Y-87496066D01*
X180803268Y-87491163D01*
X180808180Y-87486740D01*
X180809305Y-87487989D01*
X180862614Y-87455149D01*
X180895800Y-87450700D01*
X181393833Y-87450700D01*
X181405016Y-87451227D01*
X181412509Y-87452902D01*
X181420435Y-87452653D01*
X181420436Y-87452653D01*
X181480586Y-87450762D01*
X181484545Y-87450700D01*
X181512456Y-87450700D01*
X181516391Y-87450203D01*
X181516456Y-87450195D01*
X181528295Y-87449262D01*
X181542093Y-87448829D01*
X181559267Y-87448289D01*
X181627982Y-87466142D01*
X181676137Y-87518311D01*
X181688511Y-87587616D01*
X181669651Y-87764095D01*
X181669948Y-87769248D01*
X181669948Y-87769251D01*
X181677994Y-87908794D01*
X181682510Y-87987115D01*
X181683647Y-87992161D01*
X181683648Y-87992167D01*
X181693522Y-88035979D01*
X181731622Y-88205039D01*
X181771451Y-88303126D01*
X181808024Y-88393195D01*
X181815666Y-88412016D01*
X181932387Y-88602488D01*
X182078650Y-88771338D01*
X182250526Y-88914032D01*
X182263359Y-88921531D01*
X182324355Y-88957174D01*
X182373079Y-89008812D01*
X182386150Y-89078595D01*
X182359419Y-89144367D01*
X182318962Y-89177727D01*
X182310857Y-89181946D01*
X182302138Y-89187436D01*
X182131833Y-89315305D01*
X182124126Y-89322148D01*
X181976990Y-89476117D01*
X181970504Y-89484127D01*
X181850498Y-89660049D01*
X181845400Y-89669023D01*
X181755738Y-89862183D01*
X181752175Y-89871870D01*
X181696789Y-90071583D01*
X181698312Y-90080007D01*
X181710692Y-90083400D01*
X183160400Y-90083400D01*
X183228521Y-90103402D01*
X183275014Y-90157058D01*
X183286400Y-90209400D01*
X183286400Y-91655917D01*
X183290464Y-91669759D01*
X183303878Y-91671793D01*
X183310584Y-91670934D01*
X183320662Y-91668792D01*
X183524655Y-91607591D01*
X183534242Y-91603833D01*
X183725495Y-91510139D01*
X183734345Y-91504864D01*
X183907728Y-91381192D01*
X183915600Y-91374539D01*
X184066452Y-91224212D01*
X184073130Y-91216365D01*
X184197403Y-91043420D01*
X184202713Y-91034583D01*
X184297070Y-90843667D01*
X184300869Y-90834072D01*
X184327919Y-90745041D01*
X184366860Y-90685677D01*
X184431714Y-90656790D01*
X184501890Y-90667551D01*
X184555108Y-90714545D01*
X184568310Y-90742734D01*
X184585473Y-90795556D01*
X184680960Y-90960944D01*
X184685378Y-90965851D01*
X184685379Y-90965852D01*
X184780082Y-91071030D01*
X184808747Y-91102866D01*
X184963248Y-91215118D01*
X184969276Y-91217802D01*
X184969278Y-91217803D01*
X185067186Y-91261394D01*
X185137712Y-91292794D01*
X185231112Y-91312647D01*
X185318056Y-91331128D01*
X185318061Y-91331128D01*
X185324513Y-91332500D01*
X185422500Y-91332500D01*
X185490621Y-91352502D01*
X185537114Y-91406158D01*
X185548500Y-91458500D01*
X185548500Y-107533806D01*
X185528498Y-107601927D01*
X185511595Y-107622901D01*
X175440900Y-117693595D01*
X175378588Y-117727621D01*
X175351805Y-117730500D01*
X158340600Y-117730500D01*
X158272479Y-117710498D01*
X158253253Y-117694157D01*
X158252980Y-117694460D01*
X158248068Y-117690037D01*
X158243653Y-117685134D01*
X158171849Y-117632965D01*
X158094494Y-117576763D01*
X158094493Y-117576762D01*
X158089152Y-117572882D01*
X158083124Y-117570198D01*
X158083122Y-117570197D01*
X157920719Y-117497891D01*
X157920718Y-117497891D01*
X157914688Y-117495206D01*
X157821287Y-117475353D01*
X157734344Y-117456872D01*
X157734339Y-117456872D01*
X157727887Y-117455500D01*
X157704901Y-117455500D01*
X157636780Y-117435498D01*
X157590287Y-117381842D01*
X157580183Y-117311568D01*
X157609677Y-117246988D01*
X157615806Y-117240405D01*
X157749091Y-117107120D01*
X157757576Y-117099956D01*
X157757392Y-117099743D01*
X157761928Y-117095828D01*
X157766821Y-117092357D01*
X157832405Y-117023847D01*
X157834328Y-117021883D01*
X157862518Y-116993693D01*
X157867407Y-116987773D01*
X157873539Y-116980879D01*
X157912237Y-116940454D01*
X157912240Y-116940450D01*
X157916390Y-116936115D01*
X157920171Y-116930260D01*
X157935060Y-116907200D01*
X157943758Y-116895316D01*
X157961859Y-116873397D01*
X157965676Y-116868775D01*
X157995394Y-116814381D01*
X158000107Y-116806461D01*
X158030459Y-116759454D01*
X158030461Y-116759450D01*
X158033716Y-116754409D01*
X158046584Y-116722480D01*
X158052872Y-116709178D01*
X158066503Y-116684229D01*
X158069379Y-116678965D01*
X158088268Y-116619955D01*
X158091404Y-116611268D01*
X158112326Y-116559355D01*
X158112327Y-116559352D01*
X158114566Y-116553796D01*
X158121163Y-116520013D01*
X158124826Y-116505747D01*
X158133488Y-116478688D01*
X158133490Y-116478678D01*
X158135318Y-116472968D01*
X158142708Y-116411447D01*
X158144141Y-116402348D01*
X158156022Y-116341513D01*
X158156300Y-116335829D01*
X158156300Y-116305856D01*
X158157199Y-116290828D01*
X158160402Y-116264169D01*
X158160402Y-116264163D01*
X158161116Y-116258221D01*
X158156615Y-116194650D01*
X158156300Y-116185751D01*
X158156300Y-114432669D01*
X160790601Y-114432669D01*
X160790971Y-114439490D01*
X160796495Y-114490352D01*
X160800121Y-114505604D01*
X160845276Y-114626054D01*
X160853814Y-114641649D01*
X160930315Y-114743724D01*
X160942876Y-114756285D01*
X161044951Y-114832786D01*
X161060546Y-114841324D01*
X161180994Y-114886478D01*
X161196249Y-114890105D01*
X161247114Y-114895631D01*
X161253928Y-114896000D01*
X161876485Y-114896000D01*
X161891724Y-114891525D01*
X161892929Y-114890135D01*
X161894600Y-114882452D01*
X161894600Y-114877884D01*
X162402600Y-114877884D01*
X162407075Y-114893123D01*
X162408465Y-114894328D01*
X162416148Y-114895999D01*
X163043269Y-114895999D01*
X163050090Y-114895629D01*
X163100952Y-114890105D01*
X163116204Y-114886479D01*
X163236654Y-114841324D01*
X163252249Y-114832786D01*
X163354324Y-114756285D01*
X163366885Y-114743724D01*
X163443386Y-114641649D01*
X163451925Y-114626052D01*
X163493025Y-114516418D01*
X163535666Y-114459653D01*
X163602228Y-114434953D01*
X163671577Y-114450160D01*
X163706245Y-114478150D01*
X163731819Y-114507674D01*
X163739180Y-114514883D01*
X163903034Y-114650916D01*
X163911481Y-114656831D01*
X164095356Y-114764279D01*
X164104642Y-114768729D01*
X164303601Y-114844703D01*
X164313499Y-114847579D01*
X164416850Y-114868606D01*
X164430899Y-114867410D01*
X164434600Y-114857065D01*
X164434600Y-114856517D01*
X164942600Y-114856517D01*
X164946664Y-114870359D01*
X164960078Y-114872393D01*
X164966784Y-114871534D01*
X164976862Y-114869392D01*
X165180855Y-114808191D01*
X165190442Y-114804433D01*
X165381695Y-114710739D01*
X165390545Y-114705464D01*
X165563928Y-114581792D01*
X165571800Y-114575139D01*
X165722652Y-114424812D01*
X165729330Y-114416965D01*
X165853603Y-114244020D01*
X165858913Y-114235183D01*
X165953270Y-114044267D01*
X165957069Y-114034672D01*
X166018977Y-113830910D01*
X166021155Y-113820837D01*
X166022586Y-113809962D01*
X166020375Y-113795778D01*
X166007217Y-113792000D01*
X164960715Y-113792000D01*
X164945476Y-113796475D01*
X164944271Y-113797865D01*
X164942600Y-113805548D01*
X164942600Y-114856517D01*
X164434600Y-114856517D01*
X164434600Y-113810115D01*
X164430125Y-113794876D01*
X164428735Y-113793671D01*
X164421052Y-113792000D01*
X162420715Y-113792000D01*
X162405476Y-113796475D01*
X162404271Y-113797865D01*
X162402600Y-113805548D01*
X162402600Y-114877884D01*
X161894600Y-114877884D01*
X161894600Y-113810115D01*
X161890125Y-113794876D01*
X161888735Y-113793671D01*
X161881052Y-113792000D01*
X160808716Y-113792000D01*
X160793477Y-113796475D01*
X160792272Y-113797865D01*
X160790601Y-113805548D01*
X160790601Y-114432669D01*
X158156300Y-114432669D01*
X158156300Y-113297701D01*
X158165642Y-113265885D01*
X160790600Y-113265885D01*
X160795075Y-113281124D01*
X160796465Y-113282329D01*
X160804148Y-113284000D01*
X161876485Y-113284000D01*
X161891724Y-113279525D01*
X161892929Y-113278135D01*
X161894600Y-113270452D01*
X161894600Y-113265885D01*
X162402600Y-113265885D01*
X162407075Y-113281124D01*
X162408465Y-113282329D01*
X162416148Y-113284000D01*
X164416485Y-113284000D01*
X164431724Y-113279525D01*
X164432929Y-113278135D01*
X164434600Y-113270452D01*
X164434600Y-113265885D01*
X164942600Y-113265885D01*
X164947075Y-113281124D01*
X164948465Y-113282329D01*
X164956148Y-113284000D01*
X166006944Y-113284000D01*
X166020475Y-113280027D01*
X166021780Y-113270947D01*
X165979814Y-113103875D01*
X165976494Y-113094124D01*
X165891572Y-112898814D01*
X165886705Y-112889739D01*
X165771026Y-112710926D01*
X165764736Y-112702757D01*
X165621406Y-112545240D01*
X165613873Y-112538215D01*
X165446739Y-112406222D01*
X165438152Y-112400517D01*
X165251717Y-112297599D01*
X165242305Y-112293369D01*
X165041559Y-112222280D01*
X165031588Y-112219646D01*
X164960437Y-112206972D01*
X164947140Y-112208432D01*
X164942600Y-112222989D01*
X164942600Y-113265885D01*
X164434600Y-113265885D01*
X164434600Y-112221102D01*
X164430682Y-112207758D01*
X164416406Y-112205771D01*
X164377924Y-112211660D01*
X164367888Y-112214051D01*
X164165468Y-112280212D01*
X164155959Y-112284209D01*
X163967063Y-112382542D01*
X163958338Y-112388036D01*
X163788033Y-112515905D01*
X163780326Y-112522748D01*
X163702694Y-112603985D01*
X163641170Y-112639415D01*
X163570257Y-112635958D01*
X163512471Y-112594712D01*
X163493618Y-112561164D01*
X163451924Y-112449946D01*
X163443386Y-112434351D01*
X163366885Y-112332276D01*
X163354324Y-112319715D01*
X163252249Y-112243214D01*
X163236654Y-112234676D01*
X163116206Y-112189522D01*
X163100951Y-112185895D01*
X163050086Y-112180369D01*
X163043272Y-112180000D01*
X162420715Y-112180000D01*
X162405476Y-112184475D01*
X162404271Y-112185865D01*
X162402600Y-112193548D01*
X162402600Y-113265885D01*
X161894600Y-113265885D01*
X161894600Y-112198116D01*
X161890125Y-112182877D01*
X161888735Y-112181672D01*
X161881052Y-112180001D01*
X161253931Y-112180001D01*
X161247110Y-112180371D01*
X161196248Y-112185895D01*
X161180996Y-112189521D01*
X161060546Y-112234676D01*
X161044951Y-112243214D01*
X160942876Y-112319715D01*
X160930315Y-112332276D01*
X160853814Y-112434351D01*
X160845276Y-112449946D01*
X160800122Y-112570394D01*
X160796495Y-112585649D01*
X160790969Y-112636514D01*
X160790600Y-112643328D01*
X160790600Y-113265885D01*
X158165642Y-113265885D01*
X158176302Y-113229580D01*
X158193205Y-113208606D01*
X159487406Y-111914405D01*
X159549718Y-111880379D01*
X159576501Y-111877500D01*
X164688833Y-111877500D01*
X164699894Y-111878433D01*
X164699915Y-111878153D01*
X164705888Y-111878592D01*
X164711807Y-111879598D01*
X164806571Y-111877530D01*
X164809319Y-111877500D01*
X164849241Y-111877500D01*
X164856905Y-111876769D01*
X164866101Y-111876231D01*
X164901765Y-111875453D01*
X164922052Y-111875010D01*
X164922053Y-111875010D01*
X164928048Y-111874879D01*
X164961695Y-111867635D01*
X164976244Y-111865383D01*
X164996710Y-111863430D01*
X165010515Y-111862113D01*
X165069968Y-111844671D01*
X165078919Y-111842397D01*
X165139495Y-111829356D01*
X165171166Y-111815880D01*
X165185027Y-111810917D01*
X165218060Y-111801226D01*
X165273141Y-111772858D01*
X165281486Y-111768939D01*
X165338520Y-111744671D01*
X165367079Y-111725444D01*
X165379754Y-111717948D01*
X165401601Y-111706696D01*
X165410348Y-111702191D01*
X165459074Y-111663917D01*
X165466524Y-111658494D01*
X165514181Y-111626409D01*
X165514183Y-111626407D01*
X165517940Y-111623878D01*
X165522156Y-111620055D01*
X165543349Y-111598862D01*
X165554611Y-111588871D01*
X165575722Y-111572288D01*
X165580439Y-111568583D01*
X165622220Y-111520435D01*
X165628289Y-111513922D01*
X167463718Y-109678493D01*
X167566876Y-109553574D01*
X167670579Y-109363764D01*
X167736519Y-109157768D01*
X167754597Y-109007281D01*
X167761602Y-108948967D01*
X167761602Y-108948963D01*
X167762316Y-108943020D01*
X167760347Y-108915200D01*
X167747465Y-108733258D01*
X167747041Y-108727267D01*
X167696303Y-108537251D01*
X167692788Y-108524086D01*
X167692787Y-108524084D01*
X167691242Y-108518297D01*
X167627158Y-108386026D01*
X167599552Y-108329047D01*
X167599551Y-108329045D01*
X167596935Y-108323646D01*
X167572654Y-108291129D01*
X167502762Y-108197533D01*
X167467522Y-108150341D01*
X167307672Y-108004634D01*
X167302558Y-108001506D01*
X167302555Y-108001504D01*
X167172892Y-107922203D01*
X167123154Y-107891783D01*
X166920625Y-107815859D01*
X166859183Y-107805412D01*
X166713312Y-107780608D01*
X166713309Y-107780608D01*
X166707394Y-107779602D01*
X166638731Y-107781100D01*
X166497149Y-107784189D01*
X166497147Y-107784189D01*
X166491152Y-107784320D01*
X166279705Y-107829844D01*
X166274189Y-107832191D01*
X166274186Y-107832192D01*
X166086199Y-107912181D01*
X166080681Y-107914529D01*
X166060033Y-107928430D01*
X165980667Y-107981862D01*
X165912988Y-108003313D01*
X165844456Y-107984769D01*
X165796829Y-107932118D01*
X165784300Y-107877342D01*
X165784300Y-103471706D01*
X165804302Y-103403585D01*
X165857958Y-103357092D01*
X165928232Y-103346988D01*
X165937804Y-103348952D01*
X165943239Y-103351203D01*
X165951423Y-103352280D01*
X165951425Y-103352281D01*
X166050788Y-103365362D01*
X166054875Y-103365900D01*
X166154787Y-103365900D01*
X166254724Y-103365899D01*
X166258809Y-103365361D01*
X166258813Y-103365361D01*
X166332572Y-103355651D01*
X166366361Y-103351203D01*
X166372826Y-103348525D01*
X166436774Y-103348525D01*
X166443239Y-103351203D01*
X166536808Y-103363521D01*
X166550781Y-103365361D01*
X166554875Y-103365900D01*
X166564026Y-103365900D01*
X166627703Y-103365899D01*
X166695823Y-103385900D01*
X166716800Y-103402804D01*
X167007612Y-103693617D01*
X167292453Y-103978458D01*
X167299987Y-103986737D01*
X167304100Y-103993218D01*
X167345223Y-104031835D01*
X167353751Y-104039843D01*
X167356593Y-104042598D01*
X167376330Y-104062335D01*
X167379527Y-104064815D01*
X167388547Y-104072518D01*
X167420779Y-104102786D01*
X167427725Y-104106605D01*
X167427728Y-104106607D01*
X167438534Y-104112548D01*
X167455053Y-104123399D01*
X167471059Y-104135814D01*
X167478328Y-104138959D01*
X167478332Y-104138962D01*
X167511637Y-104153374D01*
X167522287Y-104158591D01*
X167561040Y-104179895D01*
X167568715Y-104181866D01*
X167568716Y-104181866D01*
X167580662Y-104184933D01*
X167599366Y-104191337D01*
X167608467Y-104195275D01*
X167617955Y-104199381D01*
X167625778Y-104200620D01*
X167625788Y-104200623D01*
X167661624Y-104206299D01*
X167673244Y-104208705D01*
X167708389Y-104217728D01*
X167716070Y-104219700D01*
X167736324Y-104219700D01*
X167756034Y-104221251D01*
X167776043Y-104224420D01*
X167783935Y-104223674D01*
X167820061Y-104220259D01*
X167831919Y-104219700D01*
X176874300Y-104219700D01*
X176942421Y-104239702D01*
X176988914Y-104293358D01*
X177000300Y-104345700D01*
X177000300Y-104484334D01*
X177007055Y-104546516D01*
X177058185Y-104682905D01*
X177145539Y-104799461D01*
X177262095Y-104886815D01*
X177398484Y-104937945D01*
X177460666Y-104944700D01*
X179256934Y-104944700D01*
X179319116Y-104937945D01*
X179455505Y-104886815D01*
X179572061Y-104799461D01*
X179659415Y-104682905D01*
X179710545Y-104546516D01*
X179717300Y-104484334D01*
X179717300Y-102688066D01*
X179710545Y-102625884D01*
X179659415Y-102489495D01*
X179572061Y-102372939D01*
X179455505Y-102285585D01*
X179442932Y-102280872D01*
X179337003Y-102241160D01*
X179280239Y-102198518D01*
X179255539Y-102131956D01*
X179270747Y-102062608D01*
X179292293Y-102033927D01*
X179393235Y-101933337D01*
X179396896Y-101929689D01*
X179450634Y-101854905D01*
X179524235Y-101752477D01*
X179527253Y-101748277D01*
X179537850Y-101726837D01*
X179623936Y-101552653D01*
X179623937Y-101552651D01*
X179626230Y-101548011D01*
X179691170Y-101334269D01*
X179720329Y-101112790D01*
X179720411Y-101109440D01*
X179721874Y-101049565D01*
X179721874Y-101049561D01*
X179721956Y-101046200D01*
X179703652Y-100823561D01*
X179649231Y-100606902D01*
X179560154Y-100402040D01*
X179495392Y-100301933D01*
X179441622Y-100218817D01*
X179441620Y-100218814D01*
X179438814Y-100214477D01*
X179435340Y-100210659D01*
X179435333Y-100210650D01*
X179313447Y-100076699D01*
X179282395Y-100012854D01*
X179290791Y-99942355D01*
X179335968Y-99887587D01*
X179406641Y-99865900D01*
X179580833Y-99865900D01*
X179592016Y-99866427D01*
X179599509Y-99868102D01*
X179607435Y-99867853D01*
X179607436Y-99867853D01*
X179667586Y-99865962D01*
X179671545Y-99865900D01*
X179699456Y-99865900D01*
X179703391Y-99865403D01*
X179703456Y-99865395D01*
X179715293Y-99864462D01*
X179747551Y-99863448D01*
X179751570Y-99863322D01*
X179759489Y-99863073D01*
X179778943Y-99857421D01*
X179798300Y-99853413D01*
X179810530Y-99851868D01*
X179810531Y-99851868D01*
X179818397Y-99850874D01*
X179825768Y-99847955D01*
X179825770Y-99847955D01*
X179859512Y-99834596D01*
X179870742Y-99830751D01*
X179905583Y-99820629D01*
X179905584Y-99820629D01*
X179913193Y-99818418D01*
X179920012Y-99814385D01*
X179920017Y-99814383D01*
X179930628Y-99808107D01*
X179948376Y-99799412D01*
X179967217Y-99791952D01*
X180002987Y-99765964D01*
X180012907Y-99759448D01*
X180044135Y-99740980D01*
X180044138Y-99740978D01*
X180050962Y-99736942D01*
X180065283Y-99722621D01*
X180080317Y-99709780D01*
X180090294Y-99702531D01*
X180096707Y-99697872D01*
X180124898Y-99663795D01*
X180132878Y-99655026D01*
X181080007Y-98707898D01*
X181142317Y-98673874D01*
X181213133Y-98678939D01*
X181269968Y-98721486D01*
X181294779Y-98788006D01*
X181295100Y-98796995D01*
X181295100Y-105284806D01*
X181275098Y-105352927D01*
X181258195Y-105373901D01*
X178772599Y-107859496D01*
X178710287Y-107893522D01*
X178683504Y-107896401D01*
X177013899Y-107896401D01*
X176945778Y-107876399D01*
X176926552Y-107860058D01*
X176926279Y-107860361D01*
X176921367Y-107855938D01*
X176916952Y-107851035D01*
X176842826Y-107797179D01*
X176767793Y-107742664D01*
X176767792Y-107742663D01*
X176762451Y-107738783D01*
X176756423Y-107736099D01*
X176756421Y-107736098D01*
X176594018Y-107663792D01*
X176594017Y-107663792D01*
X176587987Y-107661107D01*
X176494587Y-107641254D01*
X176407643Y-107622773D01*
X176407638Y-107622773D01*
X176401186Y-107621401D01*
X176210212Y-107621401D01*
X176203760Y-107622773D01*
X176203755Y-107622773D01*
X176116811Y-107641254D01*
X176023411Y-107661107D01*
X176017381Y-107663792D01*
X176017380Y-107663792D01*
X175854977Y-107736098D01*
X175854975Y-107736099D01*
X175848947Y-107738783D01*
X175694446Y-107851035D01*
X175690025Y-107855945D01*
X175690024Y-107855946D01*
X175572286Y-107986708D01*
X175566659Y-107992957D01*
X175525716Y-108063872D01*
X175503529Y-108102302D01*
X175471172Y-108158345D01*
X175412157Y-108339973D01*
X175411467Y-108346534D01*
X175411467Y-108346536D01*
X175402814Y-108428863D01*
X175392195Y-108529901D01*
X175392885Y-108536466D01*
X175409205Y-108691739D01*
X175412157Y-108719829D01*
X175471172Y-108901457D01*
X175474475Y-108907179D01*
X175474476Y-108907180D01*
X175482897Y-108921765D01*
X175566659Y-109066845D01*
X175571077Y-109071752D01*
X175571078Y-109071753D01*
X175653151Y-109162904D01*
X175694446Y-109208767D01*
X175848947Y-109321019D01*
X175854975Y-109323703D01*
X175854977Y-109323704D01*
X175932118Y-109358049D01*
X176023411Y-109398695D01*
X176116812Y-109418548D01*
X176203755Y-109437029D01*
X176203760Y-109437029D01*
X176210212Y-109438401D01*
X176401186Y-109438401D01*
X176407638Y-109437029D01*
X176407643Y-109437029D01*
X176494586Y-109418548D01*
X176587987Y-109398695D01*
X176679280Y-109358049D01*
X176756421Y-109323704D01*
X176756423Y-109323703D01*
X176762451Y-109321019D01*
X176916952Y-109208767D01*
X176921367Y-109203864D01*
X176926279Y-109199441D01*
X176927404Y-109200690D01*
X176980713Y-109167850D01*
X177013899Y-109163401D01*
X178919332Y-109163401D01*
X178930515Y-109163928D01*
X178938008Y-109165603D01*
X178945934Y-109165354D01*
X178945935Y-109165354D01*
X179006085Y-109163463D01*
X179010044Y-109163401D01*
X179037955Y-109163401D01*
X179041890Y-109162904D01*
X179041955Y-109162896D01*
X179053792Y-109161963D01*
X179086050Y-109160949D01*
X179090069Y-109160823D01*
X179097988Y-109160574D01*
X179117442Y-109154922D01*
X179136799Y-109150914D01*
X179149029Y-109149369D01*
X179149030Y-109149369D01*
X179156896Y-109148375D01*
X179164267Y-109145456D01*
X179164269Y-109145456D01*
X179198011Y-109132097D01*
X179209241Y-109128252D01*
X179244082Y-109118130D01*
X179244083Y-109118130D01*
X179251692Y-109115919D01*
X179258511Y-109111886D01*
X179258516Y-109111884D01*
X179269127Y-109105608D01*
X179286875Y-109096913D01*
X179305716Y-109089453D01*
X179341486Y-109063465D01*
X179351406Y-109056949D01*
X179382634Y-109038481D01*
X179382637Y-109038479D01*
X179389461Y-109034443D01*
X179403782Y-109020122D01*
X179418816Y-109007281D01*
X179428793Y-109000032D01*
X179435206Y-108995373D01*
X179463397Y-108961296D01*
X179471387Y-108952517D01*
X179546134Y-108877770D01*
X182320853Y-106103052D01*
X182329139Y-106095512D01*
X182335618Y-106091400D01*
X182382244Y-106041748D01*
X182384998Y-106038907D01*
X182404735Y-106019170D01*
X182407215Y-106015973D01*
X182414920Y-106006951D01*
X182439759Y-105980500D01*
X182445186Y-105974721D01*
X182449005Y-105967775D01*
X182449007Y-105967772D01*
X182454948Y-105956966D01*
X182465799Y-105940447D01*
X182473358Y-105930701D01*
X182478214Y-105924441D01*
X182481359Y-105917172D01*
X182481362Y-105917168D01*
X182495774Y-105883863D01*
X182500991Y-105873213D01*
X182522295Y-105834460D01*
X182527333Y-105814837D01*
X182533737Y-105796134D01*
X182538633Y-105784820D01*
X182538633Y-105784819D01*
X182541781Y-105777545D01*
X182543020Y-105769722D01*
X182543023Y-105769712D01*
X182548699Y-105733876D01*
X182551105Y-105722256D01*
X182560128Y-105687111D01*
X182560128Y-105687110D01*
X182562100Y-105679430D01*
X182562100Y-105659176D01*
X182563651Y-105639465D01*
X182565580Y-105627286D01*
X182566820Y-105619457D01*
X182562659Y-105575438D01*
X182562100Y-105563581D01*
X182562100Y-97466862D01*
X182562627Y-97455679D01*
X182564302Y-97448186D01*
X182562545Y-97392276D01*
X182562162Y-97380109D01*
X182562100Y-97376150D01*
X182562100Y-97348239D01*
X182561595Y-97344239D01*
X182560662Y-97332396D01*
X182560508Y-97327474D01*
X182559273Y-97288205D01*
X182553622Y-97268753D01*
X182549614Y-97249401D01*
X182548067Y-97237158D01*
X182547074Y-97229298D01*
X182543266Y-97219679D01*
X182530800Y-97188192D01*
X182526955Y-97176965D01*
X182521205Y-97157174D01*
X182514618Y-97134502D01*
X182504307Y-97117067D01*
X182495612Y-97099319D01*
X182488152Y-97080478D01*
X182462164Y-97044708D01*
X182455648Y-97034788D01*
X182437180Y-97003560D01*
X182437178Y-97003557D01*
X182433142Y-96996733D01*
X182418821Y-96982412D01*
X182405980Y-96967378D01*
X182398731Y-96957401D01*
X182394072Y-96950988D01*
X182359995Y-96922797D01*
X182351216Y-96914807D01*
X180141757Y-94705347D01*
X180134217Y-94697061D01*
X180130105Y-94690582D01*
X180080453Y-94643956D01*
X180077612Y-94641202D01*
X180057875Y-94621465D01*
X180054678Y-94618985D01*
X180045656Y-94611280D01*
X180019205Y-94586441D01*
X180013426Y-94581014D01*
X180006480Y-94577195D01*
X180006477Y-94577193D01*
X179995671Y-94571252D01*
X179979152Y-94560401D01*
X179973153Y-94555748D01*
X179963146Y-94547986D01*
X179955877Y-94544841D01*
X179955873Y-94544838D01*
X179922568Y-94530426D01*
X179911918Y-94525209D01*
X179873165Y-94503905D01*
X179865096Y-94501833D01*
X179853543Y-94498867D01*
X179834839Y-94492463D01*
X179823525Y-94487567D01*
X179823524Y-94487567D01*
X179816250Y-94484419D01*
X179808427Y-94483180D01*
X179808417Y-94483177D01*
X179772581Y-94477501D01*
X179760961Y-94475095D01*
X179725816Y-94466072D01*
X179725815Y-94466072D01*
X179718135Y-94464100D01*
X179697881Y-94464100D01*
X179678170Y-94462549D01*
X179665991Y-94460620D01*
X179658162Y-94459380D01*
X179650270Y-94460126D01*
X179614144Y-94463541D01*
X179602286Y-94464100D01*
X174139400Y-94464100D01*
X174071279Y-94444098D01*
X174052053Y-94427757D01*
X174051780Y-94428060D01*
X174046868Y-94423637D01*
X174042453Y-94418734D01*
X173919003Y-94329042D01*
X173893294Y-94310363D01*
X173893293Y-94310362D01*
X173887952Y-94306482D01*
X173881924Y-94303798D01*
X173881922Y-94303797D01*
X173719519Y-94231491D01*
X173719518Y-94231491D01*
X173713488Y-94228806D01*
X173594062Y-94203421D01*
X173533144Y-94190472D01*
X173533139Y-94190472D01*
X173526687Y-94189100D01*
X173335713Y-94189100D01*
X173329261Y-94190472D01*
X173329256Y-94190472D01*
X173268338Y-94203421D01*
X173148912Y-94228806D01*
X173142882Y-94231491D01*
X173142881Y-94231491D01*
X172980478Y-94303797D01*
X172980476Y-94303798D01*
X172974448Y-94306482D01*
X172969107Y-94310362D01*
X172969106Y-94310363D01*
X172943397Y-94329042D01*
X172819947Y-94418734D01*
X172815526Y-94423644D01*
X172815525Y-94423645D01*
X172706403Y-94544838D01*
X172692160Y-94560656D01*
X172596673Y-94726044D01*
X172537658Y-94907672D01*
X172517696Y-95097600D01*
X172518386Y-95104165D01*
X172536320Y-95274794D01*
X172537658Y-95287528D01*
X172596673Y-95469156D01*
X172692160Y-95634544D01*
X172696578Y-95639451D01*
X172696579Y-95639452D01*
X172811550Y-95767140D01*
X172819947Y-95776466D01*
X172974448Y-95888718D01*
X172980476Y-95891402D01*
X172980478Y-95891403D01*
X173088859Y-95939657D01*
X173148912Y-95966394D01*
X173235392Y-95984776D01*
X173329256Y-96004728D01*
X173329261Y-96004728D01*
X173335713Y-96006100D01*
X173526687Y-96006100D01*
X173533139Y-96004728D01*
X173533144Y-96004728D01*
X173627008Y-95984776D01*
X173713488Y-95966394D01*
X173773541Y-95939657D01*
X173881922Y-95891403D01*
X173881924Y-95891402D01*
X173887952Y-95888718D01*
X174042453Y-95776466D01*
X174046868Y-95771563D01*
X174051780Y-95767140D01*
X174052905Y-95768389D01*
X174106214Y-95735549D01*
X174139400Y-95731100D01*
X179323511Y-95731100D01*
X179391632Y-95751102D01*
X179412606Y-95768005D01*
X180537074Y-96892473D01*
X180571100Y-96954785D01*
X180566035Y-97025600D01*
X180541617Y-97065875D01*
X180464560Y-97151456D01*
X180423660Y-97222297D01*
X180373605Y-97308995D01*
X180369073Y-97316844D01*
X180310058Y-97498472D01*
X180309368Y-97505033D01*
X180309368Y-97505035D01*
X180303109Y-97564591D01*
X180294637Y-97645200D01*
X180292693Y-97663692D01*
X180265680Y-97729349D01*
X180256478Y-97739618D01*
X179434099Y-98561996D01*
X179371787Y-98596021D01*
X179345004Y-98598900D01*
X171754485Y-98598900D01*
X171686364Y-98578898D01*
X171639871Y-98525242D01*
X171629767Y-98454968D01*
X171634652Y-98433964D01*
X171681102Y-98291006D01*
X171683142Y-98284728D01*
X171684365Y-98273097D01*
X171702414Y-98101365D01*
X171703104Y-98094800D01*
X171683142Y-97904872D01*
X171624127Y-97723244D01*
X171528640Y-97557856D01*
X171455463Y-97476585D01*
X171424747Y-97412579D01*
X171423100Y-97392276D01*
X171423100Y-95274794D01*
X171443102Y-95206673D01*
X171460005Y-95185699D01*
X176040338Y-90605366D01*
X181700657Y-90605366D01*
X181730965Y-90739846D01*
X181734045Y-90749675D01*
X181814170Y-90947003D01*
X181818813Y-90956194D01*
X181930094Y-91137788D01*
X181936177Y-91146099D01*
X182075613Y-91307067D01*
X182082980Y-91314283D01*
X182246834Y-91450316D01*
X182255281Y-91456231D01*
X182439156Y-91563679D01*
X182448442Y-91568129D01*
X182647401Y-91644103D01*
X182657299Y-91646979D01*
X182760650Y-91668006D01*
X182774699Y-91666810D01*
X182778400Y-91656465D01*
X182778400Y-90609515D01*
X182773925Y-90594276D01*
X182772535Y-90593071D01*
X182764852Y-90591400D01*
X181715625Y-90591400D01*
X181702094Y-90595373D01*
X181700657Y-90605366D01*
X176040338Y-90605366D01*
X179280287Y-87365417D01*
X179342599Y-87331391D01*
X179413414Y-87336456D01*
G37*
%TD.AperFunction*%
%TD*%
M02*
