%TF.GenerationSoftware,KiCad,Pcbnew,(6.0.10)*%
%TF.CreationDate,2023-03-08T17:02:45-06:00*%
%TF.ProjectId,445,3434352e-6b69-4636-9164-5f7063625858,rev?*%
%TF.SameCoordinates,Original*%
%TF.FileFunction,Legend,Top*%
%TF.FilePolarity,Positive*%
%FSLAX46Y46*%
G04 Gerber Fmt 4.6, Leading zero omitted, Abs format (unit mm)*
G04 Created by KiCad (PCBNEW (6.0.10)) date 2023-03-08 17:02:45*
%MOMM*%
%LPD*%
G01*
G04 APERTURE LIST*
%ADD10C,0.150000*%
%ADD11C,0.101600*%
%ADD12C,0.127000*%
%ADD13C,0.200000*%
%ADD14C,0.120000*%
%ADD15C,0.406400*%
G04 APERTURE END LIST*
D10*
%TO.C,S3*%
X142039095Y-97738761D02*
X142181952Y-97786380D01*
X142420047Y-97786380D01*
X142515285Y-97738761D01*
X142562904Y-97691142D01*
X142610523Y-97595904D01*
X142610523Y-97500666D01*
X142562904Y-97405428D01*
X142515285Y-97357809D01*
X142420047Y-97310190D01*
X142229571Y-97262571D01*
X142134333Y-97214952D01*
X142086714Y-97167333D01*
X142039095Y-97072095D01*
X142039095Y-96976857D01*
X142086714Y-96881619D01*
X142134333Y-96834000D01*
X142229571Y-96786380D01*
X142467666Y-96786380D01*
X142610523Y-96834000D01*
X142943857Y-96786380D02*
X143562904Y-96786380D01*
X143229571Y-97167333D01*
X143372428Y-97167333D01*
X143467666Y-97214952D01*
X143515285Y-97262571D01*
X143562904Y-97357809D01*
X143562904Y-97595904D01*
X143515285Y-97691142D01*
X143467666Y-97738761D01*
X143372428Y-97786380D01*
X143086714Y-97786380D01*
X142991476Y-97738761D01*
X142943857Y-97691142D01*
%TO.C,D5*%
X140123380Y-123059095D02*
X139123380Y-123059095D01*
X139123380Y-122821000D01*
X139171000Y-122678142D01*
X139266238Y-122582904D01*
X139361476Y-122535285D01*
X139551952Y-122487666D01*
X139694809Y-122487666D01*
X139885285Y-122535285D01*
X139980523Y-122582904D01*
X140075761Y-122678142D01*
X140123380Y-122821000D01*
X140123380Y-123059095D01*
X139123380Y-121582904D02*
X139123380Y-122059095D01*
X139599571Y-122106714D01*
X139551952Y-122059095D01*
X139504333Y-121963857D01*
X139504333Y-121725761D01*
X139551952Y-121630523D01*
X139599571Y-121582904D01*
X139694809Y-121535285D01*
X139932904Y-121535285D01*
X140028142Y-121582904D01*
X140075761Y-121630523D01*
X140123380Y-121725761D01*
X140123380Y-121963857D01*
X140075761Y-122059095D01*
X140028142Y-122106714D01*
%TO.C,R3*%
X132294333Y-60903380D02*
X131961000Y-60427190D01*
X131722904Y-60903380D02*
X131722904Y-59903380D01*
X132103857Y-59903380D01*
X132199095Y-59951000D01*
X132246714Y-59998619D01*
X132294333Y-60093857D01*
X132294333Y-60236714D01*
X132246714Y-60331952D01*
X132199095Y-60379571D01*
X132103857Y-60427190D01*
X131722904Y-60427190D01*
X132627666Y-59903380D02*
X133246714Y-59903380D01*
X132913380Y-60284333D01*
X133056238Y-60284333D01*
X133151476Y-60331952D01*
X133199095Y-60379571D01*
X133246714Y-60474809D01*
X133246714Y-60712904D01*
X133199095Y-60808142D01*
X133151476Y-60855761D01*
X133056238Y-60903380D01*
X132770523Y-60903380D01*
X132675285Y-60855761D01*
X132627666Y-60808142D01*
%TO.C,R15*%
X156964142Y-129230380D02*
X156630809Y-128754190D01*
X156392714Y-129230380D02*
X156392714Y-128230380D01*
X156773666Y-128230380D01*
X156868904Y-128278000D01*
X156916523Y-128325619D01*
X156964142Y-128420857D01*
X156964142Y-128563714D01*
X156916523Y-128658952D01*
X156868904Y-128706571D01*
X156773666Y-128754190D01*
X156392714Y-128754190D01*
X157916523Y-129230380D02*
X157345095Y-129230380D01*
X157630809Y-129230380D02*
X157630809Y-128230380D01*
X157535571Y-128373238D01*
X157440333Y-128468476D01*
X157345095Y-128516095D01*
X158821285Y-128230380D02*
X158345095Y-128230380D01*
X158297476Y-128706571D01*
X158345095Y-128658952D01*
X158440333Y-128611333D01*
X158678428Y-128611333D01*
X158773666Y-128658952D01*
X158821285Y-128706571D01*
X158868904Y-128801809D01*
X158868904Y-129039904D01*
X158821285Y-129135142D01*
X158773666Y-129182761D01*
X158678428Y-129230380D01*
X158440333Y-129230380D01*
X158345095Y-129182761D01*
X158297476Y-129135142D01*
%TO.C,J7*%
X152320666Y-86701380D02*
X152320666Y-87415666D01*
X152273047Y-87558523D01*
X152177809Y-87653761D01*
X152034952Y-87701380D01*
X151939714Y-87701380D01*
X152701619Y-86701380D02*
X153368285Y-86701380D01*
X152939714Y-87701380D01*
%TO.C,R13*%
X132281380Y-120788857D02*
X131805190Y-121122190D01*
X132281380Y-121360285D02*
X131281380Y-121360285D01*
X131281380Y-120979333D01*
X131329000Y-120884095D01*
X131376619Y-120836476D01*
X131471857Y-120788857D01*
X131614714Y-120788857D01*
X131709952Y-120836476D01*
X131757571Y-120884095D01*
X131805190Y-120979333D01*
X131805190Y-121360285D01*
X132281380Y-119836476D02*
X132281380Y-120407904D01*
X132281380Y-120122190D02*
X131281380Y-120122190D01*
X131424238Y-120217428D01*
X131519476Y-120312666D01*
X131567095Y-120407904D01*
X131281380Y-119503142D02*
X131281380Y-118884095D01*
X131662333Y-119217428D01*
X131662333Y-119074571D01*
X131709952Y-118979333D01*
X131757571Y-118931714D01*
X131852809Y-118884095D01*
X132090904Y-118884095D01*
X132186142Y-118931714D01*
X132233761Y-118979333D01*
X132281380Y-119074571D01*
X132281380Y-119360285D01*
X132233761Y-119455523D01*
X132186142Y-119503142D01*
%TO.C,R6*%
X143216333Y-125679380D02*
X142883000Y-125203190D01*
X142644904Y-125679380D02*
X142644904Y-124679380D01*
X143025857Y-124679380D01*
X143121095Y-124727000D01*
X143168714Y-124774619D01*
X143216333Y-124869857D01*
X143216333Y-125012714D01*
X143168714Y-125107952D01*
X143121095Y-125155571D01*
X143025857Y-125203190D01*
X142644904Y-125203190D01*
X144073476Y-124679380D02*
X143883000Y-124679380D01*
X143787761Y-124727000D01*
X143740142Y-124774619D01*
X143644904Y-124917476D01*
X143597285Y-125107952D01*
X143597285Y-125488904D01*
X143644904Y-125584142D01*
X143692523Y-125631761D01*
X143787761Y-125679380D01*
X143978238Y-125679380D01*
X144073476Y-125631761D01*
X144121095Y-125584142D01*
X144168714Y-125488904D01*
X144168714Y-125250809D01*
X144121095Y-125155571D01*
X144073476Y-125107952D01*
X143978238Y-125060333D01*
X143787761Y-125060333D01*
X143692523Y-125107952D01*
X143644904Y-125155571D01*
X143597285Y-125250809D01*
%TO.C,S2*%
X143637095Y-53617761D02*
X143779952Y-53665380D01*
X144018047Y-53665380D01*
X144113285Y-53617761D01*
X144160904Y-53570142D01*
X144208523Y-53474904D01*
X144208523Y-53379666D01*
X144160904Y-53284428D01*
X144113285Y-53236809D01*
X144018047Y-53189190D01*
X143827571Y-53141571D01*
X143732333Y-53093952D01*
X143684714Y-53046333D01*
X143637095Y-52951095D01*
X143637095Y-52855857D01*
X143684714Y-52760619D01*
X143732333Y-52713000D01*
X143827571Y-52665380D01*
X144065666Y-52665380D01*
X144208523Y-52713000D01*
X144589476Y-52760619D02*
X144637095Y-52713000D01*
X144732333Y-52665380D01*
X144970428Y-52665380D01*
X145065666Y-52713000D01*
X145113285Y-52760619D01*
X145160904Y-52855857D01*
X145160904Y-52951095D01*
X145113285Y-53093952D01*
X144541857Y-53665380D01*
X145160904Y-53665380D01*
%TO.C,R8*%
X152090380Y-131865666D02*
X151614190Y-132199000D01*
X152090380Y-132437095D02*
X151090380Y-132437095D01*
X151090380Y-132056142D01*
X151138000Y-131960904D01*
X151185619Y-131913285D01*
X151280857Y-131865666D01*
X151423714Y-131865666D01*
X151518952Y-131913285D01*
X151566571Y-131960904D01*
X151614190Y-132056142D01*
X151614190Y-132437095D01*
X151518952Y-131294238D02*
X151471333Y-131389476D01*
X151423714Y-131437095D01*
X151328476Y-131484714D01*
X151280857Y-131484714D01*
X151185619Y-131437095D01*
X151138000Y-131389476D01*
X151090380Y-131294238D01*
X151090380Y-131103761D01*
X151138000Y-131008523D01*
X151185619Y-130960904D01*
X151280857Y-130913285D01*
X151328476Y-130913285D01*
X151423714Y-130960904D01*
X151471333Y-131008523D01*
X151518952Y-131103761D01*
X151518952Y-131294238D01*
X151566571Y-131389476D01*
X151614190Y-131437095D01*
X151709428Y-131484714D01*
X151899904Y-131484714D01*
X151995142Y-131437095D01*
X152042761Y-131389476D01*
X152090380Y-131294238D01*
X152090380Y-131103761D01*
X152042761Y-131008523D01*
X151995142Y-130960904D01*
X151899904Y-130913285D01*
X151709428Y-130913285D01*
X151614190Y-130960904D01*
X151566571Y-131008523D01*
X151518952Y-131103761D01*
%TO.C,R16*%
X140585142Y-118075380D02*
X140251809Y-117599190D01*
X140013714Y-118075380D02*
X140013714Y-117075380D01*
X140394666Y-117075380D01*
X140489904Y-117123000D01*
X140537523Y-117170619D01*
X140585142Y-117265857D01*
X140585142Y-117408714D01*
X140537523Y-117503952D01*
X140489904Y-117551571D01*
X140394666Y-117599190D01*
X140013714Y-117599190D01*
X141537523Y-118075380D02*
X140966095Y-118075380D01*
X141251809Y-118075380D02*
X141251809Y-117075380D01*
X141156571Y-117218238D01*
X141061333Y-117313476D01*
X140966095Y-117361095D01*
X142394666Y-117075380D02*
X142204190Y-117075380D01*
X142108952Y-117123000D01*
X142061333Y-117170619D01*
X141966095Y-117313476D01*
X141918476Y-117503952D01*
X141918476Y-117884904D01*
X141966095Y-117980142D01*
X142013714Y-118027761D01*
X142108952Y-118075380D01*
X142299428Y-118075380D01*
X142394666Y-118027761D01*
X142442285Y-117980142D01*
X142489904Y-117884904D01*
X142489904Y-117646809D01*
X142442285Y-117551571D01*
X142394666Y-117503952D01*
X142299428Y-117456333D01*
X142108952Y-117456333D01*
X142013714Y-117503952D01*
X141966095Y-117551571D01*
X141918476Y-117646809D01*
%TO.C,R9*%
X131790333Y-129997380D02*
X131457000Y-129521190D01*
X131218904Y-129997380D02*
X131218904Y-128997380D01*
X131599857Y-128997380D01*
X131695095Y-129045000D01*
X131742714Y-129092619D01*
X131790333Y-129187857D01*
X131790333Y-129330714D01*
X131742714Y-129425952D01*
X131695095Y-129473571D01*
X131599857Y-129521190D01*
X131218904Y-129521190D01*
X132266523Y-129997380D02*
X132457000Y-129997380D01*
X132552238Y-129949761D01*
X132599857Y-129902142D01*
X132695095Y-129759285D01*
X132742714Y-129568809D01*
X132742714Y-129187857D01*
X132695095Y-129092619D01*
X132647476Y-129045000D01*
X132552238Y-128997380D01*
X132361761Y-128997380D01*
X132266523Y-129045000D01*
X132218904Y-129092619D01*
X132171285Y-129187857D01*
X132171285Y-129425952D01*
X132218904Y-129521190D01*
X132266523Y-129568809D01*
X132361761Y-129616428D01*
X132552238Y-129616428D01*
X132647476Y-129568809D01*
X132695095Y-129521190D01*
X132742714Y-129425952D01*
%TO.C,J8*%
X150911666Y-122039380D02*
X150911666Y-122753666D01*
X150864047Y-122896523D01*
X150768809Y-122991761D01*
X150625952Y-123039380D01*
X150530714Y-123039380D01*
X151530714Y-122467952D02*
X151435476Y-122420333D01*
X151387857Y-122372714D01*
X151340238Y-122277476D01*
X151340238Y-122229857D01*
X151387857Y-122134619D01*
X151435476Y-122087000D01*
X151530714Y-122039380D01*
X151721190Y-122039380D01*
X151816428Y-122087000D01*
X151864047Y-122134619D01*
X151911666Y-122229857D01*
X151911666Y-122277476D01*
X151864047Y-122372714D01*
X151816428Y-122420333D01*
X151721190Y-122467952D01*
X151530714Y-122467952D01*
X151435476Y-122515571D01*
X151387857Y-122563190D01*
X151340238Y-122658428D01*
X151340238Y-122848904D01*
X151387857Y-122944142D01*
X151435476Y-122991761D01*
X151530714Y-123039380D01*
X151721190Y-123039380D01*
X151816428Y-122991761D01*
X151864047Y-122944142D01*
X151911666Y-122848904D01*
X151911666Y-122658428D01*
X151864047Y-122563190D01*
X151816428Y-122515571D01*
X151721190Y-122467952D01*
%TO.C,J10*%
X161103476Y-117252380D02*
X161103476Y-117966666D01*
X161055857Y-118109523D01*
X160960619Y-118204761D01*
X160817761Y-118252380D01*
X160722523Y-118252380D01*
X162103476Y-118252380D02*
X161532047Y-118252380D01*
X161817761Y-118252380D02*
X161817761Y-117252380D01*
X161722523Y-117395238D01*
X161627285Y-117490476D01*
X161532047Y-117538095D01*
X162722523Y-117252380D02*
X162817761Y-117252380D01*
X162913000Y-117300000D01*
X162960619Y-117347619D01*
X163008238Y-117442857D01*
X163055857Y-117633333D01*
X163055857Y-117871428D01*
X163008238Y-118061904D01*
X162960619Y-118157142D01*
X162913000Y-118204761D01*
X162817761Y-118252380D01*
X162722523Y-118252380D01*
X162627285Y-118204761D01*
X162579666Y-118157142D01*
X162532047Y-118061904D01*
X162484428Y-117871428D01*
X162484428Y-117633333D01*
X162532047Y-117442857D01*
X162579666Y-117347619D01*
X162627285Y-117300000D01*
X162722523Y-117252380D01*
%TO.C,C2*%
X139791333Y-134248142D02*
X139743714Y-134295761D01*
X139600857Y-134343380D01*
X139505619Y-134343380D01*
X139362761Y-134295761D01*
X139267523Y-134200523D01*
X139219904Y-134105285D01*
X139172285Y-133914809D01*
X139172285Y-133771952D01*
X139219904Y-133581476D01*
X139267523Y-133486238D01*
X139362761Y-133391000D01*
X139505619Y-133343380D01*
X139600857Y-133343380D01*
X139743714Y-133391000D01*
X139791333Y-133438619D01*
X140172285Y-133438619D02*
X140219904Y-133391000D01*
X140315142Y-133343380D01*
X140553238Y-133343380D01*
X140648476Y-133391000D01*
X140696095Y-133438619D01*
X140743714Y-133533857D01*
X140743714Y-133629095D01*
X140696095Y-133771952D01*
X140124666Y-134343380D01*
X140743714Y-134343380D01*
%TO.C,R17*%
X126738142Y-125292380D02*
X126404809Y-124816190D01*
X126166714Y-125292380D02*
X126166714Y-124292380D01*
X126547666Y-124292380D01*
X126642904Y-124340000D01*
X126690523Y-124387619D01*
X126738142Y-124482857D01*
X126738142Y-124625714D01*
X126690523Y-124720952D01*
X126642904Y-124768571D01*
X126547666Y-124816190D01*
X126166714Y-124816190D01*
X127690523Y-125292380D02*
X127119095Y-125292380D01*
X127404809Y-125292380D02*
X127404809Y-124292380D01*
X127309571Y-124435238D01*
X127214333Y-124530476D01*
X127119095Y-124578095D01*
X128023857Y-124292380D02*
X128690523Y-124292380D01*
X128261952Y-125292380D01*
%TO.C,C4*%
X142966333Y-104599142D02*
X142918714Y-104646761D01*
X142775857Y-104694380D01*
X142680619Y-104694380D01*
X142537761Y-104646761D01*
X142442523Y-104551523D01*
X142394904Y-104456285D01*
X142347285Y-104265809D01*
X142347285Y-104122952D01*
X142394904Y-103932476D01*
X142442523Y-103837238D01*
X142537761Y-103742000D01*
X142680619Y-103694380D01*
X142775857Y-103694380D01*
X142918714Y-103742000D01*
X142966333Y-103789619D01*
X143823476Y-104027714D02*
X143823476Y-104694380D01*
X143585380Y-103646761D02*
X143347285Y-104361047D01*
X143966333Y-104361047D01*
%TO.C,R18*%
X154551142Y-127452380D02*
X154217809Y-126976190D01*
X153979714Y-127452380D02*
X153979714Y-126452380D01*
X154360666Y-126452380D01*
X154455904Y-126500000D01*
X154503523Y-126547619D01*
X154551142Y-126642857D01*
X154551142Y-126785714D01*
X154503523Y-126880952D01*
X154455904Y-126928571D01*
X154360666Y-126976190D01*
X153979714Y-126976190D01*
X155503523Y-127452380D02*
X154932095Y-127452380D01*
X155217809Y-127452380D02*
X155217809Y-126452380D01*
X155122571Y-126595238D01*
X155027333Y-126690476D01*
X154932095Y-126738095D01*
X156074952Y-126880952D02*
X155979714Y-126833333D01*
X155932095Y-126785714D01*
X155884476Y-126690476D01*
X155884476Y-126642857D01*
X155932095Y-126547619D01*
X155979714Y-126500000D01*
X156074952Y-126452380D01*
X156265428Y-126452380D01*
X156360666Y-126500000D01*
X156408285Y-126547619D01*
X156455904Y-126642857D01*
X156455904Y-126690476D01*
X156408285Y-126785714D01*
X156360666Y-126833333D01*
X156265428Y-126880952D01*
X156074952Y-126880952D01*
X155979714Y-126928571D01*
X155932095Y-126976190D01*
X155884476Y-127071428D01*
X155884476Y-127261904D01*
X155932095Y-127357142D01*
X155979714Y-127404761D01*
X156074952Y-127452380D01*
X156265428Y-127452380D01*
X156360666Y-127404761D01*
X156408285Y-127357142D01*
X156455904Y-127261904D01*
X156455904Y-127071428D01*
X156408285Y-126976190D01*
X156360666Y-126928571D01*
X156265428Y-126880952D01*
%TO.C,R12*%
X144727380Y-115835857D02*
X144251190Y-116169190D01*
X144727380Y-116407285D02*
X143727380Y-116407285D01*
X143727380Y-116026333D01*
X143775000Y-115931095D01*
X143822619Y-115883476D01*
X143917857Y-115835857D01*
X144060714Y-115835857D01*
X144155952Y-115883476D01*
X144203571Y-115931095D01*
X144251190Y-116026333D01*
X144251190Y-116407285D01*
X144727380Y-114883476D02*
X144727380Y-115454904D01*
X144727380Y-115169190D02*
X143727380Y-115169190D01*
X143870238Y-115264428D01*
X143965476Y-115359666D01*
X144013095Y-115454904D01*
X143822619Y-114502523D02*
X143775000Y-114454904D01*
X143727380Y-114359666D01*
X143727380Y-114121571D01*
X143775000Y-114026333D01*
X143822619Y-113978714D01*
X143917857Y-113931095D01*
X144013095Y-113931095D01*
X144155952Y-113978714D01*
X144727380Y-114550142D01*
X144727380Y-113931095D01*
%TO.C,D1*%
X133631904Y-121686380D02*
X133631904Y-120686380D01*
X133870000Y-120686380D01*
X134012857Y-120734000D01*
X134108095Y-120829238D01*
X134155714Y-120924476D01*
X134203333Y-121114952D01*
X134203333Y-121257809D01*
X134155714Y-121448285D01*
X134108095Y-121543523D01*
X134012857Y-121638761D01*
X133870000Y-121686380D01*
X133631904Y-121686380D01*
X135155714Y-121686380D02*
X134584285Y-121686380D01*
X134870000Y-121686380D02*
X134870000Y-120686380D01*
X134774761Y-120829238D01*
X134679523Y-120924476D01*
X134584285Y-120972095D01*
%TO.C,S1*%
X121666095Y-48410761D02*
X121808952Y-48458380D01*
X122047047Y-48458380D01*
X122142285Y-48410761D01*
X122189904Y-48363142D01*
X122237523Y-48267904D01*
X122237523Y-48172666D01*
X122189904Y-48077428D01*
X122142285Y-48029809D01*
X122047047Y-47982190D01*
X121856571Y-47934571D01*
X121761333Y-47886952D01*
X121713714Y-47839333D01*
X121666095Y-47744095D01*
X121666095Y-47648857D01*
X121713714Y-47553619D01*
X121761333Y-47506000D01*
X121856571Y-47458380D01*
X122094666Y-47458380D01*
X122237523Y-47506000D01*
X123189904Y-48458380D02*
X122618476Y-48458380D01*
X122904190Y-48458380D02*
X122904190Y-47458380D01*
X122808952Y-47601238D01*
X122713714Y-47696476D01*
X122618476Y-47744095D01*
%TO.C,R10*%
X147775380Y-118899857D02*
X147299190Y-119233190D01*
X147775380Y-119471285D02*
X146775380Y-119471285D01*
X146775380Y-119090333D01*
X146823000Y-118995095D01*
X146870619Y-118947476D01*
X146965857Y-118899857D01*
X147108714Y-118899857D01*
X147203952Y-118947476D01*
X147251571Y-118995095D01*
X147299190Y-119090333D01*
X147299190Y-119471285D01*
X147775380Y-117947476D02*
X147775380Y-118518904D01*
X147775380Y-118233190D02*
X146775380Y-118233190D01*
X146918238Y-118328428D01*
X147013476Y-118423666D01*
X147061095Y-118518904D01*
X146775380Y-117328428D02*
X146775380Y-117233190D01*
X146823000Y-117137952D01*
X146870619Y-117090333D01*
X146965857Y-117042714D01*
X147156333Y-116995095D01*
X147394428Y-116995095D01*
X147584904Y-117042714D01*
X147680142Y-117090333D01*
X147727761Y-117137952D01*
X147775380Y-117233190D01*
X147775380Y-117328428D01*
X147727761Y-117423666D01*
X147680142Y-117471285D01*
X147584904Y-117518904D01*
X147394428Y-117566523D01*
X147156333Y-117566523D01*
X146965857Y-117518904D01*
X146870619Y-117471285D01*
X146823000Y-117423666D01*
X146775380Y-117328428D01*
%TO.C,D3*%
X137583380Y-116947095D02*
X136583380Y-116947095D01*
X136583380Y-116709000D01*
X136631000Y-116566142D01*
X136726238Y-116470904D01*
X136821476Y-116423285D01*
X137011952Y-116375666D01*
X137154809Y-116375666D01*
X137345285Y-116423285D01*
X137440523Y-116470904D01*
X137535761Y-116566142D01*
X137583380Y-116709000D01*
X137583380Y-116947095D01*
X136583380Y-116042333D02*
X136583380Y-115423285D01*
X136964333Y-115756619D01*
X136964333Y-115613761D01*
X137011952Y-115518523D01*
X137059571Y-115470904D01*
X137154809Y-115423285D01*
X137392904Y-115423285D01*
X137488142Y-115470904D01*
X137535761Y-115518523D01*
X137583380Y-115613761D01*
X137583380Y-115899476D01*
X137535761Y-115994714D01*
X137488142Y-116042333D01*
D11*
%TO.C,R5*%
X158745887Y-77287361D02*
X158356420Y-76730980D01*
X158078230Y-77287361D02*
X158078230Y-76118961D01*
X158523335Y-76118961D01*
X158634611Y-76174600D01*
X158690249Y-76230238D01*
X158745887Y-76341514D01*
X158745887Y-76508428D01*
X158690249Y-76619704D01*
X158634611Y-76675342D01*
X158523335Y-76730980D01*
X158078230Y-76730980D01*
X159803011Y-76118961D02*
X159246630Y-76118961D01*
X159190992Y-76675342D01*
X159246630Y-76619704D01*
X159357906Y-76564066D01*
X159636097Y-76564066D01*
X159747373Y-76619704D01*
X159803011Y-76675342D01*
X159858649Y-76786619D01*
X159858649Y-77064809D01*
X159803011Y-77176085D01*
X159747373Y-77231723D01*
X159636097Y-77287361D01*
X159357906Y-77287361D01*
X159246630Y-77231723D01*
X159190992Y-77176085D01*
D10*
%TO.C,J9*%
X140234380Y-137735333D02*
X140948666Y-137735333D01*
X141091523Y-137782952D01*
X141186761Y-137878190D01*
X141234380Y-138021047D01*
X141234380Y-138116285D01*
X141234380Y-137211523D02*
X141234380Y-137021047D01*
X141186761Y-136925809D01*
X141139142Y-136878190D01*
X140996285Y-136782952D01*
X140805809Y-136735333D01*
X140424857Y-136735333D01*
X140329619Y-136782952D01*
X140282000Y-136830571D01*
X140234380Y-136925809D01*
X140234380Y-137116285D01*
X140282000Y-137211523D01*
X140329619Y-137259142D01*
X140424857Y-137306761D01*
X140662952Y-137306761D01*
X140758190Y-137259142D01*
X140805809Y-137211523D01*
X140853428Y-137116285D01*
X140853428Y-136925809D01*
X140805809Y-136830571D01*
X140758190Y-136782952D01*
X140662952Y-136735333D01*
%TO.C,S4*%
X131752095Y-97738761D02*
X131894952Y-97786380D01*
X132133047Y-97786380D01*
X132228285Y-97738761D01*
X132275904Y-97691142D01*
X132323523Y-97595904D01*
X132323523Y-97500666D01*
X132275904Y-97405428D01*
X132228285Y-97357809D01*
X132133047Y-97310190D01*
X131942571Y-97262571D01*
X131847333Y-97214952D01*
X131799714Y-97167333D01*
X131752095Y-97072095D01*
X131752095Y-96976857D01*
X131799714Y-96881619D01*
X131847333Y-96834000D01*
X131942571Y-96786380D01*
X132180666Y-96786380D01*
X132323523Y-96834000D01*
X133180666Y-97119714D02*
X133180666Y-97786380D01*
X132942571Y-96738761D02*
X132704476Y-97453047D01*
X133323523Y-97453047D01*
%TO.C,Q1*%
X123400619Y-116772238D02*
X123353000Y-116867476D01*
X123257761Y-116962714D01*
X123114904Y-117105571D01*
X123067285Y-117200809D01*
X123067285Y-117296047D01*
X123305380Y-117248428D02*
X123257761Y-117343666D01*
X123162523Y-117438904D01*
X122972047Y-117486523D01*
X122638714Y-117486523D01*
X122448238Y-117438904D01*
X122353000Y-117343666D01*
X122305380Y-117248428D01*
X122305380Y-117057952D01*
X122353000Y-116962714D01*
X122448238Y-116867476D01*
X122638714Y-116819857D01*
X122972047Y-116819857D01*
X123162523Y-116867476D01*
X123257761Y-116962714D01*
X123305380Y-117057952D01*
X123305380Y-117248428D01*
X123305380Y-115867476D02*
X123305380Y-116438904D01*
X123305380Y-116153190D02*
X122305380Y-116153190D01*
X122448238Y-116248428D01*
X122543476Y-116343666D01*
X122591095Y-116438904D01*
%TO.C,R2*%
X161758333Y-80462380D02*
X161425000Y-79986190D01*
X161186904Y-80462380D02*
X161186904Y-79462380D01*
X161567857Y-79462380D01*
X161663095Y-79510000D01*
X161710714Y-79557619D01*
X161758333Y-79652857D01*
X161758333Y-79795714D01*
X161710714Y-79890952D01*
X161663095Y-79938571D01*
X161567857Y-79986190D01*
X161186904Y-79986190D01*
X162139285Y-79557619D02*
X162186904Y-79510000D01*
X162282142Y-79462380D01*
X162520238Y-79462380D01*
X162615476Y-79510000D01*
X162663095Y-79557619D01*
X162710714Y-79652857D01*
X162710714Y-79748095D01*
X162663095Y-79890952D01*
X162091666Y-80462380D01*
X162710714Y-80462380D01*
%TO.C,R14*%
X162171142Y-133167380D02*
X161837809Y-132691190D01*
X161599714Y-133167380D02*
X161599714Y-132167380D01*
X161980666Y-132167380D01*
X162075904Y-132215000D01*
X162123523Y-132262619D01*
X162171142Y-132357857D01*
X162171142Y-132500714D01*
X162123523Y-132595952D01*
X162075904Y-132643571D01*
X161980666Y-132691190D01*
X161599714Y-132691190D01*
X163123523Y-133167380D02*
X162552095Y-133167380D01*
X162837809Y-133167380D02*
X162837809Y-132167380D01*
X162742571Y-132310238D01*
X162647333Y-132405476D01*
X162552095Y-132453095D01*
X163980666Y-132500714D02*
X163980666Y-133167380D01*
X163742571Y-132119761D02*
X163504476Y-132834047D01*
X164123523Y-132834047D01*
%TO.C,R1*%
X143978333Y-91004380D02*
X143645000Y-90528190D01*
X143406904Y-91004380D02*
X143406904Y-90004380D01*
X143787857Y-90004380D01*
X143883095Y-90052000D01*
X143930714Y-90099619D01*
X143978333Y-90194857D01*
X143978333Y-90337714D01*
X143930714Y-90432952D01*
X143883095Y-90480571D01*
X143787857Y-90528190D01*
X143406904Y-90528190D01*
X144930714Y-91004380D02*
X144359285Y-91004380D01*
X144645000Y-91004380D02*
X144645000Y-90004380D01*
X144549761Y-90147238D01*
X144454523Y-90242476D01*
X144359285Y-90290095D01*
%TO.C,J5*%
X125156619Y-124052617D02*
X124442333Y-124052617D01*
X124299476Y-124004998D01*
X124204238Y-123909760D01*
X124156619Y-123766903D01*
X124156619Y-123671665D01*
X125156619Y-125004998D02*
X125156619Y-124528808D01*
X124680428Y-124481189D01*
X124728047Y-124528808D01*
X124775666Y-124624046D01*
X124775666Y-124862141D01*
X124728047Y-124957379D01*
X124680428Y-125004998D01*
X124585190Y-125052617D01*
X124347095Y-125052617D01*
X124251857Y-125004998D01*
X124204238Y-124957379D01*
X124156619Y-124862141D01*
X124156619Y-124624046D01*
X124204238Y-124528808D01*
X124251857Y-124481189D01*
%TO.C,C5*%
X122125142Y-113200666D02*
X122172761Y-113248285D01*
X122220380Y-113391142D01*
X122220380Y-113486380D01*
X122172761Y-113629238D01*
X122077523Y-113724476D01*
X121982285Y-113772095D01*
X121791809Y-113819714D01*
X121648952Y-113819714D01*
X121458476Y-113772095D01*
X121363238Y-113724476D01*
X121268000Y-113629238D01*
X121220380Y-113486380D01*
X121220380Y-113391142D01*
X121268000Y-113248285D01*
X121315619Y-113200666D01*
X121220380Y-112295904D02*
X121220380Y-112772095D01*
X121696571Y-112819714D01*
X121648952Y-112772095D01*
X121601333Y-112676857D01*
X121601333Y-112438761D01*
X121648952Y-112343523D01*
X121696571Y-112295904D01*
X121791809Y-112248285D01*
X122029904Y-112248285D01*
X122125142Y-112295904D01*
X122172761Y-112343523D01*
X122220380Y-112438761D01*
X122220380Y-112676857D01*
X122172761Y-112772095D01*
X122125142Y-112819714D01*
%TO.C,R4*%
X126452333Y-56587380D02*
X126119000Y-56111190D01*
X125880904Y-56587380D02*
X125880904Y-55587380D01*
X126261857Y-55587380D01*
X126357095Y-55635000D01*
X126404714Y-55682619D01*
X126452333Y-55777857D01*
X126452333Y-55920714D01*
X126404714Y-56015952D01*
X126357095Y-56063571D01*
X126261857Y-56111190D01*
X125880904Y-56111190D01*
X127309476Y-55920714D02*
X127309476Y-56587380D01*
X127071380Y-55539761D02*
X126833285Y-56254047D01*
X127452333Y-56254047D01*
%TO.C,U2*%
X137164095Y-124279380D02*
X137164095Y-125088904D01*
X137211714Y-125184142D01*
X137259333Y-125231761D01*
X137354571Y-125279380D01*
X137545047Y-125279380D01*
X137640285Y-125231761D01*
X137687904Y-125184142D01*
X137735523Y-125088904D01*
X137735523Y-124279380D01*
X138164095Y-124374619D02*
X138211714Y-124327000D01*
X138306952Y-124279380D01*
X138545047Y-124279380D01*
X138640285Y-124327000D01*
X138687904Y-124374619D01*
X138735523Y-124469857D01*
X138735523Y-124565095D01*
X138687904Y-124707952D01*
X138116476Y-125279380D01*
X138735523Y-125279380D01*
%TO.C,J6*%
X127428666Y-61638380D02*
X127428666Y-62352666D01*
X127381047Y-62495523D01*
X127285809Y-62590761D01*
X127142952Y-62638380D01*
X127047714Y-62638380D01*
X128333428Y-61638380D02*
X128142952Y-61638380D01*
X128047714Y-61686000D01*
X128000095Y-61733619D01*
X127904857Y-61876476D01*
X127857238Y-62066952D01*
X127857238Y-62447904D01*
X127904857Y-62543142D01*
X127952476Y-62590761D01*
X128047714Y-62638380D01*
X128238190Y-62638380D01*
X128333428Y-62590761D01*
X128381047Y-62543142D01*
X128428666Y-62447904D01*
X128428666Y-62209809D01*
X128381047Y-62114571D01*
X128333428Y-62066952D01*
X128238190Y-62019333D01*
X128047714Y-62019333D01*
X127952476Y-62066952D01*
X127904857Y-62114571D01*
X127857238Y-62209809D01*
%TO.C,J11*%
X126523380Y-138211523D02*
X127237666Y-138211523D01*
X127380523Y-138259142D01*
X127475761Y-138354380D01*
X127523380Y-138497238D01*
X127523380Y-138592476D01*
X127523380Y-137211523D02*
X127523380Y-137782952D01*
X127523380Y-137497238D02*
X126523380Y-137497238D01*
X126666238Y-137592476D01*
X126761476Y-137687714D01*
X126809095Y-137782952D01*
X127523380Y-136259142D02*
X127523380Y-136830571D01*
X127523380Y-136544857D02*
X126523380Y-136544857D01*
X126666238Y-136640095D01*
X126761476Y-136735333D01*
X126809095Y-136830571D01*
%TO.C,C1*%
X143978333Y-87069142D02*
X143930714Y-87116761D01*
X143787857Y-87164380D01*
X143692619Y-87164380D01*
X143549761Y-87116761D01*
X143454523Y-87021523D01*
X143406904Y-86926285D01*
X143359285Y-86735809D01*
X143359285Y-86592952D01*
X143406904Y-86402476D01*
X143454523Y-86307238D01*
X143549761Y-86212000D01*
X143692619Y-86164380D01*
X143787857Y-86164380D01*
X143930714Y-86212000D01*
X143978333Y-86259619D01*
X144930714Y-87164380D02*
X144359285Y-87164380D01*
X144645000Y-87164380D02*
X144645000Y-86164380D01*
X144549761Y-86307238D01*
X144454523Y-86402476D01*
X144359285Y-86450095D01*
%TO.C,C3*%
X134190142Y-112819666D02*
X134237761Y-112867285D01*
X134285380Y-113010142D01*
X134285380Y-113105380D01*
X134237761Y-113248238D01*
X134142523Y-113343476D01*
X134047285Y-113391095D01*
X133856809Y-113438714D01*
X133713952Y-113438714D01*
X133523476Y-113391095D01*
X133428238Y-113343476D01*
X133333000Y-113248238D01*
X133285380Y-113105380D01*
X133285380Y-113010142D01*
X133333000Y-112867285D01*
X133380619Y-112819666D01*
X133285380Y-112486333D02*
X133285380Y-111867285D01*
X133666333Y-112200619D01*
X133666333Y-112057761D01*
X133713952Y-111962523D01*
X133761571Y-111914904D01*
X133856809Y-111867285D01*
X134094904Y-111867285D01*
X134190142Y-111914904D01*
X134237761Y-111962523D01*
X134285380Y-112057761D01*
X134285380Y-112343476D01*
X134237761Y-112438714D01*
X134190142Y-112486333D01*
%TO.C,R11*%
X137744380Y-113041857D02*
X137268190Y-113375190D01*
X137744380Y-113613285D02*
X136744380Y-113613285D01*
X136744380Y-113232333D01*
X136792000Y-113137095D01*
X136839619Y-113089476D01*
X136934857Y-113041857D01*
X137077714Y-113041857D01*
X137172952Y-113089476D01*
X137220571Y-113137095D01*
X137268190Y-113232333D01*
X137268190Y-113613285D01*
X137744380Y-112089476D02*
X137744380Y-112660904D01*
X137744380Y-112375190D02*
X136744380Y-112375190D01*
X136887238Y-112470428D01*
X136982476Y-112565666D01*
X137030095Y-112660904D01*
X137744380Y-111137095D02*
X137744380Y-111708523D01*
X137744380Y-111422809D02*
X136744380Y-111422809D01*
X136887238Y-111518047D01*
X136982476Y-111613285D01*
X137030095Y-111708523D01*
%TO.C,U1*%
X136474333Y-59304333D02*
X136474333Y-60437666D01*
X136541000Y-60571000D01*
X136607666Y-60637666D01*
X136741000Y-60704333D01*
X137007666Y-60704333D01*
X137141000Y-60637666D01*
X137207666Y-60571000D01*
X137274333Y-60437666D01*
X137274333Y-59304333D01*
X138674333Y-60704333D02*
X137874333Y-60704333D01*
X138274333Y-60704333D02*
X138274333Y-59304333D01*
X138141000Y-59504333D01*
X138007666Y-59637666D01*
X137874333Y-59704333D01*
%TO.C,R7*%
X135616333Y-136726380D02*
X135283000Y-136250190D01*
X135044904Y-136726380D02*
X135044904Y-135726380D01*
X135425857Y-135726380D01*
X135521095Y-135774000D01*
X135568714Y-135821619D01*
X135616333Y-135916857D01*
X135616333Y-136059714D01*
X135568714Y-136154952D01*
X135521095Y-136202571D01*
X135425857Y-136250190D01*
X135044904Y-136250190D01*
X135949666Y-135726380D02*
X136616333Y-135726380D01*
X136187761Y-136726380D01*
%TO.C,D4*%
X151788904Y-137358380D02*
X151788904Y-136358380D01*
X152027000Y-136358380D01*
X152169857Y-136406000D01*
X152265095Y-136501238D01*
X152312714Y-136596476D01*
X152360333Y-136786952D01*
X152360333Y-136929809D01*
X152312714Y-137120285D01*
X152265095Y-137215523D01*
X152169857Y-137310761D01*
X152027000Y-137358380D01*
X151788904Y-137358380D01*
X153217476Y-136691714D02*
X153217476Y-137358380D01*
X152979380Y-136310761D02*
X152741285Y-137025047D01*
X153360333Y-137025047D01*
%TO.C,D2*%
X165758904Y-71953380D02*
X165758904Y-70953380D01*
X165997000Y-70953380D01*
X166139857Y-71001000D01*
X166235095Y-71096238D01*
X166282714Y-71191476D01*
X166330333Y-71381952D01*
X166330333Y-71524809D01*
X166282714Y-71715285D01*
X166235095Y-71810523D01*
X166139857Y-71905761D01*
X165997000Y-71953380D01*
X165758904Y-71953380D01*
X166711285Y-71048619D02*
X166758904Y-71001000D01*
X166854142Y-70953380D01*
X167092238Y-70953380D01*
X167187476Y-71001000D01*
X167235095Y-71048619D01*
X167282714Y-71143857D01*
X167282714Y-71239095D01*
X167235095Y-71381952D01*
X166663666Y-71953380D01*
X167282714Y-71953380D01*
D12*
%TO.C,S3*%
X146526000Y-98719000D02*
X146526000Y-103219000D01*
X142026000Y-103219000D02*
X142026000Y-98719000D01*
X142026000Y-98719000D02*
X146526000Y-98719000D01*
X146526000Y-103219000D02*
X142026000Y-103219000D01*
D13*
X139376000Y-102469000D02*
G75*
G03*
X139376000Y-102469000I-100000J0D01*
G01*
D14*
%TO.C,D5*%
X140366000Y-121521000D02*
X140366000Y-123981000D01*
X140366000Y-123981000D02*
X141836000Y-123981000D01*
X141836000Y-123981000D02*
X141836000Y-121521000D01*
%TO.C,R3*%
X132688064Y-58066000D02*
X132233936Y-58066000D01*
X132688064Y-59536000D02*
X132233936Y-59536000D01*
%TO.C,R15*%
X154589936Y-131005856D02*
X155044064Y-131005856D01*
X154589936Y-132475856D02*
X155044064Y-132475856D01*
%TO.C,J7*%
X156524000Y-86547000D02*
X155194000Y-86547000D01*
X156524000Y-83947000D02*
X153864000Y-83947000D01*
X156524000Y-83947000D02*
X156524000Y-66107000D01*
X156524000Y-85217000D02*
X156524000Y-86547000D01*
X156524000Y-66107000D02*
X153864000Y-66107000D01*
X153864000Y-83947000D02*
X153864000Y-66107000D01*
%TO.C,R13*%
X129444000Y-119918936D02*
X129444000Y-120373064D01*
X130914000Y-119918936D02*
X130914000Y-120373064D01*
%TO.C,R6*%
X143155936Y-126142000D02*
X143610064Y-126142000D01*
X143155936Y-127612000D02*
X143610064Y-127612000D01*
D12*
%TO.C,S2*%
X142188180Y-54322290D02*
X146688180Y-54322290D01*
X142188180Y-58822290D02*
X142188180Y-54322290D01*
X146688180Y-58822290D02*
X142188180Y-58822290D01*
X146688180Y-54322290D02*
X146688180Y-58822290D01*
D13*
X149538180Y-55072290D02*
G75*
G03*
X149538180Y-55072290I-100000J0D01*
G01*
D14*
%TO.C,R8*%
X148875000Y-132745920D02*
X148875000Y-132291792D01*
X150345000Y-132745920D02*
X150345000Y-132291792D01*
%TO.C,R16*%
X141000936Y-118538000D02*
X141455064Y-118538000D01*
X141000936Y-120008000D02*
X141455064Y-120008000D01*
%TO.C,R9*%
X131729936Y-131930000D02*
X132184064Y-131930000D01*
X131729936Y-130460000D02*
X132184064Y-130460000D01*
%TO.C,J8*%
X152575000Y-120257000D02*
X152575000Y-121587000D01*
X152575000Y-116387000D02*
X149915000Y-116387000D01*
X149915000Y-118987000D02*
X149915000Y-116387000D01*
X152575000Y-118987000D02*
X152575000Y-116387000D01*
X152575000Y-118987000D02*
X149915000Y-118987000D01*
X152575000Y-121587000D02*
X151245000Y-121587000D01*
%TO.C,J10*%
X160583000Y-118800000D02*
X161913000Y-118800000D01*
X160583000Y-120130000D02*
X160583000Y-118800000D01*
X163243000Y-121400000D02*
X163243000Y-129080000D01*
X160583000Y-121400000D02*
X163243000Y-121400000D01*
X160583000Y-129080000D02*
X163243000Y-129080000D01*
X160583000Y-121400000D02*
X160583000Y-129080000D01*
%TO.C,C2*%
X140219252Y-131476000D02*
X139696748Y-131476000D01*
X140219252Y-132946000D02*
X139696748Y-132946000D01*
%TO.C,R17*%
X127608064Y-123925000D02*
X127153936Y-123925000D01*
X127608064Y-122455000D02*
X127153936Y-122455000D01*
%TO.C,C4*%
X142871748Y-105187000D02*
X143394252Y-105187000D01*
X142871748Y-106657000D02*
X143394252Y-106657000D01*
%TO.C,R18*%
X151415000Y-129009064D02*
X151415000Y-128554936D01*
X152885000Y-129009064D02*
X152885000Y-128554936D01*
%TO.C,R12*%
X141890000Y-114965936D02*
X141890000Y-115420064D01*
X143360000Y-114965936D02*
X143360000Y-115420064D01*
%TO.C,D1*%
X135870000Y-120234000D02*
X133320000Y-120234000D01*
X135870000Y-120234000D02*
X135870000Y-118534000D01*
X135870000Y-118534000D02*
X133320000Y-118534000D01*
D12*
%TO.C,S1*%
X124805000Y-53558000D02*
X120305000Y-53558000D01*
X120305000Y-53558000D02*
X120305000Y-49058000D01*
X124805000Y-49058000D02*
X124805000Y-53558000D01*
X120305000Y-49058000D02*
X124805000Y-49058000D01*
D13*
X127655000Y-49808000D02*
G75*
G03*
X127655000Y-49808000I-100000J0D01*
G01*
D14*
%TO.C,R10*%
X144938000Y-118029936D02*
X144938000Y-118484064D01*
X146408000Y-118029936D02*
X146408000Y-118484064D01*
%TO.C,D3*%
X137826000Y-117869000D02*
X139296000Y-117869000D01*
X139296000Y-117869000D02*
X139296000Y-115409000D01*
X137826000Y-115409000D02*
X137826000Y-117869000D01*
%TO.C,J9*%
X144382000Y-136072000D02*
X146982000Y-136072000D01*
X146982000Y-138732000D02*
X146982000Y-136072000D01*
X144382000Y-138732000D02*
X146982000Y-138732000D01*
X141782000Y-138732000D02*
X141782000Y-137402000D01*
X144382000Y-138732000D02*
X144382000Y-136072000D01*
X143112000Y-138732000D02*
X141782000Y-138732000D01*
D12*
%TO.C,S4*%
X136239000Y-103219000D02*
X131739000Y-103219000D01*
X131739000Y-98719000D02*
X136239000Y-98719000D01*
X136239000Y-98719000D02*
X136239000Y-103219000D01*
X131739000Y-103219000D02*
X131739000Y-98719000D01*
D13*
X129089000Y-102469000D02*
G75*
G03*
X129089000Y-102469000I-100000J0D01*
G01*
D12*
%TO.C,Q1*%
X124413000Y-115852000D02*
X124413000Y-116832000D01*
X124413000Y-117872000D02*
X124413000Y-118852000D01*
X127563000Y-115852000D02*
X127563000Y-116832000D01*
X127563000Y-117872000D02*
X127563000Y-118852000D01*
D13*
X125088000Y-119852000D02*
G75*
G03*
X125088000Y-119852000I-100000J0D01*
G01*
D14*
%TO.C,R2*%
X162459936Y-77370000D02*
X162914064Y-77370000D01*
X162459936Y-78840000D02*
X162914064Y-78840000D01*
%TO.C,R14*%
X158383936Y-131767856D02*
X158838064Y-131767856D01*
X158383936Y-133237856D02*
X158838064Y-133237856D01*
%TO.C,R1*%
X143917936Y-91467000D02*
X144372064Y-91467000D01*
X143917936Y-92937000D02*
X144372064Y-92937000D01*
%TO.C,J5*%
X117009000Y-119715951D02*
X115859000Y-119715951D01*
X119109000Y-129055951D02*
X120909000Y-129055951D01*
X117009000Y-129055951D02*
X115859000Y-129055951D01*
X119109000Y-119715951D02*
X120909000Y-119715951D01*
%TO.C,C5*%
X122713000Y-113295252D02*
X122713000Y-112772748D01*
X124183000Y-113295252D02*
X124183000Y-112772748D01*
%TO.C,R4*%
X126391936Y-58520000D02*
X126846064Y-58520000D01*
X126391936Y-57050000D02*
X126846064Y-57050000D01*
%TO.C,U2*%
X135816000Y-130257000D02*
X135816000Y-129782000D01*
X140036000Y-126037000D02*
X140036000Y-126512000D01*
X140036000Y-130257000D02*
X140036000Y-129782000D01*
X139561000Y-130257000D02*
X140036000Y-130257000D01*
X139561000Y-126037000D02*
X140036000Y-126037000D01*
X136291000Y-130257000D02*
X135816000Y-130257000D01*
X136291000Y-126037000D02*
X135816000Y-126037000D01*
%TO.C,J6*%
X129092000Y-65786000D02*
X129092000Y-83626000D01*
X126432000Y-63186000D02*
X127762000Y-63186000D01*
X126432000Y-64516000D02*
X126432000Y-63186000D01*
X126432000Y-65786000D02*
X126432000Y-83626000D01*
X126432000Y-83626000D02*
X129092000Y-83626000D01*
X126432000Y-65786000D02*
X129092000Y-65786000D01*
%TO.C,J11*%
X128071000Y-138732000D02*
X128071000Y-137402000D01*
X130671000Y-136072000D02*
X133271000Y-136072000D01*
X129401000Y-138732000D02*
X128071000Y-138732000D01*
X133271000Y-138732000D02*
X133271000Y-136072000D01*
X130671000Y-138732000D02*
X130671000Y-136072000D01*
X130671000Y-138732000D02*
X133271000Y-138732000D01*
%TO.C,C1*%
X143883748Y-89127000D02*
X144406252Y-89127000D01*
X143883748Y-87657000D02*
X144406252Y-87657000D01*
%TO.C,C3*%
X134778000Y-112914252D02*
X134778000Y-112391748D01*
X136248000Y-112914252D02*
X136248000Y-112391748D01*
%TO.C,R11*%
X139677000Y-112626064D02*
X139677000Y-112171936D01*
X138207000Y-112626064D02*
X138207000Y-112171936D01*
D15*
%TO.C,U1*%
X140937680Y-62147290D02*
X140937680Y-64647290D01*
X150937680Y-62147290D02*
X150937680Y-66147290D01*
X145937680Y-62147290D02*
X145937680Y-64647290D01*
X143437680Y-64647290D02*
X143437680Y-62147290D01*
X136937680Y-66147290D02*
X136937680Y-62147290D01*
X148437680Y-64647290D02*
X148437680Y-62147290D01*
X143437680Y-62147290D02*
X145937680Y-62147290D01*
D12*
X151937680Y-61147290D02*
X135937680Y-61147290D01*
D15*
X138937680Y-62147290D02*
X138937680Y-66147290D01*
X138937680Y-62147290D02*
X140937680Y-62147290D01*
X148437680Y-62147290D02*
X150937680Y-62147290D01*
X140937680Y-64647290D02*
X143437680Y-64647290D01*
X136937680Y-62147290D02*
X138937680Y-62147290D01*
X145937680Y-64647290D02*
X148437680Y-64647290D01*
D14*
%TO.C,R7*%
X136010064Y-135359000D02*
X135555936Y-135359000D01*
X136010064Y-133889000D02*
X135555936Y-133889000D01*
%TO.C,D4*%
X150744000Y-132910856D02*
X150744000Y-134380856D01*
X150744000Y-134380856D02*
X153204000Y-134380856D01*
X153204000Y-132910856D02*
X150744000Y-132910856D01*
%TO.C,D2*%
X166789000Y-72290000D02*
X164329000Y-72290000D01*
X164329000Y-72290000D02*
X164329000Y-73760000D01*
X164329000Y-73760000D02*
X166789000Y-73760000D01*
%TD*%
M02*
