%TF.GenerationSoftware,KiCad,Pcbnew,(6.0.10)*%
%TF.CreationDate,2023-03-08T17:02:45-06:00*%
%TF.ProjectId,445,3434352e-6b69-4636-9164-5f7063625858,rev?*%
%TF.SameCoordinates,Original*%
%TF.FileFunction,Copper,L2,Bot*%
%TF.FilePolarity,Positive*%
%FSLAX46Y46*%
G04 Gerber Fmt 4.6, Leading zero omitted, Abs format (unit mm)*
G04 Created by KiCad (PCBNEW (6.0.10)) date 2023-03-08 17:02:45*
%MOMM*%
%LPD*%
G01*
G04 APERTURE LIST*
%TA.AperFunction,ComponentPad*%
%ADD10R,1.700000X1.700000*%
%TD*%
%TA.AperFunction,ComponentPad*%
%ADD11O,1.700000X1.700000*%
%TD*%
%TA.AperFunction,ComponentPad*%
%ADD12O,2.100000X1.000000*%
%TD*%
%TA.AperFunction,ComponentPad*%
%ADD13O,1.800000X1.000000*%
%TD*%
%TA.AperFunction,ViaPad*%
%ADD14C,0.800000*%
%TD*%
%TA.AperFunction,Conductor*%
%ADD15C,0.500000*%
%TD*%
%TA.AperFunction,Conductor*%
%ADD16C,0.250000*%
%TD*%
%TA.AperFunction,Conductor*%
%ADD17C,0.675000*%
%TD*%
%TA.AperFunction,Conductor*%
%ADD18C,0.375000*%
%TD*%
G04 APERTURE END LIST*
D10*
%TO.P,J7,1,Pin_1*%
%TO.N,unconnected-(J7-Pad1)*%
X155194000Y-85217000D03*
D11*
%TO.P,J7,2,Pin_2*%
%TO.N,/GPIO15{slash}SS*%
X155194000Y-82677000D03*
%TO.P,J7,3,Pin_3*%
%TO.N,/LED_GPIO2_BOOT*%
X155194000Y-80137000D03*
%TO.P,J7,4,Pin_4*%
%TO.N,/GPIO0*%
X155194000Y-77597000D03*
%TO.P,J7,5,Pin_5*%
%TO.N,/GPIO4*%
X155194000Y-75057000D03*
%TO.P,J7,6,Pin_6*%
%TO.N,/GPIO5*%
X155194000Y-72517000D03*
%TO.P,J7,7,Pin_7*%
%TO.N,/RX*%
X155194000Y-69977000D03*
%TO.P,J7,8,Pin_8*%
%TO.N,/TX*%
X155194000Y-67437000D03*
%TD*%
D10*
%TO.P,J8,1,Pin_1*%
%TO.N,Net-(J8-Pad1)*%
X151245000Y-120257000D03*
D11*
%TO.P,J8,2,Pin_2*%
%TO.N,Net-(J8-Pad2)*%
X151245000Y-117717000D03*
%TD*%
D10*
%TO.P,J10,1,Pin_1*%
%TO.N,/alert*%
X161913000Y-120130000D03*
D11*
%TO.P,J10,2,Pin_2*%
%TO.N,/VSNK_USBC*%
X161913000Y-122670000D03*
%TO.P,J10,3,Pin_3*%
%TO.N,/USBC_SDA*%
X161913000Y-125210000D03*
%TO.P,J10,4,Pin_4*%
%TO.N,/USBC_SCL*%
X161913000Y-127750000D03*
%TD*%
D10*
%TO.P,J9,1,Pin_1*%
%TO.N,Net-(J9-Pad1)*%
X143112000Y-137402000D03*
D11*
%TO.P,J9,2,Pin_2*%
%TO.N,Net-(J9-Pad2)*%
X145652000Y-137402000D03*
%TD*%
D12*
%TO.P,J5,S1,SHIELD*%
%TO.N,unconnected-(J5-PadS1)*%
X122214000Y-120065951D03*
D13*
X118034000Y-120065951D03*
D12*
X122214000Y-128705951D03*
D13*
X118034000Y-128705951D03*
%TD*%
D10*
%TO.P,J6,1,Pin_1*%
%TO.N,/ESP_RST*%
X127762000Y-64516000D03*
D11*
%TO.P,J6,2,Pin_2*%
%TO.N,/ADC*%
X127762000Y-67056000D03*
%TO.P,J6,3,Pin_3*%
%TO.N,/ESP_EN*%
X127762000Y-69596000D03*
%TO.P,J6,4,Pin_4*%
%TO.N,/GPIO16*%
X127762000Y-72136000D03*
%TO.P,J6,5,Pin_5*%
%TO.N,unconnected-(J6-Pad5)*%
X127762000Y-74676000D03*
%TO.P,J6,6,Pin_6*%
%TO.N,unconnected-(J6-Pad6)*%
X127762000Y-77216000D03*
%TO.P,J6,7,Pin_7*%
%TO.N,unconnected-(J6-Pad7)*%
X127762000Y-79756000D03*
%TO.P,J6,8,Pin_8*%
%TO.N,unconnected-(J6-Pad8)*%
X127762000Y-82296000D03*
%TD*%
D10*
%TO.P,J11,1,Pin_1*%
%TO.N,GND*%
X129401000Y-137402000D03*
D11*
%TO.P,J11,2,Pin_2*%
X131941000Y-137402000D03*
%TD*%
D10*
%TO.P,J3,1,Pin_1*%
%TO.N,unconnected-(J3-Pad1)*%
X169926000Y-51059000D03*
D11*
%TO.P,J3,2,Pin_2*%
%TO.N,unconnected-(J3-Pad2)*%
X169926000Y-53599000D03*
%TO.P,J3,3,Pin_3*%
%TO.N,unconnected-(J3-Pad3)*%
X169926000Y-56139000D03*
%TO.P,J3,4,Pin_4*%
%TO.N,GND*%
X169926000Y-58679000D03*
%TO.P,J3,5,Pin_5*%
%TO.N,/SCLK*%
X169926000Y-61219000D03*
%TO.P,J3,6,Pin_6*%
%TO.N,/MISO*%
X169926000Y-63759000D03*
%TO.P,J3,7,Pin_7*%
%TO.N,/MOSI*%
X169926000Y-66299000D03*
%TO.P,J3,8,Pin_8*%
%TO.N,/GPIO15{slash}SS*%
X169926000Y-68839000D03*
%TO.P,J3,9,Pin_9*%
%TO.N,unconnected-(J3-Pad9)*%
X169926000Y-71379000D03*
%TO.P,J3,10,Pin_10*%
%TO.N,unconnected-(J3-Pad10)*%
X169926000Y-73919000D03*
%TD*%
D10*
%TO.P,J1,1,Pin_1*%
%TO.N,unconnected-(J1-Pad1)*%
X121666000Y-65405000D03*
D11*
%TO.P,J1,2,Pin_2*%
%TO.N,GND*%
X121666000Y-67945000D03*
%TO.P,J1,3,Pin_3*%
X121666000Y-70485000D03*
%TO.P,J1,4,Pin_4*%
%TO.N,/5V_FPGA_OUT*%
X121666000Y-73025000D03*
%TO.P,J1,5,Pin_5*%
%TO.N,/3.3V1*%
X121666000Y-75565000D03*
%TO.P,J1,6,Pin_6*%
%TO.N,unconnected-(J1-Pad6)*%
X121666000Y-78105000D03*
%TD*%
D10*
%TO.P,J2,1,Pin_1*%
%TO.N,unconnected-(J2-Pad1)*%
X121666000Y-83058000D03*
D11*
%TO.P,J2,2,Pin_2*%
%TO.N,unconnected-(J2-Pad2)*%
X121666000Y-85598000D03*
%TO.P,J2,3,Pin_3*%
%TO.N,unconnected-(J2-Pad3)*%
X121666000Y-88138000D03*
%TO.P,J2,4,Pin_4*%
%TO.N,unconnected-(J2-Pad4)*%
X121666000Y-90678000D03*
%TO.P,J2,5,Pin_5*%
%TO.N,unconnected-(J2-Pad5)*%
X121666000Y-93218000D03*
%TO.P,J2,6,Pin_6*%
%TO.N,unconnected-(J2-Pad6)*%
X121666000Y-95758000D03*
%TD*%
D10*
%TO.P,J4,1,Pin_1*%
%TO.N,unconnected-(J4-Pad1)*%
X169926000Y-77993000D03*
D11*
%TO.P,J4,2,Pin_2*%
%TO.N,unconnected-(J4-Pad2)*%
X169926000Y-80533000D03*
%TO.P,J4,3,Pin_3*%
%TO.N,unconnected-(J4-Pad3)*%
X169926000Y-83073000D03*
%TO.P,J4,4,Pin_4*%
%TO.N,unconnected-(J4-Pad4)*%
X169926000Y-85613000D03*
%TO.P,J4,5,Pin_5*%
%TO.N,unconnected-(J4-Pad5)*%
X169926000Y-88153000D03*
%TO.P,J4,6,Pin_6*%
%TO.N,unconnected-(J4-Pad6)*%
X169926000Y-90693000D03*
%TO.P,J4,7,Pin_7*%
%TO.N,unconnected-(J4-Pad7)*%
X169926000Y-93233000D03*
%TO.P,J4,8,Pin_8*%
%TO.N,unconnected-(J4-Pad8)*%
X169926000Y-95773000D03*
%TD*%
D14*
%TO.N,/3.3V1*%
X125222000Y-61722000D03*
X130810000Y-61722000D03*
%TO.N,GND*%
X153035000Y-122936000D03*
X156464000Y-103124000D03*
X124079000Y-102997000D03*
X162179000Y-68072000D03*
X132719000Y-111510000D03*
X125222000Y-133604000D03*
X157861000Y-61976000D03*
X135382000Y-50546000D03*
X158496000Y-112268000D03*
X132080000Y-64897000D03*
X147920859Y-88992859D03*
X139192000Y-107315000D03*
X151257000Y-91059000D03*
X125953859Y-106141859D03*
X159004000Y-58928000D03*
X157353000Y-136652000D03*
X133985000Y-106807000D03*
%TO.N,Net-(C2-Pad1)*%
X136779000Y-121793000D03*
X143002000Y-129573900D03*
%TO.N,/VSNK_USBC*%
X142494000Y-108458000D03*
X126365000Y-113919000D03*
X146812000Y-108458000D03*
%TO.N,Net-(C4-Pad2)*%
X147612141Y-120238859D03*
X149004359Y-123545641D03*
%TO.N,Net-(C5-Pad1)*%
X140970000Y-124968000D03*
X136144000Y-124968000D03*
X125193668Y-126812851D03*
X127889000Y-126220100D03*
%TO.N,/VDD_USBC*%
X137414000Y-119380000D03*
X139938648Y-117538348D03*
%TO.N,Net-(D5-Pad1)*%
X147705000Y-126708100D03*
X147705000Y-128147000D03*
%TO.N,/GPIO0*%
X154432000Y-60452000D03*
X158537900Y-75438000D03*
%TO.N,Net-(J8-Pad1)*%
X148705000Y-117717000D03*
X146935241Y-116193000D03*
%TO.N,Net-(J8-Pad2)*%
X146935241Y-114796000D03*
X148645621Y-116506379D03*
%TO.N,Net-(J9-Pad1)*%
X140577000Y-130544000D03*
X142101000Y-134735000D03*
%TO.N,Net-(J9-Pad2)*%
X143117000Y-134481000D03*
X141369030Y-130015980D03*
%TO.N,/alert*%
X159055500Y-120320500D03*
X141212000Y-126200100D03*
X145968900Y-131941000D03*
X143499591Y-131053591D03*
%TO.N,/USBC_SDA*%
X133973000Y-132703000D03*
%TO.N,/USBC_SCL*%
X131892903Y-124083000D03*
X134624000Y-131195000D03*
%TO.N,Net-(Q1-Pad4)*%
X139846509Y-123197311D03*
X136275000Y-123829000D03*
%TO.N,Net-(R7-Pad2)*%
X137037000Y-133227000D03*
X145292000Y-109859000D03*
%TO.N,Net-(R9-Pad1)*%
X130941000Y-129671000D03*
X130941000Y-124083000D03*
%TO.N,Net-(R13-Pad1)*%
X131195000Y-105118100D03*
X135005000Y-101096000D03*
%TO.N,Net-(R14-Pad1)*%
X137705843Y-132549677D03*
X138684000Y-133731000D03*
%TD*%
D15*
%TO.N,/3.3V1*%
X125222000Y-61722000D02*
X130810000Y-61722000D01*
D16*
%TO.N,GND*%
X147920859Y-89350230D02*
X147920859Y-88992859D01*
X125953859Y-106141859D02*
X131129230Y-106141859D01*
X131129230Y-106141859D02*
X147920859Y-89350230D01*
X147920859Y-88992859D02*
X153672941Y-88992859D01*
X157861000Y-84804800D02*
X157861000Y-61976000D01*
X125953859Y-106141859D02*
X131322000Y-111510000D01*
X153672941Y-88992859D02*
X157861000Y-84804800D01*
X131322000Y-111510000D02*
X132719000Y-111510000D01*
%TO.N,Net-(C2-Pad1)*%
X139827000Y-122174000D02*
X139446000Y-121793000D01*
X139446000Y-121793000D02*
X136779000Y-121793000D01*
X143002000Y-129573900D02*
X143002000Y-126042011D01*
X140716000Y-123756011D02*
X140716000Y-123190000D01*
X143002000Y-126042011D02*
X140716000Y-123756011D01*
X140716000Y-123063000D02*
X139827000Y-122174000D01*
X140716000Y-123190000D02*
X140716000Y-123063000D01*
D17*
%TO.N,/VSNK_USBC*%
X146812000Y-108458000D02*
X142494000Y-108458000D01*
X142494000Y-108458000D02*
X137033000Y-113919000D01*
X137033000Y-113919000D02*
X126365000Y-113919000D01*
D16*
%TO.N,Net-(C4-Pad2)*%
X147612141Y-120238859D02*
X147612141Y-122153423D01*
X147612141Y-122153423D02*
X149004359Y-123545641D01*
D17*
%TO.N,Net-(C5-Pad1)*%
X125786419Y-126220100D02*
X127889000Y-126220100D01*
X136144000Y-124968000D02*
X140970000Y-124968000D01*
X125193668Y-126812851D02*
X125786419Y-126220100D01*
D18*
%TO.N,/VDD_USBC*%
X138096996Y-119380000D02*
X139938648Y-117538348D01*
X137414000Y-119380000D02*
X138096996Y-119380000D01*
D16*
%TO.N,Net-(D5-Pad1)*%
X147705000Y-128147000D02*
X147705000Y-126708100D01*
%TO.N,unconnected-(J5-PadS1)*%
X118034000Y-120065951D02*
X118034000Y-128705951D01*
X122214000Y-120065951D02*
X118034000Y-120065951D01*
X118034000Y-128705951D02*
X122214000Y-128705951D01*
X122414001Y-128505950D02*
X122414001Y-120265952D01*
%TO.N,/GPIO0*%
X158537900Y-75438000D02*
X158537900Y-61636900D01*
X158537900Y-61636900D02*
X157353000Y-60452000D01*
X157353000Y-60452000D02*
X154432000Y-60452000D01*
%TO.N,Net-(J8-Pad1)*%
X147181000Y-116193000D02*
X146935241Y-116193000D01*
X148705000Y-117717000D02*
X147181000Y-116193000D01*
%TO.N,Net-(J8-Pad2)*%
X148645621Y-116506379D02*
X146935241Y-114796000D01*
%TO.N,Net-(J9-Pad1)*%
X142101000Y-132068000D02*
X140577000Y-130544000D01*
X142101000Y-134735000D02*
X142101000Y-132068000D01*
%TO.N,Net-(J9-Pad2)*%
X143117000Y-134481000D02*
X143117000Y-131763950D01*
X143117000Y-131763950D02*
X141369030Y-130015980D01*
%TO.N,/alert*%
X159055500Y-120320500D02*
X147435000Y-131941000D01*
X143499591Y-131053591D02*
X141212000Y-128766000D01*
X147435000Y-131941000D02*
X145968900Y-131941000D01*
X141212000Y-128766000D02*
X141212000Y-126200100D01*
%TO.N,/USBC_SDA*%
X149228600Y-138529400D02*
X148324000Y-139434000D01*
X153038600Y-138529400D02*
X149228600Y-138529400D01*
X148324000Y-139434000D02*
X140704000Y-139434000D01*
X161913000Y-125210000D02*
X163056000Y-126353000D01*
X163056000Y-128512000D02*
X153038600Y-138529400D01*
X163056000Y-126353000D02*
X163056000Y-128512000D01*
X133973000Y-132703000D02*
X140704000Y-139434000D01*
%TO.N,/USBC_SCL*%
X134624000Y-131771989D02*
X138857011Y-136005000D01*
X138857011Y-136005000D02*
X153658000Y-136005000D01*
X153658000Y-136005000D02*
X161913000Y-127750000D01*
X131892903Y-128463903D02*
X131892903Y-124083000D01*
X134624000Y-131195000D02*
X131892903Y-128463903D01*
X134624000Y-131195000D02*
X134624000Y-131771989D01*
%TO.N,Net-(Q1-Pad4)*%
X136275000Y-123829000D02*
X139214820Y-123829000D01*
X139214820Y-123829000D02*
X139846509Y-123197311D01*
%TO.N,Net-(R7-Pad2)*%
X137037000Y-133227000D02*
X137164000Y-133227000D01*
X145292000Y-133449000D02*
X145292000Y-109859000D01*
X143244000Y-135497000D02*
X145292000Y-133449000D01*
X137164000Y-133227000D02*
X139434000Y-135497000D01*
X139434000Y-135497000D02*
X143244000Y-135497000D01*
%TO.N,Net-(R9-Pad1)*%
X130941000Y-129671000D02*
X130941000Y-124083000D01*
%TO.N,Net-(R13-Pad1)*%
X131195000Y-105118100D02*
X131195000Y-104906000D01*
X131195000Y-104906000D02*
X135005000Y-101096000D01*
D18*
%TO.N,Net-(R14-Pad1)*%
X138684000Y-133731000D02*
X138684000Y-133527834D01*
X138684000Y-133527834D02*
X137705843Y-132549677D01*
%TD*%
%TA.AperFunction,Conductor*%
%TO.N,GND*%
G36*
X214952621Y-40533502D02*
G01*
X214999114Y-40587158D01*
X215010500Y-40639500D01*
X215010500Y-139446500D01*
X214990498Y-139514621D01*
X214936842Y-139561114D01*
X214884500Y-139572500D01*
X149385594Y-139572500D01*
X149317473Y-139552498D01*
X149270980Y-139498842D01*
X149260876Y-139428568D01*
X149290370Y-139363988D01*
X149296499Y-139357405D01*
X149454099Y-139199805D01*
X149516411Y-139165779D01*
X149543194Y-139162900D01*
X152959833Y-139162900D01*
X152971016Y-139163427D01*
X152978509Y-139165102D01*
X152986435Y-139164853D01*
X152986436Y-139164853D01*
X153046586Y-139162962D01*
X153050545Y-139162900D01*
X153078456Y-139162900D01*
X153082391Y-139162403D01*
X153082456Y-139162395D01*
X153094293Y-139161462D01*
X153126551Y-139160448D01*
X153130570Y-139160322D01*
X153138489Y-139160073D01*
X153157943Y-139154421D01*
X153177300Y-139150413D01*
X153189530Y-139148868D01*
X153189531Y-139148868D01*
X153197397Y-139147874D01*
X153204768Y-139144955D01*
X153204770Y-139144955D01*
X153238512Y-139131596D01*
X153249742Y-139127751D01*
X153284583Y-139117629D01*
X153284584Y-139117629D01*
X153292193Y-139115418D01*
X153299012Y-139111385D01*
X153299017Y-139111383D01*
X153309628Y-139105107D01*
X153327376Y-139096412D01*
X153346217Y-139088952D01*
X153381987Y-139062964D01*
X153391907Y-139056448D01*
X153423135Y-139037980D01*
X153423138Y-139037978D01*
X153429962Y-139033942D01*
X153444283Y-139019621D01*
X153459317Y-139006780D01*
X153469294Y-138999531D01*
X153475707Y-138994872D01*
X153503898Y-138960795D01*
X153511888Y-138952016D01*
X163448253Y-129015652D01*
X163456539Y-129008112D01*
X163463018Y-129004000D01*
X163509644Y-128954348D01*
X163512398Y-128951507D01*
X163532135Y-128931770D01*
X163534615Y-128928573D01*
X163542320Y-128919551D01*
X163544781Y-128916930D01*
X163572586Y-128887321D01*
X163576405Y-128880375D01*
X163576407Y-128880372D01*
X163582348Y-128869566D01*
X163593199Y-128853047D01*
X163600758Y-128843301D01*
X163605614Y-128837041D01*
X163608759Y-128829772D01*
X163608762Y-128829768D01*
X163623174Y-128796463D01*
X163628391Y-128785813D01*
X163649695Y-128747060D01*
X163654733Y-128727437D01*
X163661137Y-128708734D01*
X163666033Y-128697420D01*
X163666033Y-128697419D01*
X163669181Y-128690145D01*
X163670420Y-128682322D01*
X163670423Y-128682312D01*
X163676099Y-128646476D01*
X163678505Y-128634856D01*
X163687528Y-128599711D01*
X163687528Y-128599710D01*
X163689500Y-128592030D01*
X163689500Y-128571776D01*
X163691051Y-128552065D01*
X163692980Y-128539886D01*
X163694220Y-128532057D01*
X163690059Y-128488038D01*
X163689500Y-128476181D01*
X163689500Y-126431767D01*
X163690027Y-126420584D01*
X163691702Y-126413091D01*
X163691400Y-126403465D01*
X163689562Y-126345014D01*
X163689500Y-126341055D01*
X163689500Y-126313144D01*
X163688995Y-126309144D01*
X163688062Y-126297301D01*
X163686922Y-126261029D01*
X163686673Y-126253110D01*
X163681022Y-126233658D01*
X163677014Y-126214306D01*
X163676120Y-126207235D01*
X163674474Y-126194203D01*
X163668863Y-126180031D01*
X163658200Y-126153097D01*
X163654355Y-126141870D01*
X163648227Y-126120778D01*
X163642018Y-126099407D01*
X163631707Y-126081972D01*
X163623012Y-126064224D01*
X163615552Y-126045383D01*
X163589564Y-126009613D01*
X163583048Y-125999693D01*
X163564580Y-125968465D01*
X163564578Y-125968462D01*
X163560542Y-125961638D01*
X163546221Y-125947317D01*
X163533380Y-125932283D01*
X163526131Y-125922306D01*
X163521472Y-125915893D01*
X163487395Y-125887702D01*
X163478616Y-125879712D01*
X163264219Y-125665315D01*
X163230193Y-125603003D01*
X163232755Y-125539593D01*
X163243866Y-125503019D01*
X163245370Y-125498069D01*
X163274529Y-125276590D01*
X163276156Y-125210000D01*
X163257852Y-124987361D01*
X163203431Y-124770702D01*
X163114354Y-124565840D01*
X163074906Y-124504862D01*
X162995822Y-124382617D01*
X162995820Y-124382614D01*
X162993014Y-124378277D01*
X162842670Y-124213051D01*
X162838619Y-124209852D01*
X162838615Y-124209848D01*
X162671414Y-124077800D01*
X162671410Y-124077798D01*
X162667359Y-124074598D01*
X162626053Y-124051796D01*
X162576084Y-124001364D01*
X162561312Y-123931921D01*
X162586428Y-123865516D01*
X162613780Y-123838909D01*
X162657603Y-123807650D01*
X162792860Y-123711173D01*
X162951096Y-123553489D01*
X163010594Y-123470689D01*
X163078435Y-123376277D01*
X163081453Y-123372077D01*
X163092644Y-123349435D01*
X163178136Y-123176453D01*
X163178137Y-123176451D01*
X163180430Y-123171811D01*
X163245370Y-122958069D01*
X163274529Y-122736590D01*
X163275186Y-122709693D01*
X163276074Y-122673365D01*
X163276074Y-122673361D01*
X163276156Y-122670000D01*
X163257852Y-122447361D01*
X163203431Y-122230702D01*
X163114354Y-122025840D01*
X162993014Y-121838277D01*
X162989532Y-121834450D01*
X162845798Y-121676488D01*
X162814746Y-121612642D01*
X162823141Y-121542143D01*
X162868317Y-121487375D01*
X162894761Y-121473706D01*
X163001297Y-121433767D01*
X163009705Y-121430615D01*
X163126261Y-121343261D01*
X163213615Y-121226705D01*
X163264745Y-121090316D01*
X163271500Y-121028134D01*
X163271500Y-119231866D01*
X163270953Y-119226826D01*
X163267673Y-119196635D01*
X163264745Y-119169684D01*
X163213615Y-119033295D01*
X163126261Y-118916739D01*
X163009705Y-118829385D01*
X162873316Y-118778255D01*
X162811134Y-118771500D01*
X161014866Y-118771500D01*
X160952684Y-118778255D01*
X160816295Y-118829385D01*
X160699739Y-118916739D01*
X160612385Y-119033295D01*
X160561255Y-119169684D01*
X160558327Y-119196635D01*
X160555048Y-119226826D01*
X160554500Y-119231866D01*
X160554500Y-121028134D01*
X160561255Y-121090316D01*
X160612385Y-121226705D01*
X160699739Y-121343261D01*
X160816295Y-121430615D01*
X160824704Y-121433767D01*
X160824705Y-121433768D01*
X160933451Y-121474535D01*
X160990216Y-121517176D01*
X161014916Y-121583738D01*
X160999709Y-121653087D01*
X160980316Y-121679568D01*
X160853629Y-121812138D01*
X160727743Y-121996680D01*
X160686043Y-122086516D01*
X160651279Y-122161409D01*
X160633688Y-122199305D01*
X160573989Y-122414570D01*
X160550251Y-122636695D01*
X160550548Y-122641848D01*
X160550548Y-122641851D01*
X160557519Y-122762754D01*
X160563110Y-122859715D01*
X160564247Y-122864761D01*
X160564248Y-122864767D01*
X160577118Y-122921872D01*
X160612222Y-123077639D01*
X160696266Y-123284616D01*
X160698965Y-123289020D01*
X160798668Y-123451721D01*
X160812987Y-123475088D01*
X160959250Y-123643938D01*
X161131126Y-123786632D01*
X161192396Y-123822435D01*
X161204445Y-123829476D01*
X161253169Y-123881114D01*
X161266240Y-123950897D01*
X161239509Y-124016669D01*
X161199055Y-124050027D01*
X161186607Y-124056507D01*
X161182474Y-124059610D01*
X161182471Y-124059612D01*
X161120940Y-124105811D01*
X161007965Y-124190635D01*
X160962997Y-124237691D01*
X160868326Y-124336759D01*
X160853629Y-124352138D01*
X160850715Y-124356410D01*
X160850714Y-124356411D01*
X160784983Y-124452769D01*
X160727743Y-124536680D01*
X160689093Y-124619944D01*
X160643855Y-124717403D01*
X160633688Y-124739305D01*
X160573989Y-124954570D01*
X160550251Y-125176695D01*
X160550548Y-125181848D01*
X160550548Y-125181851D01*
X160562682Y-125392293D01*
X160563110Y-125399715D01*
X160564247Y-125404761D01*
X160564248Y-125404767D01*
X160584120Y-125492942D01*
X160612222Y-125617639D01*
X160696266Y-125824616D01*
X160730029Y-125879712D01*
X160805062Y-126002155D01*
X160812987Y-126015088D01*
X160959250Y-126183938D01*
X161131126Y-126326632D01*
X161162583Y-126345014D01*
X161204445Y-126369476D01*
X161253169Y-126421114D01*
X161266240Y-126490897D01*
X161239509Y-126556669D01*
X161199055Y-126590027D01*
X161186607Y-126596507D01*
X161182474Y-126599610D01*
X161182471Y-126599612D01*
X161029235Y-126714665D01*
X161007965Y-126730635D01*
X160853629Y-126892138D01*
X160850715Y-126896410D01*
X160850714Y-126896411D01*
X160782632Y-126996216D01*
X160727743Y-127076680D01*
X160703643Y-127128600D01*
X160652246Y-127239326D01*
X160633688Y-127279305D01*
X160573989Y-127494570D01*
X160550251Y-127716695D01*
X160550548Y-127721848D01*
X160550548Y-127721851D01*
X160553585Y-127774518D01*
X160563110Y-127939715D01*
X160564247Y-127944761D01*
X160564248Y-127944767D01*
X160596453Y-128087668D01*
X160591917Y-128158520D01*
X160562631Y-128204464D01*
X153432500Y-135334595D01*
X153370188Y-135368621D01*
X153343405Y-135371500D01*
X144569594Y-135371500D01*
X144501473Y-135351498D01*
X144454980Y-135297842D01*
X144444876Y-135227568D01*
X144474370Y-135162988D01*
X144480499Y-135156405D01*
X145684247Y-133952657D01*
X145692537Y-133945113D01*
X145699018Y-133941000D01*
X145745659Y-133891332D01*
X145748413Y-133888491D01*
X145768134Y-133868770D01*
X145770612Y-133865575D01*
X145778318Y-133856553D01*
X145803158Y-133830101D01*
X145808586Y-133824321D01*
X145818346Y-133806568D01*
X145829199Y-133790045D01*
X145836753Y-133780306D01*
X145841613Y-133774041D01*
X145859176Y-133733457D01*
X145864383Y-133722827D01*
X145885695Y-133684060D01*
X145887666Y-133676383D01*
X145887668Y-133676378D01*
X145890732Y-133664442D01*
X145897138Y-133645730D01*
X145902034Y-133634417D01*
X145905181Y-133627145D01*
X145907877Y-133610128D01*
X145912097Y-133583481D01*
X145914504Y-133571860D01*
X145923528Y-133536711D01*
X145923528Y-133536710D01*
X145925500Y-133529030D01*
X145925500Y-133508769D01*
X145927051Y-133489058D01*
X145928979Y-133476885D01*
X145930219Y-133469057D01*
X145926059Y-133425046D01*
X145925500Y-133413189D01*
X145925500Y-132975500D01*
X145945502Y-132907379D01*
X145999158Y-132860886D01*
X146051500Y-132849500D01*
X146064387Y-132849500D01*
X146070839Y-132848128D01*
X146070844Y-132848128D01*
X146157787Y-132829647D01*
X146251188Y-132809794D01*
X146257219Y-132807109D01*
X146419622Y-132734803D01*
X146419624Y-132734802D01*
X146425652Y-132732118D01*
X146456694Y-132709565D01*
X146574814Y-132623745D01*
X146580153Y-132619866D01*
X146584568Y-132614963D01*
X146589480Y-132610540D01*
X146590605Y-132611789D01*
X146643914Y-132578949D01*
X146677100Y-132574500D01*
X147356233Y-132574500D01*
X147367416Y-132575027D01*
X147374909Y-132576702D01*
X147382835Y-132576453D01*
X147382836Y-132576453D01*
X147442986Y-132574562D01*
X147446945Y-132574500D01*
X147474856Y-132574500D01*
X147478791Y-132574003D01*
X147478856Y-132573995D01*
X147490693Y-132573062D01*
X147522951Y-132572048D01*
X147526970Y-132571922D01*
X147534889Y-132571673D01*
X147554343Y-132566021D01*
X147573700Y-132562013D01*
X147585930Y-132560468D01*
X147585931Y-132560468D01*
X147593797Y-132559474D01*
X147601168Y-132556555D01*
X147601170Y-132556555D01*
X147634912Y-132543196D01*
X147646142Y-132539351D01*
X147680983Y-132529229D01*
X147680984Y-132529229D01*
X147688593Y-132527018D01*
X147695412Y-132522985D01*
X147695417Y-132522983D01*
X147706028Y-132516707D01*
X147723776Y-132508012D01*
X147742617Y-132500552D01*
X147778387Y-132474564D01*
X147788307Y-132468048D01*
X147819535Y-132449580D01*
X147819538Y-132449578D01*
X147826362Y-132445542D01*
X147840683Y-132431221D01*
X147855717Y-132418380D01*
X147865694Y-132411131D01*
X147872107Y-132406472D01*
X147900298Y-132372395D01*
X147908288Y-132363616D01*
X159005999Y-121265905D01*
X159068311Y-121231879D01*
X159095094Y-121229000D01*
X159150987Y-121229000D01*
X159157439Y-121227628D01*
X159157444Y-121227628D01*
X159272737Y-121203121D01*
X159337788Y-121189294D01*
X159351999Y-121182967D01*
X159506222Y-121114303D01*
X159506224Y-121114302D01*
X159512252Y-121111618D01*
X159525024Y-121102339D01*
X159597129Y-121049951D01*
X159666753Y-120999366D01*
X159762510Y-120893017D01*
X159790121Y-120862352D01*
X159790122Y-120862351D01*
X159794540Y-120857444D01*
X159882325Y-120705397D01*
X159886723Y-120697779D01*
X159886724Y-120697778D01*
X159890027Y-120692056D01*
X159949042Y-120510428D01*
X159953915Y-120464070D01*
X159968314Y-120327065D01*
X159969004Y-120320500D01*
X159961563Y-120249700D01*
X159949732Y-120137135D01*
X159949732Y-120137133D01*
X159949042Y-120130572D01*
X159890027Y-119948944D01*
X159885690Y-119941431D01*
X159838823Y-119860256D01*
X159794540Y-119783556D01*
X159666753Y-119641634D01*
X159512252Y-119529382D01*
X159506224Y-119526698D01*
X159506222Y-119526697D01*
X159343819Y-119454391D01*
X159343818Y-119454391D01*
X159337788Y-119451706D01*
X159244388Y-119431853D01*
X159157444Y-119413372D01*
X159157439Y-119413372D01*
X159150987Y-119412000D01*
X158960013Y-119412000D01*
X158953561Y-119413372D01*
X158953556Y-119413372D01*
X158866612Y-119431853D01*
X158773212Y-119451706D01*
X158767182Y-119454391D01*
X158767181Y-119454391D01*
X158604778Y-119526697D01*
X158604776Y-119526698D01*
X158598748Y-119529382D01*
X158444247Y-119641634D01*
X158316460Y-119783556D01*
X158272177Y-119860256D01*
X158225311Y-119941431D01*
X158220973Y-119948944D01*
X158161958Y-120130572D01*
X158145504Y-120287128D01*
X158144593Y-120295793D01*
X158117580Y-120361450D01*
X158108378Y-120371718D01*
X147209500Y-131270595D01*
X147147188Y-131304621D01*
X147120405Y-131307500D01*
X146677100Y-131307500D01*
X146608979Y-131287498D01*
X146589753Y-131271157D01*
X146589480Y-131271460D01*
X146584568Y-131267037D01*
X146580153Y-131262134D01*
X146531450Y-131226749D01*
X146430994Y-131153763D01*
X146430993Y-131153762D01*
X146425652Y-131149882D01*
X146419624Y-131147198D01*
X146419622Y-131147197D01*
X146257219Y-131074891D01*
X146257218Y-131074891D01*
X146251188Y-131072206D01*
X146157787Y-131052353D01*
X146070844Y-131033872D01*
X146070839Y-131033872D01*
X146064387Y-131032500D01*
X146051500Y-131032500D01*
X145983379Y-131012498D01*
X145936886Y-130958842D01*
X145925500Y-130906500D01*
X145925500Y-128147000D01*
X146791496Y-128147000D01*
X146811458Y-128336928D01*
X146870473Y-128518556D01*
X146965960Y-128683944D01*
X146970378Y-128688851D01*
X146970379Y-128688852D01*
X147086330Y-128817629D01*
X147093747Y-128825866D01*
X147186286Y-128893100D01*
X147239511Y-128931770D01*
X147248248Y-128938118D01*
X147254276Y-128940802D01*
X147254278Y-128940803D01*
X147396222Y-129004000D01*
X147422712Y-129015794D01*
X147516112Y-129035647D01*
X147603056Y-129054128D01*
X147603061Y-129054128D01*
X147609513Y-129055500D01*
X147800487Y-129055500D01*
X147806939Y-129054128D01*
X147806944Y-129054128D01*
X147893888Y-129035647D01*
X147987288Y-129015794D01*
X148013778Y-129004000D01*
X148155722Y-128940803D01*
X148155724Y-128940802D01*
X148161752Y-128938118D01*
X148170490Y-128931770D01*
X148223714Y-128893100D01*
X148316253Y-128825866D01*
X148323670Y-128817629D01*
X148439621Y-128688852D01*
X148439622Y-128688851D01*
X148444040Y-128683944D01*
X148539527Y-128518556D01*
X148598542Y-128336928D01*
X148618504Y-128147000D01*
X148610044Y-128066505D01*
X148599232Y-127963635D01*
X148599232Y-127963633D01*
X148598542Y-127957072D01*
X148539527Y-127775444D01*
X148534799Y-127767254D01*
X148464558Y-127645594D01*
X148444040Y-127610056D01*
X148370863Y-127528785D01*
X148340147Y-127464779D01*
X148338500Y-127444476D01*
X148338500Y-127410624D01*
X148358502Y-127342503D01*
X148370858Y-127326321D01*
X148444040Y-127245044D01*
X148512061Y-127127228D01*
X148536223Y-127085379D01*
X148536224Y-127085378D01*
X148539527Y-127079656D01*
X148598542Y-126898028D01*
X148603143Y-126854258D01*
X148617814Y-126714665D01*
X148618504Y-126708100D01*
X148617814Y-126701535D01*
X148599232Y-126524735D01*
X148599232Y-126524733D01*
X148598542Y-126518172D01*
X148539527Y-126336544D01*
X148444040Y-126171156D01*
X148398680Y-126120778D01*
X148320675Y-126034145D01*
X148320674Y-126034144D01*
X148316253Y-126029234D01*
X148196353Y-125942121D01*
X148167094Y-125920863D01*
X148167093Y-125920862D01*
X148161752Y-125916982D01*
X148155724Y-125914298D01*
X148155722Y-125914297D01*
X147993319Y-125841991D01*
X147993318Y-125841991D01*
X147987288Y-125839306D01*
X147893887Y-125819453D01*
X147806944Y-125800972D01*
X147806939Y-125800972D01*
X147800487Y-125799600D01*
X147609513Y-125799600D01*
X147603061Y-125800972D01*
X147603056Y-125800972D01*
X147516113Y-125819453D01*
X147422712Y-125839306D01*
X147416682Y-125841991D01*
X147416681Y-125841991D01*
X147254278Y-125914297D01*
X147254276Y-125914298D01*
X147248248Y-125916982D01*
X147242907Y-125920862D01*
X147242906Y-125920863D01*
X147213647Y-125942121D01*
X147093747Y-126029234D01*
X147089326Y-126034144D01*
X147089325Y-126034145D01*
X147011321Y-126120778D01*
X146965960Y-126171156D01*
X146870473Y-126336544D01*
X146811458Y-126518172D01*
X146810768Y-126524733D01*
X146810768Y-126524735D01*
X146792186Y-126701535D01*
X146791496Y-126708100D01*
X146792186Y-126714665D01*
X146806858Y-126854258D01*
X146811458Y-126898028D01*
X146870473Y-127079656D01*
X146873776Y-127085378D01*
X146873777Y-127085379D01*
X146897939Y-127127228D01*
X146965960Y-127245044D01*
X147039137Y-127326315D01*
X147069853Y-127390321D01*
X147071500Y-127410624D01*
X147071500Y-127444476D01*
X147051498Y-127512597D01*
X147039142Y-127528779D01*
X146965960Y-127610056D01*
X146945442Y-127645594D01*
X146875202Y-127767254D01*
X146870473Y-127775444D01*
X146811458Y-127957072D01*
X146810768Y-127963633D01*
X146810768Y-127963635D01*
X146799956Y-128066505D01*
X146791496Y-128147000D01*
X145925500Y-128147000D01*
X145925500Y-120238859D01*
X146698637Y-120238859D01*
X146699327Y-120245424D01*
X146708892Y-120336426D01*
X146718599Y-120428787D01*
X146777614Y-120610415D01*
X146780917Y-120616137D01*
X146780918Y-120616138D01*
X146793180Y-120637376D01*
X146873101Y-120775803D01*
X146946278Y-120857074D01*
X146976994Y-120921080D01*
X146978641Y-120941383D01*
X146978641Y-122074656D01*
X146978114Y-122085839D01*
X146976439Y-122093332D01*
X146976688Y-122101258D01*
X146976688Y-122101259D01*
X146978579Y-122161409D01*
X146978641Y-122165368D01*
X146978641Y-122193279D01*
X146979138Y-122197213D01*
X146979138Y-122197214D01*
X146979146Y-122197279D01*
X146980079Y-122209116D01*
X146981468Y-122253312D01*
X146987119Y-122272762D01*
X146991128Y-122292123D01*
X146993667Y-122312220D01*
X146996586Y-122319591D01*
X146996586Y-122319593D01*
X147009945Y-122353335D01*
X147013790Y-122364565D01*
X147026123Y-122407016D01*
X147030156Y-122413835D01*
X147030158Y-122413840D01*
X147036434Y-122424451D01*
X147045129Y-122442199D01*
X147052589Y-122461040D01*
X147057251Y-122467456D01*
X147057251Y-122467457D01*
X147078577Y-122496810D01*
X147085093Y-122506730D01*
X147107599Y-122544785D01*
X147121920Y-122559106D01*
X147134760Y-122574139D01*
X147146669Y-122590530D01*
X147158402Y-122600236D01*
X147180746Y-122618721D01*
X147189525Y-122626711D01*
X148057237Y-123494423D01*
X148091263Y-123556735D01*
X148093451Y-123570344D01*
X148110817Y-123735569D01*
X148169832Y-123917197D01*
X148265319Y-124082585D01*
X148269737Y-124087492D01*
X148269738Y-124087493D01*
X148365881Y-124194271D01*
X148393106Y-124224507D01*
X148492202Y-124296505D01*
X148520369Y-124316969D01*
X148547607Y-124336759D01*
X148553635Y-124339443D01*
X148553637Y-124339444D01*
X148716040Y-124411750D01*
X148722071Y-124414435D01*
X148815471Y-124434288D01*
X148902415Y-124452769D01*
X148902420Y-124452769D01*
X148908872Y-124454141D01*
X149099846Y-124454141D01*
X149106298Y-124452769D01*
X149106303Y-124452769D01*
X149193247Y-124434288D01*
X149286647Y-124414435D01*
X149292678Y-124411750D01*
X149455081Y-124339444D01*
X149455083Y-124339443D01*
X149461111Y-124336759D01*
X149488350Y-124316969D01*
X149516516Y-124296505D01*
X149615612Y-124224507D01*
X149642837Y-124194271D01*
X149738980Y-124087493D01*
X149738981Y-124087492D01*
X149743399Y-124082585D01*
X149838886Y-123917197D01*
X149897901Y-123735569D01*
X149917863Y-123545641D01*
X149906909Y-123441416D01*
X149898591Y-123362276D01*
X149898591Y-123362274D01*
X149897901Y-123355713D01*
X149838886Y-123174085D01*
X149743399Y-123008697D01*
X149697814Y-122958069D01*
X149620034Y-122871686D01*
X149620033Y-122871685D01*
X149615612Y-122866775D01*
X149461111Y-122754523D01*
X149455083Y-122751839D01*
X149455081Y-122751838D01*
X149292678Y-122679532D01*
X149292677Y-122679532D01*
X149286647Y-122676847D01*
X149193246Y-122656994D01*
X149106303Y-122638513D01*
X149106298Y-122638513D01*
X149099846Y-122637141D01*
X149043954Y-122637141D01*
X148975833Y-122617139D01*
X148954858Y-122600236D01*
X148282545Y-121927922D01*
X148248520Y-121865610D01*
X148245641Y-121838827D01*
X148245641Y-120941383D01*
X148265643Y-120873262D01*
X148277999Y-120857080D01*
X148351181Y-120775803D01*
X148431102Y-120637376D01*
X148443364Y-120616138D01*
X148443365Y-120616137D01*
X148446668Y-120610415D01*
X148505683Y-120428787D01*
X148515391Y-120336426D01*
X148524955Y-120245424D01*
X148525645Y-120238859D01*
X148508528Y-120076000D01*
X148506373Y-120055494D01*
X148506373Y-120055492D01*
X148505683Y-120048931D01*
X148446668Y-119867303D01*
X148442600Y-119860256D01*
X148401618Y-119789274D01*
X148351181Y-119701915D01*
X148223394Y-119559993D01*
X148078046Y-119454391D01*
X148074235Y-119451622D01*
X148074234Y-119451621D01*
X148068893Y-119447741D01*
X148062865Y-119445057D01*
X148062863Y-119445056D01*
X147900460Y-119372750D01*
X147900459Y-119372750D01*
X147894429Y-119370065D01*
X147767057Y-119342991D01*
X147714085Y-119331731D01*
X147714080Y-119331731D01*
X147707628Y-119330359D01*
X147516654Y-119330359D01*
X147510202Y-119331731D01*
X147510197Y-119331731D01*
X147457225Y-119342991D01*
X147329853Y-119370065D01*
X147323823Y-119372750D01*
X147323822Y-119372750D01*
X147161419Y-119445056D01*
X147161417Y-119445057D01*
X147155389Y-119447741D01*
X147150048Y-119451621D01*
X147150047Y-119451622D01*
X147146236Y-119454391D01*
X147000888Y-119559993D01*
X146873101Y-119701915D01*
X146822664Y-119789274D01*
X146781683Y-119860256D01*
X146777614Y-119867303D01*
X146718599Y-120048931D01*
X146717909Y-120055492D01*
X146717909Y-120055494D01*
X146715754Y-120076000D01*
X146698637Y-120238859D01*
X145925500Y-120238859D01*
X145925500Y-116731314D01*
X145945502Y-116663193D01*
X145999158Y-116616700D01*
X146069432Y-116606596D01*
X146134012Y-116636090D01*
X146160618Y-116668313D01*
X146196201Y-116729944D01*
X146323988Y-116871866D01*
X146478489Y-116984118D01*
X146484517Y-116986802D01*
X146484519Y-116986803D01*
X146559133Y-117020023D01*
X146652953Y-117061794D01*
X146746354Y-117081647D01*
X146833297Y-117100128D01*
X146833302Y-117100128D01*
X146839754Y-117101500D01*
X147030728Y-117101500D01*
X147037183Y-117100128D01*
X147037192Y-117100127D01*
X147098128Y-117087174D01*
X147168919Y-117092575D01*
X147213421Y-117121325D01*
X147757878Y-117665782D01*
X147791904Y-117728094D01*
X147794092Y-117741703D01*
X147811458Y-117906928D01*
X147870473Y-118088556D01*
X147873776Y-118094278D01*
X147873777Y-118094279D01*
X147894069Y-118129425D01*
X147965960Y-118253944D01*
X148093747Y-118395866D01*
X148248248Y-118508118D01*
X148254276Y-118510802D01*
X148254278Y-118510803D01*
X148416681Y-118583109D01*
X148422712Y-118585794D01*
X148502709Y-118602798D01*
X148603056Y-118624128D01*
X148603061Y-118624128D01*
X148609513Y-118625500D01*
X148800487Y-118625500D01*
X148806939Y-118624128D01*
X148806944Y-118624128D01*
X148907291Y-118602798D01*
X148987288Y-118585794D01*
X148993319Y-118583109D01*
X149155722Y-118510803D01*
X149155724Y-118510802D01*
X149161752Y-118508118D01*
X149316253Y-118395866D01*
X149444040Y-118253944D01*
X149515931Y-118129425D01*
X149536223Y-118094279D01*
X149536224Y-118094278D01*
X149539527Y-118088556D01*
X149598542Y-117906928D01*
X149611157Y-117786908D01*
X149617814Y-117723565D01*
X149618504Y-117717000D01*
X149615004Y-117683695D01*
X149882251Y-117683695D01*
X149882548Y-117688848D01*
X149882548Y-117688851D01*
X149888011Y-117783590D01*
X149895110Y-117906715D01*
X149896247Y-117911761D01*
X149896248Y-117911767D01*
X149897118Y-117915627D01*
X149944222Y-118124639D01*
X150028266Y-118331616D01*
X150030965Y-118336020D01*
X150138319Y-118511206D01*
X150144987Y-118522088D01*
X150291250Y-118690938D01*
X150295230Y-118694242D01*
X150299981Y-118698187D01*
X150339616Y-118757090D01*
X150341113Y-118828071D01*
X150303997Y-118888593D01*
X150263724Y-118913112D01*
X150148295Y-118956385D01*
X150031739Y-119043739D01*
X149944385Y-119160295D01*
X149893255Y-119296684D01*
X149886500Y-119358866D01*
X149886500Y-121155134D01*
X149893255Y-121217316D01*
X149944385Y-121353705D01*
X150031739Y-121470261D01*
X150148295Y-121557615D01*
X150284684Y-121608745D01*
X150346866Y-121615500D01*
X152143134Y-121615500D01*
X152205316Y-121608745D01*
X152341705Y-121557615D01*
X152458261Y-121470261D01*
X152545615Y-121353705D01*
X152596745Y-121217316D01*
X152603500Y-121155134D01*
X152603500Y-119358866D01*
X152596745Y-119296684D01*
X152545615Y-119160295D01*
X152458261Y-119043739D01*
X152341705Y-118956385D01*
X152329132Y-118951672D01*
X152223203Y-118911960D01*
X152166439Y-118869318D01*
X152141739Y-118802756D01*
X152156947Y-118733408D01*
X152178493Y-118704727D01*
X152279435Y-118604137D01*
X152283096Y-118600489D01*
X152291437Y-118588882D01*
X152410435Y-118423277D01*
X152413453Y-118419077D01*
X152423006Y-118399749D01*
X152510136Y-118223453D01*
X152510137Y-118223451D01*
X152512430Y-118218811D01*
X152577370Y-118005069D01*
X152606529Y-117783590D01*
X152606611Y-117780240D01*
X152608074Y-117720365D01*
X152608074Y-117720361D01*
X152608156Y-117717000D01*
X152589852Y-117494361D01*
X152535431Y-117277702D01*
X152446354Y-117072840D01*
X152325014Y-116885277D01*
X152174670Y-116720051D01*
X152170619Y-116716852D01*
X152170615Y-116716848D01*
X152003414Y-116584800D01*
X152003410Y-116584798D01*
X151999359Y-116581598D01*
X151803789Y-116473638D01*
X151798920Y-116471914D01*
X151798916Y-116471912D01*
X151598087Y-116400795D01*
X151598083Y-116400794D01*
X151593212Y-116399069D01*
X151588119Y-116398162D01*
X151588116Y-116398161D01*
X151378373Y-116360800D01*
X151378367Y-116360799D01*
X151373284Y-116359894D01*
X151299452Y-116358992D01*
X151155081Y-116357228D01*
X151155079Y-116357228D01*
X151149911Y-116357165D01*
X150929091Y-116390955D01*
X150716756Y-116460357D01*
X150518607Y-116563507D01*
X150514474Y-116566610D01*
X150514471Y-116566612D01*
X150344100Y-116694530D01*
X150339965Y-116697635D01*
X150185629Y-116859138D01*
X150182715Y-116863410D01*
X150182714Y-116863411D01*
X150167798Y-116885277D01*
X150059743Y-117043680D01*
X150044003Y-117077590D01*
X150002597Y-117166792D01*
X149965688Y-117246305D01*
X149905989Y-117461570D01*
X149882251Y-117683695D01*
X149615004Y-117683695D01*
X149598542Y-117527072D01*
X149539527Y-117345444D01*
X149444040Y-117180056D01*
X149421015Y-117154484D01*
X149390297Y-117090477D01*
X149399062Y-117020023D01*
X149405532Y-117007174D01*
X149476844Y-116883658D01*
X149476845Y-116883657D01*
X149480148Y-116877935D01*
X149539163Y-116696307D01*
X149542644Y-116663193D01*
X149558435Y-116512944D01*
X149559125Y-116506379D01*
X149558435Y-116499814D01*
X149539853Y-116323014D01*
X149539853Y-116323012D01*
X149539163Y-116316451D01*
X149480148Y-116134823D01*
X149384661Y-115969435D01*
X149256874Y-115827513D01*
X149102373Y-115715261D01*
X149096345Y-115712577D01*
X149096343Y-115712576D01*
X148933940Y-115640270D01*
X148933939Y-115640270D01*
X148927909Y-115637585D01*
X148834509Y-115617732D01*
X148747565Y-115599251D01*
X148747560Y-115599251D01*
X148741108Y-115597879D01*
X148685215Y-115597879D01*
X148617094Y-115577877D01*
X148596120Y-115560974D01*
X147882363Y-114847217D01*
X147848337Y-114784905D01*
X147846148Y-114771292D01*
X147843620Y-114747234D01*
X147839311Y-114706237D01*
X147829473Y-114612635D01*
X147829473Y-114612633D01*
X147828783Y-114606072D01*
X147769768Y-114424444D01*
X147674281Y-114259056D01*
X147546494Y-114117134D01*
X147391993Y-114004882D01*
X147385965Y-114002198D01*
X147385963Y-114002197D01*
X147223560Y-113929891D01*
X147223559Y-113929891D01*
X147217529Y-113927206D01*
X147124129Y-113907353D01*
X147037185Y-113888872D01*
X147037180Y-113888872D01*
X147030728Y-113887500D01*
X146839754Y-113887500D01*
X146833302Y-113888872D01*
X146833297Y-113888872D01*
X146746354Y-113907353D01*
X146652953Y-113927206D01*
X146646923Y-113929891D01*
X146646922Y-113929891D01*
X146484519Y-114002197D01*
X146484517Y-114002198D01*
X146478489Y-114004882D01*
X146323988Y-114117134D01*
X146196201Y-114259056D01*
X146174710Y-114296279D01*
X146160619Y-114320686D01*
X146109237Y-114369679D01*
X146039523Y-114383115D01*
X145973612Y-114356729D01*
X145932430Y-114298897D01*
X145925500Y-114257686D01*
X145925500Y-110561524D01*
X145945502Y-110493403D01*
X145957858Y-110477221D01*
X146031040Y-110395944D01*
X146126527Y-110230556D01*
X146185542Y-110048928D01*
X146205504Y-109859000D01*
X146185542Y-109669072D01*
X146126527Y-109487444D01*
X146123228Y-109481730D01*
X146123013Y-109481247D01*
X146113579Y-109410880D01*
X146143686Y-109346584D01*
X146203776Y-109308771D01*
X146238120Y-109304000D01*
X146451733Y-109304000D01*
X146502982Y-109314893D01*
X146529712Y-109326794D01*
X146596099Y-109340905D01*
X146710056Y-109365128D01*
X146710061Y-109365128D01*
X146716513Y-109366500D01*
X146907487Y-109366500D01*
X146913939Y-109365128D01*
X146913944Y-109365128D01*
X147027901Y-109340905D01*
X147094288Y-109326794D01*
X147104930Y-109322056D01*
X147262722Y-109251803D01*
X147262724Y-109251802D01*
X147268752Y-109249118D01*
X147423253Y-109136866D01*
X147551040Y-108994944D01*
X147646527Y-108829556D01*
X147705542Y-108647928D01*
X147725504Y-108458000D01*
X147705542Y-108268072D01*
X147646527Y-108086444D01*
X147551040Y-107921056D01*
X147423253Y-107779134D01*
X147268752Y-107666882D01*
X147262724Y-107664198D01*
X147262722Y-107664197D01*
X147100319Y-107591891D01*
X147100318Y-107591891D01*
X147094288Y-107589206D01*
X147000887Y-107569353D01*
X146913944Y-107550872D01*
X146913939Y-107550872D01*
X146907487Y-107549500D01*
X146716513Y-107549500D01*
X146710061Y-107550872D01*
X146710056Y-107550872D01*
X146623112Y-107569353D01*
X146529712Y-107589206D01*
X146523683Y-107591891D01*
X146523681Y-107591891D01*
X146502982Y-107601107D01*
X146451733Y-107612000D01*
X142854267Y-107612000D01*
X142803018Y-107601107D01*
X142782319Y-107591891D01*
X142782317Y-107591891D01*
X142776288Y-107589206D01*
X142682887Y-107569353D01*
X142595944Y-107550872D01*
X142595939Y-107550872D01*
X142589487Y-107549500D01*
X142398513Y-107549500D01*
X142392061Y-107550872D01*
X142392056Y-107550872D01*
X142305112Y-107569353D01*
X142211712Y-107589206D01*
X142205682Y-107591891D01*
X142205681Y-107591891D01*
X142043278Y-107664197D01*
X142043276Y-107664198D01*
X142037248Y-107666882D01*
X141882747Y-107779134D01*
X141754960Y-107921056D01*
X141659473Y-108086444D01*
X141659098Y-108086228D01*
X141636570Y-108119005D01*
X136719480Y-113036095D01*
X136657168Y-113070121D01*
X136630385Y-113073000D01*
X126725267Y-113073000D01*
X126674018Y-113062107D01*
X126653319Y-113052891D01*
X126653317Y-113052891D01*
X126647288Y-113050206D01*
X126553888Y-113030353D01*
X126466944Y-113011872D01*
X126466939Y-113011872D01*
X126460487Y-113010500D01*
X126269513Y-113010500D01*
X126263061Y-113011872D01*
X126263056Y-113011872D01*
X126176113Y-113030353D01*
X126082712Y-113050206D01*
X126076682Y-113052891D01*
X126076681Y-113052891D01*
X125914278Y-113125197D01*
X125914276Y-113125198D01*
X125908248Y-113127882D01*
X125753747Y-113240134D01*
X125625960Y-113382056D01*
X125530473Y-113547444D01*
X125471458Y-113729072D01*
X125451496Y-113919000D01*
X125471458Y-114108928D01*
X125530473Y-114290556D01*
X125533776Y-114296278D01*
X125533777Y-114296279D01*
X125567686Y-114355010D01*
X125625960Y-114455944D01*
X125753747Y-114597866D01*
X125908248Y-114710118D01*
X125914276Y-114712802D01*
X125914278Y-114712803D01*
X126076223Y-114784905D01*
X126082712Y-114787794D01*
X126176113Y-114807647D01*
X126263056Y-114826128D01*
X126263061Y-114826128D01*
X126269513Y-114827500D01*
X126460487Y-114827500D01*
X126466939Y-114826128D01*
X126466944Y-114826128D01*
X126553887Y-114807647D01*
X126647288Y-114787794D01*
X126674018Y-114775893D01*
X126725267Y-114765000D01*
X136992124Y-114765000D01*
X137002667Y-114765442D01*
X137053791Y-114769735D01*
X137060551Y-114768833D01*
X137060555Y-114768833D01*
X137133129Y-114759150D01*
X137136183Y-114758780D01*
X137173459Y-114754730D01*
X137215737Y-114750137D01*
X137222208Y-114747959D01*
X137225102Y-114747323D01*
X137225604Y-114747234D01*
X137225871Y-114747173D01*
X137226324Y-114747041D01*
X137229231Y-114746327D01*
X137235990Y-114745425D01*
X137272997Y-114731955D01*
X137311204Y-114718049D01*
X137314111Y-114717031D01*
X137383480Y-114693686D01*
X137389949Y-114691509D01*
X137395799Y-114687994D01*
X137398506Y-114686743D01*
X137398946Y-114686562D01*
X137399215Y-114686434D01*
X137399647Y-114686198D01*
X137402304Y-114684890D01*
X137408716Y-114682557D01*
X137414479Y-114678900D01*
X137476275Y-114639684D01*
X137478892Y-114638068D01*
X137541654Y-114600356D01*
X137541661Y-114600351D01*
X137547507Y-114596838D01*
X137552465Y-114592150D01*
X137554817Y-114590364D01*
X137555657Y-114589780D01*
X137559550Y-114586836D01*
X137563915Y-114584066D01*
X137568109Y-114580316D01*
X137621301Y-114527124D01*
X137623823Y-114524670D01*
X137676105Y-114475230D01*
X137676107Y-114475228D01*
X137681061Y-114470543D01*
X137684895Y-114464901D01*
X137689319Y-114459703D01*
X137689728Y-114460051D01*
X137696229Y-114452196D01*
X142807519Y-109340905D01*
X142869831Y-109306879D01*
X142896614Y-109304000D01*
X144345880Y-109304000D01*
X144414001Y-109324002D01*
X144460494Y-109377658D01*
X144470598Y-109447932D01*
X144460987Y-109481247D01*
X144460772Y-109481730D01*
X144457473Y-109487444D01*
X144398458Y-109669072D01*
X144378496Y-109859000D01*
X144398458Y-110048928D01*
X144457473Y-110230556D01*
X144552960Y-110395944D01*
X144626137Y-110477215D01*
X144656853Y-110541221D01*
X144658500Y-110561524D01*
X144658500Y-130984238D01*
X144638498Y-131052359D01*
X144634193Y-131056089D01*
X144656444Y-131100277D01*
X144658500Y-131122944D01*
X144658500Y-133134405D01*
X144638498Y-133202526D01*
X144621595Y-133223500D01*
X143971247Y-133873848D01*
X143908935Y-133907874D01*
X143838120Y-133902809D01*
X143788519Y-133869066D01*
X143782864Y-133862786D01*
X143752147Y-133798781D01*
X143750500Y-133778476D01*
X143750500Y-132018182D01*
X143770502Y-131950061D01*
X143825251Y-131903075D01*
X143950313Y-131847394D01*
X143950315Y-131847393D01*
X143956343Y-131844709D01*
X144110844Y-131732457D01*
X144154864Y-131683568D01*
X144234212Y-131595443D01*
X144234213Y-131595442D01*
X144238631Y-131590535D01*
X144334118Y-131425147D01*
X144393133Y-131243519D01*
X144397067Y-131206094D01*
X144407190Y-131109774D01*
X144431498Y-131050691D01*
X144411604Y-131019736D01*
X144407190Y-130997408D01*
X144393823Y-130870226D01*
X144393823Y-130870224D01*
X144393133Y-130863663D01*
X144334118Y-130682035D01*
X144238631Y-130516647D01*
X144186039Y-130458237D01*
X144115266Y-130379636D01*
X144115265Y-130379635D01*
X144110844Y-130374725D01*
X143956343Y-130262473D01*
X143950315Y-130259789D01*
X143950313Y-130259788D01*
X143843264Y-130212127D01*
X143789168Y-130166147D01*
X143768519Y-130098220D01*
X143785393Y-130034022D01*
X143836527Y-129945456D01*
X143895542Y-129763828D01*
X143896693Y-129752882D01*
X143914814Y-129580465D01*
X143915504Y-129573900D01*
X143906437Y-129487635D01*
X143896232Y-129390535D01*
X143896232Y-129390533D01*
X143895542Y-129383972D01*
X143836527Y-129202344D01*
X143741040Y-129036956D01*
X143667863Y-128955685D01*
X143637147Y-128891679D01*
X143635500Y-128871376D01*
X143635500Y-126120778D01*
X143636027Y-126109595D01*
X143637702Y-126102102D01*
X143635562Y-126034025D01*
X143635500Y-126030066D01*
X143635500Y-126002155D01*
X143634995Y-125998155D01*
X143634062Y-125986312D01*
X143632922Y-125950040D01*
X143632673Y-125942121D01*
X143627022Y-125922669D01*
X143623014Y-125903317D01*
X143621467Y-125891074D01*
X143620474Y-125883214D01*
X143609236Y-125854829D01*
X143604200Y-125842108D01*
X143600355Y-125830881D01*
X143591665Y-125800972D01*
X143588018Y-125788418D01*
X143583984Y-125781596D01*
X143583981Y-125781590D01*
X143577706Y-125770979D01*
X143569010Y-125753229D01*
X143564472Y-125741767D01*
X143564469Y-125741762D01*
X143561552Y-125734394D01*
X143535573Y-125698636D01*
X143529057Y-125688718D01*
X143510575Y-125657468D01*
X143506542Y-125650648D01*
X143492218Y-125636324D01*
X143479376Y-125621289D01*
X143467472Y-125604904D01*
X143433406Y-125576722D01*
X143424627Y-125568733D01*
X141386405Y-123530511D01*
X141352379Y-123468199D01*
X141349500Y-123441416D01*
X141349500Y-123141767D01*
X141350027Y-123130584D01*
X141351702Y-123123091D01*
X141350274Y-123077639D01*
X141349562Y-123055001D01*
X141349500Y-123051043D01*
X141349500Y-123023144D01*
X141348996Y-123019153D01*
X141348063Y-123007311D01*
X141347953Y-123003789D01*
X141346674Y-122963111D01*
X141344462Y-122955497D01*
X141344461Y-122955492D01*
X141341023Y-122943659D01*
X141337012Y-122924295D01*
X141335467Y-122912064D01*
X141334474Y-122904203D01*
X141331557Y-122896836D01*
X141331556Y-122896831D01*
X141318198Y-122863092D01*
X141314354Y-122851865D01*
X141308594Y-122832040D01*
X141302018Y-122809407D01*
X141291707Y-122791972D01*
X141283012Y-122774224D01*
X141275552Y-122755383D01*
X141259465Y-122733240D01*
X141249564Y-122719613D01*
X141243048Y-122709693D01*
X141224580Y-122678465D01*
X141224578Y-122678462D01*
X141220542Y-122671638D01*
X141206221Y-122657317D01*
X141193380Y-122642283D01*
X141186131Y-122632306D01*
X141181472Y-122625893D01*
X141175367Y-122620842D01*
X141175362Y-122620837D01*
X141147396Y-122597701D01*
X141138618Y-122589713D01*
X139949652Y-121400747D01*
X139942112Y-121392461D01*
X139938000Y-121385982D01*
X139888348Y-121339356D01*
X139885507Y-121336602D01*
X139865770Y-121316865D01*
X139862573Y-121314385D01*
X139853551Y-121306680D01*
X139827100Y-121281841D01*
X139821321Y-121276414D01*
X139814375Y-121272595D01*
X139814372Y-121272593D01*
X139803566Y-121266652D01*
X139787047Y-121255801D01*
X139781048Y-121251148D01*
X139771041Y-121243386D01*
X139763772Y-121240241D01*
X139763768Y-121240238D01*
X139730463Y-121225826D01*
X139719813Y-121220609D01*
X139681060Y-121199305D01*
X139661437Y-121194267D01*
X139642734Y-121187863D01*
X139631420Y-121182967D01*
X139631419Y-121182967D01*
X139624145Y-121179819D01*
X139616322Y-121178580D01*
X139616312Y-121178577D01*
X139580476Y-121172901D01*
X139568856Y-121170495D01*
X139533711Y-121161472D01*
X139533710Y-121161472D01*
X139526030Y-121159500D01*
X139505776Y-121159500D01*
X139486065Y-121157949D01*
X139473886Y-121156020D01*
X139466057Y-121154780D01*
X139458165Y-121155526D01*
X139422039Y-121158941D01*
X139410181Y-121159500D01*
X137487200Y-121159500D01*
X137419079Y-121139498D01*
X137399853Y-121123157D01*
X137399580Y-121123460D01*
X137394668Y-121119037D01*
X137390253Y-121114134D01*
X137301913Y-121049951D01*
X137241094Y-121005763D01*
X137241093Y-121005762D01*
X137235752Y-121001882D01*
X137229724Y-120999198D01*
X137229722Y-120999197D01*
X137067319Y-120926891D01*
X137067318Y-120926891D01*
X137061288Y-120924206D01*
X136957312Y-120902105D01*
X136880944Y-120885872D01*
X136880939Y-120885872D01*
X136874487Y-120884500D01*
X136683513Y-120884500D01*
X136677061Y-120885872D01*
X136677056Y-120885872D01*
X136600688Y-120902105D01*
X136496712Y-120924206D01*
X136490682Y-120926891D01*
X136490681Y-120926891D01*
X136328278Y-120999197D01*
X136328276Y-120999198D01*
X136322248Y-121001882D01*
X136316907Y-121005762D01*
X136316906Y-121005763D01*
X136315454Y-121006818D01*
X136167747Y-121114134D01*
X136163326Y-121119044D01*
X136163325Y-121119045D01*
X136054203Y-121240238D01*
X136039960Y-121256056D01*
X135944473Y-121421444D01*
X135885458Y-121603072D01*
X135884768Y-121609633D01*
X135884768Y-121609635D01*
X135884152Y-121615500D01*
X135865496Y-121793000D01*
X135866186Y-121799565D01*
X135884100Y-121970004D01*
X135885458Y-121982928D01*
X135944473Y-122164556D01*
X135947776Y-122170278D01*
X135947777Y-122170279D01*
X135974164Y-122215983D01*
X136039960Y-122329944D01*
X136044378Y-122334851D01*
X136044379Y-122334852D01*
X136151362Y-122453669D01*
X136167747Y-122471866D01*
X136266843Y-122543864D01*
X136308515Y-122574140D01*
X136322248Y-122584118D01*
X136328276Y-122586802D01*
X136328278Y-122586803D01*
X136486656Y-122657317D01*
X136496712Y-122661794D01*
X136590112Y-122681647D01*
X136677056Y-122700128D01*
X136677061Y-122700128D01*
X136683513Y-122701500D01*
X136874487Y-122701500D01*
X136880939Y-122700128D01*
X136880944Y-122700128D01*
X136967888Y-122681647D01*
X137061288Y-122661794D01*
X137071344Y-122657317D01*
X137229722Y-122586803D01*
X137229724Y-122586802D01*
X137235752Y-122584118D01*
X137249486Y-122574140D01*
X137368671Y-122487546D01*
X137390253Y-122471866D01*
X137394668Y-122466963D01*
X137399580Y-122462540D01*
X137400705Y-122463789D01*
X137454014Y-122430949D01*
X137487200Y-122426500D01*
X139035044Y-122426500D01*
X139103165Y-122446502D01*
X139149658Y-122500158D01*
X139159762Y-122570432D01*
X139128681Y-122636808D01*
X139107469Y-122660367D01*
X139073263Y-122719613D01*
X139021421Y-122809407D01*
X139011982Y-122825755D01*
X139009940Y-122832040D01*
X138967381Y-122963023D01*
X138952967Y-123007383D01*
X138948170Y-123053028D01*
X138945054Y-123082670D01*
X138918041Y-123148327D01*
X138859819Y-123188957D01*
X138819744Y-123195500D01*
X136983200Y-123195500D01*
X136915079Y-123175498D01*
X136895853Y-123159157D01*
X136895580Y-123159460D01*
X136890668Y-123155037D01*
X136886253Y-123150134D01*
X136752599Y-123053028D01*
X136737094Y-123041763D01*
X136737093Y-123041762D01*
X136731752Y-123037882D01*
X136725724Y-123035198D01*
X136725722Y-123035197D01*
X136563319Y-122962891D01*
X136563318Y-122962891D01*
X136557288Y-122960206D01*
X136434630Y-122934134D01*
X136376944Y-122921872D01*
X136376939Y-122921872D01*
X136370487Y-122920500D01*
X136179513Y-122920500D01*
X136173061Y-122921872D01*
X136173056Y-122921872D01*
X136115370Y-122934134D01*
X135992712Y-122960206D01*
X135986682Y-122962891D01*
X135986681Y-122962891D01*
X135824278Y-123035197D01*
X135824276Y-123035198D01*
X135818248Y-123037882D01*
X135812907Y-123041762D01*
X135812906Y-123041763D01*
X135797401Y-123053028D01*
X135663747Y-123150134D01*
X135659326Y-123155044D01*
X135659325Y-123155045D01*
X135548965Y-123277613D01*
X135535960Y-123292056D01*
X135440473Y-123457444D01*
X135381458Y-123639072D01*
X135380768Y-123645633D01*
X135380768Y-123645635D01*
X135374453Y-123705721D01*
X135361496Y-123829000D01*
X135362186Y-123835565D01*
X135373076Y-123939174D01*
X135381458Y-124018928D01*
X135440473Y-124200556D01*
X135445838Y-124209848D01*
X135461913Y-124237691D01*
X135478650Y-124306686D01*
X135455429Y-124373778D01*
X135446429Y-124385000D01*
X135419926Y-124414435D01*
X135404960Y-124431056D01*
X135401659Y-124436774D01*
X135329653Y-124561492D01*
X135309473Y-124596444D01*
X135250458Y-124778072D01*
X135230496Y-124968000D01*
X135250458Y-125157928D01*
X135309473Y-125339556D01*
X135312776Y-125345278D01*
X135312777Y-125345279D01*
X135332913Y-125380155D01*
X135404960Y-125504944D01*
X135409378Y-125509851D01*
X135409379Y-125509852D01*
X135523255Y-125636324D01*
X135532747Y-125646866D01*
X135582696Y-125683156D01*
X135679143Y-125753229D01*
X135687248Y-125759118D01*
X135693276Y-125761802D01*
X135693278Y-125761803D01*
X135843182Y-125828544D01*
X135861712Y-125836794D01*
X135946560Y-125854829D01*
X136042056Y-125875128D01*
X136042061Y-125875128D01*
X136048513Y-125876500D01*
X136239487Y-125876500D01*
X136245939Y-125875128D01*
X136245944Y-125875128D01*
X136341440Y-125854829D01*
X136426288Y-125836794D01*
X136453018Y-125824893D01*
X136504267Y-125814000D01*
X140208774Y-125814000D01*
X140276895Y-125834002D01*
X140323388Y-125887658D01*
X140333492Y-125957932D01*
X140328607Y-125978935D01*
X140320498Y-126003891D01*
X140320496Y-126003898D01*
X140318458Y-126010172D01*
X140317768Y-126016733D01*
X140317768Y-126016735D01*
X140299848Y-126187240D01*
X140298496Y-126200100D01*
X140299186Y-126206665D01*
X140313520Y-126343042D01*
X140318458Y-126390028D01*
X140377473Y-126571656D01*
X140380776Y-126577378D01*
X140380777Y-126577379D01*
X140389020Y-126591656D01*
X140472960Y-126737044D01*
X140546137Y-126818315D01*
X140576853Y-126882321D01*
X140578500Y-126902624D01*
X140578500Y-128687233D01*
X140577973Y-128698416D01*
X140576298Y-128705909D01*
X140576547Y-128713835D01*
X140576547Y-128713836D01*
X140578438Y-128773986D01*
X140578500Y-128777945D01*
X140578500Y-128805856D01*
X140578997Y-128809790D01*
X140578997Y-128809791D01*
X140579005Y-128809856D01*
X140579938Y-128821693D01*
X140581327Y-128865889D01*
X140585535Y-128880372D01*
X140586978Y-128885339D01*
X140590987Y-128904700D01*
X140592365Y-128915604D01*
X140593526Y-128924797D01*
X140596445Y-128932168D01*
X140596445Y-128932170D01*
X140609804Y-128965912D01*
X140613649Y-128977142D01*
X140621452Y-129004000D01*
X140625982Y-129019593D01*
X140630015Y-129026412D01*
X140630017Y-129026417D01*
X140636293Y-129037028D01*
X140644988Y-129054776D01*
X140652448Y-129073617D01*
X140657110Y-129080033D01*
X140657110Y-129080034D01*
X140678436Y-129109387D01*
X140684952Y-129119307D01*
X140693675Y-129134056D01*
X140707458Y-129157362D01*
X140721779Y-129171683D01*
X140734618Y-129186714D01*
X140741816Y-129196621D01*
X140745463Y-129201641D01*
X140769320Y-129268509D01*
X140753238Y-129337661D01*
X140737161Y-129360010D01*
X140634409Y-129474128D01*
X140629990Y-129479036D01*
X140620697Y-129495132D01*
X140575085Y-129574134D01*
X140523702Y-129623127D01*
X140482291Y-129635500D01*
X140481513Y-129635500D01*
X140475059Y-129636872D01*
X140475058Y-129636872D01*
X140460460Y-129639975D01*
X140294712Y-129675206D01*
X140288682Y-129677891D01*
X140288681Y-129677891D01*
X140126278Y-129750197D01*
X140126276Y-129750198D01*
X140120248Y-129752882D01*
X139965747Y-129865134D01*
X139837960Y-130007056D01*
X139834659Y-130012774D01*
X139746109Y-130166147D01*
X139742473Y-130172444D01*
X139683458Y-130354072D01*
X139663496Y-130544000D01*
X139664186Y-130550565D01*
X139676085Y-130663774D01*
X139683458Y-130733928D01*
X139742473Y-130915556D01*
X139837960Y-131080944D01*
X139842378Y-131085851D01*
X139842379Y-131085852D01*
X139950645Y-131206094D01*
X139965747Y-131222866D01*
X140120248Y-131335118D01*
X140126276Y-131337802D01*
X140126278Y-131337803D01*
X140246224Y-131391206D01*
X140294712Y-131412794D01*
X140388113Y-131432647D01*
X140475056Y-131451128D01*
X140475061Y-131451128D01*
X140481513Y-131452500D01*
X140537406Y-131452500D01*
X140605527Y-131472502D01*
X140626501Y-131489405D01*
X141430595Y-132293499D01*
X141464621Y-132355811D01*
X141467500Y-132382594D01*
X141467500Y-134032476D01*
X141447498Y-134100597D01*
X141435142Y-134116779D01*
X141361960Y-134198056D01*
X141266473Y-134363444D01*
X141207458Y-134545072D01*
X141187496Y-134735000D01*
X141187871Y-134738571D01*
X141168184Y-134805621D01*
X141114528Y-134852114D01*
X141062186Y-134863500D01*
X139748594Y-134863500D01*
X139680473Y-134843498D01*
X139659499Y-134826595D01*
X139354935Y-134522031D01*
X139320909Y-134459719D01*
X139325974Y-134388904D01*
X139350394Y-134348626D01*
X139418621Y-134272852D01*
X139418622Y-134272851D01*
X139423040Y-134267944D01*
X139518527Y-134102556D01*
X139577542Y-133920928D01*
X139579447Y-133902809D01*
X139596814Y-133737565D01*
X139597504Y-133731000D01*
X139593300Y-133691005D01*
X139578232Y-133547635D01*
X139578232Y-133547633D01*
X139577542Y-133541072D01*
X139518527Y-133359444D01*
X139423040Y-133194056D01*
X139295253Y-133052134D01*
X139140752Y-132939882D01*
X139134724Y-132937198D01*
X139134722Y-132937197D01*
X139053188Y-132900896D01*
X139015342Y-132874884D01*
X138642584Y-132502126D01*
X138608558Y-132439814D01*
X138606369Y-132426201D01*
X138606160Y-132424207D01*
X138599385Y-132359749D01*
X138540370Y-132178121D01*
X138444883Y-132012733D01*
X138363534Y-131922385D01*
X138321518Y-131875722D01*
X138321517Y-131875721D01*
X138317096Y-131870811D01*
X138162595Y-131758559D01*
X138156567Y-131755875D01*
X138156565Y-131755874D01*
X137994162Y-131683568D01*
X137994161Y-131683568D01*
X137988131Y-131680883D01*
X137894731Y-131661030D01*
X137807787Y-131642549D01*
X137807782Y-131642549D01*
X137801330Y-131641177D01*
X137610356Y-131641177D01*
X137603904Y-131642549D01*
X137603899Y-131642549D01*
X137516955Y-131661030D01*
X137423555Y-131680883D01*
X137417525Y-131683568D01*
X137417524Y-131683568D01*
X137255121Y-131755874D01*
X137255119Y-131755875D01*
X137249091Y-131758559D01*
X137094590Y-131870811D01*
X137090169Y-131875721D01*
X137090168Y-131875722D01*
X137048153Y-131922385D01*
X136966803Y-132012733D01*
X136871316Y-132178121D01*
X136869276Y-132184401D01*
X136869275Y-132184402D01*
X136839234Y-132276858D01*
X136799160Y-132335463D01*
X136759289Y-132357233D01*
X136754712Y-132358206D01*
X136748683Y-132360890D01*
X136748684Y-132360890D01*
X136586278Y-132433197D01*
X136586276Y-132433198D01*
X136580248Y-132435882D01*
X136437688Y-132539458D01*
X136370822Y-132563316D01*
X136301670Y-132547236D01*
X136274533Y-132526617D01*
X135474165Y-131726249D01*
X135440139Y-131663937D01*
X135445204Y-131593122D01*
X135454136Y-131574162D01*
X135455222Y-131572280D01*
X135458527Y-131566556D01*
X135517542Y-131384928D01*
X135537504Y-131195000D01*
X135529931Y-131122944D01*
X135518232Y-131011635D01*
X135518232Y-131011633D01*
X135517542Y-131005072D01*
X135458527Y-130823444D01*
X135363040Y-130658056D01*
X135254433Y-130537435D01*
X135239675Y-130521045D01*
X135239674Y-130521044D01*
X135235253Y-130516134D01*
X135080752Y-130403882D01*
X135074724Y-130401198D01*
X135074722Y-130401197D01*
X134912319Y-130328891D01*
X134912318Y-130328891D01*
X134906288Y-130326206D01*
X134812887Y-130306353D01*
X134725944Y-130287872D01*
X134725939Y-130287872D01*
X134719487Y-130286500D01*
X134663595Y-130286500D01*
X134595474Y-130266498D01*
X134574500Y-130249595D01*
X132563308Y-128238403D01*
X132529282Y-128176091D01*
X132526403Y-128149308D01*
X132526403Y-124785524D01*
X132546405Y-124717403D01*
X132558761Y-124701221D01*
X132631943Y-124619944D01*
X132727430Y-124454556D01*
X132786445Y-124272928D01*
X132792051Y-124219596D01*
X132805717Y-124089565D01*
X132806407Y-124083000D01*
X132803371Y-124054118D01*
X132787135Y-123899635D01*
X132787135Y-123899633D01*
X132786445Y-123893072D01*
X132727430Y-123711444D01*
X132631943Y-123546056D01*
X132585453Y-123494423D01*
X132508578Y-123409045D01*
X132508577Y-123409044D01*
X132504156Y-123404134D01*
X132349655Y-123291882D01*
X132343627Y-123289198D01*
X132343625Y-123289197D01*
X132181222Y-123216891D01*
X132181221Y-123216891D01*
X132175191Y-123214206D01*
X132081791Y-123194353D01*
X131994847Y-123175872D01*
X131994842Y-123175872D01*
X131988390Y-123174500D01*
X131797416Y-123174500D01*
X131790964Y-123175872D01*
X131790959Y-123175872D01*
X131704015Y-123194353D01*
X131610615Y-123214206D01*
X131468199Y-123277613D01*
X131397834Y-123287047D01*
X131365703Y-123277613D01*
X131229319Y-123216891D01*
X131229318Y-123216891D01*
X131223288Y-123214206D01*
X131129888Y-123194353D01*
X131042944Y-123175872D01*
X131042939Y-123175872D01*
X131036487Y-123174500D01*
X130845513Y-123174500D01*
X130839061Y-123175872D01*
X130839056Y-123175872D01*
X130752112Y-123194353D01*
X130658712Y-123214206D01*
X130652682Y-123216891D01*
X130652681Y-123216891D01*
X130490278Y-123289197D01*
X130490276Y-123289198D01*
X130484248Y-123291882D01*
X130329747Y-123404134D01*
X130325326Y-123409044D01*
X130325325Y-123409045D01*
X130248451Y-123494423D01*
X130201960Y-123546056D01*
X130106473Y-123711444D01*
X130047458Y-123893072D01*
X130046768Y-123899633D01*
X130046768Y-123899635D01*
X130030532Y-124054118D01*
X130027496Y-124083000D01*
X130028186Y-124089565D01*
X130041853Y-124219596D01*
X130047458Y-124272928D01*
X130106473Y-124454556D01*
X130201960Y-124619944D01*
X130275137Y-124701215D01*
X130305853Y-124765221D01*
X130307500Y-124785524D01*
X130307500Y-128968476D01*
X130287498Y-129036597D01*
X130275142Y-129052779D01*
X130201960Y-129134056D01*
X130106473Y-129299444D01*
X130047458Y-129481072D01*
X130046768Y-129487633D01*
X130046768Y-129487635D01*
X130037701Y-129573900D01*
X130027496Y-129671000D01*
X130028186Y-129677565D01*
X130037253Y-129763828D01*
X130047458Y-129860928D01*
X130106473Y-130042556D01*
X130201960Y-130207944D01*
X130206378Y-130212851D01*
X130206379Y-130212852D01*
X130254682Y-130266498D01*
X130329747Y-130349866D01*
X130484248Y-130462118D01*
X130490276Y-130464802D01*
X130490278Y-130464803D01*
X130652681Y-130537109D01*
X130658712Y-130539794D01*
X130752113Y-130559647D01*
X130839056Y-130578128D01*
X130839061Y-130578128D01*
X130845513Y-130579500D01*
X131036487Y-130579500D01*
X131042939Y-130578128D01*
X131042944Y-130578128D01*
X131129887Y-130559647D01*
X131223288Y-130539794D01*
X131229319Y-130537109D01*
X131391722Y-130464803D01*
X131391724Y-130464802D01*
X131397752Y-130462118D01*
X131552253Y-130349866D01*
X131627318Y-130266498D01*
X131675621Y-130212852D01*
X131675622Y-130212851D01*
X131680040Y-130207944D01*
X131775527Y-130042556D01*
X131834542Y-129860928D01*
X131844748Y-129763828D01*
X131853814Y-129677565D01*
X131854504Y-129671000D01*
X131850637Y-129634211D01*
X131863409Y-129564374D01*
X131911910Y-129512527D01*
X131980743Y-129495132D01*
X132048053Y-129517713D01*
X132065042Y-129531946D01*
X133676878Y-131143782D01*
X133710904Y-131206094D01*
X133713092Y-131219703D01*
X133730458Y-131384928D01*
X133789473Y-131566556D01*
X133829604Y-131636065D01*
X133846341Y-131705056D01*
X133823121Y-131772148D01*
X133767314Y-131816036D01*
X133746682Y-131822308D01*
X133697176Y-131832831D01*
X133697167Y-131832834D01*
X133690712Y-131834206D01*
X133684682Y-131836891D01*
X133684681Y-131836891D01*
X133522278Y-131909197D01*
X133522276Y-131909198D01*
X133516248Y-131911882D01*
X133361747Y-132024134D01*
X133233960Y-132166056D01*
X133138473Y-132331444D01*
X133079458Y-132513072D01*
X133078768Y-132519633D01*
X133078768Y-132519635D01*
X133068600Y-132616381D01*
X133059496Y-132703000D01*
X133060186Y-132709565D01*
X133077562Y-132874884D01*
X133079458Y-132892928D01*
X133138473Y-133074556D01*
X133233960Y-133239944D01*
X133361747Y-133381866D01*
X133413039Y-133419132D01*
X133509284Y-133489058D01*
X133516248Y-133494118D01*
X133522276Y-133496802D01*
X133522278Y-133496803D01*
X133684681Y-133569109D01*
X133690712Y-133571794D01*
X133784112Y-133591647D01*
X133871056Y-133610128D01*
X133871061Y-133610128D01*
X133877513Y-133611500D01*
X133933406Y-133611500D01*
X134001527Y-133631502D01*
X134022501Y-133648405D01*
X139731501Y-139357405D01*
X139765527Y-139419717D01*
X139760462Y-139490532D01*
X139717915Y-139547368D01*
X139651395Y-139572179D01*
X139642406Y-139572500D01*
X116077500Y-139572500D01*
X116009379Y-139552498D01*
X115962886Y-139498842D01*
X115951500Y-139446500D01*
X115951500Y-138296669D01*
X128043001Y-138296669D01*
X128043371Y-138303490D01*
X128048895Y-138354352D01*
X128052521Y-138369604D01*
X128097676Y-138490054D01*
X128106214Y-138505649D01*
X128182715Y-138607724D01*
X128195276Y-138620285D01*
X128297351Y-138696786D01*
X128312946Y-138705324D01*
X128433394Y-138750478D01*
X128448649Y-138754105D01*
X128499514Y-138759631D01*
X128506328Y-138760000D01*
X129128885Y-138760000D01*
X129144124Y-138755525D01*
X129145329Y-138754135D01*
X129147000Y-138746452D01*
X129147000Y-138741884D01*
X129655000Y-138741884D01*
X129659475Y-138757123D01*
X129660865Y-138758328D01*
X129668548Y-138759999D01*
X130295669Y-138759999D01*
X130302490Y-138759629D01*
X130353352Y-138754105D01*
X130368604Y-138750479D01*
X130489054Y-138705324D01*
X130504649Y-138696786D01*
X130606724Y-138620285D01*
X130619285Y-138607724D01*
X130695786Y-138505649D01*
X130704325Y-138490052D01*
X130745425Y-138380418D01*
X130788066Y-138323653D01*
X130854628Y-138298953D01*
X130923977Y-138314160D01*
X130958645Y-138342150D01*
X130984219Y-138371674D01*
X130991580Y-138378883D01*
X131155434Y-138514916D01*
X131163881Y-138520831D01*
X131347756Y-138628279D01*
X131357042Y-138632729D01*
X131556001Y-138708703D01*
X131565899Y-138711579D01*
X131669250Y-138732606D01*
X131683299Y-138731410D01*
X131687000Y-138721065D01*
X131687000Y-138720517D01*
X132195000Y-138720517D01*
X132199064Y-138734359D01*
X132212478Y-138736393D01*
X132219184Y-138735534D01*
X132229262Y-138733392D01*
X132433255Y-138672191D01*
X132442842Y-138668433D01*
X132634095Y-138574739D01*
X132642945Y-138569464D01*
X132816328Y-138445792D01*
X132824200Y-138439139D01*
X132975052Y-138288812D01*
X132981730Y-138280965D01*
X133106003Y-138108020D01*
X133111313Y-138099183D01*
X133205670Y-137908267D01*
X133209469Y-137898672D01*
X133271377Y-137694910D01*
X133273555Y-137684837D01*
X133274986Y-137673962D01*
X133272775Y-137659778D01*
X133259617Y-137656000D01*
X132213115Y-137656000D01*
X132197876Y-137660475D01*
X132196671Y-137661865D01*
X132195000Y-137669548D01*
X132195000Y-138720517D01*
X131687000Y-138720517D01*
X131687000Y-137674115D01*
X131682525Y-137658876D01*
X131681135Y-137657671D01*
X131673452Y-137656000D01*
X129673115Y-137656000D01*
X129657876Y-137660475D01*
X129656671Y-137661865D01*
X129655000Y-137669548D01*
X129655000Y-138741884D01*
X129147000Y-138741884D01*
X129147000Y-137674115D01*
X129142525Y-137658876D01*
X129141135Y-137657671D01*
X129133452Y-137656000D01*
X128061116Y-137656000D01*
X128045877Y-137660475D01*
X128044672Y-137661865D01*
X128043001Y-137669548D01*
X128043001Y-138296669D01*
X115951500Y-138296669D01*
X115951500Y-137129885D01*
X128043000Y-137129885D01*
X128047475Y-137145124D01*
X128048865Y-137146329D01*
X128056548Y-137148000D01*
X129128885Y-137148000D01*
X129144124Y-137143525D01*
X129145329Y-137142135D01*
X129147000Y-137134452D01*
X129147000Y-137129885D01*
X129655000Y-137129885D01*
X129659475Y-137145124D01*
X129660865Y-137146329D01*
X129668548Y-137148000D01*
X131668885Y-137148000D01*
X131684124Y-137143525D01*
X131685329Y-137142135D01*
X131687000Y-137134452D01*
X131687000Y-137129885D01*
X132195000Y-137129885D01*
X132199475Y-137145124D01*
X132200865Y-137146329D01*
X132208548Y-137148000D01*
X133259344Y-137148000D01*
X133272875Y-137144027D01*
X133274180Y-137134947D01*
X133232214Y-136967875D01*
X133228894Y-136958124D01*
X133143972Y-136762814D01*
X133139105Y-136753739D01*
X133023426Y-136574926D01*
X133017136Y-136566757D01*
X132873806Y-136409240D01*
X132866273Y-136402215D01*
X132699139Y-136270222D01*
X132690552Y-136264517D01*
X132504117Y-136161599D01*
X132494705Y-136157369D01*
X132293959Y-136086280D01*
X132283988Y-136083646D01*
X132212837Y-136070972D01*
X132199540Y-136072432D01*
X132195000Y-136086989D01*
X132195000Y-137129885D01*
X131687000Y-137129885D01*
X131687000Y-136085102D01*
X131683082Y-136071758D01*
X131668806Y-136069771D01*
X131630324Y-136075660D01*
X131620288Y-136078051D01*
X131417868Y-136144212D01*
X131408359Y-136148209D01*
X131219463Y-136246542D01*
X131210738Y-136252036D01*
X131040433Y-136379905D01*
X131032726Y-136386748D01*
X130955094Y-136467985D01*
X130893570Y-136503415D01*
X130822657Y-136499958D01*
X130764871Y-136458712D01*
X130746018Y-136425164D01*
X130704324Y-136313946D01*
X130695786Y-136298351D01*
X130619285Y-136196276D01*
X130606724Y-136183715D01*
X130504649Y-136107214D01*
X130489054Y-136098676D01*
X130368606Y-136053522D01*
X130353351Y-136049895D01*
X130302486Y-136044369D01*
X130295672Y-136044000D01*
X129673115Y-136044000D01*
X129657876Y-136048475D01*
X129656671Y-136049865D01*
X129655000Y-136057548D01*
X129655000Y-137129885D01*
X129147000Y-137129885D01*
X129147000Y-136062116D01*
X129142525Y-136046877D01*
X129141135Y-136045672D01*
X129133452Y-136044001D01*
X128506331Y-136044001D01*
X128499510Y-136044371D01*
X128448648Y-136049895D01*
X128433396Y-136053521D01*
X128312946Y-136098676D01*
X128297351Y-136107214D01*
X128195276Y-136183715D01*
X128182715Y-136196276D01*
X128106214Y-136298351D01*
X128097676Y-136313946D01*
X128052522Y-136434394D01*
X128048895Y-136449649D01*
X128043369Y-136500514D01*
X128043000Y-136507328D01*
X128043000Y-137129885D01*
X115951500Y-137129885D01*
X115951500Y-128698876D01*
X116620645Y-128698876D01*
X116622370Y-128717834D01*
X116636537Y-128873497D01*
X116638570Y-128895839D01*
X116640308Y-128901745D01*
X116640309Y-128901749D01*
X116662153Y-128975968D01*
X116694410Y-129085570D01*
X116697263Y-129091028D01*
X116697265Y-129091032D01*
X116735699Y-129164549D01*
X116786040Y-129260841D01*
X116909968Y-129414976D01*
X116914692Y-129418940D01*
X116921933Y-129425016D01*
X117061474Y-129542105D01*
X117066872Y-129545072D01*
X117066877Y-129545076D01*
X117208853Y-129623127D01*
X117234787Y-129637384D01*
X117240654Y-129639245D01*
X117240656Y-129639246D01*
X117417436Y-129695324D01*
X117423306Y-129697186D01*
X117577227Y-129714451D01*
X118483769Y-129714451D01*
X118486825Y-129714151D01*
X118486832Y-129714151D01*
X118545340Y-129708414D01*
X118630833Y-129700031D01*
X118636734Y-129698249D01*
X118636736Y-129698249D01*
X118713057Y-129675206D01*
X118820169Y-129642867D01*
X118994796Y-129550017D01*
X119087845Y-129474128D01*
X119143287Y-129428911D01*
X119143290Y-129428908D01*
X119148062Y-129425016D01*
X119160344Y-129410170D01*
X119181055Y-129385135D01*
X119239889Y-129345397D01*
X119278139Y-129339451D01*
X120818876Y-129339451D01*
X120886997Y-129359453D01*
X120917069Y-129386495D01*
X120939968Y-129414976D01*
X120944692Y-129418940D01*
X120951933Y-129425016D01*
X121091474Y-129542105D01*
X121096872Y-129545072D01*
X121096877Y-129545076D01*
X121238853Y-129623127D01*
X121264787Y-129637384D01*
X121270654Y-129639245D01*
X121270656Y-129639246D01*
X121447436Y-129695324D01*
X121453306Y-129697186D01*
X121607227Y-129714451D01*
X122813769Y-129714451D01*
X122816825Y-129714151D01*
X122816832Y-129714151D01*
X122875340Y-129708414D01*
X122960833Y-129700031D01*
X122966734Y-129698249D01*
X122966736Y-129698249D01*
X123043057Y-129675206D01*
X123150169Y-129642867D01*
X123324796Y-129550017D01*
X123417845Y-129474128D01*
X123473287Y-129428911D01*
X123473290Y-129428908D01*
X123478062Y-129425016D01*
X123490344Y-129410170D01*
X123600201Y-129277376D01*
X123600203Y-129277372D01*
X123604130Y-129272626D01*
X123698198Y-129098652D01*
X123756682Y-128909719D01*
X123759036Y-128887321D01*
X123776711Y-128719155D01*
X123776711Y-128719153D01*
X123777355Y-128713026D01*
X123763598Y-128561858D01*
X123759989Y-128522202D01*
X123759988Y-128522199D01*
X123759430Y-128516063D01*
X123751183Y-128488039D01*
X123708556Y-128343206D01*
X123703590Y-128326332D01*
X123693919Y-128307832D01*
X123653280Y-128230098D01*
X123611960Y-128151061D01*
X123488032Y-127996926D01*
X123481727Y-127991635D01*
X123433054Y-127950794D01*
X123336526Y-127869797D01*
X123331128Y-127866830D01*
X123331123Y-127866826D01*
X123168608Y-127777484D01*
X123168609Y-127777484D01*
X123163213Y-127774518D01*
X123157344Y-127772656D01*
X123157341Y-127772655D01*
X123135403Y-127765696D01*
X123076519Y-127726033D01*
X123048426Y-127660831D01*
X123047501Y-127645594D01*
X123047501Y-126812851D01*
X124280164Y-126812851D01*
X124280854Y-126819416D01*
X124288427Y-126891465D01*
X124300126Y-127002779D01*
X124359141Y-127184407D01*
X124454628Y-127349795D01*
X124459046Y-127354702D01*
X124459047Y-127354703D01*
X124514756Y-127416574D01*
X124582415Y-127491717D01*
X124736916Y-127603969D01*
X124742944Y-127606653D01*
X124742946Y-127606654D01*
X124905349Y-127678960D01*
X124911380Y-127681645D01*
X125004780Y-127701498D01*
X125091724Y-127719979D01*
X125091729Y-127719979D01*
X125098181Y-127721351D01*
X125289155Y-127721351D01*
X125295607Y-127719979D01*
X125295612Y-127719979D01*
X125382556Y-127701498D01*
X125475956Y-127681645D01*
X125481987Y-127678960D01*
X125644390Y-127606654D01*
X125644392Y-127606653D01*
X125650420Y-127603969D01*
X125804921Y-127491717D01*
X125872580Y-127416574D01*
X125928289Y-127354703D01*
X125928290Y-127354702D01*
X125932708Y-127349795D01*
X126028195Y-127184407D01*
X126028570Y-127184623D01*
X126051098Y-127151846D01*
X126099939Y-127103005D01*
X126162251Y-127068979D01*
X126189034Y-127066100D01*
X127528733Y-127066100D01*
X127579982Y-127076993D01*
X127606712Y-127088894D01*
X127673099Y-127103005D01*
X127787056Y-127127228D01*
X127787061Y-127127228D01*
X127793513Y-127128600D01*
X127984487Y-127128600D01*
X127990939Y-127127228D01*
X127990944Y-127127228D01*
X128104901Y-127103005D01*
X128171288Y-127088894D01*
X128192037Y-127079656D01*
X128339722Y-127013903D01*
X128339724Y-127013902D01*
X128345752Y-127011218D01*
X128366401Y-126996216D01*
X128492903Y-126904306D01*
X128500253Y-126898966D01*
X128577791Y-126812851D01*
X128623621Y-126761952D01*
X128623622Y-126761951D01*
X128628040Y-126757044D01*
X128723527Y-126591656D01*
X128782542Y-126410028D01*
X128789583Y-126343042D01*
X128801814Y-126226665D01*
X128802504Y-126220100D01*
X128792065Y-126120778D01*
X128783232Y-126036735D01*
X128783232Y-126036733D01*
X128782542Y-126030172D01*
X128723527Y-125848544D01*
X128718194Y-125839306D01*
X128657622Y-125734394D01*
X128628040Y-125683156D01*
X128604911Y-125657468D01*
X128504675Y-125546145D01*
X128504674Y-125546144D01*
X128500253Y-125541234D01*
X128401157Y-125469236D01*
X128351094Y-125432863D01*
X128351093Y-125432862D01*
X128345752Y-125428982D01*
X128339724Y-125426298D01*
X128339722Y-125426297D01*
X128177319Y-125353991D01*
X128177318Y-125353991D01*
X128171288Y-125351306D01*
X128077888Y-125331453D01*
X127990944Y-125312972D01*
X127990939Y-125312972D01*
X127984487Y-125311600D01*
X127793513Y-125311600D01*
X127787061Y-125312972D01*
X127787056Y-125312972D01*
X127700112Y-125331453D01*
X127606712Y-125351306D01*
X127600683Y-125353991D01*
X127600681Y-125353991D01*
X127579982Y-125363207D01*
X127528733Y-125374100D01*
X125827295Y-125374100D01*
X125816752Y-125373658D01*
X125765628Y-125369365D01*
X125758868Y-125370267D01*
X125758866Y-125370267D01*
X125686294Y-125379950D01*
X125683239Y-125380320D01*
X125644724Y-125384504D01*
X125603682Y-125388963D01*
X125597209Y-125391141D01*
X125594317Y-125391777D01*
X125593814Y-125391866D01*
X125593554Y-125391926D01*
X125593100Y-125392058D01*
X125590189Y-125392773D01*
X125583430Y-125393675D01*
X125577025Y-125396006D01*
X125577018Y-125396008D01*
X125508205Y-125421054D01*
X125505299Y-125422072D01*
X125435935Y-125445415D01*
X125435932Y-125445416D01*
X125429470Y-125447591D01*
X125423624Y-125451103D01*
X125420913Y-125452356D01*
X125420466Y-125452540D01*
X125420226Y-125452655D01*
X125419787Y-125452894D01*
X125417121Y-125454206D01*
X125410703Y-125456542D01*
X125404938Y-125460200D01*
X125404935Y-125460202D01*
X125343122Y-125499430D01*
X125340503Y-125501048D01*
X125277763Y-125538746D01*
X125277761Y-125538748D01*
X125271912Y-125542262D01*
X125266951Y-125546954D01*
X125264603Y-125548736D01*
X125263753Y-125549326D01*
X125259868Y-125552265D01*
X125255504Y-125555034D01*
X125251311Y-125558784D01*
X125250074Y-125560021D01*
X125198097Y-125611997D01*
X125195611Y-125614415D01*
X125138358Y-125668557D01*
X125134519Y-125674206D01*
X125130100Y-125679398D01*
X125129692Y-125679051D01*
X125123192Y-125686903D01*
X124846161Y-125963933D01*
X124808315Y-125989944D01*
X124742946Y-126019048D01*
X124742944Y-126019049D01*
X124736916Y-126021733D01*
X124731575Y-126025613D01*
X124731574Y-126025614D01*
X124704365Y-126045383D01*
X124582415Y-126133985D01*
X124577994Y-126138895D01*
X124577993Y-126138896D01*
X124482007Y-126245500D01*
X124454628Y-126275907D01*
X124415868Y-126343042D01*
X124370793Y-126421114D01*
X124359141Y-126441295D01*
X124300126Y-126622923D01*
X124299436Y-126629484D01*
X124299436Y-126629486D01*
X124288010Y-126738200D01*
X124280164Y-126812851D01*
X123047501Y-126812851D01*
X123047501Y-121127440D01*
X123067503Y-121059319D01*
X123121159Y-121012826D01*
X123137080Y-121006819D01*
X123150169Y-121002867D01*
X123324796Y-120910017D01*
X123412217Y-120838718D01*
X123473287Y-120788911D01*
X123473290Y-120788908D01*
X123478062Y-120785016D01*
X123509926Y-120746499D01*
X123600201Y-120637376D01*
X123600203Y-120637372D01*
X123604130Y-120632626D01*
X123698198Y-120458652D01*
X123756682Y-120269719D01*
X123758881Y-120248794D01*
X123776711Y-120079155D01*
X123776711Y-120079153D01*
X123777355Y-120073026D01*
X123763597Y-119921852D01*
X123759989Y-119882202D01*
X123759988Y-119882199D01*
X123759430Y-119876063D01*
X123755168Y-119861580D01*
X123726751Y-119765027D01*
X123703590Y-119686332D01*
X123693919Y-119667832D01*
X123642735Y-119569928D01*
X123611960Y-119511061D01*
X123506584Y-119380000D01*
X136500496Y-119380000D01*
X136501186Y-119386565D01*
X136519006Y-119556110D01*
X136520458Y-119569928D01*
X136579473Y-119751556D01*
X136582776Y-119757278D01*
X136582777Y-119757279D01*
X136616686Y-119816010D01*
X136674960Y-119916944D01*
X136679378Y-119921851D01*
X136679379Y-119921852D01*
X136773143Y-120025987D01*
X136802747Y-120058866D01*
X136957248Y-120171118D01*
X136963276Y-120173802D01*
X136963278Y-120173803D01*
X137125681Y-120246109D01*
X137131712Y-120248794D01*
X137225112Y-120268647D01*
X137312056Y-120287128D01*
X137312061Y-120287128D01*
X137318513Y-120288500D01*
X137509487Y-120288500D01*
X137515939Y-120287128D01*
X137515944Y-120287128D01*
X137602888Y-120268647D01*
X137696288Y-120248794D01*
X137702319Y-120246109D01*
X137864722Y-120173803D01*
X137864724Y-120173802D01*
X137870752Y-120171118D01*
X137917526Y-120137135D01*
X137968549Y-120100064D01*
X138035417Y-120076206D01*
X138042610Y-120076000D01*
X138068515Y-120076000D01*
X138077085Y-120076292D01*
X138126114Y-120079635D01*
X138126118Y-120079635D01*
X138133690Y-120080151D01*
X138141167Y-120078846D01*
X138141168Y-120078846D01*
X138174514Y-120073026D01*
X138195472Y-120069368D01*
X138201989Y-120068407D01*
X138215898Y-120066723D01*
X138256693Y-120061787D01*
X138256696Y-120061786D01*
X138264235Y-120060874D01*
X138271342Y-120058189D01*
X138275065Y-120057274D01*
X138288480Y-120053605D01*
X138292164Y-120052493D01*
X138299639Y-120051188D01*
X138306589Y-120048137D01*
X138306593Y-120048136D01*
X138357049Y-120025987D01*
X138363145Y-120023499D01*
X138389797Y-120013428D01*
X138414716Y-120004012D01*
X138414718Y-120004011D01*
X138421818Y-120001328D01*
X138428074Y-119997029D01*
X138431474Y-119995251D01*
X138443592Y-119988506D01*
X138446932Y-119986531D01*
X138453891Y-119983476D01*
X138503642Y-119945302D01*
X138508960Y-119941437D01*
X138560650Y-119905912D01*
X138601329Y-119860255D01*
X138606309Y-119854980D01*
X139292586Y-119168703D01*
X139982731Y-118478557D01*
X140045629Y-118444405D01*
X140083168Y-118436426D01*
X140220936Y-118407142D01*
X140237541Y-118399749D01*
X140389370Y-118332151D01*
X140389372Y-118332150D01*
X140395400Y-118329466D01*
X140549901Y-118217214D01*
X140554323Y-118212303D01*
X140673269Y-118080200D01*
X140673270Y-118080199D01*
X140677688Y-118075292D01*
X140773175Y-117909904D01*
X140832190Y-117728276D01*
X140833022Y-117720365D01*
X140851462Y-117544913D01*
X140852152Y-117538348D01*
X140832190Y-117348420D01*
X140773175Y-117166792D01*
X140677688Y-117001404D01*
X140549901Y-116859482D01*
X140395400Y-116747230D01*
X140389372Y-116744546D01*
X140389370Y-116744545D01*
X140226967Y-116672239D01*
X140226966Y-116672239D01*
X140220936Y-116669554D01*
X140127535Y-116649701D01*
X140040592Y-116631220D01*
X140040587Y-116631220D01*
X140034135Y-116629848D01*
X139843161Y-116629848D01*
X139836709Y-116631220D01*
X139836704Y-116631220D01*
X139749761Y-116649701D01*
X139656360Y-116669554D01*
X139650330Y-116672239D01*
X139650329Y-116672239D01*
X139487926Y-116744545D01*
X139487924Y-116744546D01*
X139481896Y-116747230D01*
X139327395Y-116859482D01*
X139199608Y-117001404D01*
X139104121Y-117166792D01*
X139045106Y-117348420D01*
X139044416Y-117354981D01*
X139044416Y-117354983D01*
X139038122Y-117414871D01*
X139011109Y-117480528D01*
X139001907Y-117490796D01*
X137954868Y-118537836D01*
X137892556Y-118571861D01*
X137821741Y-118566797D01*
X137814524Y-118563848D01*
X137702319Y-118513891D01*
X137702318Y-118513891D01*
X137696288Y-118511206D01*
X137602887Y-118491353D01*
X137515944Y-118472872D01*
X137515939Y-118472872D01*
X137509487Y-118471500D01*
X137318513Y-118471500D01*
X137312061Y-118472872D01*
X137312056Y-118472872D01*
X137225113Y-118491353D01*
X137131712Y-118511206D01*
X137125682Y-118513891D01*
X137125681Y-118513891D01*
X136963278Y-118586197D01*
X136963276Y-118586198D01*
X136957248Y-118588882D01*
X136802747Y-118701134D01*
X136798326Y-118706044D01*
X136798325Y-118706045D01*
X136688453Y-118828071D01*
X136674960Y-118843056D01*
X136579473Y-119008444D01*
X136520458Y-119190072D01*
X136500496Y-119380000D01*
X123506584Y-119380000D01*
X123488032Y-119356926D01*
X123481727Y-119351635D01*
X123425601Y-119304540D01*
X123336526Y-119229797D01*
X123331128Y-119226830D01*
X123331123Y-119226826D01*
X123168608Y-119137484D01*
X123168609Y-119137484D01*
X123163213Y-119134518D01*
X123157346Y-119132657D01*
X123157344Y-119132656D01*
X122980564Y-119076578D01*
X122980563Y-119076578D01*
X122974694Y-119074716D01*
X122820773Y-119057451D01*
X121614231Y-119057451D01*
X121611175Y-119057751D01*
X121611168Y-119057751D01*
X121552660Y-119063488D01*
X121467167Y-119071871D01*
X121461266Y-119073653D01*
X121461264Y-119073653D01*
X121387947Y-119095789D01*
X121277831Y-119129035D01*
X121103204Y-119221885D01*
X121020564Y-119289285D01*
X120954713Y-119342991D01*
X120954710Y-119342994D01*
X120949938Y-119346886D01*
X120946010Y-119351634D01*
X120946009Y-119351635D01*
X120916945Y-119386767D01*
X120858111Y-119426505D01*
X120819861Y-119432451D01*
X119279124Y-119432451D01*
X119211003Y-119412449D01*
X119180931Y-119385407D01*
X119158032Y-119356926D01*
X119151727Y-119351635D01*
X119095601Y-119304540D01*
X119006526Y-119229797D01*
X119001128Y-119226830D01*
X119001123Y-119226826D01*
X118838608Y-119137484D01*
X118838609Y-119137484D01*
X118833213Y-119134518D01*
X118827346Y-119132657D01*
X118827344Y-119132656D01*
X118650564Y-119076578D01*
X118650563Y-119076578D01*
X118644694Y-119074716D01*
X118490773Y-119057451D01*
X117584231Y-119057451D01*
X117581175Y-119057751D01*
X117581168Y-119057751D01*
X117522660Y-119063488D01*
X117437167Y-119071871D01*
X117431266Y-119073653D01*
X117431264Y-119073653D01*
X117357947Y-119095789D01*
X117247831Y-119129035D01*
X117073204Y-119221885D01*
X116990564Y-119289285D01*
X116924713Y-119342991D01*
X116924710Y-119342994D01*
X116919938Y-119346886D01*
X116916011Y-119351633D01*
X116916009Y-119351635D01*
X116797799Y-119494526D01*
X116797797Y-119494530D01*
X116793870Y-119499276D01*
X116699802Y-119673250D01*
X116641318Y-119862183D01*
X116640674Y-119868308D01*
X116640674Y-119868309D01*
X116631539Y-119955229D01*
X116620645Y-120058876D01*
X116627170Y-120130572D01*
X116637685Y-120246109D01*
X116638570Y-120255839D01*
X116640308Y-120261745D01*
X116640309Y-120261749D01*
X116662288Y-120336426D01*
X116694410Y-120445570D01*
X116697263Y-120451028D01*
X116697265Y-120451032D01*
X116724886Y-120503865D01*
X116786040Y-120620841D01*
X116909968Y-120774976D01*
X116914692Y-120778940D01*
X116916797Y-120780706D01*
X117061474Y-120902105D01*
X117066872Y-120905072D01*
X117066877Y-120905076D01*
X117229390Y-120994417D01*
X117234787Y-120997384D01*
X117240660Y-120999247D01*
X117312598Y-121022067D01*
X117371483Y-121061730D01*
X117399575Y-121126932D01*
X117400500Y-121142169D01*
X117400500Y-127629366D01*
X117380498Y-127697487D01*
X117326842Y-127743980D01*
X117310922Y-127749987D01*
X117247831Y-127769035D01*
X117073204Y-127861885D01*
X116986938Y-127932242D01*
X116924713Y-127982991D01*
X116924710Y-127982994D01*
X116919938Y-127986886D01*
X116916011Y-127991633D01*
X116916009Y-127991635D01*
X116797799Y-128134526D01*
X116797797Y-128134530D01*
X116793870Y-128139276D01*
X116699802Y-128313250D01*
X116641318Y-128502183D01*
X116640674Y-128508308D01*
X116640674Y-128508309D01*
X116621563Y-128690145D01*
X116620645Y-128698876D01*
X115951500Y-128698876D01*
X115951500Y-105118100D01*
X130281496Y-105118100D01*
X130301458Y-105308028D01*
X130360473Y-105489656D01*
X130455960Y-105655044D01*
X130583747Y-105796966D01*
X130738248Y-105909218D01*
X130744276Y-105911902D01*
X130744278Y-105911903D01*
X130906681Y-105984209D01*
X130912712Y-105986894D01*
X131006112Y-106006747D01*
X131093056Y-106025228D01*
X131093061Y-106025228D01*
X131099513Y-106026600D01*
X131290487Y-106026600D01*
X131296939Y-106025228D01*
X131296944Y-106025228D01*
X131383888Y-106006747D01*
X131477288Y-105986894D01*
X131483319Y-105984209D01*
X131645722Y-105911903D01*
X131645724Y-105911902D01*
X131651752Y-105909218D01*
X131806253Y-105796966D01*
X131934040Y-105655044D01*
X132029527Y-105489656D01*
X132088542Y-105308028D01*
X132108504Y-105118100D01*
X132092940Y-104970014D01*
X132105712Y-104900176D01*
X132129155Y-104867749D01*
X134955499Y-102041405D01*
X135017811Y-102007379D01*
X135044594Y-102004500D01*
X135100487Y-102004500D01*
X135106939Y-102003128D01*
X135106944Y-102003128D01*
X135193887Y-101984647D01*
X135287288Y-101964794D01*
X135293319Y-101962109D01*
X135455722Y-101889803D01*
X135455724Y-101889802D01*
X135461752Y-101887118D01*
X135616253Y-101774866D01*
X135744040Y-101632944D01*
X135839527Y-101467556D01*
X135898542Y-101285928D01*
X135918504Y-101096000D01*
X135898542Y-100906072D01*
X135839527Y-100724444D01*
X135744040Y-100559056D01*
X135616253Y-100417134D01*
X135461752Y-100304882D01*
X135455724Y-100302198D01*
X135455722Y-100302197D01*
X135293319Y-100229891D01*
X135293318Y-100229891D01*
X135287288Y-100227206D01*
X135193887Y-100207353D01*
X135106944Y-100188872D01*
X135106939Y-100188872D01*
X135100487Y-100187500D01*
X134909513Y-100187500D01*
X134903061Y-100188872D01*
X134903056Y-100188872D01*
X134816112Y-100207353D01*
X134722712Y-100227206D01*
X134716682Y-100229891D01*
X134716681Y-100229891D01*
X134554278Y-100302197D01*
X134554276Y-100302198D01*
X134548248Y-100304882D01*
X134393747Y-100417134D01*
X134265960Y-100559056D01*
X134170473Y-100724444D01*
X134111458Y-100906072D01*
X134110768Y-100912633D01*
X134110768Y-100912635D01*
X134094093Y-101071293D01*
X134067080Y-101136950D01*
X134057878Y-101147218D01*
X130993809Y-104211286D01*
X130930909Y-104245438D01*
X130912712Y-104249306D01*
X130906682Y-104251991D01*
X130906681Y-104251991D01*
X130744278Y-104324297D01*
X130744276Y-104324298D01*
X130738248Y-104326982D01*
X130583747Y-104439234D01*
X130455960Y-104581156D01*
X130360473Y-104746544D01*
X130301458Y-104928172D01*
X130281496Y-105118100D01*
X115951500Y-105118100D01*
X115951500Y-95724695D01*
X120303251Y-95724695D01*
X120303548Y-95729848D01*
X120303548Y-95729851D01*
X120309876Y-95839590D01*
X120316110Y-95947715D01*
X120317247Y-95952761D01*
X120317248Y-95952767D01*
X120319490Y-95962715D01*
X120365222Y-96165639D01*
X120449266Y-96372616D01*
X120565987Y-96563088D01*
X120712250Y-96731938D01*
X120884126Y-96874632D01*
X121077000Y-96987338D01*
X121285692Y-97067030D01*
X121290760Y-97068061D01*
X121290763Y-97068062D01*
X121364491Y-97083062D01*
X121504597Y-97111567D01*
X121509772Y-97111757D01*
X121509774Y-97111757D01*
X121722673Y-97119564D01*
X121722677Y-97119564D01*
X121727837Y-97119753D01*
X121732957Y-97119097D01*
X121732959Y-97119097D01*
X121944288Y-97092025D01*
X121944289Y-97092025D01*
X121949416Y-97091368D01*
X121954366Y-97089883D01*
X122158429Y-97028661D01*
X122158434Y-97028659D01*
X122163384Y-97027174D01*
X122363994Y-96928896D01*
X122545860Y-96799173D01*
X122704096Y-96641489D01*
X122763594Y-96558689D01*
X122831435Y-96464277D01*
X122834453Y-96460077D01*
X122923723Y-96279453D01*
X122931136Y-96264453D01*
X122931137Y-96264451D01*
X122933430Y-96259811D01*
X122965900Y-96152940D01*
X122996865Y-96051023D01*
X122996865Y-96051021D01*
X122998370Y-96046069D01*
X123027529Y-95824590D01*
X123028790Y-95773000D01*
X123029074Y-95761365D01*
X123029074Y-95761361D01*
X123029156Y-95758000D01*
X123027651Y-95739695D01*
X168563251Y-95739695D01*
X168563548Y-95744848D01*
X168563548Y-95744851D01*
X168569011Y-95839590D01*
X168576110Y-95962715D01*
X168577247Y-95967761D01*
X168577248Y-95967767D01*
X168593739Y-96040939D01*
X168625222Y-96180639D01*
X168709266Y-96387616D01*
X168825987Y-96578088D01*
X168972250Y-96746938D01*
X169144126Y-96889632D01*
X169337000Y-97002338D01*
X169545692Y-97082030D01*
X169550760Y-97083061D01*
X169550763Y-97083062D01*
X169658017Y-97104883D01*
X169764597Y-97126567D01*
X169769772Y-97126757D01*
X169769774Y-97126757D01*
X169982673Y-97134564D01*
X169982677Y-97134564D01*
X169987837Y-97134753D01*
X169992957Y-97134097D01*
X169992959Y-97134097D01*
X170204288Y-97107025D01*
X170204289Y-97107025D01*
X170209416Y-97106368D01*
X170214366Y-97104883D01*
X170418429Y-97043661D01*
X170418434Y-97043659D01*
X170423384Y-97042174D01*
X170623994Y-96943896D01*
X170805860Y-96814173D01*
X170964096Y-96656489D01*
X170977891Y-96637292D01*
X171091435Y-96479277D01*
X171094453Y-96475077D01*
X171101867Y-96460077D01*
X171191136Y-96279453D01*
X171191137Y-96279451D01*
X171193430Y-96274811D01*
X171258370Y-96061069D01*
X171287529Y-95839590D01*
X171287611Y-95836240D01*
X171289074Y-95776365D01*
X171289074Y-95776361D01*
X171289156Y-95773000D01*
X171270852Y-95550361D01*
X171216431Y-95333702D01*
X171127354Y-95128840D01*
X171006014Y-94941277D01*
X170855670Y-94776051D01*
X170851619Y-94772852D01*
X170851615Y-94772848D01*
X170684414Y-94640800D01*
X170684410Y-94640798D01*
X170680359Y-94637598D01*
X170639053Y-94614796D01*
X170589084Y-94564364D01*
X170574312Y-94494921D01*
X170599428Y-94428516D01*
X170626780Y-94401909D01*
X170670603Y-94370650D01*
X170805860Y-94274173D01*
X170964096Y-94116489D01*
X170977891Y-94097292D01*
X171091435Y-93939277D01*
X171094453Y-93935077D01*
X171101867Y-93920077D01*
X171191136Y-93739453D01*
X171191137Y-93739451D01*
X171193430Y-93734811D01*
X171258370Y-93521069D01*
X171287529Y-93299590D01*
X171287611Y-93296240D01*
X171289074Y-93236365D01*
X171289074Y-93236361D01*
X171289156Y-93233000D01*
X171270852Y-93010361D01*
X171216431Y-92793702D01*
X171127354Y-92588840D01*
X171006014Y-92401277D01*
X170855670Y-92236051D01*
X170851619Y-92232852D01*
X170851615Y-92232848D01*
X170684414Y-92100800D01*
X170684410Y-92100798D01*
X170680359Y-92097598D01*
X170639053Y-92074796D01*
X170589084Y-92024364D01*
X170574312Y-91954921D01*
X170599428Y-91888516D01*
X170626780Y-91861909D01*
X170670603Y-91830650D01*
X170805860Y-91734173D01*
X170964096Y-91576489D01*
X170977891Y-91557292D01*
X171091435Y-91399277D01*
X171094453Y-91395077D01*
X171101867Y-91380077D01*
X171191136Y-91199453D01*
X171191137Y-91199451D01*
X171193430Y-91194811D01*
X171258370Y-90981069D01*
X171287529Y-90759590D01*
X171287611Y-90756240D01*
X171289074Y-90696365D01*
X171289074Y-90696361D01*
X171289156Y-90693000D01*
X171270852Y-90470361D01*
X171216431Y-90253702D01*
X171127354Y-90048840D01*
X171006014Y-89861277D01*
X170855670Y-89696051D01*
X170851619Y-89692852D01*
X170851615Y-89692848D01*
X170684414Y-89560800D01*
X170684410Y-89560798D01*
X170680359Y-89557598D01*
X170639053Y-89534796D01*
X170589084Y-89484364D01*
X170574312Y-89414921D01*
X170599428Y-89348516D01*
X170626780Y-89321909D01*
X170670603Y-89290650D01*
X170805860Y-89194173D01*
X170964096Y-89036489D01*
X170977891Y-89017292D01*
X171091435Y-88859277D01*
X171094453Y-88855077D01*
X171101867Y-88840077D01*
X171191136Y-88659453D01*
X171191137Y-88659451D01*
X171193430Y-88654811D01*
X171258370Y-88441069D01*
X171287529Y-88219590D01*
X171287611Y-88216240D01*
X171289074Y-88156365D01*
X171289074Y-88156361D01*
X171289156Y-88153000D01*
X171270852Y-87930361D01*
X171216431Y-87713702D01*
X171127354Y-87508840D01*
X171006014Y-87321277D01*
X170855670Y-87156051D01*
X170851619Y-87152852D01*
X170851615Y-87152848D01*
X170684414Y-87020800D01*
X170684410Y-87020798D01*
X170680359Y-87017598D01*
X170639053Y-86994796D01*
X170589084Y-86944364D01*
X170574312Y-86874921D01*
X170599428Y-86808516D01*
X170626780Y-86781909D01*
X170670603Y-86750650D01*
X170805860Y-86654173D01*
X170964096Y-86496489D01*
X170977891Y-86477292D01*
X171091435Y-86319277D01*
X171094453Y-86315077D01*
X171101867Y-86300077D01*
X171191136Y-86119453D01*
X171191137Y-86119451D01*
X171193430Y-86114811D01*
X171258370Y-85901069D01*
X171287529Y-85679590D01*
X171287611Y-85676240D01*
X171289074Y-85616365D01*
X171289074Y-85616361D01*
X171289156Y-85613000D01*
X171270852Y-85390361D01*
X171216431Y-85173702D01*
X171127354Y-84968840D01*
X171006014Y-84781277D01*
X170855670Y-84616051D01*
X170851619Y-84612852D01*
X170851615Y-84612848D01*
X170684414Y-84480800D01*
X170684410Y-84480798D01*
X170680359Y-84477598D01*
X170639053Y-84454796D01*
X170589084Y-84404364D01*
X170574312Y-84334921D01*
X170599428Y-84268516D01*
X170626780Y-84241909D01*
X170670603Y-84210650D01*
X170805860Y-84114173D01*
X170964096Y-83956489D01*
X170992914Y-83916385D01*
X171091435Y-83779277D01*
X171094453Y-83775077D01*
X171100543Y-83762756D01*
X171191136Y-83579453D01*
X171191137Y-83579451D01*
X171193430Y-83574811D01*
X171258370Y-83361069D01*
X171287529Y-83139590D01*
X171287611Y-83136240D01*
X171289074Y-83076365D01*
X171289074Y-83076361D01*
X171289156Y-83073000D01*
X171270852Y-82850361D01*
X171216431Y-82633702D01*
X171127354Y-82428840D01*
X171039246Y-82292646D01*
X171008822Y-82245617D01*
X171008820Y-82245614D01*
X171006014Y-82241277D01*
X170855670Y-82076051D01*
X170851619Y-82072852D01*
X170851615Y-82072848D01*
X170684414Y-81940800D01*
X170684410Y-81940798D01*
X170680359Y-81937598D01*
X170639053Y-81914796D01*
X170589084Y-81864364D01*
X170574312Y-81794921D01*
X170599428Y-81728516D01*
X170626780Y-81701909D01*
X170693203Y-81654530D01*
X170805860Y-81574173D01*
X170853588Y-81526612D01*
X170896681Y-81483669D01*
X170964096Y-81416489D01*
X171023594Y-81333689D01*
X171091435Y-81239277D01*
X171094453Y-81235077D01*
X171124378Y-81174529D01*
X171191136Y-81039453D01*
X171191137Y-81039451D01*
X171193430Y-81034811D01*
X171258370Y-80821069D01*
X171287529Y-80599590D01*
X171287611Y-80596240D01*
X171289074Y-80536365D01*
X171289074Y-80536361D01*
X171289156Y-80533000D01*
X171270852Y-80310361D01*
X171216431Y-80093702D01*
X171127354Y-79888840D01*
X171039246Y-79752646D01*
X171008822Y-79705617D01*
X171008820Y-79705614D01*
X171006014Y-79701277D01*
X170998441Y-79692954D01*
X170858798Y-79539488D01*
X170827746Y-79475642D01*
X170836141Y-79405143D01*
X170881317Y-79350375D01*
X170907761Y-79336706D01*
X171014297Y-79296767D01*
X171022705Y-79293615D01*
X171139261Y-79206261D01*
X171226615Y-79089705D01*
X171277745Y-78953316D01*
X171284500Y-78891134D01*
X171284500Y-77094866D01*
X171277745Y-77032684D01*
X171226615Y-76896295D01*
X171139261Y-76779739D01*
X171022705Y-76692385D01*
X170886316Y-76641255D01*
X170824134Y-76634500D01*
X169027866Y-76634500D01*
X168965684Y-76641255D01*
X168829295Y-76692385D01*
X168712739Y-76779739D01*
X168625385Y-76896295D01*
X168574255Y-77032684D01*
X168567500Y-77094866D01*
X168567500Y-78891134D01*
X168574255Y-78953316D01*
X168625385Y-79089705D01*
X168712739Y-79206261D01*
X168829295Y-79293615D01*
X168837704Y-79296767D01*
X168837705Y-79296768D01*
X168946451Y-79337535D01*
X169003216Y-79380176D01*
X169027916Y-79446738D01*
X169012709Y-79516087D01*
X168993316Y-79542568D01*
X168870300Y-79671297D01*
X168866629Y-79675138D01*
X168740743Y-79859680D01*
X168646688Y-80062305D01*
X168586989Y-80277570D01*
X168563251Y-80499695D01*
X168563548Y-80504848D01*
X168563548Y-80504851D01*
X168571069Y-80635292D01*
X168576110Y-80722715D01*
X168577247Y-80727761D01*
X168577248Y-80727767D01*
X168592069Y-80793529D01*
X168625222Y-80940639D01*
X168663461Y-81034811D01*
X168695714Y-81114240D01*
X168709266Y-81147616D01*
X168825987Y-81338088D01*
X168972250Y-81506938D01*
X169144126Y-81649632D01*
X169190701Y-81676848D01*
X169217445Y-81692476D01*
X169266169Y-81744114D01*
X169279240Y-81813897D01*
X169252509Y-81879669D01*
X169212055Y-81913027D01*
X169199607Y-81919507D01*
X169195474Y-81922610D01*
X169195471Y-81922612D01*
X169031524Y-82045707D01*
X169020965Y-82053635D01*
X169017393Y-82057373D01*
X168870300Y-82211297D01*
X168866629Y-82215138D01*
X168740743Y-82399680D01*
X168646688Y-82602305D01*
X168586989Y-82817570D01*
X168563251Y-83039695D01*
X168563548Y-83044848D01*
X168563548Y-83044851D01*
X168571069Y-83175292D01*
X168576110Y-83262715D01*
X168577247Y-83267761D01*
X168577248Y-83267767D01*
X168592069Y-83333529D01*
X168625222Y-83480639D01*
X168675732Y-83605030D01*
X168693397Y-83648534D01*
X168709266Y-83687616D01*
X168727328Y-83717090D01*
X168822938Y-83873112D01*
X168825987Y-83878088D01*
X168972250Y-84046938D01*
X169144126Y-84189632D01*
X169214595Y-84230811D01*
X169217445Y-84232476D01*
X169266169Y-84284114D01*
X169279240Y-84353897D01*
X169252509Y-84419669D01*
X169212055Y-84453027D01*
X169199607Y-84459507D01*
X169195474Y-84462610D01*
X169195471Y-84462612D01*
X169091545Y-84540642D01*
X169020965Y-84593635D01*
X169017393Y-84597373D01*
X168884535Y-84736401D01*
X168866629Y-84755138D01*
X168740743Y-84939680D01*
X168725003Y-84973590D01*
X168651334Y-85132297D01*
X168646688Y-85142305D01*
X168586989Y-85357570D01*
X168563251Y-85579695D01*
X168563548Y-85584848D01*
X168563548Y-85584851D01*
X168569011Y-85679590D01*
X168576110Y-85802715D01*
X168577247Y-85807761D01*
X168577248Y-85807767D01*
X168593739Y-85880939D01*
X168625222Y-86020639D01*
X168709266Y-86227616D01*
X168825987Y-86418088D01*
X168972250Y-86586938D01*
X169144126Y-86729632D01*
X169207918Y-86766909D01*
X169217445Y-86772476D01*
X169266169Y-86824114D01*
X169279240Y-86893897D01*
X169252509Y-86959669D01*
X169212055Y-86993027D01*
X169199607Y-86999507D01*
X169195474Y-87002610D01*
X169195471Y-87002612D01*
X169025100Y-87130530D01*
X169020965Y-87133635D01*
X169017393Y-87137373D01*
X168884535Y-87276401D01*
X168866629Y-87295138D01*
X168740743Y-87479680D01*
X168725003Y-87513590D01*
X168651334Y-87672297D01*
X168646688Y-87682305D01*
X168586989Y-87897570D01*
X168563251Y-88119695D01*
X168563548Y-88124848D01*
X168563548Y-88124851D01*
X168569011Y-88219590D01*
X168576110Y-88342715D01*
X168577247Y-88347761D01*
X168577248Y-88347767D01*
X168593739Y-88420939D01*
X168625222Y-88560639D01*
X168709266Y-88767616D01*
X168825987Y-88958088D01*
X168972250Y-89126938D01*
X169144126Y-89269632D01*
X169207918Y-89306909D01*
X169217445Y-89312476D01*
X169266169Y-89364114D01*
X169279240Y-89433897D01*
X169252509Y-89499669D01*
X169212055Y-89533027D01*
X169199607Y-89539507D01*
X169195474Y-89542610D01*
X169195471Y-89542612D01*
X169025100Y-89670530D01*
X169020965Y-89673635D01*
X169017393Y-89677373D01*
X168884535Y-89816401D01*
X168866629Y-89835138D01*
X168740743Y-90019680D01*
X168725003Y-90053590D01*
X168651334Y-90212297D01*
X168646688Y-90222305D01*
X168586989Y-90437570D01*
X168563251Y-90659695D01*
X168563548Y-90664848D01*
X168563548Y-90664851D01*
X168569011Y-90759590D01*
X168576110Y-90882715D01*
X168577247Y-90887761D01*
X168577248Y-90887767D01*
X168593739Y-90960939D01*
X168625222Y-91100639D01*
X168709266Y-91307616D01*
X168825987Y-91498088D01*
X168972250Y-91666938D01*
X169144126Y-91809632D01*
X169207918Y-91846909D01*
X169217445Y-91852476D01*
X169266169Y-91904114D01*
X169279240Y-91973897D01*
X169252509Y-92039669D01*
X169212055Y-92073027D01*
X169199607Y-92079507D01*
X169195474Y-92082610D01*
X169195471Y-92082612D01*
X169025100Y-92210530D01*
X169020965Y-92213635D01*
X169017393Y-92217373D01*
X168884535Y-92356401D01*
X168866629Y-92375138D01*
X168740743Y-92559680D01*
X168725003Y-92593590D01*
X168651334Y-92752297D01*
X168646688Y-92762305D01*
X168586989Y-92977570D01*
X168563251Y-93199695D01*
X168563548Y-93204848D01*
X168563548Y-93204851D01*
X168569011Y-93299590D01*
X168576110Y-93422715D01*
X168577247Y-93427761D01*
X168577248Y-93427767D01*
X168593739Y-93500939D01*
X168625222Y-93640639D01*
X168709266Y-93847616D01*
X168825987Y-94038088D01*
X168972250Y-94206938D01*
X169144126Y-94349632D01*
X169207918Y-94386909D01*
X169217445Y-94392476D01*
X169266169Y-94444114D01*
X169279240Y-94513897D01*
X169252509Y-94579669D01*
X169212055Y-94613027D01*
X169199607Y-94619507D01*
X169195474Y-94622610D01*
X169195471Y-94622612D01*
X169025100Y-94750530D01*
X169020965Y-94753635D01*
X169017393Y-94757373D01*
X168884535Y-94896401D01*
X168866629Y-94915138D01*
X168740743Y-95099680D01*
X168725003Y-95133590D01*
X168651334Y-95292297D01*
X168646688Y-95302305D01*
X168586989Y-95517570D01*
X168563251Y-95739695D01*
X123027651Y-95739695D01*
X123010852Y-95535361D01*
X122956431Y-95318702D01*
X122867354Y-95113840D01*
X122746014Y-94926277D01*
X122595670Y-94761051D01*
X122591619Y-94757852D01*
X122591615Y-94757848D01*
X122424414Y-94625800D01*
X122424410Y-94625798D01*
X122420359Y-94622598D01*
X122379053Y-94599796D01*
X122329084Y-94549364D01*
X122314312Y-94479921D01*
X122339428Y-94413516D01*
X122366780Y-94386909D01*
X122423674Y-94346327D01*
X122545860Y-94259173D01*
X122704096Y-94101489D01*
X122763594Y-94018689D01*
X122831435Y-93924277D01*
X122834453Y-93920077D01*
X122923723Y-93739453D01*
X122931136Y-93724453D01*
X122931137Y-93724451D01*
X122933430Y-93719811D01*
X122965900Y-93612940D01*
X122996865Y-93511023D01*
X122996865Y-93511021D01*
X122998370Y-93506069D01*
X123027529Y-93284590D01*
X123028790Y-93233000D01*
X123029074Y-93221365D01*
X123029074Y-93221361D01*
X123029156Y-93218000D01*
X123010852Y-92995361D01*
X122956431Y-92778702D01*
X122867354Y-92573840D01*
X122746014Y-92386277D01*
X122595670Y-92221051D01*
X122591619Y-92217852D01*
X122591615Y-92217848D01*
X122424414Y-92085800D01*
X122424410Y-92085798D01*
X122420359Y-92082598D01*
X122379053Y-92059796D01*
X122329084Y-92009364D01*
X122314312Y-91939921D01*
X122339428Y-91873516D01*
X122366780Y-91846909D01*
X122423674Y-91806327D01*
X122545860Y-91719173D01*
X122704096Y-91561489D01*
X122763594Y-91478689D01*
X122831435Y-91384277D01*
X122834453Y-91380077D01*
X122923723Y-91199453D01*
X122931136Y-91184453D01*
X122931137Y-91184451D01*
X122933430Y-91179811D01*
X122965900Y-91072940D01*
X122996865Y-90971023D01*
X122996865Y-90971021D01*
X122998370Y-90966069D01*
X123027529Y-90744590D01*
X123028790Y-90693000D01*
X123029074Y-90681365D01*
X123029074Y-90681361D01*
X123029156Y-90678000D01*
X123010852Y-90455361D01*
X122956431Y-90238702D01*
X122867354Y-90033840D01*
X122746014Y-89846277D01*
X122595670Y-89681051D01*
X122591619Y-89677852D01*
X122591615Y-89677848D01*
X122424414Y-89545800D01*
X122424410Y-89545798D01*
X122420359Y-89542598D01*
X122379053Y-89519796D01*
X122329084Y-89469364D01*
X122314312Y-89399921D01*
X122339428Y-89333516D01*
X122366780Y-89306909D01*
X122423674Y-89266327D01*
X122545860Y-89179173D01*
X122704096Y-89021489D01*
X122763594Y-88938689D01*
X122831435Y-88844277D01*
X122834453Y-88840077D01*
X122923723Y-88659453D01*
X122931136Y-88644453D01*
X122931137Y-88644451D01*
X122933430Y-88639811D01*
X122965900Y-88532940D01*
X122996865Y-88431023D01*
X122996865Y-88431021D01*
X122998370Y-88426069D01*
X123027529Y-88204590D01*
X123028790Y-88153000D01*
X123029074Y-88141365D01*
X123029074Y-88141361D01*
X123029156Y-88138000D01*
X123010852Y-87915361D01*
X122956431Y-87698702D01*
X122867354Y-87493840D01*
X122746014Y-87306277D01*
X122595670Y-87141051D01*
X122591619Y-87137852D01*
X122591615Y-87137848D01*
X122424414Y-87005800D01*
X122424410Y-87005798D01*
X122420359Y-87002598D01*
X122379053Y-86979796D01*
X122329084Y-86929364D01*
X122314312Y-86859921D01*
X122339428Y-86793516D01*
X122366780Y-86766909D01*
X122423674Y-86726327D01*
X122545860Y-86639173D01*
X122704096Y-86481489D01*
X122763594Y-86398689D01*
X122831435Y-86304277D01*
X122834453Y-86300077D01*
X122923723Y-86119453D01*
X122931136Y-86104453D01*
X122931137Y-86104451D01*
X122933430Y-86099811D01*
X122965900Y-85992940D01*
X122996865Y-85891023D01*
X122996865Y-85891021D01*
X122998370Y-85886069D01*
X123027529Y-85664590D01*
X123028790Y-85613000D01*
X123029074Y-85601365D01*
X123029074Y-85601361D01*
X123029156Y-85598000D01*
X123010852Y-85375361D01*
X122956431Y-85158702D01*
X122867354Y-84953840D01*
X122746014Y-84766277D01*
X122742532Y-84762450D01*
X122598798Y-84604488D01*
X122567746Y-84540642D01*
X122576141Y-84470143D01*
X122621317Y-84415375D01*
X122647761Y-84401706D01*
X122754297Y-84361767D01*
X122762705Y-84358615D01*
X122879261Y-84271261D01*
X122966615Y-84154705D01*
X123017745Y-84018316D01*
X123024500Y-83956134D01*
X123024500Y-82262695D01*
X126399251Y-82262695D01*
X126399548Y-82267848D01*
X126399548Y-82267851D01*
X126410013Y-82449342D01*
X126412110Y-82485715D01*
X126413247Y-82490761D01*
X126413248Y-82490767D01*
X126433119Y-82578939D01*
X126461222Y-82703639D01*
X126545266Y-82910616D01*
X126547965Y-82915020D01*
X126648817Y-83079596D01*
X126661987Y-83101088D01*
X126808250Y-83269938D01*
X126980126Y-83412632D01*
X127173000Y-83525338D01*
X127381692Y-83605030D01*
X127386760Y-83606061D01*
X127386763Y-83606062D01*
X127494017Y-83627883D01*
X127600597Y-83649567D01*
X127605772Y-83649757D01*
X127605774Y-83649757D01*
X127818673Y-83657564D01*
X127818677Y-83657564D01*
X127823837Y-83657753D01*
X127828957Y-83657097D01*
X127828959Y-83657097D01*
X128040288Y-83630025D01*
X128040289Y-83630025D01*
X128045416Y-83629368D01*
X128050366Y-83627883D01*
X128254429Y-83566661D01*
X128254434Y-83566659D01*
X128259384Y-83565174D01*
X128459994Y-83466896D01*
X128641860Y-83337173D01*
X128687577Y-83291616D01*
X128796435Y-83183137D01*
X128800096Y-83179489D01*
X128831174Y-83136240D01*
X128927435Y-83002277D01*
X128930453Y-82998077D01*
X128946767Y-82965069D01*
X129027136Y-82802453D01*
X129027137Y-82802451D01*
X129029430Y-82797811D01*
X129076254Y-82643695D01*
X153831251Y-82643695D01*
X153831548Y-82648848D01*
X153831548Y-82648851D01*
X153842878Y-82845342D01*
X153844110Y-82866715D01*
X153845247Y-82871761D01*
X153845248Y-82871767D01*
X153854996Y-82915020D01*
X153893222Y-83084639D01*
X153933218Y-83183137D01*
X153968464Y-83269938D01*
X153977266Y-83291616D01*
X154016683Y-83355939D01*
X154090009Y-83475596D01*
X154093987Y-83482088D01*
X154240250Y-83650938D01*
X154244230Y-83654242D01*
X154248981Y-83658187D01*
X154288616Y-83717090D01*
X154290113Y-83788071D01*
X154252997Y-83848593D01*
X154212724Y-83873112D01*
X154097295Y-83916385D01*
X153980739Y-84003739D01*
X153893385Y-84120295D01*
X153842255Y-84256684D01*
X153835500Y-84318866D01*
X153835500Y-86115134D01*
X153842255Y-86177316D01*
X153893385Y-86313705D01*
X153980739Y-86430261D01*
X154097295Y-86517615D01*
X154233684Y-86568745D01*
X154295866Y-86575500D01*
X156092134Y-86575500D01*
X156154316Y-86568745D01*
X156290705Y-86517615D01*
X156407261Y-86430261D01*
X156494615Y-86313705D01*
X156545745Y-86177316D01*
X156552500Y-86115134D01*
X156552500Y-84318866D01*
X156545745Y-84256684D01*
X156494615Y-84120295D01*
X156407261Y-84003739D01*
X156290705Y-83916385D01*
X156278132Y-83911672D01*
X156172203Y-83871960D01*
X156115439Y-83829318D01*
X156090739Y-83762756D01*
X156105947Y-83693408D01*
X156127493Y-83664727D01*
X156134056Y-83658187D01*
X156232096Y-83560489D01*
X156257355Y-83525338D01*
X156359435Y-83383277D01*
X156362453Y-83379077D01*
X156373889Y-83355939D01*
X156459136Y-83183453D01*
X156459137Y-83183451D01*
X156461430Y-83178811D01*
X156526370Y-82965069D01*
X156555529Y-82743590D01*
X156556505Y-82703639D01*
X156557074Y-82680365D01*
X156557074Y-82680361D01*
X156557156Y-82677000D01*
X156538852Y-82454361D01*
X156484431Y-82237702D01*
X156395354Y-82032840D01*
X156318989Y-81914797D01*
X156276822Y-81849617D01*
X156276820Y-81849614D01*
X156274014Y-81845277D01*
X156123670Y-81680051D01*
X156119619Y-81676852D01*
X156119615Y-81676848D01*
X155952414Y-81544800D01*
X155952410Y-81544798D01*
X155948359Y-81541598D01*
X155907053Y-81518796D01*
X155857084Y-81468364D01*
X155842312Y-81398921D01*
X155867428Y-81332516D01*
X155894780Y-81305909D01*
X155940174Y-81273530D01*
X156073860Y-81178173D01*
X156088284Y-81163800D01*
X156199834Y-81052638D01*
X156232096Y-81020489D01*
X156257355Y-80985338D01*
X156359435Y-80843277D01*
X156362453Y-80839077D01*
X156373889Y-80815939D01*
X156459136Y-80643453D01*
X156459137Y-80643451D01*
X156461430Y-80638811D01*
X156526370Y-80425069D01*
X156555529Y-80203590D01*
X156556505Y-80163639D01*
X156557074Y-80140365D01*
X156557074Y-80140361D01*
X156557156Y-80137000D01*
X156538852Y-79914361D01*
X156484431Y-79697702D01*
X156395354Y-79492840D01*
X156322036Y-79379507D01*
X156276822Y-79309617D01*
X156276820Y-79309614D01*
X156274014Y-79305277D01*
X156123670Y-79140051D01*
X156119619Y-79136852D01*
X156119615Y-79136848D01*
X155952414Y-79004800D01*
X155952410Y-79004798D01*
X155948359Y-79001598D01*
X155907053Y-78978796D01*
X155857084Y-78928364D01*
X155842312Y-78858921D01*
X155867428Y-78792516D01*
X155894780Y-78765909D01*
X155959680Y-78719616D01*
X156073860Y-78638173D01*
X156088284Y-78623800D01*
X156213162Y-78499357D01*
X156232096Y-78480489D01*
X156257355Y-78445338D01*
X156359435Y-78303277D01*
X156362453Y-78299077D01*
X156381682Y-78260171D01*
X156459136Y-78103453D01*
X156459137Y-78103451D01*
X156461430Y-78098811D01*
X156526370Y-77885069D01*
X156555529Y-77663590D01*
X156556505Y-77623639D01*
X156557074Y-77600365D01*
X156557074Y-77600361D01*
X156557156Y-77597000D01*
X156538852Y-77374361D01*
X156484431Y-77157702D01*
X156395354Y-76952840D01*
X156327761Y-76848357D01*
X156276822Y-76769617D01*
X156276820Y-76769614D01*
X156274014Y-76765277D01*
X156123670Y-76600051D01*
X156119619Y-76596852D01*
X156119615Y-76596848D01*
X155952414Y-76464800D01*
X155952410Y-76464798D01*
X155948359Y-76461598D01*
X155907053Y-76438796D01*
X155857084Y-76388364D01*
X155842312Y-76318921D01*
X155867428Y-76252516D01*
X155894780Y-76225909D01*
X155959680Y-76179616D01*
X156073860Y-76098173D01*
X156088284Y-76083800D01*
X156213162Y-75959357D01*
X156232096Y-75940489D01*
X156257355Y-75905338D01*
X156359435Y-75763277D01*
X156362453Y-75759077D01*
X156381682Y-75720171D01*
X156459136Y-75563453D01*
X156459137Y-75563451D01*
X156461430Y-75558811D01*
X156526370Y-75345069D01*
X156555529Y-75123590D01*
X156556505Y-75083639D01*
X156557074Y-75060365D01*
X156557074Y-75060361D01*
X156557156Y-75057000D01*
X156538852Y-74834361D01*
X156484431Y-74617702D01*
X156395354Y-74412840D01*
X156327761Y-74308357D01*
X156276822Y-74229617D01*
X156276820Y-74229614D01*
X156274014Y-74225277D01*
X156123670Y-74060051D01*
X156119619Y-74056852D01*
X156119615Y-74056848D01*
X155952414Y-73924800D01*
X155952410Y-73924798D01*
X155948359Y-73921598D01*
X155907053Y-73898796D01*
X155857084Y-73848364D01*
X155842312Y-73778921D01*
X155867428Y-73712516D01*
X155894780Y-73685909D01*
X155959680Y-73639616D01*
X156073860Y-73558173D01*
X156088284Y-73543800D01*
X156213162Y-73419357D01*
X156232096Y-73400489D01*
X156257355Y-73365338D01*
X156359435Y-73223277D01*
X156362453Y-73219077D01*
X156381682Y-73180171D01*
X156459136Y-73023453D01*
X156459137Y-73023451D01*
X156461430Y-73018811D01*
X156526370Y-72805069D01*
X156555529Y-72583590D01*
X156556505Y-72543639D01*
X156557074Y-72520365D01*
X156557074Y-72520361D01*
X156557156Y-72517000D01*
X156538852Y-72294361D01*
X156484431Y-72077702D01*
X156395354Y-71872840D01*
X156327761Y-71768357D01*
X156276822Y-71689617D01*
X156276820Y-71689614D01*
X156274014Y-71685277D01*
X156123670Y-71520051D01*
X156119619Y-71516852D01*
X156119615Y-71516848D01*
X155952414Y-71384800D01*
X155952410Y-71384798D01*
X155948359Y-71381598D01*
X155907053Y-71358796D01*
X155857084Y-71308364D01*
X155842312Y-71238921D01*
X155867428Y-71172516D01*
X155894780Y-71145909D01*
X155953823Y-71103794D01*
X156073860Y-71018173D01*
X156088284Y-71003800D01*
X156199834Y-70892638D01*
X156232096Y-70860489D01*
X156257355Y-70825338D01*
X156359435Y-70683277D01*
X156362453Y-70679077D01*
X156381682Y-70640171D01*
X156459136Y-70483453D01*
X156459137Y-70483451D01*
X156461430Y-70478811D01*
X156526370Y-70265069D01*
X156555529Y-70043590D01*
X156556505Y-70003639D01*
X156557074Y-69980365D01*
X156557074Y-69980361D01*
X156557156Y-69977000D01*
X156538852Y-69754361D01*
X156484431Y-69537702D01*
X156395354Y-69332840D01*
X156313929Y-69206976D01*
X156276822Y-69149617D01*
X156276820Y-69149614D01*
X156274014Y-69145277D01*
X156123670Y-68980051D01*
X156119619Y-68976852D01*
X156119615Y-68976848D01*
X155952414Y-68844800D01*
X155952410Y-68844798D01*
X155948359Y-68841598D01*
X155907053Y-68818796D01*
X155857084Y-68768364D01*
X155842312Y-68698921D01*
X155867428Y-68632516D01*
X155894780Y-68605909D01*
X155953823Y-68563794D01*
X156073860Y-68478173D01*
X156088284Y-68463800D01*
X156199834Y-68352638D01*
X156232096Y-68320489D01*
X156257355Y-68285338D01*
X156359435Y-68143277D01*
X156362453Y-68139077D01*
X156381682Y-68100171D01*
X156459136Y-67943453D01*
X156459137Y-67943451D01*
X156461430Y-67938811D01*
X156526370Y-67725069D01*
X156555529Y-67503590D01*
X156556505Y-67463639D01*
X156557074Y-67440365D01*
X156557074Y-67440361D01*
X156557156Y-67437000D01*
X156538852Y-67214361D01*
X156484431Y-66997702D01*
X156395354Y-66792840D01*
X156285895Y-66623642D01*
X156276822Y-66609617D01*
X156276820Y-66609614D01*
X156274014Y-66605277D01*
X156123670Y-66440051D01*
X156119619Y-66436852D01*
X156119615Y-66436848D01*
X155952414Y-66304800D01*
X155952410Y-66304798D01*
X155948359Y-66301598D01*
X155752789Y-66193638D01*
X155747920Y-66191914D01*
X155747916Y-66191912D01*
X155547087Y-66120795D01*
X155547083Y-66120794D01*
X155542212Y-66119069D01*
X155537119Y-66118162D01*
X155537116Y-66118161D01*
X155327373Y-66080800D01*
X155327367Y-66080799D01*
X155322284Y-66079894D01*
X155248452Y-66078992D01*
X155104081Y-66077228D01*
X155104079Y-66077228D01*
X155098911Y-66077165D01*
X154878091Y-66110955D01*
X154665756Y-66180357D01*
X154467607Y-66283507D01*
X154463474Y-66286610D01*
X154463471Y-66286612D01*
X154302474Y-66407492D01*
X154288965Y-66417635D01*
X154285393Y-66421373D01*
X154216212Y-66493767D01*
X154134629Y-66579138D01*
X154131715Y-66583410D01*
X154131714Y-66583411D01*
X154104270Y-66623642D01*
X154008743Y-66763680D01*
X153914688Y-66966305D01*
X153854989Y-67181570D01*
X153831251Y-67403695D01*
X153831548Y-67408848D01*
X153831548Y-67408851D01*
X153841552Y-67582357D01*
X153844110Y-67626715D01*
X153845247Y-67631761D01*
X153845248Y-67631767D01*
X153862158Y-67706800D01*
X153893222Y-67844639D01*
X153933218Y-67943137D01*
X153968464Y-68029938D01*
X153977266Y-68051616D01*
X154028019Y-68134438D01*
X154083460Y-68224909D01*
X154093987Y-68242088D01*
X154240250Y-68410938D01*
X154412126Y-68553632D01*
X154451491Y-68576635D01*
X154485445Y-68596476D01*
X154534169Y-68648114D01*
X154547240Y-68717897D01*
X154520509Y-68783669D01*
X154480055Y-68817027D01*
X154467607Y-68823507D01*
X154463474Y-68826610D01*
X154463471Y-68826612D01*
X154302474Y-68947492D01*
X154288965Y-68957635D01*
X154285393Y-68961373D01*
X154216212Y-69033767D01*
X154134629Y-69119138D01*
X154131715Y-69123410D01*
X154131714Y-69123411D01*
X154074710Y-69206976D01*
X154008743Y-69303680D01*
X153978728Y-69368342D01*
X153921217Y-69492240D01*
X153914688Y-69506305D01*
X153854989Y-69721570D01*
X153831251Y-69943695D01*
X153831548Y-69948848D01*
X153831548Y-69948851D01*
X153841552Y-70122357D01*
X153844110Y-70166715D01*
X153845247Y-70171761D01*
X153845248Y-70171767D01*
X153862158Y-70246800D01*
X153893222Y-70384639D01*
X153933218Y-70483137D01*
X153968464Y-70569938D01*
X153977266Y-70591616D01*
X154028019Y-70674438D01*
X154083460Y-70764909D01*
X154093987Y-70782088D01*
X154240250Y-70950938D01*
X154412126Y-71093632D01*
X154451491Y-71116635D01*
X154485445Y-71136476D01*
X154534169Y-71188114D01*
X154547240Y-71257897D01*
X154520509Y-71323669D01*
X154480055Y-71357027D01*
X154467607Y-71363507D01*
X154463474Y-71366610D01*
X154463471Y-71366612D01*
X154302474Y-71487492D01*
X154288965Y-71497635D01*
X154285393Y-71501373D01*
X154216212Y-71573767D01*
X154134629Y-71659138D01*
X154131715Y-71663410D01*
X154131714Y-71663411D01*
X154060125Y-71768357D01*
X154008743Y-71843680D01*
X153978728Y-71908342D01*
X153935008Y-72002530D01*
X153914688Y-72046305D01*
X153854989Y-72261570D01*
X153831251Y-72483695D01*
X153831548Y-72488848D01*
X153831548Y-72488851D01*
X153841552Y-72662357D01*
X153844110Y-72706715D01*
X153845247Y-72711761D01*
X153845248Y-72711767D01*
X153862158Y-72786800D01*
X153893222Y-72924639D01*
X153947131Y-73057401D01*
X153968464Y-73109938D01*
X153977266Y-73131616D01*
X154025022Y-73209547D01*
X154085317Y-73307939D01*
X154093987Y-73322088D01*
X154240250Y-73490938D01*
X154412126Y-73633632D01*
X154451491Y-73656635D01*
X154485445Y-73676476D01*
X154534169Y-73728114D01*
X154547240Y-73797897D01*
X154520509Y-73863669D01*
X154480055Y-73897027D01*
X154467607Y-73903507D01*
X154463474Y-73906610D01*
X154463471Y-73906612D01*
X154302474Y-74027492D01*
X154288965Y-74037635D01*
X154225978Y-74103547D01*
X154216212Y-74113767D01*
X154134629Y-74199138D01*
X154131715Y-74203410D01*
X154131714Y-74203411D01*
X154069820Y-74294144D01*
X154008743Y-74383680D01*
X153978728Y-74448342D01*
X153935008Y-74542530D01*
X153914688Y-74586305D01*
X153854989Y-74801570D01*
X153831251Y-75023695D01*
X153831548Y-75028848D01*
X153831548Y-75028851D01*
X153837202Y-75126908D01*
X153844110Y-75246715D01*
X153845247Y-75251761D01*
X153845248Y-75251767D01*
X153854996Y-75295020D01*
X153893222Y-75464639D01*
X153954673Y-75615976D01*
X153968464Y-75649938D01*
X153977266Y-75671616D01*
X154025022Y-75749547D01*
X154085317Y-75847939D01*
X154093987Y-75862088D01*
X154240250Y-76030938D01*
X154412126Y-76173632D01*
X154451491Y-76196635D01*
X154485445Y-76216476D01*
X154534169Y-76268114D01*
X154547240Y-76337897D01*
X154520509Y-76403669D01*
X154480055Y-76437027D01*
X154467607Y-76443507D01*
X154463474Y-76446610D01*
X154463471Y-76446612D01*
X154302474Y-76567492D01*
X154288965Y-76577635D01*
X154134629Y-76739138D01*
X154131715Y-76743410D01*
X154131714Y-76743411D01*
X154069820Y-76834144D01*
X154008743Y-76923680D01*
X153978728Y-76988342D01*
X153935008Y-77082530D01*
X153914688Y-77126305D01*
X153854989Y-77341570D01*
X153831251Y-77563695D01*
X153831548Y-77568848D01*
X153831548Y-77568851D01*
X153837202Y-77666908D01*
X153844110Y-77786715D01*
X153845247Y-77791761D01*
X153845248Y-77791767D01*
X153854996Y-77835020D01*
X153893222Y-78004639D01*
X153954673Y-78155976D01*
X153968464Y-78189938D01*
X153977266Y-78211616D01*
X154025022Y-78289547D01*
X154085317Y-78387939D01*
X154093987Y-78402088D01*
X154240250Y-78570938D01*
X154412126Y-78713632D01*
X154451491Y-78736635D01*
X154485445Y-78756476D01*
X154534169Y-78808114D01*
X154547240Y-78877897D01*
X154520509Y-78943669D01*
X154480055Y-78977027D01*
X154467607Y-78983507D01*
X154463474Y-78986610D01*
X154463471Y-78986612D01*
X154326164Y-79089705D01*
X154288965Y-79117635D01*
X154134629Y-79279138D01*
X154131715Y-79283410D01*
X154131714Y-79283411D01*
X154098752Y-79331731D01*
X154008743Y-79463680D01*
X153914688Y-79666305D01*
X153854989Y-79881570D01*
X153831251Y-80103695D01*
X153831548Y-80108848D01*
X153831548Y-80108851D01*
X153842878Y-80305342D01*
X153844110Y-80326715D01*
X153845247Y-80331761D01*
X153845248Y-80331767D01*
X153854996Y-80375020D01*
X153893222Y-80544639D01*
X153933218Y-80643137D01*
X153968464Y-80729938D01*
X153977266Y-80751616D01*
X154016683Y-80815939D01*
X154090009Y-80935596D01*
X154093987Y-80942088D01*
X154240250Y-81110938D01*
X154412126Y-81253632D01*
X154451491Y-81276635D01*
X154485445Y-81296476D01*
X154534169Y-81348114D01*
X154547240Y-81417897D01*
X154520509Y-81483669D01*
X154480055Y-81517027D01*
X154467607Y-81523507D01*
X154463474Y-81526610D01*
X154463471Y-81526612D01*
X154293100Y-81654530D01*
X154288965Y-81657635D01*
X154285393Y-81661373D01*
X154148334Y-81804797D01*
X154134629Y-81819138D01*
X154131715Y-81823410D01*
X154131714Y-81823411D01*
X154070582Y-81913027D01*
X154008743Y-82003680D01*
X153914688Y-82206305D01*
X153854989Y-82421570D01*
X153831251Y-82643695D01*
X129076254Y-82643695D01*
X129087313Y-82607297D01*
X129092865Y-82589023D01*
X129092865Y-82589021D01*
X129094370Y-82584069D01*
X129123529Y-82362590D01*
X129125156Y-82296000D01*
X129106852Y-82073361D01*
X129052431Y-81856702D01*
X128963354Y-81651840D01*
X128890422Y-81539104D01*
X128844822Y-81468617D01*
X128844820Y-81468614D01*
X128842014Y-81464277D01*
X128691670Y-81299051D01*
X128687619Y-81295852D01*
X128687615Y-81295848D01*
X128520414Y-81163800D01*
X128520410Y-81163798D01*
X128516359Y-81160598D01*
X128475053Y-81137796D01*
X128425084Y-81087364D01*
X128410312Y-81017921D01*
X128435428Y-80951516D01*
X128462780Y-80924909D01*
X128506603Y-80893650D01*
X128641860Y-80797173D01*
X128687577Y-80751616D01*
X128796435Y-80643137D01*
X128800096Y-80639489D01*
X128831174Y-80596240D01*
X128927435Y-80462277D01*
X128930453Y-80458077D01*
X128946767Y-80425069D01*
X129027136Y-80262453D01*
X129027137Y-80262451D01*
X129029430Y-80257811D01*
X129087313Y-80067297D01*
X129092865Y-80049023D01*
X129092865Y-80049021D01*
X129094370Y-80044069D01*
X129123529Y-79822590D01*
X129125156Y-79756000D01*
X129106852Y-79533361D01*
X129052431Y-79316702D01*
X128963354Y-79111840D01*
X128883555Y-78988489D01*
X128844822Y-78928617D01*
X128844820Y-78928614D01*
X128842014Y-78924277D01*
X128691670Y-78759051D01*
X128687619Y-78755852D01*
X128687615Y-78755848D01*
X128520414Y-78623800D01*
X128520410Y-78623798D01*
X128516359Y-78620598D01*
X128475053Y-78597796D01*
X128425084Y-78547364D01*
X128410312Y-78477921D01*
X128435428Y-78411516D01*
X128462780Y-78384909D01*
X128506603Y-78353650D01*
X128641860Y-78257173D01*
X128687577Y-78211616D01*
X128791189Y-78108365D01*
X128800096Y-78099489D01*
X128859594Y-78016689D01*
X128927435Y-77922277D01*
X128930453Y-77918077D01*
X128946767Y-77885069D01*
X129027136Y-77722453D01*
X129027137Y-77722451D01*
X129029430Y-77717811D01*
X129094370Y-77504069D01*
X129123529Y-77282590D01*
X129125156Y-77216000D01*
X129106852Y-76993361D01*
X129052431Y-76776702D01*
X128963354Y-76571840D01*
X128883555Y-76448489D01*
X128844822Y-76388617D01*
X128844820Y-76388614D01*
X128842014Y-76384277D01*
X128691670Y-76219051D01*
X128687619Y-76215852D01*
X128687615Y-76215848D01*
X128520414Y-76083800D01*
X128520410Y-76083798D01*
X128516359Y-76080598D01*
X128475053Y-76057796D01*
X128425084Y-76007364D01*
X128410312Y-75937921D01*
X128435428Y-75871516D01*
X128462780Y-75844909D01*
X128521154Y-75803271D01*
X128641860Y-75717173D01*
X128687577Y-75671616D01*
X128791189Y-75568365D01*
X128800096Y-75559489D01*
X128859594Y-75476689D01*
X128927435Y-75382277D01*
X128930453Y-75378077D01*
X128946767Y-75345069D01*
X129027136Y-75182453D01*
X129027137Y-75182451D01*
X129029430Y-75177811D01*
X129094370Y-74964069D01*
X129123529Y-74742590D01*
X129125156Y-74676000D01*
X129106852Y-74453361D01*
X129052431Y-74236702D01*
X128963354Y-74031840D01*
X128894107Y-73924800D01*
X128844822Y-73848617D01*
X128844820Y-73848614D01*
X128842014Y-73844277D01*
X128691670Y-73679051D01*
X128687619Y-73675852D01*
X128687615Y-73675848D01*
X128520414Y-73543800D01*
X128520410Y-73543798D01*
X128516359Y-73540598D01*
X128475053Y-73517796D01*
X128425084Y-73467364D01*
X128410312Y-73397921D01*
X128435428Y-73331516D01*
X128462780Y-73304909D01*
X128511031Y-73270492D01*
X128641860Y-73177173D01*
X128687577Y-73131616D01*
X128724413Y-73094908D01*
X128800096Y-73019489D01*
X128859594Y-72936689D01*
X128927435Y-72842277D01*
X128930453Y-72838077D01*
X128946767Y-72805069D01*
X129027136Y-72642453D01*
X129027137Y-72642451D01*
X129029430Y-72637811D01*
X129094370Y-72424069D01*
X129123529Y-72202590D01*
X129125156Y-72136000D01*
X129106852Y-71913361D01*
X129052431Y-71696702D01*
X128963354Y-71491840D01*
X128894107Y-71384800D01*
X128844822Y-71308617D01*
X128844820Y-71308614D01*
X128842014Y-71304277D01*
X128691670Y-71139051D01*
X128687619Y-71135852D01*
X128687615Y-71135848D01*
X128520414Y-71003800D01*
X128520410Y-71003798D01*
X128516359Y-71000598D01*
X128475053Y-70977796D01*
X128425084Y-70927364D01*
X128410312Y-70857921D01*
X128435428Y-70791516D01*
X128462780Y-70764909D01*
X128511031Y-70730492D01*
X128641860Y-70637173D01*
X128687577Y-70591616D01*
X128723209Y-70556107D01*
X128800096Y-70479489D01*
X128859594Y-70396689D01*
X128927435Y-70302277D01*
X128930453Y-70298077D01*
X128946767Y-70265069D01*
X129027136Y-70102453D01*
X129027137Y-70102451D01*
X129029430Y-70097811D01*
X129094370Y-69884069D01*
X129123529Y-69662590D01*
X129125156Y-69596000D01*
X129106852Y-69373361D01*
X129052431Y-69156702D01*
X128963354Y-68951840D01*
X128894107Y-68844800D01*
X128844822Y-68768617D01*
X128844820Y-68768614D01*
X128842014Y-68764277D01*
X128691670Y-68599051D01*
X128687619Y-68595852D01*
X128687615Y-68595848D01*
X128520414Y-68463800D01*
X128520410Y-68463798D01*
X128516359Y-68460598D01*
X128475053Y-68437796D01*
X128425084Y-68387364D01*
X128410312Y-68317921D01*
X128435428Y-68251516D01*
X128462780Y-68224909D01*
X128511031Y-68190492D01*
X128641860Y-68097173D01*
X128687577Y-68051616D01*
X128723209Y-68016107D01*
X128800096Y-67939489D01*
X128859594Y-67856689D01*
X128927435Y-67762277D01*
X128930453Y-67758077D01*
X128946767Y-67725069D01*
X129027136Y-67562453D01*
X129027137Y-67562451D01*
X129029430Y-67557811D01*
X129094370Y-67344069D01*
X129123529Y-67122590D01*
X129125156Y-67056000D01*
X129106852Y-66833361D01*
X129052431Y-66616702D01*
X128963354Y-66411840D01*
X128893029Y-66303134D01*
X128844822Y-66228617D01*
X128844820Y-66228614D01*
X128842014Y-66224277D01*
X128838532Y-66220450D01*
X128694798Y-66062488D01*
X128663746Y-65998642D01*
X128672141Y-65928143D01*
X128717317Y-65873375D01*
X128743761Y-65859706D01*
X128850297Y-65819767D01*
X128858705Y-65816615D01*
X128975261Y-65729261D01*
X129062615Y-65612705D01*
X129113745Y-65476316D01*
X129120500Y-65414134D01*
X129120500Y-63617866D01*
X129113745Y-63555684D01*
X129062615Y-63419295D01*
X128975261Y-63302739D01*
X128858705Y-63215385D01*
X128722316Y-63164255D01*
X128660134Y-63157500D01*
X126863866Y-63157500D01*
X126801684Y-63164255D01*
X126665295Y-63215385D01*
X126548739Y-63302739D01*
X126461385Y-63419295D01*
X126410255Y-63555684D01*
X126403500Y-63617866D01*
X126403500Y-65414134D01*
X126410255Y-65476316D01*
X126461385Y-65612705D01*
X126548739Y-65729261D01*
X126665295Y-65816615D01*
X126673704Y-65819767D01*
X126673705Y-65819768D01*
X126782451Y-65860535D01*
X126839216Y-65903176D01*
X126863916Y-65969738D01*
X126848709Y-66039087D01*
X126829316Y-66065568D01*
X126721157Y-66178750D01*
X126702629Y-66198138D01*
X126699715Y-66202410D01*
X126699714Y-66202411D01*
X126632053Y-66301598D01*
X126576743Y-66382680D01*
X126548340Y-66443870D01*
X126485551Y-66579138D01*
X126482688Y-66585305D01*
X126422989Y-66800570D01*
X126399251Y-67022695D01*
X126399548Y-67027848D01*
X126399548Y-67027851D01*
X126405011Y-67122590D01*
X126412110Y-67245715D01*
X126413247Y-67250761D01*
X126413248Y-67250767D01*
X126423609Y-67296739D01*
X126461222Y-67463639D01*
X126545266Y-67670616D01*
X126550420Y-67679027D01*
X126648817Y-67839596D01*
X126661987Y-67861088D01*
X126808250Y-68029938D01*
X126980126Y-68172632D01*
X127048434Y-68212548D01*
X127053445Y-68215476D01*
X127102169Y-68267114D01*
X127115240Y-68336897D01*
X127088509Y-68402669D01*
X127048055Y-68436027D01*
X127035607Y-68442507D01*
X127031474Y-68445610D01*
X127031471Y-68445612D01*
X126861100Y-68573530D01*
X126856965Y-68576635D01*
X126835544Y-68599051D01*
X126733175Y-68706174D01*
X126702629Y-68738138D01*
X126699715Y-68742410D01*
X126699714Y-68742411D01*
X126648815Y-68817027D01*
X126576743Y-68922680D01*
X126549143Y-68982139D01*
X126485551Y-69119138D01*
X126482688Y-69125305D01*
X126422989Y-69340570D01*
X126399251Y-69562695D01*
X126399548Y-69567848D01*
X126399548Y-69567851D01*
X126405011Y-69662590D01*
X126412110Y-69785715D01*
X126413247Y-69790761D01*
X126413248Y-69790767D01*
X126423609Y-69836739D01*
X126461222Y-70003639D01*
X126545266Y-70210616D01*
X126550420Y-70219027D01*
X126648817Y-70379596D01*
X126661987Y-70401088D01*
X126808250Y-70569938D01*
X126980126Y-70712632D01*
X127010690Y-70730492D01*
X127053445Y-70755476D01*
X127102169Y-70807114D01*
X127115240Y-70876897D01*
X127088509Y-70942669D01*
X127048055Y-70976027D01*
X127035607Y-70982507D01*
X127031474Y-70985610D01*
X127031471Y-70985612D01*
X126861100Y-71113530D01*
X126856965Y-71116635D01*
X126835544Y-71139051D01*
X126733175Y-71246174D01*
X126702629Y-71278138D01*
X126699715Y-71282410D01*
X126699714Y-71282411D01*
X126648815Y-71357027D01*
X126576743Y-71462680D01*
X126549143Y-71522139D01*
X126485551Y-71659138D01*
X126482688Y-71665305D01*
X126422989Y-71880570D01*
X126399251Y-72102695D01*
X126399548Y-72107848D01*
X126399548Y-72107851D01*
X126405011Y-72202590D01*
X126412110Y-72325715D01*
X126413247Y-72330761D01*
X126413248Y-72330767D01*
X126432576Y-72416529D01*
X126461222Y-72543639D01*
X126545266Y-72750616D01*
X126547965Y-72755020D01*
X126648817Y-72919596D01*
X126661987Y-72941088D01*
X126808250Y-73109938D01*
X126980126Y-73252632D01*
X127010690Y-73270492D01*
X127053445Y-73295476D01*
X127102169Y-73347114D01*
X127115240Y-73416897D01*
X127088509Y-73482669D01*
X127048055Y-73516027D01*
X127035607Y-73522507D01*
X127031474Y-73525610D01*
X127031471Y-73525612D01*
X126861100Y-73653530D01*
X126856965Y-73656635D01*
X126835544Y-73679051D01*
X126733175Y-73786174D01*
X126702629Y-73818138D01*
X126699715Y-73822410D01*
X126699714Y-73822411D01*
X126648815Y-73897027D01*
X126576743Y-74002680D01*
X126548962Y-74062529D01*
X126485551Y-74199138D01*
X126482688Y-74205305D01*
X126422989Y-74420570D01*
X126399251Y-74642695D01*
X126399548Y-74647848D01*
X126399548Y-74647851D01*
X126405011Y-74742590D01*
X126412110Y-74865715D01*
X126413247Y-74870761D01*
X126413248Y-74870767D01*
X126432576Y-74956529D01*
X126461222Y-75083639D01*
X126545266Y-75290616D01*
X126547965Y-75295020D01*
X126648817Y-75459596D01*
X126661987Y-75481088D01*
X126808250Y-75649938D01*
X126980126Y-75792632D01*
X126998333Y-75803271D01*
X127053445Y-75835476D01*
X127102169Y-75887114D01*
X127115240Y-75956897D01*
X127088509Y-76022669D01*
X127048055Y-76056027D01*
X127035607Y-76062507D01*
X127031474Y-76065610D01*
X127031471Y-76065612D01*
X126861100Y-76193530D01*
X126856965Y-76196635D01*
X126823358Y-76231803D01*
X126713751Y-76346500D01*
X126702629Y-76358138D01*
X126699715Y-76362410D01*
X126699714Y-76362411D01*
X126687404Y-76380457D01*
X126576743Y-76542680D01*
X126531382Y-76640402D01*
X126485551Y-76739138D01*
X126482688Y-76745305D01*
X126422989Y-76960570D01*
X126399251Y-77182695D01*
X126399548Y-77187848D01*
X126399548Y-77187851D01*
X126405011Y-77282590D01*
X126412110Y-77405715D01*
X126413247Y-77410761D01*
X126413248Y-77410767D01*
X126433119Y-77498939D01*
X126461222Y-77623639D01*
X126545266Y-77830616D01*
X126547965Y-77835020D01*
X126648817Y-77999596D01*
X126661987Y-78021088D01*
X126808250Y-78189938D01*
X126980126Y-78332632D01*
X127050595Y-78373811D01*
X127053445Y-78375476D01*
X127102169Y-78427114D01*
X127115240Y-78496897D01*
X127088509Y-78562669D01*
X127048055Y-78596027D01*
X127035607Y-78602507D01*
X127031474Y-78605610D01*
X127031471Y-78605612D01*
X126861100Y-78733530D01*
X126856965Y-78736635D01*
X126835544Y-78759051D01*
X126712588Y-78887717D01*
X126702629Y-78898138D01*
X126699715Y-78902410D01*
X126699714Y-78902411D01*
X126687404Y-78920457D01*
X126576743Y-79082680D01*
X126548962Y-79142529D01*
X126485551Y-79279138D01*
X126482688Y-79285305D01*
X126422989Y-79500570D01*
X126399251Y-79722695D01*
X126399548Y-79727848D01*
X126399548Y-79727851D01*
X126410013Y-79909342D01*
X126412110Y-79945715D01*
X126413247Y-79950761D01*
X126413248Y-79950767D01*
X126433119Y-80038939D01*
X126461222Y-80163639D01*
X126545266Y-80370616D01*
X126547965Y-80375020D01*
X126648817Y-80539596D01*
X126661987Y-80561088D01*
X126808250Y-80729938D01*
X126980126Y-80872632D01*
X127050595Y-80913811D01*
X127053445Y-80915476D01*
X127102169Y-80967114D01*
X127115240Y-81036897D01*
X127088509Y-81102669D01*
X127048055Y-81136027D01*
X127035607Y-81142507D01*
X127031474Y-81145610D01*
X127031471Y-81145612D01*
X126861100Y-81273530D01*
X126856965Y-81276635D01*
X126835544Y-81299051D01*
X126733175Y-81406174D01*
X126702629Y-81438138D01*
X126576743Y-81622680D01*
X126540913Y-81699869D01*
X126485551Y-81819138D01*
X126482688Y-81825305D01*
X126422989Y-82040570D01*
X126399251Y-82262695D01*
X123024500Y-82262695D01*
X123024500Y-82159866D01*
X123017745Y-82097684D01*
X122966615Y-81961295D01*
X122879261Y-81844739D01*
X122762705Y-81757385D01*
X122626316Y-81706255D01*
X122564134Y-81699500D01*
X120767866Y-81699500D01*
X120705684Y-81706255D01*
X120569295Y-81757385D01*
X120452739Y-81844739D01*
X120365385Y-81961295D01*
X120314255Y-82097684D01*
X120307500Y-82159866D01*
X120307500Y-83956134D01*
X120314255Y-84018316D01*
X120365385Y-84154705D01*
X120452739Y-84271261D01*
X120569295Y-84358615D01*
X120577704Y-84361767D01*
X120577705Y-84361768D01*
X120686451Y-84402535D01*
X120743216Y-84445176D01*
X120767916Y-84511738D01*
X120752709Y-84581087D01*
X120733316Y-84607568D01*
X120606629Y-84740138D01*
X120480743Y-84924680D01*
X120386688Y-85127305D01*
X120326989Y-85342570D01*
X120303251Y-85564695D01*
X120303548Y-85569848D01*
X120303548Y-85569851D01*
X120309876Y-85679590D01*
X120316110Y-85787715D01*
X120317247Y-85792761D01*
X120317248Y-85792767D01*
X120319490Y-85802715D01*
X120365222Y-86005639D01*
X120449266Y-86212616D01*
X120565987Y-86403088D01*
X120712250Y-86571938D01*
X120884126Y-86714632D01*
X120904140Y-86726327D01*
X120957445Y-86757476D01*
X121006169Y-86809114D01*
X121019240Y-86878897D01*
X120992509Y-86944669D01*
X120952055Y-86978027D01*
X120939607Y-86984507D01*
X120935474Y-86987610D01*
X120935471Y-86987612D01*
X120891269Y-87020800D01*
X120760965Y-87118635D01*
X120606629Y-87280138D01*
X120480743Y-87464680D01*
X120386688Y-87667305D01*
X120326989Y-87882570D01*
X120303251Y-88104695D01*
X120303548Y-88109848D01*
X120303548Y-88109851D01*
X120309876Y-88219590D01*
X120316110Y-88327715D01*
X120317247Y-88332761D01*
X120317248Y-88332767D01*
X120319490Y-88342715D01*
X120365222Y-88545639D01*
X120449266Y-88752616D01*
X120565987Y-88943088D01*
X120712250Y-89111938D01*
X120884126Y-89254632D01*
X120904140Y-89266327D01*
X120957445Y-89297476D01*
X121006169Y-89349114D01*
X121019240Y-89418897D01*
X120992509Y-89484669D01*
X120952055Y-89518027D01*
X120939607Y-89524507D01*
X120935474Y-89527610D01*
X120935471Y-89527612D01*
X120891269Y-89560800D01*
X120760965Y-89658635D01*
X120606629Y-89820138D01*
X120480743Y-90004680D01*
X120386688Y-90207305D01*
X120326989Y-90422570D01*
X120303251Y-90644695D01*
X120303548Y-90649848D01*
X120303548Y-90649851D01*
X120309876Y-90759590D01*
X120316110Y-90867715D01*
X120317247Y-90872761D01*
X120317248Y-90872767D01*
X120319490Y-90882715D01*
X120365222Y-91085639D01*
X120449266Y-91292616D01*
X120565987Y-91483088D01*
X120712250Y-91651938D01*
X120884126Y-91794632D01*
X120904140Y-91806327D01*
X120957445Y-91837476D01*
X121006169Y-91889114D01*
X121019240Y-91958897D01*
X120992509Y-92024669D01*
X120952055Y-92058027D01*
X120939607Y-92064507D01*
X120935474Y-92067610D01*
X120935471Y-92067612D01*
X120891269Y-92100800D01*
X120760965Y-92198635D01*
X120606629Y-92360138D01*
X120480743Y-92544680D01*
X120386688Y-92747305D01*
X120326989Y-92962570D01*
X120303251Y-93184695D01*
X120303548Y-93189848D01*
X120303548Y-93189851D01*
X120309876Y-93299590D01*
X120316110Y-93407715D01*
X120317247Y-93412761D01*
X120317248Y-93412767D01*
X120319490Y-93422715D01*
X120365222Y-93625639D01*
X120449266Y-93832616D01*
X120565987Y-94023088D01*
X120712250Y-94191938D01*
X120884126Y-94334632D01*
X120904140Y-94346327D01*
X120957445Y-94377476D01*
X121006169Y-94429114D01*
X121019240Y-94498897D01*
X120992509Y-94564669D01*
X120952055Y-94598027D01*
X120939607Y-94604507D01*
X120935474Y-94607610D01*
X120935471Y-94607612D01*
X120891269Y-94640800D01*
X120760965Y-94738635D01*
X120606629Y-94900138D01*
X120480743Y-95084680D01*
X120386688Y-95287305D01*
X120326989Y-95502570D01*
X120303251Y-95724695D01*
X115951500Y-95724695D01*
X115951500Y-78071695D01*
X120303251Y-78071695D01*
X120303548Y-78076848D01*
X120303548Y-78076851D01*
X120313735Y-78253529D01*
X120316110Y-78294715D01*
X120317247Y-78299761D01*
X120317248Y-78299767D01*
X120339392Y-78398023D01*
X120365222Y-78512639D01*
X120449266Y-78719616D01*
X120459695Y-78736635D01*
X120561283Y-78902411D01*
X120565987Y-78910088D01*
X120712250Y-79078938D01*
X120782003Y-79136848D01*
X120865612Y-79206261D01*
X120884126Y-79221632D01*
X121077000Y-79334338D01*
X121081825Y-79336180D01*
X121081826Y-79336181D01*
X121121943Y-79351500D01*
X121285692Y-79414030D01*
X121290760Y-79415061D01*
X121290763Y-79415062D01*
X121398017Y-79436883D01*
X121504597Y-79458567D01*
X121509772Y-79458757D01*
X121509774Y-79458757D01*
X121722673Y-79466564D01*
X121722677Y-79466564D01*
X121727837Y-79466753D01*
X121732957Y-79466097D01*
X121732959Y-79466097D01*
X121944288Y-79439025D01*
X121944289Y-79439025D01*
X121949416Y-79438368D01*
X121954366Y-79436883D01*
X122158429Y-79375661D01*
X122158434Y-79375659D01*
X122163384Y-79374174D01*
X122363994Y-79275896D01*
X122545860Y-79146173D01*
X122552004Y-79140051D01*
X122700435Y-78992137D01*
X122704096Y-78988489D01*
X122711061Y-78978797D01*
X122831435Y-78811277D01*
X122834453Y-78807077D01*
X122841650Y-78792516D01*
X122931136Y-78611453D01*
X122931137Y-78611451D01*
X122933430Y-78606811D01*
X122998370Y-78393069D01*
X123027529Y-78171590D01*
X123029156Y-78105000D01*
X123010852Y-77882361D01*
X122956431Y-77665702D01*
X122867354Y-77460840D01*
X122786972Y-77336588D01*
X122748822Y-77277617D01*
X122748820Y-77277614D01*
X122746014Y-77273277D01*
X122595670Y-77108051D01*
X122591619Y-77104852D01*
X122591615Y-77104848D01*
X122424414Y-76972800D01*
X122424410Y-76972798D01*
X122420359Y-76969598D01*
X122379053Y-76946796D01*
X122329084Y-76896364D01*
X122314312Y-76826921D01*
X122339428Y-76760516D01*
X122366780Y-76733909D01*
X122417444Y-76697771D01*
X122545860Y-76606173D01*
X122552004Y-76600051D01*
X122700435Y-76452137D01*
X122704096Y-76448489D01*
X122711061Y-76438797D01*
X122831435Y-76271277D01*
X122834453Y-76267077D01*
X122841650Y-76252516D01*
X122931136Y-76071453D01*
X122931137Y-76071451D01*
X122933430Y-76066811D01*
X122998370Y-75853069D01*
X123027529Y-75631590D01*
X123027611Y-75628240D01*
X123029074Y-75568365D01*
X123029074Y-75568361D01*
X123029156Y-75565000D01*
X123010852Y-75342361D01*
X122956431Y-75125702D01*
X122867354Y-74920840D01*
X122760571Y-74755779D01*
X122748822Y-74737617D01*
X122748820Y-74737614D01*
X122746014Y-74733277D01*
X122595670Y-74568051D01*
X122591619Y-74564852D01*
X122591615Y-74564848D01*
X122424414Y-74432800D01*
X122424410Y-74432798D01*
X122420359Y-74429598D01*
X122379053Y-74406796D01*
X122329084Y-74356364D01*
X122314312Y-74286921D01*
X122339428Y-74220516D01*
X122366780Y-74193909D01*
X122410603Y-74162650D01*
X122545860Y-74066173D01*
X122552004Y-74060051D01*
X122700435Y-73912137D01*
X122704096Y-73908489D01*
X122711061Y-73898797D01*
X122831435Y-73731277D01*
X122834453Y-73727077D01*
X122841650Y-73712516D01*
X122931136Y-73531453D01*
X122931137Y-73531451D01*
X122933430Y-73526811D01*
X122998370Y-73313069D01*
X123027529Y-73091590D01*
X123027611Y-73088240D01*
X123029074Y-73028365D01*
X123029074Y-73028361D01*
X123029156Y-73025000D01*
X123010852Y-72802361D01*
X122956431Y-72585702D01*
X122867354Y-72380840D01*
X122786972Y-72256588D01*
X122748822Y-72197617D01*
X122748820Y-72197614D01*
X122746014Y-72193277D01*
X122595670Y-72028051D01*
X122591619Y-72024852D01*
X122591615Y-72024848D01*
X122424414Y-71892800D01*
X122424410Y-71892798D01*
X122420359Y-71889598D01*
X122413311Y-71885707D01*
X122378569Y-71866529D01*
X122328598Y-71816097D01*
X122313826Y-71746654D01*
X122338942Y-71680248D01*
X122366294Y-71653641D01*
X122541328Y-71528792D01*
X122549200Y-71522139D01*
X122700052Y-71371812D01*
X122706730Y-71363965D01*
X122831003Y-71191020D01*
X122836313Y-71182183D01*
X122930670Y-70991267D01*
X122934469Y-70981672D01*
X122996377Y-70777910D01*
X122998555Y-70767837D01*
X122999986Y-70756962D01*
X122997775Y-70742778D01*
X122984617Y-70739000D01*
X120349225Y-70739000D01*
X120335694Y-70742973D01*
X120334257Y-70752966D01*
X120364565Y-70887446D01*
X120367645Y-70897275D01*
X120447770Y-71094603D01*
X120452413Y-71103794D01*
X120563694Y-71285388D01*
X120569777Y-71293699D01*
X120709213Y-71454667D01*
X120716580Y-71461883D01*
X120880434Y-71597916D01*
X120888881Y-71603831D01*
X120957969Y-71644203D01*
X121006693Y-71695842D01*
X121019764Y-71765625D01*
X120993033Y-71831396D01*
X120952584Y-71864752D01*
X120939607Y-71871507D01*
X120935474Y-71874610D01*
X120935471Y-71874612D01*
X120771107Y-71998020D01*
X120760965Y-72005635D01*
X120722100Y-72046305D01*
X120633170Y-72139365D01*
X120606629Y-72167138D01*
X120603715Y-72171410D01*
X120603714Y-72171411D01*
X120582445Y-72202590D01*
X120480743Y-72351680D01*
X120465003Y-72385590D01*
X120394036Y-72538476D01*
X120386688Y-72554305D01*
X120326989Y-72769570D01*
X120303251Y-72991695D01*
X120303548Y-72996848D01*
X120303548Y-72996851D01*
X120313735Y-73173529D01*
X120316110Y-73214715D01*
X120317247Y-73219761D01*
X120317248Y-73219767D01*
X120339392Y-73318023D01*
X120365222Y-73432639D01*
X120449266Y-73639616D01*
X120459695Y-73656635D01*
X120561283Y-73822411D01*
X120565987Y-73830088D01*
X120712250Y-73998938D01*
X120884126Y-74141632D01*
X120954595Y-74182811D01*
X120957445Y-74184476D01*
X121006169Y-74236114D01*
X121019240Y-74305897D01*
X120992509Y-74371669D01*
X120952055Y-74405027D01*
X120939607Y-74411507D01*
X120935474Y-74414610D01*
X120935471Y-74414612D01*
X120771107Y-74538020D01*
X120760965Y-74545635D01*
X120722100Y-74586305D01*
X120633170Y-74679365D01*
X120606629Y-74707138D01*
X120603715Y-74711410D01*
X120603714Y-74711411D01*
X120582445Y-74742590D01*
X120480743Y-74891680D01*
X120465003Y-74925590D01*
X120399621Y-75066444D01*
X120386688Y-75094305D01*
X120326989Y-75309570D01*
X120303251Y-75531695D01*
X120303548Y-75536848D01*
X120303548Y-75536851D01*
X120313735Y-75713529D01*
X120316110Y-75754715D01*
X120317247Y-75759761D01*
X120317248Y-75759767D01*
X120339392Y-75858023D01*
X120365222Y-75972639D01*
X120449266Y-76179616D01*
X120477634Y-76225909D01*
X120561283Y-76362411D01*
X120565987Y-76370088D01*
X120712250Y-76538938D01*
X120884126Y-76681632D01*
X120897134Y-76689233D01*
X120957445Y-76724476D01*
X121006169Y-76776114D01*
X121019240Y-76845897D01*
X120992509Y-76911669D01*
X120952055Y-76945027D01*
X120939607Y-76951507D01*
X120935474Y-76954610D01*
X120935471Y-76954612D01*
X120831489Y-77032684D01*
X120760965Y-77085635D01*
X120722100Y-77126305D01*
X120633170Y-77219365D01*
X120606629Y-77247138D01*
X120603715Y-77251410D01*
X120603714Y-77251411D01*
X120582445Y-77282590D01*
X120480743Y-77431680D01*
X120465003Y-77465590D01*
X120417071Y-77568851D01*
X120386688Y-77634305D01*
X120326989Y-77849570D01*
X120303251Y-78071695D01*
X115951500Y-78071695D01*
X115951500Y-70219183D01*
X120330389Y-70219183D01*
X120331912Y-70227607D01*
X120344292Y-70231000D01*
X121393885Y-70231000D01*
X121409124Y-70226525D01*
X121410329Y-70225135D01*
X121412000Y-70217452D01*
X121412000Y-70212885D01*
X121920000Y-70212885D01*
X121924475Y-70228124D01*
X121925865Y-70229329D01*
X121933548Y-70231000D01*
X122984344Y-70231000D01*
X122997875Y-70227027D01*
X122999180Y-70217947D01*
X122957214Y-70050875D01*
X122953894Y-70041124D01*
X122868972Y-69845814D01*
X122864105Y-69836739D01*
X122748426Y-69657926D01*
X122742136Y-69649757D01*
X122598806Y-69492240D01*
X122591273Y-69485215D01*
X122424139Y-69353222D01*
X122415552Y-69347517D01*
X122378116Y-69326851D01*
X122328146Y-69276419D01*
X122313374Y-69206976D01*
X122338490Y-69140571D01*
X122365842Y-69113964D01*
X122541327Y-68988792D01*
X122549200Y-68982139D01*
X122700052Y-68831812D01*
X122706730Y-68823965D01*
X122831003Y-68651020D01*
X122836313Y-68642183D01*
X122930670Y-68451267D01*
X122934469Y-68441672D01*
X122996377Y-68237910D01*
X122998555Y-68227837D01*
X122999986Y-68216962D01*
X122997775Y-68202778D01*
X122984617Y-68199000D01*
X121938115Y-68199000D01*
X121922876Y-68203475D01*
X121921671Y-68204865D01*
X121920000Y-68212548D01*
X121920000Y-70212885D01*
X121412000Y-70212885D01*
X121412000Y-68217115D01*
X121407525Y-68201876D01*
X121406135Y-68200671D01*
X121398452Y-68199000D01*
X120349225Y-68199000D01*
X120335694Y-68202973D01*
X120334257Y-68212966D01*
X120364565Y-68347446D01*
X120367645Y-68357275D01*
X120447770Y-68554603D01*
X120452413Y-68563794D01*
X120563694Y-68745388D01*
X120569777Y-68753699D01*
X120709213Y-68914667D01*
X120716580Y-68921883D01*
X120880434Y-69057916D01*
X120888881Y-69063831D01*
X120958479Y-69104501D01*
X121007203Y-69156140D01*
X121020274Y-69225923D01*
X120993543Y-69291694D01*
X120953087Y-69325053D01*
X120944462Y-69329542D01*
X120935738Y-69335036D01*
X120765433Y-69462905D01*
X120757726Y-69469748D01*
X120610590Y-69623717D01*
X120604104Y-69631727D01*
X120484098Y-69807649D01*
X120479000Y-69816623D01*
X120389338Y-70009783D01*
X120385775Y-70019470D01*
X120330389Y-70219183D01*
X115951500Y-70219183D01*
X115951500Y-66303134D01*
X120307500Y-66303134D01*
X120314255Y-66365316D01*
X120365385Y-66501705D01*
X120452739Y-66618261D01*
X120569295Y-66705615D01*
X120577704Y-66708767D01*
X120577705Y-66708768D01*
X120686960Y-66749726D01*
X120743725Y-66792367D01*
X120768425Y-66858929D01*
X120753218Y-66928278D01*
X120733825Y-66954759D01*
X120610590Y-67083717D01*
X120604104Y-67091727D01*
X120484098Y-67267649D01*
X120479000Y-67276623D01*
X120389338Y-67469783D01*
X120385775Y-67479470D01*
X120330389Y-67679183D01*
X120331912Y-67687607D01*
X120344292Y-67691000D01*
X122984344Y-67691000D01*
X122997875Y-67687027D01*
X122999180Y-67677947D01*
X122957214Y-67510875D01*
X122953894Y-67501124D01*
X122868972Y-67305814D01*
X122864105Y-67296739D01*
X122748426Y-67117926D01*
X122742136Y-67109757D01*
X122598293Y-66951677D01*
X122567241Y-66887831D01*
X122575635Y-66817333D01*
X122620812Y-66762564D01*
X122647256Y-66748895D01*
X122754297Y-66708767D01*
X122762705Y-66705615D01*
X122879261Y-66618261D01*
X122966615Y-66501705D01*
X123017745Y-66365316D01*
X123024500Y-66303134D01*
X123024500Y-64506866D01*
X123017745Y-64444684D01*
X122966615Y-64308295D01*
X122879261Y-64191739D01*
X122762705Y-64104385D01*
X122626316Y-64053255D01*
X122564134Y-64046500D01*
X120767866Y-64046500D01*
X120705684Y-64053255D01*
X120569295Y-64104385D01*
X120452739Y-64191739D01*
X120365385Y-64308295D01*
X120314255Y-64444684D01*
X120307500Y-64506866D01*
X120307500Y-66303134D01*
X115951500Y-66303134D01*
X115951500Y-61722000D01*
X124308496Y-61722000D01*
X124328458Y-61911928D01*
X124387473Y-62093556D01*
X124390776Y-62099278D01*
X124390777Y-62099279D01*
X124424686Y-62158010D01*
X124482960Y-62258944D01*
X124487378Y-62263851D01*
X124487379Y-62263852D01*
X124606325Y-62395955D01*
X124610747Y-62400866D01*
X124709843Y-62472864D01*
X124759904Y-62509235D01*
X124765248Y-62513118D01*
X124771276Y-62515802D01*
X124771278Y-62515803D01*
X124848904Y-62550364D01*
X124939712Y-62590794D01*
X124997692Y-62603118D01*
X125120056Y-62629128D01*
X125120061Y-62629128D01*
X125126513Y-62630500D01*
X125317487Y-62630500D01*
X125323939Y-62629128D01*
X125323944Y-62629128D01*
X125446308Y-62603118D01*
X125504288Y-62590794D01*
X125595096Y-62550364D01*
X125672722Y-62515803D01*
X125672724Y-62515802D01*
X125678752Y-62513118D01*
X125684091Y-62509239D01*
X125684098Y-62509235D01*
X125690528Y-62504563D01*
X125764587Y-62480500D01*
X130267413Y-62480500D01*
X130341472Y-62504563D01*
X130347902Y-62509235D01*
X130347909Y-62509239D01*
X130353248Y-62513118D01*
X130359276Y-62515802D01*
X130359278Y-62515803D01*
X130436904Y-62550364D01*
X130527712Y-62590794D01*
X130585692Y-62603118D01*
X130708056Y-62629128D01*
X130708061Y-62629128D01*
X130714513Y-62630500D01*
X130905487Y-62630500D01*
X130911939Y-62629128D01*
X130911944Y-62629128D01*
X131034308Y-62603118D01*
X131092288Y-62590794D01*
X131183096Y-62550364D01*
X131260722Y-62515803D01*
X131260724Y-62515802D01*
X131266752Y-62513118D01*
X131272097Y-62509235D01*
X131322157Y-62472864D01*
X131421253Y-62400866D01*
X131425675Y-62395955D01*
X131544621Y-62263852D01*
X131544622Y-62263851D01*
X131549040Y-62258944D01*
X131607314Y-62158010D01*
X131641223Y-62099279D01*
X131641224Y-62099278D01*
X131644527Y-62093556D01*
X131703542Y-61911928D01*
X131723504Y-61722000D01*
X131710371Y-61597044D01*
X131704232Y-61538635D01*
X131704232Y-61538633D01*
X131703542Y-61532072D01*
X131644527Y-61350444D01*
X131549040Y-61185056D01*
X131533524Y-61167823D01*
X131425675Y-61048045D01*
X131425674Y-61048044D01*
X131421253Y-61043134D01*
X131278527Y-60939437D01*
X131272094Y-60934763D01*
X131272093Y-60934762D01*
X131266752Y-60930882D01*
X131260724Y-60928198D01*
X131260722Y-60928197D01*
X131098319Y-60855891D01*
X131098318Y-60855891D01*
X131092288Y-60853206D01*
X130979721Y-60829279D01*
X130911944Y-60814872D01*
X130911939Y-60814872D01*
X130905487Y-60813500D01*
X130714513Y-60813500D01*
X130708061Y-60814872D01*
X130708056Y-60814872D01*
X130640279Y-60829279D01*
X130527712Y-60853206D01*
X130521682Y-60855891D01*
X130521681Y-60855891D01*
X130359278Y-60928197D01*
X130359276Y-60928198D01*
X130353248Y-60930882D01*
X130347909Y-60934761D01*
X130347902Y-60934765D01*
X130341472Y-60939437D01*
X130267413Y-60963500D01*
X125764587Y-60963500D01*
X125690528Y-60939437D01*
X125684098Y-60934765D01*
X125684091Y-60934761D01*
X125678752Y-60930882D01*
X125672724Y-60928198D01*
X125672722Y-60928197D01*
X125510319Y-60855891D01*
X125510318Y-60855891D01*
X125504288Y-60853206D01*
X125391721Y-60829279D01*
X125323944Y-60814872D01*
X125323939Y-60814872D01*
X125317487Y-60813500D01*
X125126513Y-60813500D01*
X125120061Y-60814872D01*
X125120056Y-60814872D01*
X125052279Y-60829279D01*
X124939712Y-60853206D01*
X124933682Y-60855891D01*
X124933681Y-60855891D01*
X124771278Y-60928197D01*
X124771276Y-60928198D01*
X124765248Y-60930882D01*
X124759907Y-60934762D01*
X124759906Y-60934763D01*
X124753473Y-60939437D01*
X124610747Y-61043134D01*
X124606326Y-61048044D01*
X124606325Y-61048045D01*
X124498477Y-61167823D01*
X124482960Y-61185056D01*
X124387473Y-61350444D01*
X124328458Y-61532072D01*
X124327768Y-61538633D01*
X124327768Y-61538635D01*
X124321629Y-61597044D01*
X124308496Y-61722000D01*
X115951500Y-61722000D01*
X115951500Y-60452000D01*
X153518496Y-60452000D01*
X153519186Y-60458565D01*
X153528836Y-60550375D01*
X153538458Y-60641928D01*
X153597473Y-60823556D01*
X153692960Y-60988944D01*
X153697378Y-60993851D01*
X153697379Y-60993852D01*
X153741753Y-61043134D01*
X153820747Y-61130866D01*
X153919843Y-61202864D01*
X153942053Y-61219000D01*
X153975248Y-61243118D01*
X153981276Y-61245802D01*
X153981278Y-61245803D01*
X154088435Y-61293512D01*
X154149712Y-61320794D01*
X154224346Y-61336658D01*
X154330056Y-61359128D01*
X154330061Y-61359128D01*
X154336513Y-61360500D01*
X154527487Y-61360500D01*
X154533939Y-61359128D01*
X154533944Y-61359128D01*
X154639654Y-61336658D01*
X154714288Y-61320794D01*
X154775565Y-61293512D01*
X154882722Y-61245803D01*
X154882724Y-61245802D01*
X154888752Y-61243118D01*
X154905133Y-61231217D01*
X155021671Y-61146546D01*
X155043253Y-61130866D01*
X155047668Y-61125963D01*
X155052580Y-61121540D01*
X155053705Y-61122789D01*
X155107014Y-61089949D01*
X155140200Y-61085500D01*
X157038406Y-61085500D01*
X157106527Y-61105502D01*
X157127501Y-61122405D01*
X157867495Y-61862399D01*
X157901521Y-61924711D01*
X157904400Y-61951494D01*
X157904400Y-74735476D01*
X157884398Y-74803597D01*
X157872042Y-74819779D01*
X157798860Y-74901056D01*
X157795559Y-74906774D01*
X157708826Y-75057000D01*
X157703373Y-75066444D01*
X157644358Y-75248072D01*
X157643668Y-75254633D01*
X157643668Y-75254635D01*
X157633643Y-75350023D01*
X157624396Y-75438000D01*
X157625086Y-75444565D01*
X157637392Y-75561646D01*
X157644358Y-75627928D01*
X157703373Y-75809556D01*
X157798860Y-75974944D01*
X157803278Y-75979851D01*
X157803279Y-75979852D01*
X157893991Y-76080598D01*
X157926647Y-76116866D01*
X158004778Y-76173632D01*
X158032166Y-76193530D01*
X158081148Y-76229118D01*
X158087176Y-76231802D01*
X158087178Y-76231803D01*
X158249581Y-76304109D01*
X158255612Y-76306794D01*
X158346646Y-76326144D01*
X158435956Y-76345128D01*
X158435961Y-76345128D01*
X158442413Y-76346500D01*
X158633387Y-76346500D01*
X158639839Y-76345128D01*
X158639844Y-76345128D01*
X158729154Y-76326144D01*
X158820188Y-76306794D01*
X158826219Y-76304109D01*
X158988622Y-76231803D01*
X158988624Y-76231802D01*
X158994652Y-76229118D01*
X159043635Y-76193530D01*
X159071022Y-76173632D01*
X159149153Y-76116866D01*
X159181809Y-76080598D01*
X159272521Y-75979852D01*
X159272522Y-75979851D01*
X159276940Y-75974944D01*
X159372427Y-75809556D01*
X159431442Y-75627928D01*
X159438409Y-75561646D01*
X159450714Y-75444565D01*
X159451404Y-75438000D01*
X159442157Y-75350023D01*
X159432132Y-75254635D01*
X159432132Y-75254633D01*
X159431442Y-75248072D01*
X159372427Y-75066444D01*
X159366975Y-75057000D01*
X159280241Y-74906774D01*
X159276940Y-74901056D01*
X159203763Y-74819785D01*
X159173047Y-74755779D01*
X159171400Y-74735476D01*
X159171400Y-73885695D01*
X168563251Y-73885695D01*
X168563548Y-73890848D01*
X168563548Y-73890851D01*
X168571951Y-74036590D01*
X168576110Y-74108715D01*
X168577247Y-74113761D01*
X168577248Y-74113767D01*
X168595646Y-74195401D01*
X168625222Y-74326639D01*
X168709266Y-74533616D01*
X168716631Y-74545635D01*
X168818219Y-74711411D01*
X168825987Y-74724088D01*
X168972250Y-74892938D01*
X169144126Y-75035632D01*
X169337000Y-75148338D01*
X169545692Y-75228030D01*
X169550760Y-75229061D01*
X169550763Y-75229062D01*
X169637531Y-75246715D01*
X169764597Y-75272567D01*
X169769772Y-75272757D01*
X169769774Y-75272757D01*
X169982673Y-75280564D01*
X169982677Y-75280564D01*
X169987837Y-75280753D01*
X169992957Y-75280097D01*
X169992959Y-75280097D01*
X170204288Y-75253025D01*
X170204289Y-75253025D01*
X170209416Y-75252368D01*
X170214366Y-75250883D01*
X170418429Y-75189661D01*
X170418434Y-75189659D01*
X170423384Y-75188174D01*
X170623994Y-75089896D01*
X170805860Y-74960173D01*
X170964096Y-74802489D01*
X171012250Y-74735476D01*
X171091435Y-74625277D01*
X171094453Y-74621077D01*
X171111639Y-74586305D01*
X171191136Y-74425453D01*
X171191137Y-74425451D01*
X171193430Y-74420811D01*
X171249367Y-74236702D01*
X171256865Y-74212023D01*
X171256865Y-74212021D01*
X171258370Y-74207069D01*
X171287529Y-73985590D01*
X171287611Y-73982240D01*
X171289074Y-73922365D01*
X171289074Y-73922361D01*
X171289156Y-73919000D01*
X171270852Y-73696361D01*
X171216431Y-73479702D01*
X171127354Y-73274840D01*
X171034698Y-73131616D01*
X171008822Y-73091617D01*
X171008820Y-73091614D01*
X171006014Y-73087277D01*
X170855670Y-72922051D01*
X170851619Y-72918852D01*
X170851615Y-72918848D01*
X170684414Y-72786800D01*
X170684410Y-72786798D01*
X170680359Y-72783598D01*
X170639053Y-72760796D01*
X170589084Y-72710364D01*
X170574312Y-72640921D01*
X170599428Y-72574516D01*
X170626780Y-72547909D01*
X170674815Y-72513646D01*
X170805860Y-72420173D01*
X170964096Y-72262489D01*
X171023594Y-72179689D01*
X171091435Y-72085277D01*
X171094453Y-72081077D01*
X171111639Y-72046305D01*
X171191136Y-71885453D01*
X171191137Y-71885451D01*
X171193430Y-71880811D01*
X171258370Y-71667069D01*
X171287529Y-71445590D01*
X171287611Y-71442240D01*
X171289074Y-71382365D01*
X171289074Y-71382361D01*
X171289156Y-71379000D01*
X171270852Y-71156361D01*
X171216431Y-70939702D01*
X171127354Y-70734840D01*
X171034698Y-70591616D01*
X171008822Y-70551617D01*
X171008820Y-70551614D01*
X171006014Y-70547277D01*
X170855670Y-70382051D01*
X170851619Y-70378852D01*
X170851615Y-70378848D01*
X170684414Y-70246800D01*
X170684410Y-70246798D01*
X170680359Y-70243598D01*
X170639053Y-70220796D01*
X170589084Y-70170364D01*
X170574312Y-70100921D01*
X170599428Y-70034516D01*
X170626780Y-70007909D01*
X170674815Y-69973646D01*
X170805860Y-69880173D01*
X170869633Y-69816623D01*
X170960435Y-69726137D01*
X170964096Y-69722489D01*
X171023594Y-69639689D01*
X171091435Y-69545277D01*
X171094453Y-69541077D01*
X171111639Y-69506305D01*
X171191136Y-69345453D01*
X171191137Y-69345451D01*
X171193430Y-69340811D01*
X171258370Y-69127069D01*
X171287529Y-68905590D01*
X171287611Y-68902240D01*
X171289074Y-68842365D01*
X171289074Y-68842361D01*
X171289156Y-68839000D01*
X171270852Y-68616361D01*
X171216431Y-68399702D01*
X171127354Y-68194840D01*
X171034698Y-68051616D01*
X171008822Y-68011617D01*
X171008820Y-68011614D01*
X171006014Y-68007277D01*
X170855670Y-67842051D01*
X170851619Y-67838852D01*
X170851615Y-67838848D01*
X170684414Y-67706800D01*
X170684410Y-67706798D01*
X170680359Y-67703598D01*
X170639053Y-67680796D01*
X170589084Y-67630364D01*
X170574312Y-67560921D01*
X170599428Y-67494516D01*
X170626780Y-67467909D01*
X170674815Y-67433646D01*
X170805860Y-67340173D01*
X170869633Y-67276623D01*
X170960435Y-67186137D01*
X170964096Y-67182489D01*
X171023594Y-67099689D01*
X171091435Y-67005277D01*
X171094453Y-67001077D01*
X171111639Y-66966305D01*
X171191136Y-66805453D01*
X171191137Y-66805451D01*
X171193430Y-66800811D01*
X171258370Y-66587069D01*
X171287529Y-66365590D01*
X171288972Y-66306531D01*
X171289074Y-66302365D01*
X171289074Y-66302361D01*
X171289156Y-66299000D01*
X171270852Y-66076361D01*
X171216431Y-65859702D01*
X171127354Y-65654840D01*
X171087906Y-65593862D01*
X171008822Y-65471617D01*
X171008820Y-65471614D01*
X171006014Y-65467277D01*
X170855670Y-65302051D01*
X170851619Y-65298852D01*
X170851615Y-65298848D01*
X170684414Y-65166800D01*
X170684410Y-65166798D01*
X170680359Y-65163598D01*
X170639053Y-65140796D01*
X170589084Y-65090364D01*
X170574312Y-65020921D01*
X170599428Y-64954516D01*
X170626780Y-64927909D01*
X170670603Y-64896650D01*
X170805860Y-64800173D01*
X170964096Y-64642489D01*
X171023594Y-64559689D01*
X171091435Y-64465277D01*
X171094453Y-64461077D01*
X171193430Y-64260811D01*
X171258370Y-64047069D01*
X171287529Y-63825590D01*
X171289156Y-63759000D01*
X171270852Y-63536361D01*
X171216431Y-63319702D01*
X171127354Y-63114840D01*
X171006014Y-62927277D01*
X170855670Y-62762051D01*
X170851619Y-62758852D01*
X170851615Y-62758848D01*
X170684414Y-62626800D01*
X170684410Y-62626798D01*
X170680359Y-62623598D01*
X170639053Y-62600796D01*
X170589084Y-62550364D01*
X170574312Y-62480921D01*
X170599428Y-62414516D01*
X170626780Y-62387909D01*
X170670603Y-62356650D01*
X170805860Y-62260173D01*
X170812832Y-62253226D01*
X170960435Y-62106137D01*
X170964096Y-62102489D01*
X171023594Y-62019689D01*
X171091435Y-61925277D01*
X171094453Y-61921077D01*
X171102219Y-61905365D01*
X171191136Y-61725453D01*
X171191137Y-61725451D01*
X171193430Y-61720811D01*
X171246865Y-61544936D01*
X171256865Y-61512023D01*
X171256865Y-61512021D01*
X171258370Y-61507069D01*
X171287529Y-61285590D01*
X171289156Y-61219000D01*
X171270852Y-60996361D01*
X171216431Y-60779702D01*
X171127354Y-60574840D01*
X171006014Y-60387277D01*
X170855670Y-60222051D01*
X170851619Y-60218852D01*
X170851615Y-60218848D01*
X170684414Y-60086800D01*
X170684410Y-60086798D01*
X170680359Y-60083598D01*
X170638569Y-60060529D01*
X170588598Y-60010097D01*
X170573826Y-59940654D01*
X170598942Y-59874248D01*
X170626294Y-59847641D01*
X170801328Y-59722792D01*
X170809200Y-59716139D01*
X170960052Y-59565812D01*
X170966730Y-59557965D01*
X171091003Y-59385020D01*
X171096313Y-59376183D01*
X171190670Y-59185267D01*
X171194469Y-59175672D01*
X171256377Y-58971910D01*
X171258555Y-58961837D01*
X171259986Y-58950962D01*
X171257775Y-58936778D01*
X171244617Y-58933000D01*
X168609225Y-58933000D01*
X168595694Y-58936973D01*
X168594257Y-58946966D01*
X168624565Y-59081446D01*
X168627645Y-59091275D01*
X168707770Y-59288603D01*
X168712413Y-59297794D01*
X168823694Y-59479388D01*
X168829777Y-59487699D01*
X168969213Y-59648667D01*
X168976580Y-59655883D01*
X169140434Y-59791916D01*
X169148881Y-59797831D01*
X169217969Y-59838203D01*
X169266693Y-59889842D01*
X169279764Y-59959625D01*
X169253033Y-60025396D01*
X169212584Y-60058752D01*
X169199607Y-60065507D01*
X169195474Y-60068610D01*
X169195471Y-60068612D01*
X169171247Y-60086800D01*
X169020965Y-60199635D01*
X168866629Y-60361138D01*
X168740743Y-60545680D01*
X168646688Y-60748305D01*
X168586989Y-60963570D01*
X168563251Y-61185695D01*
X168563548Y-61190848D01*
X168563548Y-61190851D01*
X168573147Y-61357332D01*
X168576110Y-61408715D01*
X168577247Y-61413761D01*
X168577248Y-61413767D01*
X168579953Y-61425768D01*
X168625222Y-61626639D01*
X168709266Y-61833616D01*
X168825987Y-62024088D01*
X168972250Y-62192938D01*
X169144126Y-62335632D01*
X169214595Y-62376811D01*
X169217445Y-62378476D01*
X169266169Y-62430114D01*
X169279240Y-62499897D01*
X169252509Y-62565669D01*
X169212055Y-62599027D01*
X169199607Y-62605507D01*
X169195474Y-62608610D01*
X169195471Y-62608612D01*
X169166319Y-62630500D01*
X169020965Y-62739635D01*
X168866629Y-62901138D01*
X168740743Y-63085680D01*
X168646688Y-63288305D01*
X168586989Y-63503570D01*
X168563251Y-63725695D01*
X168563548Y-63730848D01*
X168563548Y-63730851D01*
X168569011Y-63825590D01*
X168576110Y-63948715D01*
X168577247Y-63953761D01*
X168577248Y-63953767D01*
X168597119Y-64041939D01*
X168625222Y-64166639D01*
X168709266Y-64373616D01*
X168825987Y-64564088D01*
X168972250Y-64732938D01*
X169144126Y-64875632D01*
X169214595Y-64916811D01*
X169217445Y-64918476D01*
X169266169Y-64970114D01*
X169279240Y-65039897D01*
X169252509Y-65105669D01*
X169212055Y-65139027D01*
X169199607Y-65145507D01*
X169195474Y-65148610D01*
X169195471Y-65148612D01*
X169171247Y-65166800D01*
X169020965Y-65279635D01*
X168866629Y-65441138D01*
X168740743Y-65625680D01*
X168725003Y-65659590D01*
X168650651Y-65819768D01*
X168646688Y-65828305D01*
X168586989Y-66043570D01*
X168563251Y-66265695D01*
X168563548Y-66270848D01*
X168563548Y-66270851D01*
X168571951Y-66416590D01*
X168576110Y-66488715D01*
X168577247Y-66493761D01*
X168577248Y-66493767D01*
X168595646Y-66575401D01*
X168625222Y-66706639D01*
X168709266Y-66913616D01*
X168738677Y-66961610D01*
X168813504Y-67083717D01*
X168825987Y-67104088D01*
X168972250Y-67272938D01*
X169144126Y-67415632D01*
X169180693Y-67437000D01*
X169217445Y-67458476D01*
X169266169Y-67510114D01*
X169279240Y-67579897D01*
X169252509Y-67645669D01*
X169212055Y-67679027D01*
X169199607Y-67685507D01*
X169195474Y-67688610D01*
X169195471Y-67688612D01*
X169025100Y-67816530D01*
X169020965Y-67819635D01*
X168866629Y-67981138D01*
X168740743Y-68165680D01*
X168700899Y-68251516D01*
X168666709Y-68325174D01*
X168646688Y-68368305D01*
X168586989Y-68583570D01*
X168563251Y-68805695D01*
X168563548Y-68810848D01*
X168563548Y-68810851D01*
X168571951Y-68956590D01*
X168576110Y-69028715D01*
X168577247Y-69033761D01*
X168577248Y-69033767D01*
X168593189Y-69104501D01*
X168625222Y-69246639D01*
X168709266Y-69453616D01*
X168719152Y-69469748D01*
X168813504Y-69623717D01*
X168825987Y-69644088D01*
X168972250Y-69812938D01*
X169144126Y-69955632D01*
X169180693Y-69977000D01*
X169217445Y-69998476D01*
X169266169Y-70050114D01*
X169279240Y-70119897D01*
X169252509Y-70185669D01*
X169212055Y-70219027D01*
X169199607Y-70225507D01*
X169195474Y-70228610D01*
X169195471Y-70228612D01*
X169025100Y-70356530D01*
X169020965Y-70359635D01*
X168866629Y-70521138D01*
X168740743Y-70705680D01*
X168700899Y-70791516D01*
X168666709Y-70865174D01*
X168646688Y-70908305D01*
X168586989Y-71123570D01*
X168563251Y-71345695D01*
X168563548Y-71350848D01*
X168563548Y-71350851D01*
X168571951Y-71496590D01*
X168576110Y-71568715D01*
X168577247Y-71573761D01*
X168577248Y-71573767D01*
X168593122Y-71644203D01*
X168625222Y-71786639D01*
X168709266Y-71993616D01*
X168716631Y-72005635D01*
X168818219Y-72171411D01*
X168825987Y-72184088D01*
X168972250Y-72352938D01*
X169144126Y-72495632D01*
X169180693Y-72517000D01*
X169217445Y-72538476D01*
X169266169Y-72590114D01*
X169279240Y-72659897D01*
X169252509Y-72725669D01*
X169212055Y-72759027D01*
X169199607Y-72765507D01*
X169195474Y-72768610D01*
X169195471Y-72768612D01*
X169025100Y-72896530D01*
X169020965Y-72899635D01*
X168866629Y-73061138D01*
X168740743Y-73245680D01*
X168700899Y-73331516D01*
X168656301Y-73427596D01*
X168646688Y-73448305D01*
X168586989Y-73663570D01*
X168563251Y-73885695D01*
X159171400Y-73885695D01*
X159171400Y-61715668D01*
X159171927Y-61704485D01*
X159173602Y-61696992D01*
X159171462Y-61628901D01*
X159171400Y-61624944D01*
X159171400Y-61597044D01*
X159170896Y-61593053D01*
X159169963Y-61581211D01*
X159168823Y-61544936D01*
X159168574Y-61537011D01*
X159162921Y-61517552D01*
X159158912Y-61498193D01*
X159158746Y-61496883D01*
X159156374Y-61478103D01*
X159153458Y-61470737D01*
X159153456Y-61470731D01*
X159140100Y-61436998D01*
X159136255Y-61425768D01*
X159126130Y-61390917D01*
X159126130Y-61390916D01*
X159123919Y-61383307D01*
X159113605Y-61365866D01*
X159104908Y-61348113D01*
X159100372Y-61336658D01*
X159097452Y-61329283D01*
X159071463Y-61293512D01*
X159064947Y-61283592D01*
X159042442Y-61245538D01*
X159028121Y-61231217D01*
X159015280Y-61216183D01*
X159008031Y-61206206D01*
X159003372Y-61199793D01*
X158969295Y-61171602D01*
X158960516Y-61163612D01*
X157856652Y-60059747D01*
X157849112Y-60051461D01*
X157845000Y-60044982D01*
X157795348Y-59998356D01*
X157792507Y-59995602D01*
X157772770Y-59975865D01*
X157769573Y-59973385D01*
X157760551Y-59965680D01*
X157728321Y-59935414D01*
X157721375Y-59931595D01*
X157721372Y-59931593D01*
X157710566Y-59925652D01*
X157694047Y-59914801D01*
X157688048Y-59910148D01*
X157678041Y-59902386D01*
X157670772Y-59899241D01*
X157670768Y-59899238D01*
X157637463Y-59884826D01*
X157626813Y-59879609D01*
X157588060Y-59858305D01*
X157568437Y-59853267D01*
X157549734Y-59846863D01*
X157538420Y-59841967D01*
X157538419Y-59841967D01*
X157531145Y-59838819D01*
X157523322Y-59837580D01*
X157523312Y-59837577D01*
X157487476Y-59831901D01*
X157475856Y-59829495D01*
X157440711Y-59820472D01*
X157440710Y-59820472D01*
X157433030Y-59818500D01*
X157412776Y-59818500D01*
X157393065Y-59816949D01*
X157380886Y-59815020D01*
X157373057Y-59813780D01*
X157365165Y-59814526D01*
X157329039Y-59817941D01*
X157317181Y-59818500D01*
X155140200Y-59818500D01*
X155072079Y-59798498D01*
X155052853Y-59782157D01*
X155052580Y-59782460D01*
X155047668Y-59778037D01*
X155043253Y-59773134D01*
X155021671Y-59757454D01*
X154894094Y-59664763D01*
X154894093Y-59664762D01*
X154888752Y-59660882D01*
X154882724Y-59658198D01*
X154882722Y-59658197D01*
X154720319Y-59585891D01*
X154720318Y-59585891D01*
X154714288Y-59583206D01*
X154620888Y-59563353D01*
X154533944Y-59544872D01*
X154533939Y-59544872D01*
X154527487Y-59543500D01*
X154336513Y-59543500D01*
X154330061Y-59544872D01*
X154330056Y-59544872D01*
X154243112Y-59563353D01*
X154149712Y-59583206D01*
X154143682Y-59585891D01*
X154143681Y-59585891D01*
X153981278Y-59658197D01*
X153981276Y-59658198D01*
X153975248Y-59660882D01*
X153820747Y-59773134D01*
X153816326Y-59778044D01*
X153816325Y-59778045D01*
X153707203Y-59899238D01*
X153692960Y-59915056D01*
X153597473Y-60080444D01*
X153538458Y-60262072D01*
X153518496Y-60452000D01*
X115951500Y-60452000D01*
X115951500Y-56105695D01*
X168563251Y-56105695D01*
X168563548Y-56110848D01*
X168563548Y-56110851D01*
X168569011Y-56205590D01*
X168576110Y-56328715D01*
X168577247Y-56333761D01*
X168577248Y-56333767D01*
X168597119Y-56421939D01*
X168625222Y-56546639D01*
X168709266Y-56753616D01*
X168825987Y-56944088D01*
X168972250Y-57112938D01*
X169144126Y-57255632D01*
X169217955Y-57298774D01*
X169266679Y-57350412D01*
X169279750Y-57420195D01*
X169253019Y-57485967D01*
X169212562Y-57519327D01*
X169204457Y-57523546D01*
X169195738Y-57529036D01*
X169025433Y-57656905D01*
X169017726Y-57663748D01*
X168870590Y-57817717D01*
X168864104Y-57825727D01*
X168744098Y-58001649D01*
X168739000Y-58010623D01*
X168649338Y-58203783D01*
X168645775Y-58213470D01*
X168590389Y-58413183D01*
X168591912Y-58421607D01*
X168604292Y-58425000D01*
X171244344Y-58425000D01*
X171257875Y-58421027D01*
X171259180Y-58411947D01*
X171217214Y-58244875D01*
X171213894Y-58235124D01*
X171128972Y-58039814D01*
X171124105Y-58030739D01*
X171008426Y-57851926D01*
X171002136Y-57843757D01*
X170858806Y-57686240D01*
X170851273Y-57679215D01*
X170684139Y-57547222D01*
X170675556Y-57541520D01*
X170638602Y-57521120D01*
X170588631Y-57470687D01*
X170573859Y-57401245D01*
X170598975Y-57334839D01*
X170626327Y-57308232D01*
X170649797Y-57291491D01*
X170805860Y-57180173D01*
X170964096Y-57022489D01*
X171023594Y-56939689D01*
X171091435Y-56845277D01*
X171094453Y-56841077D01*
X171193430Y-56640811D01*
X171258370Y-56427069D01*
X171287529Y-56205590D01*
X171289156Y-56139000D01*
X171270852Y-55916361D01*
X171216431Y-55699702D01*
X171127354Y-55494840D01*
X171006014Y-55307277D01*
X170855670Y-55142051D01*
X170851619Y-55138852D01*
X170851615Y-55138848D01*
X170684414Y-55006800D01*
X170684410Y-55006798D01*
X170680359Y-55003598D01*
X170639053Y-54980796D01*
X170589084Y-54930364D01*
X170574312Y-54860921D01*
X170599428Y-54794516D01*
X170626780Y-54767909D01*
X170670603Y-54736650D01*
X170805860Y-54640173D01*
X170964096Y-54482489D01*
X171023594Y-54399689D01*
X171091435Y-54305277D01*
X171094453Y-54301077D01*
X171193430Y-54100811D01*
X171258370Y-53887069D01*
X171287529Y-53665590D01*
X171289156Y-53599000D01*
X171270852Y-53376361D01*
X171216431Y-53159702D01*
X171127354Y-52954840D01*
X171006014Y-52767277D01*
X171002532Y-52763450D01*
X170858798Y-52605488D01*
X170827746Y-52541642D01*
X170836141Y-52471143D01*
X170881317Y-52416375D01*
X170907761Y-52402706D01*
X171014297Y-52362767D01*
X171022705Y-52359615D01*
X171139261Y-52272261D01*
X171226615Y-52155705D01*
X171277745Y-52019316D01*
X171284500Y-51957134D01*
X171284500Y-50160866D01*
X171277745Y-50098684D01*
X171226615Y-49962295D01*
X171139261Y-49845739D01*
X171022705Y-49758385D01*
X170886316Y-49707255D01*
X170824134Y-49700500D01*
X169027866Y-49700500D01*
X168965684Y-49707255D01*
X168829295Y-49758385D01*
X168712739Y-49845739D01*
X168625385Y-49962295D01*
X168574255Y-50098684D01*
X168567500Y-50160866D01*
X168567500Y-51957134D01*
X168574255Y-52019316D01*
X168625385Y-52155705D01*
X168712739Y-52272261D01*
X168829295Y-52359615D01*
X168837704Y-52362767D01*
X168837705Y-52362768D01*
X168946451Y-52403535D01*
X169003216Y-52446176D01*
X169027916Y-52512738D01*
X169012709Y-52582087D01*
X168993316Y-52608568D01*
X168866629Y-52741138D01*
X168740743Y-52925680D01*
X168646688Y-53128305D01*
X168586989Y-53343570D01*
X168563251Y-53565695D01*
X168563548Y-53570848D01*
X168563548Y-53570851D01*
X168569011Y-53665590D01*
X168576110Y-53788715D01*
X168577247Y-53793761D01*
X168577248Y-53793767D01*
X168597119Y-53881939D01*
X168625222Y-54006639D01*
X168709266Y-54213616D01*
X168825987Y-54404088D01*
X168972250Y-54572938D01*
X169144126Y-54715632D01*
X169214595Y-54756811D01*
X169217445Y-54758476D01*
X169266169Y-54810114D01*
X169279240Y-54879897D01*
X169252509Y-54945669D01*
X169212055Y-54979027D01*
X169199607Y-54985507D01*
X169195474Y-54988610D01*
X169195471Y-54988612D01*
X169171247Y-55006800D01*
X169020965Y-55119635D01*
X168866629Y-55281138D01*
X168740743Y-55465680D01*
X168646688Y-55668305D01*
X168586989Y-55883570D01*
X168563251Y-56105695D01*
X115951500Y-56105695D01*
X115951500Y-40639500D01*
X115971502Y-40571379D01*
X116025158Y-40524886D01*
X116077500Y-40513500D01*
X214884500Y-40513500D01*
X214952621Y-40533502D01*
G37*
%TD.AperFunction*%
%TD*%
M02*
