%TF.GenerationSoftware,KiCad,Pcbnew,(6.0.10)*%
%TF.CreationDate,2023-03-08T17:02:45-06:00*%
%TF.ProjectId,445,3434352e-6b69-4636-9164-5f7063625858,rev?*%
%TF.SameCoordinates,Original*%
%TF.FileFunction,Soldermask,Top*%
%TF.FilePolarity,Negative*%
%FSLAX46Y46*%
G04 Gerber Fmt 4.6, Leading zero omitted, Abs format (unit mm)*
G04 Created by KiCad (PCBNEW (6.0.10)) date 2023-03-08 17:02:45*
%MOMM*%
%LPD*%
G01*
G04 APERTURE LIST*
G04 Aperture macros list*
%AMRoundRect*
0 Rectangle with rounded corners*
0 $1 Rounding radius*
0 $2 $3 $4 $5 $6 $7 $8 $9 X,Y pos of 4 corners*
0 Add a 4 corners polygon primitive as box body*
4,1,4,$2,$3,$4,$5,$6,$7,$8,$9,$2,$3,0*
0 Add four circle primitives for the rounded corners*
1,1,$1+$1,$2,$3*
1,1,$1+$1,$4,$5*
1,1,$1+$1,$6,$7*
1,1,$1+$1,$8,$9*
0 Add four rect primitives between the rounded corners*
20,1,$1+$1,$2,$3,$4,$5,0*
20,1,$1+$1,$4,$5,$6,$7,0*
20,1,$1+$1,$6,$7,$8,$9,0*
20,1,$1+$1,$8,$9,$2,$3,0*%
G04 Aperture macros list end*
%ADD10C,0.010000*%
%ADD11R,1.600000X1.400000*%
%ADD12RoundRect,0.237500X0.237500X-0.287500X0.237500X0.287500X-0.237500X0.287500X-0.237500X-0.287500X0*%
%ADD13RoundRect,0.250000X0.350000X0.450000X-0.350000X0.450000X-0.350000X-0.450000X0.350000X-0.450000X0*%
%ADD14RoundRect,0.250000X-0.350000X-0.450000X0.350000X-0.450000X0.350000X0.450000X-0.350000X0.450000X0*%
%ADD15R,1.700000X1.700000*%
%ADD16O,1.700000X1.700000*%
%ADD17RoundRect,0.250000X-0.450000X0.350000X-0.450000X-0.350000X0.450000X-0.350000X0.450000X0.350000X0*%
%ADD18RoundRect,0.250000X0.450000X-0.350000X0.450000X0.350000X-0.450000X0.350000X-0.450000X-0.350000X0*%
%ADD19RoundRect,0.250000X0.337500X0.475000X-0.337500X0.475000X-0.337500X-0.475000X0.337500X-0.475000X0*%
%ADD20RoundRect,0.250000X-0.337500X-0.475000X0.337500X-0.475000X0.337500X0.475000X-0.337500X0.475000X0*%
%ADD21R,0.600000X0.450000*%
%ADD22RoundRect,0.101600X-0.650000X-0.750000X0.650000X-0.750000X0.650000X0.750000X-0.650000X0.750000X0*%
%ADD23R,0.400000X0.750000*%
%ADD24C,0.650000*%
%ADD25R,1.150000X0.600000*%
%ADD26R,1.150000X0.300000*%
%ADD27O,2.100000X1.000000*%
%ADD28O,1.800000X1.000000*%
%ADD29RoundRect,0.250000X0.475000X-0.337500X0.475000X0.337500X-0.475000X0.337500X-0.475000X-0.337500X0*%
%ADD30RoundRect,0.062500X-0.350000X-0.062500X0.350000X-0.062500X0.350000X0.062500X-0.350000X0.062500X0*%
%ADD31RoundRect,0.062500X-0.062500X-0.350000X0.062500X-0.350000X0.062500X0.350000X-0.062500X0.350000X0*%
%ADD32R,2.700000X2.700000*%
%ADD33R,2.200000X1.000000*%
%ADD34R,1.000000X1.500000*%
%ADD35RoundRect,0.237500X-0.287500X-0.237500X0.287500X-0.237500X0.287500X0.237500X-0.287500X0.237500X0*%
G04 APERTURE END LIST*
%TO.C,Q1*%
G36*
X127313000Y-117052000D02*
G01*
X127843000Y-117052000D01*
X127843000Y-117652000D01*
X127313000Y-117652000D01*
X127313000Y-117952000D01*
X124663000Y-117952000D01*
X124663000Y-117652000D01*
X124133000Y-117652000D01*
X124133000Y-117052000D01*
X124663000Y-117052000D01*
X124663000Y-115352000D01*
X127313000Y-115352000D01*
X127313000Y-117052000D01*
G37*
D10*
X127313000Y-117052000D02*
X127843000Y-117052000D01*
X127843000Y-117652000D01*
X127313000Y-117652000D01*
X127313000Y-117952000D01*
X124663000Y-117952000D01*
X124663000Y-117652000D01*
X124133000Y-117652000D01*
X124133000Y-117052000D01*
X124663000Y-117052000D01*
X124663000Y-115352000D01*
X127313000Y-115352000D01*
X127313000Y-117052000D01*
%TD*%
D11*
%TO.C,S3*%
X140676000Y-102469000D03*
X147876000Y-102469000D03*
X140676000Y-99469000D03*
X147876000Y-99469000D03*
%TD*%
D12*
%TO.C,D5*%
X141101000Y-123196000D03*
X141101000Y-121446000D03*
%TD*%
D13*
%TO.C,R3*%
X133461000Y-58801000D03*
X131461000Y-58801000D03*
%TD*%
D14*
%TO.C,R15*%
X153817000Y-131740856D03*
X155817000Y-131740856D03*
%TD*%
D15*
%TO.C,J7*%
X155194000Y-85217000D03*
D16*
X155194000Y-82677000D03*
X155194000Y-80137000D03*
X155194000Y-77597000D03*
X155194000Y-75057000D03*
X155194000Y-72517000D03*
X155194000Y-69977000D03*
X155194000Y-67437000D03*
%TD*%
D17*
%TO.C,R13*%
X130179000Y-119146000D03*
X130179000Y-121146000D03*
%TD*%
D14*
%TO.C,R6*%
X142383000Y-126877000D03*
X144383000Y-126877000D03*
%TD*%
D11*
%TO.C,S2*%
X148038180Y-55072290D03*
X140838180Y-55072290D03*
X148038180Y-58072290D03*
X140838180Y-58072290D03*
%TD*%
D18*
%TO.C,R8*%
X149610000Y-133518856D03*
X149610000Y-131518856D03*
%TD*%
D14*
%TO.C,R16*%
X140228000Y-119273000D03*
X142228000Y-119273000D03*
%TD*%
%TO.C,R9*%
X130957000Y-131195000D03*
X132957000Y-131195000D03*
%TD*%
D15*
%TO.C,J8*%
X151245000Y-120257000D03*
D16*
X151245000Y-117717000D03*
%TD*%
D15*
%TO.C,J10*%
X161913000Y-120130000D03*
D16*
X161913000Y-122670000D03*
X161913000Y-125210000D03*
X161913000Y-127750000D03*
%TD*%
D19*
%TO.C,C2*%
X140995500Y-132211000D03*
X138920500Y-132211000D03*
%TD*%
D13*
%TO.C,R17*%
X128381000Y-123190000D03*
X126381000Y-123190000D03*
%TD*%
D20*
%TO.C,C4*%
X142095500Y-105922000D03*
X144170500Y-105922000D03*
%TD*%
D18*
%TO.C,R18*%
X152150000Y-129782000D03*
X152150000Y-127782000D03*
%TD*%
D17*
%TO.C,R12*%
X142625000Y-114193000D03*
X142625000Y-116193000D03*
%TD*%
D21*
%TO.C,D1*%
X135420000Y-119384000D03*
X133320000Y-119384000D03*
%TD*%
D11*
%TO.C,S1*%
X126155000Y-49808000D03*
X118955000Y-49808000D03*
X126155000Y-52808000D03*
X118955000Y-52808000D03*
%TD*%
D17*
%TO.C,R10*%
X145673000Y-117257000D03*
X145673000Y-119257000D03*
%TD*%
D12*
%TO.C,D3*%
X138561000Y-117084000D03*
X138561000Y-115334000D03*
%TD*%
D22*
%TO.C,R5*%
X161229000Y-75438000D03*
X163129000Y-75438000D03*
%TD*%
D15*
%TO.C,J9*%
X143112000Y-137402000D03*
D16*
X145652000Y-137402000D03*
%TD*%
D11*
%TO.C,S4*%
X130389000Y-102469000D03*
X137589000Y-102469000D03*
X130389000Y-99469000D03*
X137589000Y-99469000D03*
%TD*%
D23*
%TO.C,Q1*%
X125013000Y-118877000D03*
X125663000Y-118877000D03*
X126313000Y-118877000D03*
X126963000Y-118877000D03*
%TD*%
D14*
%TO.C,R2*%
X161687000Y-78105000D03*
X163687000Y-78105000D03*
%TD*%
%TO.C,R14*%
X157611000Y-132502856D03*
X159611000Y-132502856D03*
%TD*%
%TO.C,R1*%
X143145000Y-92202000D03*
X145145000Y-92202000D03*
%TD*%
D24*
%TO.C,J5*%
X121714000Y-121495951D03*
X121714000Y-127275951D03*
D25*
X122789000Y-121185951D03*
X122789000Y-121985951D03*
D26*
X122789000Y-123135951D03*
X122789000Y-124135951D03*
X122789000Y-124635951D03*
X122789000Y-125635951D03*
D25*
X122789000Y-126785951D03*
X122789000Y-127585951D03*
X122789000Y-127585951D03*
X122789000Y-126785951D03*
D26*
X122789000Y-126135951D03*
X122789000Y-125135951D03*
X122789000Y-123635951D03*
X122789000Y-122635951D03*
D25*
X122789000Y-121985951D03*
X122789000Y-121185951D03*
D27*
X122214000Y-120065951D03*
D28*
X118034000Y-120065951D03*
D27*
X122214000Y-128705951D03*
D28*
X118034000Y-128705951D03*
%TD*%
D29*
%TO.C,C5*%
X123448000Y-114071500D03*
X123448000Y-111996500D03*
%TD*%
D14*
%TO.C,R4*%
X125619000Y-57785000D03*
X127619000Y-57785000D03*
%TD*%
D30*
%TO.C,U2*%
X135963500Y-126897000D03*
X135963500Y-127397000D03*
X135963500Y-127897000D03*
X135963500Y-128397000D03*
X135963500Y-128897000D03*
X135963500Y-129397000D03*
D31*
X136676000Y-130109500D03*
X137176000Y-130109500D03*
X137676000Y-130109500D03*
X138176000Y-130109500D03*
X138676000Y-130109500D03*
X139176000Y-130109500D03*
D30*
X139888500Y-129397000D03*
X139888500Y-128897000D03*
X139888500Y-128397000D03*
X139888500Y-127897000D03*
X139888500Y-127397000D03*
X139888500Y-126897000D03*
D31*
X139176000Y-126184500D03*
X138676000Y-126184500D03*
X138176000Y-126184500D03*
X137676000Y-126184500D03*
X137176000Y-126184500D03*
X136676000Y-126184500D03*
D32*
X137926000Y-128147000D03*
%TD*%
D15*
%TO.C,J6*%
X127762000Y-64516000D03*
D16*
X127762000Y-67056000D03*
X127762000Y-69596000D03*
X127762000Y-72136000D03*
X127762000Y-74676000D03*
X127762000Y-77216000D03*
X127762000Y-79756000D03*
X127762000Y-82296000D03*
%TD*%
D15*
%TO.C,J11*%
X129401000Y-137402000D03*
D16*
X131941000Y-137402000D03*
%TD*%
D20*
%TO.C,C1*%
X143107500Y-88392000D03*
X145182500Y-88392000D03*
%TD*%
D29*
%TO.C,C3*%
X135513000Y-113690500D03*
X135513000Y-111615500D03*
%TD*%
D18*
%TO.C,R11*%
X138942000Y-113399000D03*
X138942000Y-111399000D03*
%TD*%
D33*
%TO.C,U1*%
X135937680Y-69647290D03*
X135937680Y-71647290D03*
X135937680Y-73647290D03*
X135937680Y-75647290D03*
X135937680Y-77647290D03*
X135937680Y-79647290D03*
X135937680Y-81647290D03*
X135937680Y-83647290D03*
D34*
X138937680Y-85147290D03*
X140937680Y-85147290D03*
X142937680Y-85147290D03*
X144937680Y-85147290D03*
X146937680Y-85147290D03*
X148937680Y-85147290D03*
D33*
X151937680Y-83647290D03*
X151937680Y-81647290D03*
X151937680Y-79647290D03*
X151937680Y-77647290D03*
X151937680Y-75647290D03*
X151937680Y-73647290D03*
X151937680Y-71647290D03*
X151937680Y-69647290D03*
%TD*%
D13*
%TO.C,R7*%
X136783000Y-134624000D03*
X134783000Y-134624000D03*
%TD*%
D35*
%TO.C,D4*%
X151529000Y-133645856D03*
X153279000Y-133645856D03*
%TD*%
%TO.C,D2*%
X165114000Y-73025000D03*
X166864000Y-73025000D03*
%TD*%
D15*
%TO.C,J3*%
X169926000Y-51059000D03*
D16*
X169926000Y-53599000D03*
X169926000Y-56139000D03*
X169926000Y-58679000D03*
X169926000Y-61219000D03*
X169926000Y-63759000D03*
X169926000Y-66299000D03*
X169926000Y-68839000D03*
X169926000Y-71379000D03*
X169926000Y-73919000D03*
%TD*%
D15*
%TO.C,J1*%
X121666000Y-65405000D03*
D16*
X121666000Y-67945000D03*
X121666000Y-70485000D03*
X121666000Y-73025000D03*
X121666000Y-75565000D03*
X121666000Y-78105000D03*
%TD*%
D15*
%TO.C,J2*%
X121666000Y-83058000D03*
D16*
X121666000Y-85598000D03*
X121666000Y-88138000D03*
X121666000Y-90678000D03*
X121666000Y-93218000D03*
X121666000Y-95758000D03*
%TD*%
D15*
%TO.C,J4*%
X169926000Y-77993000D03*
D16*
X169926000Y-80533000D03*
X169926000Y-83073000D03*
X169926000Y-85613000D03*
X169926000Y-88153000D03*
X169926000Y-90693000D03*
X169926000Y-93233000D03*
X169926000Y-95773000D03*
%TD*%
M02*
