%TF.GenerationSoftware,KiCad,Pcbnew,(6.0.10)*%
%TF.CreationDate,2023-03-08T17:02:45-06:00*%
%TF.ProjectId,445,3434352e-6b69-4636-9164-5f7063625858,rev?*%
%TF.SameCoordinates,Original*%
%TF.FileFunction,Legend,Bot*%
%TF.FilePolarity,Positive*%
%FSLAX46Y46*%
G04 Gerber Fmt 4.6, Leading zero omitted, Abs format (unit mm)*
G04 Created by KiCad (PCBNEW (6.0.10)) date 2023-03-08 17:02:45*
%MOMM*%
%LPD*%
G01*
G04 APERTURE LIST*
%ADD10C,0.150000*%
%ADD11C,0.120000*%
G04 APERTURE END LIST*
D10*
%TO.C,J3*%
X173434333Y-49871380D02*
X173434333Y-50585666D01*
X173481952Y-50728523D01*
X173577190Y-50823761D01*
X173720047Y-50871380D01*
X173815285Y-50871380D01*
X173053380Y-49871380D02*
X172434333Y-49871380D01*
X172767666Y-50252333D01*
X172624809Y-50252333D01*
X172529571Y-50299952D01*
X172481952Y-50347571D01*
X172434333Y-50442809D01*
X172434333Y-50680904D01*
X172481952Y-50776142D01*
X172529571Y-50823761D01*
X172624809Y-50871380D01*
X172910523Y-50871380D01*
X173005761Y-50823761D01*
X173053380Y-50776142D01*
%TO.C,J1*%
X121872333Y-60920380D02*
X121872333Y-61634666D01*
X121919952Y-61777523D01*
X122015190Y-61872761D01*
X122158047Y-61920380D01*
X122253285Y-61920380D01*
X120872333Y-61920380D02*
X121443761Y-61920380D01*
X121158047Y-61920380D02*
X121158047Y-60920380D01*
X121253285Y-61063238D01*
X121348523Y-61158476D01*
X121443761Y-61206095D01*
%TO.C,J2*%
X121999333Y-80180380D02*
X121999333Y-80894666D01*
X122046952Y-81037523D01*
X122142190Y-81132761D01*
X122285047Y-81180380D01*
X122380285Y-81180380D01*
X121570761Y-80275619D02*
X121523142Y-80228000D01*
X121427904Y-80180380D01*
X121189809Y-80180380D01*
X121094571Y-80228000D01*
X121046952Y-80275619D01*
X120999333Y-80370857D01*
X120999333Y-80466095D01*
X121046952Y-80608952D01*
X121618380Y-81180380D01*
X120999333Y-81180380D01*
%TO.C,J4*%
X173307333Y-76668380D02*
X173307333Y-77382666D01*
X173354952Y-77525523D01*
X173450190Y-77620761D01*
X173593047Y-77668380D01*
X173688285Y-77668380D01*
X172402571Y-77001714D02*
X172402571Y-77668380D01*
X172640666Y-76620761D02*
X172878761Y-77335047D01*
X172259714Y-77335047D01*
D11*
%TO.C,J3*%
X171256000Y-52329000D02*
X171256000Y-75249000D01*
X171256000Y-51059000D02*
X171256000Y-49729000D01*
X171256000Y-75249000D02*
X168596000Y-75249000D01*
X171256000Y-49729000D02*
X169926000Y-49729000D01*
X171256000Y-52329000D02*
X168596000Y-52329000D01*
X168596000Y-52329000D02*
X168596000Y-75249000D01*
%TO.C,J1*%
X120336000Y-66675000D02*
X120336000Y-79435000D01*
X122996000Y-66675000D02*
X122996000Y-79435000D01*
X122996000Y-64075000D02*
X121666000Y-64075000D01*
X122996000Y-65405000D02*
X122996000Y-64075000D01*
X122996000Y-66675000D02*
X120336000Y-66675000D01*
X122996000Y-79435000D02*
X120336000Y-79435000D01*
%TO.C,J2*%
X120336000Y-84328000D02*
X120336000Y-97088000D01*
X122996000Y-84328000D02*
X122996000Y-97088000D01*
X122996000Y-83058000D02*
X122996000Y-81728000D01*
X122996000Y-97088000D02*
X120336000Y-97088000D01*
X122996000Y-84328000D02*
X120336000Y-84328000D01*
X122996000Y-81728000D02*
X121666000Y-81728000D01*
%TO.C,J4*%
X171256000Y-97103000D02*
X168596000Y-97103000D01*
X168596000Y-79263000D02*
X168596000Y-97103000D01*
X171256000Y-76663000D02*
X169926000Y-76663000D01*
X171256000Y-79263000D02*
X171256000Y-97103000D01*
X171256000Y-77993000D02*
X171256000Y-76663000D01*
X171256000Y-79263000D02*
X168596000Y-79263000D01*
%TD*%
M02*
