%TF.GenerationSoftware,KiCad,Pcbnew,(6.0.10)*%
%TF.CreationDate,2023-03-08T17:02:45-06:00*%
%TF.ProjectId,445,3434352e-6b69-4636-9164-5f7063625858,rev?*%
%TF.SameCoordinates,Original*%
%TF.FileFunction,Soldermask,Bot*%
%TF.FilePolarity,Negative*%
%FSLAX46Y46*%
G04 Gerber Fmt 4.6, Leading zero omitted, Abs format (unit mm)*
G04 Created by KiCad (PCBNEW (6.0.10)) date 2023-03-08 17:02:45*
%MOMM*%
%LPD*%
G01*
G04 APERTURE LIST*
%ADD10R,1.700000X1.700000*%
%ADD11O,1.700000X1.700000*%
%ADD12C,0.650000*%
%ADD13O,2.100000X1.000000*%
%ADD14O,1.800000X1.000000*%
G04 APERTURE END LIST*
D10*
%TO.C,J7*%
X155194000Y-85217000D03*
D11*
X155194000Y-82677000D03*
X155194000Y-80137000D03*
X155194000Y-77597000D03*
X155194000Y-75057000D03*
X155194000Y-72517000D03*
X155194000Y-69977000D03*
X155194000Y-67437000D03*
%TD*%
D10*
%TO.C,J8*%
X151245000Y-120257000D03*
D11*
X151245000Y-117717000D03*
%TD*%
D10*
%TO.C,J10*%
X161913000Y-120130000D03*
D11*
X161913000Y-122670000D03*
X161913000Y-125210000D03*
X161913000Y-127750000D03*
%TD*%
D10*
%TO.C,J9*%
X143112000Y-137402000D03*
D11*
X145652000Y-137402000D03*
%TD*%
D12*
%TO.C,J5*%
X121714000Y-121495951D03*
X121714000Y-127275951D03*
D13*
X122214000Y-120065951D03*
D14*
X118034000Y-120065951D03*
D13*
X122214000Y-128705951D03*
D14*
X118034000Y-128705951D03*
%TD*%
D10*
%TO.C,J6*%
X127762000Y-64516000D03*
D11*
X127762000Y-67056000D03*
X127762000Y-69596000D03*
X127762000Y-72136000D03*
X127762000Y-74676000D03*
X127762000Y-77216000D03*
X127762000Y-79756000D03*
X127762000Y-82296000D03*
%TD*%
D10*
%TO.C,J11*%
X129401000Y-137402000D03*
D11*
X131941000Y-137402000D03*
%TD*%
D10*
%TO.C,J3*%
X169926000Y-51059000D03*
D11*
X169926000Y-53599000D03*
X169926000Y-56139000D03*
X169926000Y-58679000D03*
X169926000Y-61219000D03*
X169926000Y-63759000D03*
X169926000Y-66299000D03*
X169926000Y-68839000D03*
X169926000Y-71379000D03*
X169926000Y-73919000D03*
%TD*%
D10*
%TO.C,J1*%
X121666000Y-65405000D03*
D11*
X121666000Y-67945000D03*
X121666000Y-70485000D03*
X121666000Y-73025000D03*
X121666000Y-75565000D03*
X121666000Y-78105000D03*
%TD*%
D10*
%TO.C,J2*%
X121666000Y-83058000D03*
D11*
X121666000Y-85598000D03*
X121666000Y-88138000D03*
X121666000Y-90678000D03*
X121666000Y-93218000D03*
X121666000Y-95758000D03*
%TD*%
D10*
%TO.C,J4*%
X169926000Y-77993000D03*
D11*
X169926000Y-80533000D03*
X169926000Y-83073000D03*
X169926000Y-85613000D03*
X169926000Y-88153000D03*
X169926000Y-90693000D03*
X169926000Y-93233000D03*
X169926000Y-95773000D03*
%TD*%
M02*
