M48
; DRILL file {KiCad (6.0.10)} date Wed Mar  8 17:02:47 2023
; FORMAT={-:-/ absolute / inch / decimal}
; #@! TF.CreationDate,2023-03-08T17:02:47-06:00
; #@! TF.GenerationSoftware,Kicad,Pcbnew,(6.0.10)
; #@! TF.FileFunction,Plated,1,2,PTH
FMAT,2
INCH
; #@! TA.AperFunction,Plated,PTH,ViaDrill
T1C0.0157
; #@! TA.AperFunction,Plated,PTH,ComponentDrill
T2C0.0236
; #@! TA.AperFunction,Plated,PTH,ComponentDrill
T3C0.0394
%
G90
G05
T1
X4.885Y-4.055
X4.9289Y-4.9926
X4.93Y-2.43
X4.93Y-5.26
X4.9588Y-4.1788
X4.975Y-4.485
X5.035Y-4.9693
X5.15Y-2.43
X5.1552Y-4.8852
X5.1552Y-5.1052
X5.1652Y-4.1385
X5.1926Y-4.8852
X5.2Y-2.555
X5.2252Y-4.3902
X5.2745Y-5.2245
X5.275Y-4.205
X5.3002Y-5.1652
X5.3152Y-3.9802
X5.33Y-1.99
X5.36Y-4.92
X5.3652Y-4.8752
X5.385Y-4.795
X5.3952Y-5.2452
X5.41Y-4.7
X5.4215Y-5.2185
X5.46Y-5.265
X5.48Y-4.225
X5.5058Y-4.8503
X5.5094Y-4.6275
X5.5345Y-5.1395
X5.55Y-4.92
X5.5595Y-4.9685
X5.5657Y-5.1187
X5.5945Y-5.3045
X5.61Y-4.27
X5.63Y-5.1013
X5.6345Y-5.2945
X5.6496Y-5.1596
X5.7202Y-4.3252
X5.7468Y-5.1945
X5.78Y-4.27
X5.7849Y-4.5195
X5.7849Y-4.5745
X5.8115Y-4.7338
X5.8152Y-4.9885
X5.8152Y-5.0452
X5.8237Y-3.5037
X5.8522Y-4.5869
X5.8545Y-4.6345
X5.8663Y-4.864
X5.955Y-3.585
X6.025Y-4.84
X6.08Y-2.38
X6.16Y-4.06
X6.195Y-5.38
X6.215Y-2.44
X6.24Y-4.42
X6.2416Y-2.97
X6.26Y-2.32
X6.262Y-4.737
X6.385Y-2.68
T3
X4.79Y-2.575
X4.79Y-2.675
X4.79Y-2.775
X4.79Y-2.875
X4.79Y-2.975
X4.79Y-3.075
X4.79Y-3.27
X4.79Y-3.37
X4.79Y-3.47
X4.79Y-3.57
X4.79Y-3.67
X4.79Y-3.77
X5.03Y-2.54
X5.03Y-2.64
X5.03Y-2.74
X5.03Y-2.84
X5.03Y-2.94
X5.03Y-3.04
X5.03Y-3.14
X5.03Y-3.24
X5.0945Y-5.4095
X5.1945Y-5.4095
X5.6343Y-5.4095
X5.7343Y-5.4095
X5.9545Y-4.6345
X5.9545Y-4.7345
X6.11Y-2.655
X6.11Y-2.755
X6.11Y-2.855
X6.11Y-2.955
X6.11Y-3.055
X6.11Y-3.155
X6.11Y-3.255
X6.11Y-3.355
X6.3745Y-4.7295
X6.3745Y-4.8295
X6.3745Y-4.9295
X6.3745Y-5.0295
X6.69Y-2.0102
X6.69Y-2.1102
X6.69Y-2.2102
X6.69Y-2.3102
X6.69Y-2.4102
X6.69Y-2.5102
X6.69Y-2.6102
X6.69Y-2.7102
X6.69Y-2.8102
X6.69Y-2.9102
X6.69Y-3.0706
X6.69Y-3.1706
X6.69Y-3.2706
X6.69Y-3.3706
X6.69Y-3.4706
X6.69Y-3.5706
X6.69Y-3.6706
X6.69Y-3.7706
T2
G00X4.6628Y-4.727
M15
G01X4.6313Y-4.727
M16
G05
G00X4.6628Y-5.0672
M15
G01X4.6313Y-5.0672
M16
G05
G00X4.8332Y-4.727
M15
G01X4.7899Y-4.727
M16
G05
G00X4.8332Y-5.0672
M15
G01X4.7899Y-5.0672
M16
G05
T0
M30
