%TF.GenerationSoftware,KiCad,Pcbnew,(6.0.10)*%
%TF.CreationDate,2023-04-05T20:44:51-05:00*%
%TF.ProjectId,445_PD,3434355f-5044-42e6-9b69-6361645f7063,rev?*%
%TF.SameCoordinates,Original*%
%TF.FileFunction,Copper,L2,Bot*%
%TF.FilePolarity,Positive*%
%FSLAX46Y46*%
G04 Gerber Fmt 4.6, Leading zero omitted, Abs format (unit mm)*
G04 Created by KiCad (PCBNEW (6.0.10)) date 2023-04-05 20:44:51*
%MOMM*%
%LPD*%
G01*
G04 APERTURE LIST*
%TA.AperFunction,ComponentPad*%
%ADD10R,1.700000X1.700000*%
%TD*%
%TA.AperFunction,ComponentPad*%
%ADD11O,1.700000X1.700000*%
%TD*%
%TA.AperFunction,ComponentPad*%
%ADD12O,1.000000X1.800000*%
%TD*%
%TA.AperFunction,ComponentPad*%
%ADD13O,1.000000X2.100000*%
%TD*%
%TA.AperFunction,ViaPad*%
%ADD14C,0.800000*%
%TD*%
%TA.AperFunction,Conductor*%
%ADD15C,1.250000*%
%TD*%
%TA.AperFunction,Conductor*%
%ADD16C,0.250000*%
%TD*%
%TA.AperFunction,Conductor*%
%ADD17C,0.500000*%
%TD*%
G04 APERTURE END LIST*
D10*
%TO.P,J8,1,Pin_1*%
%TO.N,/alert*%
X183032400Y-72557400D03*
D11*
%TO.P,J8,2,Pin_2*%
%TO.N,/VSNK_USBC*%
X183032400Y-75097400D03*
%TO.P,J8,3,Pin_3*%
%TO.N,/USBC_SDA*%
X183032400Y-77637400D03*
%TO.P,J8,4,Pin_4*%
%TO.N,/USBC_SCL*%
X183032400Y-80177400D03*
%TO.P,J8,5,Pin_5*%
%TO.N,/GPIO*%
X183032400Y-82717400D03*
%TO.P,J8,6,Pin_6*%
%TO.N,/POWER_OK2*%
X183032400Y-85257400D03*
%TO.P,J8,7,Pin_7*%
%TO.N,/POWER_OK3*%
X183032400Y-87797400D03*
%TO.P,J8,8,Pin_8*%
%TO.N,GND*%
X183032400Y-90337400D03*
%TD*%
D10*
%TO.P,J7,1,Pin_1*%
%TO.N,Net-(C3-Pad1)*%
X152552400Y-94452200D03*
D11*
%TO.P,J7,2,Pin_2*%
%TO.N,Net-(J1-PadA5)*%
X152552400Y-96992200D03*
%TO.P,J7,3,Pin_3*%
%TO.N,Net-(J1-PadB5)*%
X152552400Y-99532200D03*
%TD*%
D10*
%TO.P,J6,1,Pin_1*%
%TO.N,/VSNK_USBC*%
X140309600Y-76860400D03*
%TD*%
%TO.P,J5,1,Pin_1*%
%TO.N,/D+*%
X168402000Y-82758200D03*
D11*
%TO.P,J5,2,Pin_2*%
%TO.N,/D-*%
X168402000Y-80218200D03*
%TD*%
D10*
%TO.P,J4,1,Pin_1*%
%TO.N,GND*%
X162148600Y-113538000D03*
D11*
%TO.P,J4,2,Pin_2*%
X164688600Y-113538000D03*
%TD*%
D10*
%TO.P,J3,1,Pin_1*%
%TO.N,Net-(J3-Pad1)*%
X178358800Y-103586200D03*
D11*
%TO.P,J3,2,Pin_2*%
%TO.N,Net-(J3-Pad2)*%
X178358800Y-101046200D03*
%TD*%
D10*
%TO.P,J2,1,Pin_1*%
%TO.N,Net-(J2-Pad1)*%
X152603200Y-107995800D03*
D11*
%TO.P,J2,2,Pin_2*%
%TO.N,Net-(J2-Pad2)*%
X152603200Y-110535800D03*
%TD*%
D12*
%TO.P,J1,S1,SHIELD*%
%TO.N,unconnected-(J1-PadS1)*%
X161139600Y-70400600D03*
D13*
X152499600Y-74580600D03*
D12*
X152499600Y-70400600D03*
D13*
X161139600Y-74580600D03*
%TD*%
D14*
%TO.N,Net-(R13-Pad1)*%
X164490400Y-108915200D03*
X162204400Y-87325200D03*
%TO.N,/POWER_OK2*%
X187299600Y-109220000D03*
X185420000Y-90424000D03*
X119989600Y-99618800D03*
X117348000Y-104038400D03*
X180187600Y-86817200D03*
X177708950Y-85354550D03*
%TO.N,Net-(J1-PadA5)*%
X158587833Y-76995999D03*
X147370800Y-87878700D03*
%TO.N,/POWER_OK3*%
X179359950Y-83703550D03*
%TO.N,/GPIO*%
X157632400Y-118364000D03*
X152501600Y-118364000D03*
%TO.N,Net-(C3-Pad1)*%
X160338922Y-77760678D03*
X156210000Y-87731600D03*
%TO.N,Net-(Q1-Pad4)*%
X139344400Y-88900000D03*
X152958800Y-87528400D03*
%TO.N,Net-(J1-PadB5)*%
X155092400Y-81381600D03*
X154940000Y-94538800D03*
X155092400Y-91795600D03*
%TO.N,/VDD_USBC*%
X166624000Y-108915200D03*
X176305699Y-108529901D03*
X173431200Y-95097600D03*
X167538400Y-93980000D03*
%TO.N,GND*%
X125069600Y-106629200D03*
%TO.N,Net-(C1-Pad1)*%
X118872000Y-106984800D03*
X151643300Y-91033600D03*
%TO.N,Net-(R6-Pad2)*%
X124409200Y-117449600D03*
X145694400Y-106070400D03*
%TO.N,/USBC_SDA*%
X156542453Y-104036700D03*
%TO.N,Net-(C2-Pad1)*%
X165608000Y-96215200D03*
X117348000Y-100939600D03*
%TO.N,/VDD_USBC*%
X135788400Y-115824000D03*
X129641600Y-122021600D03*
%TO.N,/POWER_OK3*%
X173482000Y-100634800D03*
%TO.N,/GPIO*%
X169583750Y-99966209D03*
X170789600Y-98094800D03*
%TO.N,/USBC_SCL*%
X160145304Y-107414904D03*
%TO.N,/USBC_SDA*%
X134823200Y-98145600D03*
%TO.N,Net-(R10-Pad2)*%
X135432800Y-92811600D03*
X168568460Y-99956900D03*
%TO.N,Net-(R5-Pad1)*%
X181203600Y-97688400D03*
X154584400Y-103835200D03*
%TO.N,Net-(C3-Pad1)*%
X150418800Y-89103200D03*
X136702800Y-79400400D03*
%TD*%
D15*
%TO.N,Net-(R13-Pad1)*%
X185674000Y-114198400D02*
X169773600Y-114198400D01*
X190093600Y-109778800D02*
X185674000Y-114198400D01*
X190093600Y-75742800D02*
X190093600Y-109778800D01*
X180213209Y-69976791D02*
X184327591Y-69976791D01*
X175940453Y-74249547D02*
X180213209Y-69976791D01*
X164846000Y-85852000D02*
X164846000Y-75184000D01*
X163372800Y-87325200D02*
X164846000Y-85852000D01*
X169773600Y-114198400D02*
X164490400Y-108915200D01*
X184327591Y-69976791D02*
X190093600Y-75742800D01*
X162204400Y-87325200D02*
X163372800Y-87325200D01*
X164846000Y-75184000D02*
X165780453Y-74249547D01*
X165780453Y-74249547D02*
X175940453Y-74249547D01*
D16*
%TO.N,/VDD_USBC*%
X167538400Y-93980000D02*
X168656000Y-95097600D01*
X168656000Y-95097600D02*
X173431200Y-95097600D01*
%TO.N,/POWER_OK2*%
X187401200Y-109118400D02*
X187299600Y-109220000D01*
X187401200Y-92405200D02*
X187401200Y-109118400D01*
X185420000Y-90424000D02*
X187401200Y-92405200D01*
X117348000Y-102260400D02*
X117348000Y-104038400D01*
X119989600Y-99618800D02*
X117348000Y-102260400D01*
X179171600Y-86817200D02*
X180187600Y-86817200D01*
X177708950Y-85354550D02*
X179171600Y-86817200D01*
%TO.N,/POWER_OK3*%
X179359950Y-84124950D02*
X183032400Y-87797400D01*
%TO.N,Net-(J1-PadA5)*%
X144729200Y-83820000D02*
X147370800Y-86461600D01*
X147370800Y-86461600D02*
X147370800Y-87878700D01*
X157813629Y-78435200D02*
X148488400Y-78435200D01*
X158587833Y-77660996D02*
X157813629Y-78435200D01*
X158587833Y-76995999D02*
X158587833Y-77660996D01*
X148488400Y-78435200D02*
X144729200Y-82194400D01*
X144729200Y-82194400D02*
X144729200Y-83820000D01*
%TO.N,/POWER_OK3*%
X179359950Y-83703550D02*
X179359950Y-84124950D01*
%TO.N,/GPIO*%
X152501600Y-118364000D02*
X157632400Y-118364000D01*
D15*
%TO.N,Net-(C3-Pad1)*%
X156210000Y-81889600D02*
X160338922Y-77760678D01*
X156210000Y-87731600D02*
X156210000Y-81889600D01*
D16*
%TO.N,Net-(Q1-Pad4)*%
X140614400Y-90170000D02*
X139344400Y-88900000D01*
X152958800Y-89001600D02*
X151790400Y-90170000D01*
X152958800Y-87528400D02*
X152958800Y-89001600D01*
X151790400Y-90170000D02*
X140614400Y-90170000D01*
D15*
%TO.N,GND*%
X162148600Y-113538000D02*
X164688600Y-113538000D01*
D16*
%TO.N,Net-(J1-PadB5)*%
X154940000Y-97144600D02*
X152552400Y-99532200D01*
X154940000Y-94538800D02*
X154940000Y-97144600D01*
X155092400Y-81381600D02*
X155092400Y-91795600D01*
%TO.N,/VDD_USBC*%
X167009299Y-108529901D02*
X166624000Y-108915200D01*
X176305699Y-108529901D02*
X167009299Y-108529901D01*
%TO.N,/USBC_SCL*%
X184207400Y-81352400D02*
X183032400Y-80177400D01*
X179552102Y-107086400D02*
X184207400Y-102431102D01*
X184207400Y-102431102D02*
X184207400Y-81352400D01*
X161502400Y-107086400D02*
X179552102Y-107086400D01*
X161173896Y-107414904D02*
X161502400Y-107086400D01*
X160145304Y-107414904D02*
X161173896Y-107414904D01*
D15*
%TO.N,GND*%
X127304800Y-104394000D02*
X125069600Y-106629200D01*
X142748000Y-104394000D02*
X127304800Y-104394000D01*
X153236592Y-113538000D02*
X149402800Y-109704208D01*
X149402800Y-106426000D02*
X147370800Y-104394000D01*
X149402800Y-109704208D02*
X149402800Y-106426000D01*
X162148600Y-113538000D02*
X153236592Y-113538000D01*
X147370800Y-104394000D02*
X142748000Y-104394000D01*
D16*
%TO.N,Net-(C1-Pad1)*%
X114503200Y-102616000D02*
X118872000Y-106984800D01*
X114503200Y-100990400D02*
X114503200Y-102616000D01*
X151643300Y-91033600D02*
X120395628Y-91033600D01*
X120395628Y-91033600D02*
X114503200Y-96926028D01*
X114503200Y-96926028D02*
X114503200Y-100990400D01*
%TO.N,Net-(R6-Pad2)*%
X126984800Y-114874000D02*
X124409200Y-117449600D01*
X145694400Y-107410381D02*
X138230781Y-114874000D01*
X138230781Y-114874000D02*
X126984800Y-114874000D01*
X145694400Y-106070400D02*
X145694400Y-107410381D01*
%TO.N,/USBC_SDA*%
X139039600Y-102362000D02*
X134823200Y-98145600D01*
X154867753Y-102362000D02*
X139039600Y-102362000D01*
X156542453Y-104036700D02*
X154867753Y-102362000D01*
X174650400Y-86019400D02*
X183032400Y-77637400D01*
X156542453Y-104036700D02*
X156816953Y-104311200D01*
X156816953Y-104311200D02*
X167265600Y-104311200D01*
X167265600Y-104311200D02*
X174650400Y-96926400D01*
X174650400Y-96926400D02*
X174650400Y-86019400D01*
D17*
%TO.N,Net-(C2-Pad1)*%
X160731200Y-96215200D02*
X165608000Y-96215200D01*
X155159400Y-101787000D02*
X160731200Y-96215200D01*
X150809000Y-101787000D02*
X155159400Y-101787000D01*
X149910800Y-100888800D02*
X150809000Y-101787000D01*
X149910800Y-98729078D02*
X149910800Y-100888800D01*
X147244522Y-96062800D02*
X149910800Y-98729078D01*
X116179600Y-96062800D02*
X147244522Y-96062800D01*
X115722400Y-96520000D02*
X116179600Y-96062800D01*
X115722400Y-99314000D02*
X115722400Y-96520000D01*
X117348000Y-100939600D02*
X115722400Y-99314000D01*
D15*
%TO.N,/VDD_USBC*%
X129641600Y-121970800D02*
X135788400Y-115824000D01*
X129641600Y-122021600D02*
X129641600Y-121970800D01*
D16*
%TO.N,/POWER_OK3*%
X181857400Y-92259400D02*
X181857400Y-88972400D01*
X181857400Y-88972400D02*
X183032400Y-87797400D01*
X173482000Y-100634800D02*
X181857400Y-92259400D01*
%TO.N,/GPIO*%
X169583750Y-99966209D02*
X170789600Y-98760359D01*
X170789600Y-98760359D02*
X170789600Y-98094800D01*
%TO.N,Net-(R10-Pad2)*%
X169875200Y-98650160D02*
X169875200Y-97840800D01*
X168568460Y-99956900D02*
X169875200Y-98650160D01*
X169875200Y-97840800D02*
X164846000Y-92811600D01*
X164846000Y-92811600D02*
X135432800Y-92811600D01*
D15*
%TO.N,Net-(R5-Pad1)*%
X181203600Y-104091400D02*
X181203600Y-97688400D01*
X180033800Y-105261200D02*
X181203600Y-104091400D01*
X156010400Y-105261200D02*
X180033800Y-105261200D01*
X154584400Y-103835200D02*
X156010400Y-105261200D01*
%TO.N,Net-(C3-Pad1)*%
X136702800Y-79400400D02*
X146405600Y-89103200D01*
X146405600Y-89103200D02*
X150418800Y-89103200D01*
%TD*%
%TA.AperFunction,Conductor*%
%TO.N,GND*%
G36*
X198620421Y-68194102D02*
G01*
X198666914Y-68247758D01*
X198678300Y-68300100D01*
X198678300Y-128549900D01*
X198658298Y-128618021D01*
X198604642Y-128664514D01*
X198552300Y-128675900D01*
X112292900Y-128675900D01*
X112224779Y-128655898D01*
X112178286Y-128602242D01*
X112166900Y-128549900D01*
X112166900Y-117449600D01*
X123495696Y-117449600D01*
X123496386Y-117456165D01*
X123500772Y-117497891D01*
X123515658Y-117639528D01*
X123574673Y-117821156D01*
X123670160Y-117986544D01*
X123797947Y-118128466D01*
X123952448Y-118240718D01*
X123958476Y-118243402D01*
X123958478Y-118243403D01*
X124120881Y-118315709D01*
X124126912Y-118318394D01*
X124220312Y-118338247D01*
X124307256Y-118356728D01*
X124307261Y-118356728D01*
X124313713Y-118358100D01*
X124504687Y-118358100D01*
X124511139Y-118356728D01*
X124511144Y-118356728D01*
X124598088Y-118338247D01*
X124691488Y-118318394D01*
X124697519Y-118315709D01*
X124859922Y-118243403D01*
X124859924Y-118243402D01*
X124865952Y-118240718D01*
X125020453Y-118128466D01*
X125148240Y-117986544D01*
X125243727Y-117821156D01*
X125302742Y-117639528D01*
X125320107Y-117474306D01*
X125347120Y-117408650D01*
X125356322Y-117398382D01*
X127210299Y-115544405D01*
X127272611Y-115510379D01*
X127299394Y-115507500D01*
X134197699Y-115507500D01*
X134265820Y-115527502D01*
X134312313Y-115581158D01*
X134322417Y-115651432D01*
X134292923Y-115716012D01*
X134286794Y-115722595D01*
X128915309Y-121094080D01*
X128906824Y-121101244D01*
X128907008Y-121101457D01*
X128902472Y-121105372D01*
X128897579Y-121108843D01*
X128893433Y-121113174D01*
X128831995Y-121177353D01*
X128830072Y-121179317D01*
X128801882Y-121207507D01*
X128799973Y-121209819D01*
X128799970Y-121209822D01*
X128796996Y-121213424D01*
X128790861Y-121220321D01*
X128752163Y-121260746D01*
X128752160Y-121260750D01*
X128748010Y-121265085D01*
X128744757Y-121270124D01*
X128744754Y-121270127D01*
X128729340Y-121294000D01*
X128720642Y-121305883D01*
X128698724Y-121332425D01*
X128669006Y-121386819D01*
X128664293Y-121394739D01*
X128633941Y-121441746D01*
X128633939Y-121441750D01*
X128630684Y-121446791D01*
X128617816Y-121478720D01*
X128611528Y-121492022D01*
X128595021Y-121522235D01*
X128593195Y-121527940D01*
X128593194Y-121527942D01*
X128576131Y-121581249D01*
X128572995Y-121589935D01*
X128549834Y-121647404D01*
X128548684Y-121653290D01*
X128548684Y-121653292D01*
X128543237Y-121681185D01*
X128539575Y-121695448D01*
X128529081Y-121728232D01*
X128528366Y-121734181D01*
X128528365Y-121734187D01*
X128521689Y-121789755D01*
X128520253Y-121798875D01*
X128511786Y-121842235D01*
X128508378Y-121859687D01*
X128508100Y-121865371D01*
X128508100Y-121895345D01*
X128507201Y-121910373D01*
X128503284Y-121942980D01*
X128503707Y-121948956D01*
X128503707Y-121948959D01*
X128507785Y-122006551D01*
X128508100Y-122015450D01*
X128508100Y-122075641D01*
X128523487Y-122236915D01*
X128584374Y-122444460D01*
X128587118Y-122449787D01*
X128587118Y-122449788D01*
X128667397Y-122605658D01*
X128683409Y-122636748D01*
X128687113Y-122641463D01*
X128813311Y-122802122D01*
X128813315Y-122802127D01*
X128817017Y-122806839D01*
X128821547Y-122810770D01*
X128821548Y-122810771D01*
X128975848Y-122944667D01*
X128975853Y-122944671D01*
X128980379Y-122948598D01*
X129167599Y-123056907D01*
X129278395Y-123095382D01*
X129366258Y-123125893D01*
X129366260Y-123125894D01*
X129371923Y-123127860D01*
X129377858Y-123128721D01*
X129377860Y-123128721D01*
X129580037Y-123158036D01*
X129580040Y-123158036D01*
X129585977Y-123158897D01*
X129802038Y-123148896D01*
X129937370Y-123116281D01*
X130006477Y-123099626D01*
X130006479Y-123099625D01*
X130012310Y-123098220D01*
X130017768Y-123095738D01*
X130017772Y-123095737D01*
X130136948Y-123041551D01*
X130209206Y-123008697D01*
X130385621Y-122883557D01*
X130535190Y-122727315D01*
X130613743Y-122605658D01*
X130630500Y-122584911D01*
X134851411Y-118364000D01*
X151588096Y-118364000D01*
X151608058Y-118553928D01*
X151667073Y-118735556D01*
X151762560Y-118900944D01*
X151890347Y-119042866D01*
X152044848Y-119155118D01*
X152050876Y-119157802D01*
X152050878Y-119157803D01*
X152213281Y-119230109D01*
X152219312Y-119232794D01*
X152312712Y-119252647D01*
X152399656Y-119271128D01*
X152399661Y-119271128D01*
X152406113Y-119272500D01*
X152597087Y-119272500D01*
X152603539Y-119271128D01*
X152603544Y-119271128D01*
X152690488Y-119252647D01*
X152783888Y-119232794D01*
X152789919Y-119230109D01*
X152952322Y-119157803D01*
X152952324Y-119157802D01*
X152958352Y-119155118D01*
X153112853Y-119042866D01*
X153117268Y-119037963D01*
X153122180Y-119033540D01*
X153123305Y-119034789D01*
X153176614Y-119001949D01*
X153209800Y-118997500D01*
X156924200Y-118997500D01*
X156992321Y-119017502D01*
X157011547Y-119033843D01*
X157011820Y-119033540D01*
X157016732Y-119037963D01*
X157021147Y-119042866D01*
X157175648Y-119155118D01*
X157181676Y-119157802D01*
X157181678Y-119157803D01*
X157344081Y-119230109D01*
X157350112Y-119232794D01*
X157443512Y-119252647D01*
X157530456Y-119271128D01*
X157530461Y-119271128D01*
X157536913Y-119272500D01*
X157727887Y-119272500D01*
X157734339Y-119271128D01*
X157734344Y-119271128D01*
X157821288Y-119252647D01*
X157914688Y-119232794D01*
X157920719Y-119230109D01*
X158083122Y-119157803D01*
X158083124Y-119157802D01*
X158089152Y-119155118D01*
X158243653Y-119042866D01*
X158371440Y-118900944D01*
X158466927Y-118735556D01*
X158525942Y-118553928D01*
X158545904Y-118364000D01*
X158541111Y-118318394D01*
X158526632Y-118180635D01*
X158526632Y-118180633D01*
X158525942Y-118174072D01*
X158466927Y-117992444D01*
X158371440Y-117827056D01*
X158243653Y-117685134D01*
X158089152Y-117572882D01*
X158083124Y-117570198D01*
X158083122Y-117570197D01*
X157920719Y-117497891D01*
X157920718Y-117497891D01*
X157914688Y-117495206D01*
X157821287Y-117475353D01*
X157734344Y-117456872D01*
X157734339Y-117456872D01*
X157727887Y-117455500D01*
X157536913Y-117455500D01*
X157530461Y-117456872D01*
X157530456Y-117456872D01*
X157443513Y-117475353D01*
X157350112Y-117495206D01*
X157344082Y-117497891D01*
X157344081Y-117497891D01*
X157181678Y-117570197D01*
X157181676Y-117570198D01*
X157175648Y-117572882D01*
X157021147Y-117685134D01*
X157016732Y-117690037D01*
X157011820Y-117694460D01*
X157010695Y-117693211D01*
X156957386Y-117726051D01*
X156924200Y-117730500D01*
X153209800Y-117730500D01*
X153141679Y-117710498D01*
X153122453Y-117694157D01*
X153122180Y-117694460D01*
X153117268Y-117690037D01*
X153112853Y-117685134D01*
X152958352Y-117572882D01*
X152952324Y-117570198D01*
X152952322Y-117570197D01*
X152789919Y-117497891D01*
X152789918Y-117497891D01*
X152783888Y-117495206D01*
X152690487Y-117475353D01*
X152603544Y-117456872D01*
X152603539Y-117456872D01*
X152597087Y-117455500D01*
X152406113Y-117455500D01*
X152399661Y-117456872D01*
X152399656Y-117456872D01*
X152312713Y-117475353D01*
X152219312Y-117495206D01*
X152213282Y-117497891D01*
X152213281Y-117497891D01*
X152050878Y-117570197D01*
X152050876Y-117570198D01*
X152044848Y-117572882D01*
X151890347Y-117685134D01*
X151762560Y-117827056D01*
X151667073Y-117992444D01*
X151608058Y-118174072D01*
X151607368Y-118180633D01*
X151607368Y-118180635D01*
X151592889Y-118318394D01*
X151588096Y-118364000D01*
X134851411Y-118364000D01*
X136628118Y-116587293D01*
X136630015Y-116584995D01*
X136630023Y-116584987D01*
X136727457Y-116466999D01*
X136731276Y-116462375D01*
X136834979Y-116272564D01*
X136900919Y-116066568D01*
X136926716Y-115851820D01*
X136911888Y-115642398D01*
X136927029Y-115573036D01*
X136977266Y-115522869D01*
X137037573Y-115507500D01*
X138152014Y-115507500D01*
X138163197Y-115508027D01*
X138170690Y-115509702D01*
X138178616Y-115509453D01*
X138178617Y-115509453D01*
X138238767Y-115507562D01*
X138242726Y-115507500D01*
X138270637Y-115507500D01*
X138274572Y-115507003D01*
X138274637Y-115506995D01*
X138286474Y-115506062D01*
X138318732Y-115505048D01*
X138322751Y-115504922D01*
X138330670Y-115504673D01*
X138350124Y-115499021D01*
X138369481Y-115495013D01*
X138381711Y-115493468D01*
X138381712Y-115493468D01*
X138389578Y-115492474D01*
X138396949Y-115489555D01*
X138396951Y-115489555D01*
X138430693Y-115476196D01*
X138441923Y-115472351D01*
X138476764Y-115462229D01*
X138476765Y-115462229D01*
X138484374Y-115460018D01*
X138491193Y-115455985D01*
X138491198Y-115455983D01*
X138501809Y-115449707D01*
X138519557Y-115441012D01*
X138538398Y-115433552D01*
X138574168Y-115407564D01*
X138584088Y-115401048D01*
X138615316Y-115382580D01*
X138615319Y-115382578D01*
X138622143Y-115378542D01*
X138636464Y-115364221D01*
X138651498Y-115351380D01*
X138661475Y-115344131D01*
X138667888Y-115339472D01*
X138696079Y-115305395D01*
X138704069Y-115296616D01*
X139568016Y-114432669D01*
X160790601Y-114432669D01*
X160790971Y-114439490D01*
X160796495Y-114490352D01*
X160800121Y-114505604D01*
X160845276Y-114626054D01*
X160853814Y-114641649D01*
X160930315Y-114743724D01*
X160942876Y-114756285D01*
X161044951Y-114832786D01*
X161060546Y-114841324D01*
X161180994Y-114886478D01*
X161196249Y-114890105D01*
X161247114Y-114895631D01*
X161253928Y-114896000D01*
X161876485Y-114896000D01*
X161891724Y-114891525D01*
X161892929Y-114890135D01*
X161894600Y-114882452D01*
X161894600Y-114877884D01*
X162402600Y-114877884D01*
X162407075Y-114893123D01*
X162408465Y-114894328D01*
X162416148Y-114895999D01*
X163043269Y-114895999D01*
X163050090Y-114895629D01*
X163100952Y-114890105D01*
X163116204Y-114886479D01*
X163236654Y-114841324D01*
X163252249Y-114832786D01*
X163354324Y-114756285D01*
X163366885Y-114743724D01*
X163443386Y-114641649D01*
X163451925Y-114626052D01*
X163493025Y-114516418D01*
X163535666Y-114459653D01*
X163602228Y-114434953D01*
X163671577Y-114450160D01*
X163706245Y-114478150D01*
X163731819Y-114507674D01*
X163739180Y-114514883D01*
X163903034Y-114650916D01*
X163911481Y-114656831D01*
X164095356Y-114764279D01*
X164104642Y-114768729D01*
X164303601Y-114844703D01*
X164313499Y-114847579D01*
X164416850Y-114868606D01*
X164430899Y-114867410D01*
X164434600Y-114857065D01*
X164434600Y-114856517D01*
X164942600Y-114856517D01*
X164946664Y-114870359D01*
X164960078Y-114872393D01*
X164966784Y-114871534D01*
X164976862Y-114869392D01*
X165180855Y-114808191D01*
X165190442Y-114804433D01*
X165381695Y-114710739D01*
X165390545Y-114705464D01*
X165563928Y-114581792D01*
X165571800Y-114575139D01*
X165722652Y-114424812D01*
X165729330Y-114416965D01*
X165853603Y-114244020D01*
X165858913Y-114235183D01*
X165953270Y-114044267D01*
X165957069Y-114034672D01*
X166018977Y-113830910D01*
X166021155Y-113820837D01*
X166022586Y-113809962D01*
X166020375Y-113795778D01*
X166007217Y-113792000D01*
X164960715Y-113792000D01*
X164945476Y-113796475D01*
X164944271Y-113797865D01*
X164942600Y-113805548D01*
X164942600Y-114856517D01*
X164434600Y-114856517D01*
X164434600Y-113810115D01*
X164430125Y-113794876D01*
X164428735Y-113793671D01*
X164421052Y-113792000D01*
X162420715Y-113792000D01*
X162405476Y-113796475D01*
X162404271Y-113797865D01*
X162402600Y-113805548D01*
X162402600Y-114877884D01*
X161894600Y-114877884D01*
X161894600Y-113810115D01*
X161890125Y-113794876D01*
X161888735Y-113793671D01*
X161881052Y-113792000D01*
X160808716Y-113792000D01*
X160793477Y-113796475D01*
X160792272Y-113797865D01*
X160790601Y-113805548D01*
X160790601Y-114432669D01*
X139568016Y-114432669D01*
X140734800Y-113265885D01*
X160790600Y-113265885D01*
X160795075Y-113281124D01*
X160796465Y-113282329D01*
X160804148Y-113284000D01*
X161876485Y-113284000D01*
X161891724Y-113279525D01*
X161892929Y-113278135D01*
X161894600Y-113270452D01*
X161894600Y-113265885D01*
X162402600Y-113265885D01*
X162407075Y-113281124D01*
X162408465Y-113282329D01*
X162416148Y-113284000D01*
X164416485Y-113284000D01*
X164431724Y-113279525D01*
X164432929Y-113278135D01*
X164434600Y-113270452D01*
X164434600Y-113265885D01*
X164942600Y-113265885D01*
X164947075Y-113281124D01*
X164948465Y-113282329D01*
X164956148Y-113284000D01*
X166006944Y-113284000D01*
X166020475Y-113280027D01*
X166021780Y-113270947D01*
X165979814Y-113103875D01*
X165976494Y-113094124D01*
X165891572Y-112898814D01*
X165886705Y-112889739D01*
X165771026Y-112710926D01*
X165764736Y-112702757D01*
X165621406Y-112545240D01*
X165613873Y-112538215D01*
X165446739Y-112406222D01*
X165438152Y-112400517D01*
X165251717Y-112297599D01*
X165242305Y-112293369D01*
X165041559Y-112222280D01*
X165031588Y-112219646D01*
X164960437Y-112206972D01*
X164947140Y-112208432D01*
X164942600Y-112222989D01*
X164942600Y-113265885D01*
X164434600Y-113265885D01*
X164434600Y-112221102D01*
X164430682Y-112207758D01*
X164416406Y-112205771D01*
X164377924Y-112211660D01*
X164367888Y-112214051D01*
X164165468Y-112280212D01*
X164155959Y-112284209D01*
X163967063Y-112382542D01*
X163958338Y-112388036D01*
X163788033Y-112515905D01*
X163780326Y-112522748D01*
X163702694Y-112603985D01*
X163641170Y-112639415D01*
X163570257Y-112635958D01*
X163512471Y-112594712D01*
X163493618Y-112561164D01*
X163451924Y-112449946D01*
X163443386Y-112434351D01*
X163366885Y-112332276D01*
X163354324Y-112319715D01*
X163252249Y-112243214D01*
X163236654Y-112234676D01*
X163116206Y-112189522D01*
X163100951Y-112185895D01*
X163050086Y-112180369D01*
X163043272Y-112180000D01*
X162420715Y-112180000D01*
X162405476Y-112184475D01*
X162404271Y-112185865D01*
X162402600Y-112193548D01*
X162402600Y-113265885D01*
X161894600Y-113265885D01*
X161894600Y-112198116D01*
X161890125Y-112182877D01*
X161888735Y-112181672D01*
X161881052Y-112180001D01*
X161253931Y-112180001D01*
X161247110Y-112180371D01*
X161196248Y-112185895D01*
X161180996Y-112189521D01*
X161060546Y-112234676D01*
X161044951Y-112243214D01*
X160942876Y-112319715D01*
X160930315Y-112332276D01*
X160853814Y-112434351D01*
X160845276Y-112449946D01*
X160800122Y-112570394D01*
X160796495Y-112585649D01*
X160790969Y-112636514D01*
X160790600Y-112643328D01*
X160790600Y-113265885D01*
X140734800Y-113265885D01*
X143498190Y-110502495D01*
X151240451Y-110502495D01*
X151240748Y-110507648D01*
X151240748Y-110507651D01*
X151246211Y-110602390D01*
X151253310Y-110725515D01*
X151254447Y-110730561D01*
X151254448Y-110730567D01*
X151274319Y-110818739D01*
X151302422Y-110943439D01*
X151386466Y-111150416D01*
X151503187Y-111340888D01*
X151649450Y-111509738D01*
X151821326Y-111652432D01*
X152014200Y-111765138D01*
X152222892Y-111844830D01*
X152227960Y-111845861D01*
X152227963Y-111845862D01*
X152335217Y-111867683D01*
X152441797Y-111889367D01*
X152446972Y-111889557D01*
X152446974Y-111889557D01*
X152659873Y-111897364D01*
X152659877Y-111897364D01*
X152665037Y-111897553D01*
X152670157Y-111896897D01*
X152670159Y-111896897D01*
X152881488Y-111869825D01*
X152881489Y-111869825D01*
X152886616Y-111869168D01*
X152891566Y-111867683D01*
X153095629Y-111806461D01*
X153095634Y-111806459D01*
X153100584Y-111804974D01*
X153301194Y-111706696D01*
X153483060Y-111576973D01*
X153641296Y-111419289D01*
X153700794Y-111336489D01*
X153768635Y-111242077D01*
X153771653Y-111237877D01*
X153870630Y-111037611D01*
X153935570Y-110823869D01*
X153964729Y-110602390D01*
X153964811Y-110599040D01*
X153966274Y-110539165D01*
X153966274Y-110539161D01*
X153966356Y-110535800D01*
X153948052Y-110313161D01*
X153893631Y-110096502D01*
X153804554Y-109891640D01*
X153723771Y-109766768D01*
X153686022Y-109708417D01*
X153686020Y-109708414D01*
X153683214Y-109704077D01*
X153679732Y-109700250D01*
X153535998Y-109542288D01*
X153504946Y-109478442D01*
X153513341Y-109407943D01*
X153558517Y-109353175D01*
X153584961Y-109339506D01*
X153691497Y-109299567D01*
X153699905Y-109296415D01*
X153816461Y-109209061D01*
X153903815Y-109092505D01*
X153954945Y-108956116D01*
X153961700Y-108893934D01*
X153961700Y-107097666D01*
X153954945Y-107035484D01*
X153903815Y-106899095D01*
X153816461Y-106782539D01*
X153699905Y-106695185D01*
X153563516Y-106644055D01*
X153501334Y-106637300D01*
X151705066Y-106637300D01*
X151642884Y-106644055D01*
X151506495Y-106695185D01*
X151389939Y-106782539D01*
X151302585Y-106899095D01*
X151251455Y-107035484D01*
X151244700Y-107097666D01*
X151244700Y-108893934D01*
X151251455Y-108956116D01*
X151302585Y-109092505D01*
X151389939Y-109209061D01*
X151506495Y-109296415D01*
X151514904Y-109299567D01*
X151514905Y-109299568D01*
X151623651Y-109340335D01*
X151680416Y-109382976D01*
X151705116Y-109449538D01*
X151689909Y-109518887D01*
X151670516Y-109545368D01*
X151543829Y-109677938D01*
X151540915Y-109682210D01*
X151540914Y-109682211D01*
X151486587Y-109761852D01*
X151417943Y-109862480D01*
X151403680Y-109893207D01*
X151328975Y-110054147D01*
X151323888Y-110065105D01*
X151264189Y-110280370D01*
X151240451Y-110502495D01*
X143498190Y-110502495D01*
X146086647Y-107914038D01*
X146094937Y-107906494D01*
X146101418Y-107902381D01*
X146148059Y-107852713D01*
X146150813Y-107849872D01*
X146170534Y-107830151D01*
X146173012Y-107826956D01*
X146180718Y-107817934D01*
X146183175Y-107815318D01*
X146210986Y-107785702D01*
X146220746Y-107767949D01*
X146231599Y-107751426D01*
X146239153Y-107741687D01*
X146244013Y-107735422D01*
X146261576Y-107694838D01*
X146266783Y-107684208D01*
X146288095Y-107645441D01*
X146290066Y-107637764D01*
X146290068Y-107637759D01*
X146293132Y-107625823D01*
X146299538Y-107607111D01*
X146300525Y-107604832D01*
X146307581Y-107588526D01*
X146308821Y-107580698D01*
X146308823Y-107580691D01*
X146314499Y-107544857D01*
X146316905Y-107533237D01*
X146325928Y-107498092D01*
X146325928Y-107498091D01*
X146327900Y-107490411D01*
X146327900Y-107470157D01*
X146329451Y-107450446D01*
X146331380Y-107438267D01*
X146332620Y-107430438D01*
X146328459Y-107386419D01*
X146327900Y-107374562D01*
X146327900Y-106772924D01*
X146347902Y-106704803D01*
X146360258Y-106688621D01*
X146433440Y-106607344D01*
X146522219Y-106453574D01*
X146525623Y-106447679D01*
X146525624Y-106447678D01*
X146528927Y-106441956D01*
X146587942Y-106260328D01*
X146590236Y-106238507D01*
X146607214Y-106076965D01*
X146607904Y-106070400D01*
X146601489Y-106009367D01*
X146588632Y-105887035D01*
X146588632Y-105887033D01*
X146587942Y-105880472D01*
X146528927Y-105698844D01*
X146433440Y-105533456D01*
X146305653Y-105391534D01*
X146151152Y-105279282D01*
X146145124Y-105276598D01*
X146145122Y-105276597D01*
X145982719Y-105204291D01*
X145982718Y-105204291D01*
X145976688Y-105201606D01*
X145883287Y-105181753D01*
X145796344Y-105163272D01*
X145796339Y-105163272D01*
X145789887Y-105161900D01*
X145598913Y-105161900D01*
X145592461Y-105163272D01*
X145592456Y-105163272D01*
X145505513Y-105181753D01*
X145412112Y-105201606D01*
X145406082Y-105204291D01*
X145406081Y-105204291D01*
X145243678Y-105276597D01*
X145243676Y-105276598D01*
X145237648Y-105279282D01*
X145083147Y-105391534D01*
X144955360Y-105533456D01*
X144859873Y-105698844D01*
X144800858Y-105880472D01*
X144800168Y-105887033D01*
X144800168Y-105887035D01*
X144787311Y-106009367D01*
X144780896Y-106070400D01*
X144781586Y-106076965D01*
X144798565Y-106238507D01*
X144800858Y-106260328D01*
X144859873Y-106441956D01*
X144863176Y-106447678D01*
X144863177Y-106447679D01*
X144866581Y-106453574D01*
X144955360Y-106607344D01*
X145028537Y-106688615D01*
X145059253Y-106752621D01*
X145060900Y-106772924D01*
X145060900Y-107095786D01*
X145040898Y-107163907D01*
X145023995Y-107184881D01*
X138005281Y-114203595D01*
X137942969Y-114237621D01*
X137916186Y-114240500D01*
X127063563Y-114240500D01*
X127052379Y-114239973D01*
X127044891Y-114238299D01*
X127036968Y-114238548D01*
X126976833Y-114240438D01*
X126972875Y-114240500D01*
X126944944Y-114240500D01*
X126941029Y-114240995D01*
X126941025Y-114240995D01*
X126940967Y-114241003D01*
X126940938Y-114241006D01*
X126929096Y-114241939D01*
X126884910Y-114243327D01*
X126867544Y-114248372D01*
X126865458Y-114248978D01*
X126846106Y-114252986D01*
X126833868Y-114254532D01*
X126833866Y-114254533D01*
X126826003Y-114255526D01*
X126784886Y-114271806D01*
X126773685Y-114275641D01*
X126731206Y-114287982D01*
X126724387Y-114292015D01*
X126724382Y-114292017D01*
X126713771Y-114298293D01*
X126696021Y-114306990D01*
X126677183Y-114314448D01*
X126670767Y-114319109D01*
X126670766Y-114319110D01*
X126641425Y-114340428D01*
X126631501Y-114346947D01*
X126600260Y-114365422D01*
X126600255Y-114365426D01*
X126593437Y-114369458D01*
X126579113Y-114383782D01*
X126564081Y-114396621D01*
X126547693Y-114408528D01*
X126522079Y-114439490D01*
X126519512Y-114442593D01*
X126511522Y-114451373D01*
X124458700Y-116504195D01*
X124396388Y-116538221D01*
X124369605Y-116541100D01*
X124313713Y-116541100D01*
X124307261Y-116542472D01*
X124307256Y-116542472D01*
X124220312Y-116560953D01*
X124126912Y-116580806D01*
X124120882Y-116583491D01*
X124120881Y-116583491D01*
X123958478Y-116655797D01*
X123958476Y-116655798D01*
X123952448Y-116658482D01*
X123797947Y-116770734D01*
X123670160Y-116912656D01*
X123574673Y-117078044D01*
X123515658Y-117259672D01*
X123495696Y-117449600D01*
X112166900Y-117449600D01*
X112166900Y-96905971D01*
X113864980Y-96905971D01*
X113865726Y-96913863D01*
X113869141Y-96949989D01*
X113869700Y-96961847D01*
X113869700Y-102537233D01*
X113869173Y-102548416D01*
X113867498Y-102555909D01*
X113867747Y-102563835D01*
X113867747Y-102563836D01*
X113869638Y-102623986D01*
X113869700Y-102627945D01*
X113869700Y-102655856D01*
X113870197Y-102659790D01*
X113870197Y-102659791D01*
X113870205Y-102659856D01*
X113871138Y-102671693D01*
X113872527Y-102715889D01*
X113878178Y-102735339D01*
X113882187Y-102754700D01*
X113882920Y-102760498D01*
X113884726Y-102774797D01*
X113887645Y-102782168D01*
X113887645Y-102782170D01*
X113901004Y-102815912D01*
X113904849Y-102827142D01*
X113917182Y-102869593D01*
X113921215Y-102876412D01*
X113921217Y-102876417D01*
X113927493Y-102887028D01*
X113936188Y-102904776D01*
X113943648Y-102923617D01*
X113948310Y-102930033D01*
X113948310Y-102930034D01*
X113969636Y-102959387D01*
X113976152Y-102969307D01*
X113993701Y-102998980D01*
X113998658Y-103007362D01*
X114012979Y-103021683D01*
X114025819Y-103036716D01*
X114037728Y-103053107D01*
X114043834Y-103058158D01*
X114071805Y-103081298D01*
X114080584Y-103089288D01*
X117924878Y-106933582D01*
X117958904Y-106995894D01*
X117961092Y-107009503D01*
X117963823Y-107035484D01*
X117977321Y-107163907D01*
X117978458Y-107174728D01*
X118037473Y-107356356D01*
X118132960Y-107521744D01*
X118137378Y-107526651D01*
X118137379Y-107526652D01*
X118244337Y-107645441D01*
X118260747Y-107663666D01*
X118338916Y-107720459D01*
X118404280Y-107767949D01*
X118415248Y-107775918D01*
X118421276Y-107778602D01*
X118421278Y-107778603D01*
X118577053Y-107847958D01*
X118589712Y-107853594D01*
X118683112Y-107873447D01*
X118770056Y-107891928D01*
X118770061Y-107891928D01*
X118776513Y-107893300D01*
X118967487Y-107893300D01*
X118973939Y-107891928D01*
X118973944Y-107891928D01*
X119060887Y-107873447D01*
X119154288Y-107853594D01*
X119166947Y-107847958D01*
X119322722Y-107778603D01*
X119322724Y-107778602D01*
X119328752Y-107775918D01*
X119339721Y-107767949D01*
X119405084Y-107720459D01*
X119483253Y-107663666D01*
X119499663Y-107645441D01*
X119606621Y-107526652D01*
X119606622Y-107526651D01*
X119611040Y-107521744D01*
X119706527Y-107356356D01*
X119765542Y-107174728D01*
X119766680Y-107163907D01*
X119784814Y-106991365D01*
X119785504Y-106984800D01*
X119765542Y-106794872D01*
X119706527Y-106613244D01*
X119611040Y-106447856D01*
X119562146Y-106393553D01*
X119487675Y-106310845D01*
X119487674Y-106310844D01*
X119483253Y-106305934D01*
X119328752Y-106193682D01*
X119322724Y-106190998D01*
X119322722Y-106190997D01*
X119160319Y-106118691D01*
X119160318Y-106118691D01*
X119154288Y-106116006D01*
X119060888Y-106096153D01*
X118973944Y-106077672D01*
X118973939Y-106077672D01*
X118967487Y-106076300D01*
X118911595Y-106076300D01*
X118843474Y-106056298D01*
X118822500Y-106039395D01*
X117797790Y-105014685D01*
X117763764Y-104952373D01*
X117768829Y-104881558D01*
X117812824Y-104823654D01*
X117902622Y-104758411D01*
X117959253Y-104717266D01*
X118087040Y-104575344D01*
X118182527Y-104409956D01*
X118241542Y-104228328D01*
X118246675Y-104179495D01*
X118260814Y-104044965D01*
X118261504Y-104038400D01*
X118253479Y-103962050D01*
X118242232Y-103855035D01*
X118242232Y-103855033D01*
X118241542Y-103848472D01*
X118182527Y-103666844D01*
X118087040Y-103501456D01*
X118013863Y-103420185D01*
X117983147Y-103356179D01*
X117981500Y-103335876D01*
X117981500Y-102574994D01*
X118001502Y-102506873D01*
X118018405Y-102485899D01*
X119940099Y-100564205D01*
X120002411Y-100530179D01*
X120029194Y-100527300D01*
X120085087Y-100527300D01*
X120091539Y-100525928D01*
X120091544Y-100525928D01*
X120184646Y-100506138D01*
X120271888Y-100487594D01*
X120277919Y-100484909D01*
X120440322Y-100412603D01*
X120440324Y-100412602D01*
X120446352Y-100409918D01*
X120456348Y-100402656D01*
X120503220Y-100368601D01*
X120600853Y-100297666D01*
X120728640Y-100155744D01*
X120803066Y-100026835D01*
X120820823Y-99996079D01*
X120820824Y-99996078D01*
X120824127Y-99990356D01*
X120883142Y-99808728D01*
X120883943Y-99801112D01*
X120902414Y-99625365D01*
X120903104Y-99618800D01*
X120883142Y-99428872D01*
X120824127Y-99247244D01*
X120728640Y-99081856D01*
X120703649Y-99054100D01*
X120605275Y-98944845D01*
X120605274Y-98944844D01*
X120600853Y-98939934D01*
X120463842Y-98840389D01*
X120451694Y-98831563D01*
X120451693Y-98831562D01*
X120446352Y-98827682D01*
X120440324Y-98824998D01*
X120440322Y-98824997D01*
X120277919Y-98752691D01*
X120277918Y-98752691D01*
X120271888Y-98750006D01*
X120178487Y-98730153D01*
X120091544Y-98711672D01*
X120091539Y-98711672D01*
X120085087Y-98710300D01*
X119894113Y-98710300D01*
X119887661Y-98711672D01*
X119887656Y-98711672D01*
X119800713Y-98730153D01*
X119707312Y-98750006D01*
X119701282Y-98752691D01*
X119701281Y-98752691D01*
X119538878Y-98824997D01*
X119538876Y-98824998D01*
X119532848Y-98827682D01*
X119527507Y-98831562D01*
X119527506Y-98831563D01*
X119515358Y-98840389D01*
X119378347Y-98939934D01*
X119373926Y-98944844D01*
X119373925Y-98944845D01*
X119275552Y-99054100D01*
X119250560Y-99081856D01*
X119155073Y-99247244D01*
X119096058Y-99428872D01*
X119095368Y-99435433D01*
X119095368Y-99435435D01*
X119078693Y-99594092D01*
X119051680Y-99659749D01*
X119042478Y-99670018D01*
X118284618Y-100427877D01*
X118222306Y-100461902D01*
X118151490Y-100456837D01*
X118093587Y-100412842D01*
X118090343Y-100408377D01*
X118087040Y-100402656D01*
X117959253Y-100260734D01*
X117815288Y-100156137D01*
X117810094Y-100152363D01*
X117810093Y-100152362D01*
X117804752Y-100148482D01*
X117798724Y-100145798D01*
X117798722Y-100145797D01*
X117636319Y-100073491D01*
X117636318Y-100073491D01*
X117630288Y-100070806D01*
X117623833Y-100069434D01*
X117623824Y-100069431D01*
X117567228Y-100057401D01*
X117504331Y-100023250D01*
X116517805Y-99036724D01*
X116483779Y-98974412D01*
X116480900Y-98947629D01*
X116480900Y-96947300D01*
X116500902Y-96879179D01*
X116554558Y-96832686D01*
X116606900Y-96821300D01*
X146878151Y-96821300D01*
X146946272Y-96841302D01*
X146967246Y-96858205D01*
X149115395Y-99006354D01*
X149149421Y-99068666D01*
X149152300Y-99095449D01*
X149152300Y-100821730D01*
X149150867Y-100840680D01*
X149147601Y-100862149D01*
X149148194Y-100869441D01*
X149148194Y-100869444D01*
X149151885Y-100914818D01*
X149152300Y-100925033D01*
X149152300Y-100933093D01*
X149152725Y-100936737D01*
X149155589Y-100961307D01*
X149156022Y-100965682D01*
X149161132Y-101028500D01*
X149161940Y-101038437D01*
X149164196Y-101045401D01*
X149165387Y-101051360D01*
X149166771Y-101057215D01*
X149167618Y-101064481D01*
X149192535Y-101133127D01*
X149193952Y-101137255D01*
X149203273Y-101166026D01*
X149216449Y-101206699D01*
X149220245Y-101212954D01*
X149222751Y-101218428D01*
X149225470Y-101223858D01*
X149227967Y-101230737D01*
X149231980Y-101236857D01*
X149231980Y-101236858D01*
X149267986Y-101291776D01*
X149270323Y-101295480D01*
X149308205Y-101357907D01*
X149311921Y-101362115D01*
X149311922Y-101362116D01*
X149315603Y-101366284D01*
X149315576Y-101366308D01*
X149318229Y-101369300D01*
X149320932Y-101372533D01*
X149324944Y-101378652D01*
X149330256Y-101383684D01*
X149381183Y-101431928D01*
X149383625Y-101434306D01*
X149462724Y-101513405D01*
X149496750Y-101575717D01*
X149491685Y-101646532D01*
X149449138Y-101703368D01*
X149382618Y-101728179D01*
X149373629Y-101728500D01*
X139354194Y-101728500D01*
X139286073Y-101708498D01*
X139265099Y-101691595D01*
X137518130Y-99944625D01*
X135770322Y-98196817D01*
X135736296Y-98134505D01*
X135734107Y-98120892D01*
X135732840Y-98108832D01*
X135716742Y-97955672D01*
X135657727Y-97774044D01*
X135562240Y-97608656D01*
X135537981Y-97581713D01*
X135438875Y-97471645D01*
X135438874Y-97471644D01*
X135434453Y-97466734D01*
X135324165Y-97386605D01*
X135285294Y-97358363D01*
X135285293Y-97358362D01*
X135279952Y-97354482D01*
X135273924Y-97351798D01*
X135273922Y-97351797D01*
X135111519Y-97279491D01*
X135111518Y-97279491D01*
X135105488Y-97276806D01*
X134986156Y-97251441D01*
X134925144Y-97238472D01*
X134925139Y-97238472D01*
X134918687Y-97237100D01*
X134727713Y-97237100D01*
X134721261Y-97238472D01*
X134721256Y-97238472D01*
X134660244Y-97251441D01*
X134540912Y-97276806D01*
X134534882Y-97279491D01*
X134534881Y-97279491D01*
X134372478Y-97351797D01*
X134372476Y-97351798D01*
X134366448Y-97354482D01*
X134361107Y-97358362D01*
X134361106Y-97358363D01*
X134322235Y-97386605D01*
X134211947Y-97466734D01*
X134207526Y-97471644D01*
X134207525Y-97471645D01*
X134108420Y-97581713D01*
X134084160Y-97608656D01*
X133988673Y-97774044D01*
X133929658Y-97955672D01*
X133909696Y-98145600D01*
X133910386Y-98152165D01*
X133924979Y-98291006D01*
X133929658Y-98335528D01*
X133988673Y-98517156D01*
X134084160Y-98682544D01*
X134088578Y-98687451D01*
X134088579Y-98687452D01*
X134186449Y-98796148D01*
X134211947Y-98824466D01*
X134366448Y-98936718D01*
X134372476Y-98939402D01*
X134372478Y-98939403D01*
X134534881Y-99011709D01*
X134540912Y-99014394D01*
X134634312Y-99034247D01*
X134721256Y-99052728D01*
X134721261Y-99052728D01*
X134727713Y-99054100D01*
X134783606Y-99054100D01*
X134851727Y-99074102D01*
X134872701Y-99091005D01*
X136706728Y-100925033D01*
X138535948Y-102754253D01*
X138543488Y-102762539D01*
X138547600Y-102769018D01*
X138553377Y-102774443D01*
X138597251Y-102815643D01*
X138600093Y-102818398D01*
X138619830Y-102838135D01*
X138623027Y-102840615D01*
X138632047Y-102848318D01*
X138664279Y-102878586D01*
X138671225Y-102882405D01*
X138671228Y-102882407D01*
X138682034Y-102888348D01*
X138698553Y-102899199D01*
X138714559Y-102911614D01*
X138721828Y-102914759D01*
X138721832Y-102914762D01*
X138755137Y-102929174D01*
X138765787Y-102934391D01*
X138804540Y-102955695D01*
X138812215Y-102957666D01*
X138812216Y-102957666D01*
X138824162Y-102960733D01*
X138842867Y-102967137D01*
X138861455Y-102975181D01*
X138869278Y-102976420D01*
X138869288Y-102976423D01*
X138905124Y-102982099D01*
X138916744Y-102984505D01*
X138951889Y-102993528D01*
X138959570Y-102995500D01*
X138979824Y-102995500D01*
X138999534Y-102997051D01*
X139019543Y-103000220D01*
X139027435Y-102999474D01*
X139063561Y-102996059D01*
X139075419Y-102995500D01*
X153544503Y-102995500D01*
X153612624Y-103015502D01*
X153659117Y-103069158D01*
X153669221Y-103139432D01*
X153651993Y-103187240D01*
X153560983Y-103336046D01*
X153485059Y-103538575D01*
X153484053Y-103544492D01*
X153464618Y-103658794D01*
X153448802Y-103751807D01*
X153448933Y-103757808D01*
X153450912Y-103848472D01*
X153453521Y-103968048D01*
X153454783Y-103973908D01*
X153454783Y-103973911D01*
X153456905Y-103983768D01*
X153499044Y-104179495D01*
X153583729Y-104378520D01*
X153587076Y-104383491D01*
X153587079Y-104383497D01*
X153685554Y-104529766D01*
X153704522Y-104557940D01*
X153708345Y-104562156D01*
X155133680Y-105987491D01*
X155140844Y-105995976D01*
X155141057Y-105995792D01*
X155144972Y-106000328D01*
X155148443Y-106005221D01*
X155152774Y-106009367D01*
X155216953Y-106070805D01*
X155218917Y-106072728D01*
X155247108Y-106100919D01*
X155249420Y-106102828D01*
X155249423Y-106102831D01*
X155253025Y-106105805D01*
X155259922Y-106111940D01*
X155300346Y-106150637D01*
X155300350Y-106150640D01*
X155304685Y-106154790D01*
X155333597Y-106173458D01*
X155345481Y-106182155D01*
X155372026Y-106204076D01*
X155426405Y-106233786D01*
X155434324Y-106238497D01*
X155486391Y-106272116D01*
X155518328Y-106284987D01*
X155531624Y-106291273D01*
X155561836Y-106307779D01*
X155567552Y-106309609D01*
X155567555Y-106309610D01*
X155620846Y-106326668D01*
X155629534Y-106329804D01*
X155687004Y-106352966D01*
X155692882Y-106354114D01*
X155692886Y-106354115D01*
X155711082Y-106357668D01*
X155720785Y-106359563D01*
X155735047Y-106363225D01*
X155762112Y-106371889D01*
X155762122Y-106371891D01*
X155767832Y-106373719D01*
X155773788Y-106374435D01*
X155773795Y-106374436D01*
X155829355Y-106381111D01*
X155838475Y-106382547D01*
X155881835Y-106391014D01*
X155899287Y-106394422D01*
X155904971Y-106394700D01*
X155934945Y-106394700D01*
X155949973Y-106395599D01*
X155976633Y-106398802D01*
X155976637Y-106398802D01*
X155982580Y-106399516D01*
X155988556Y-106399093D01*
X155988559Y-106399093D01*
X156046155Y-106395015D01*
X156055053Y-106394700D01*
X159616483Y-106394700D01*
X159684604Y-106414702D01*
X159731097Y-106468358D01*
X159741201Y-106538632D01*
X159711707Y-106603212D01*
X159687891Y-106622876D01*
X159688552Y-106623786D01*
X159534051Y-106736038D01*
X159529630Y-106740948D01*
X159529629Y-106740949D01*
X159495796Y-106778525D01*
X159406264Y-106877960D01*
X159310777Y-107043348D01*
X159251762Y-107224976D01*
X159231800Y-107414904D01*
X159232490Y-107421469D01*
X159250727Y-107594980D01*
X159251762Y-107604832D01*
X159310777Y-107786460D01*
X159314080Y-107792182D01*
X159314081Y-107792183D01*
X159331450Y-107822267D01*
X159406264Y-107951848D01*
X159410682Y-107956755D01*
X159410683Y-107956756D01*
X159492756Y-108047907D01*
X159534051Y-108093770D01*
X159688552Y-108206022D01*
X159694580Y-108208706D01*
X159694582Y-108208707D01*
X159856985Y-108281013D01*
X159863016Y-108283698D01*
X159956417Y-108303551D01*
X160043360Y-108322032D01*
X160043365Y-108322032D01*
X160049817Y-108323404D01*
X160240791Y-108323404D01*
X160247243Y-108322032D01*
X160247248Y-108322032D01*
X160334191Y-108303551D01*
X160427592Y-108283698D01*
X160433623Y-108281013D01*
X160596026Y-108208707D01*
X160596028Y-108208706D01*
X160602056Y-108206022D01*
X160667678Y-108158345D01*
X160734975Y-108109450D01*
X160756557Y-108093770D01*
X160760972Y-108088867D01*
X160765884Y-108084444D01*
X160767009Y-108085693D01*
X160820318Y-108052853D01*
X160853504Y-108048404D01*
X161095129Y-108048404D01*
X161106312Y-108048931D01*
X161113805Y-108050606D01*
X161121731Y-108050357D01*
X161121732Y-108050357D01*
X161181882Y-108048466D01*
X161185841Y-108048404D01*
X161213752Y-108048404D01*
X161217687Y-108047907D01*
X161217752Y-108047899D01*
X161229589Y-108046966D01*
X161261847Y-108045952D01*
X161265866Y-108045826D01*
X161273785Y-108045577D01*
X161293239Y-108039925D01*
X161312596Y-108035917D01*
X161324826Y-108034372D01*
X161324827Y-108034372D01*
X161332693Y-108033378D01*
X161340064Y-108030459D01*
X161340066Y-108030459D01*
X161373808Y-108017100D01*
X161385038Y-108013255D01*
X161419879Y-108003133D01*
X161419880Y-108003133D01*
X161427489Y-108000922D01*
X161434308Y-107996889D01*
X161434313Y-107996887D01*
X161444924Y-107990611D01*
X161462672Y-107981916D01*
X161481513Y-107974456D01*
X161517283Y-107948468D01*
X161527203Y-107941952D01*
X161530583Y-107939953D01*
X161565258Y-107919446D01*
X161570865Y-107913840D01*
X161579581Y-107905124D01*
X161594615Y-107892283D01*
X161604591Y-107885035D01*
X161604592Y-107885034D01*
X161611003Y-107880376D01*
X161639189Y-107846305D01*
X161647178Y-107837526D01*
X161727899Y-107756805D01*
X161790211Y-107722779D01*
X161816994Y-107719900D01*
X163817308Y-107719900D01*
X163885429Y-107739902D01*
X163931922Y-107793558D01*
X163942026Y-107863832D01*
X163912532Y-107928412D01*
X163892696Y-107946858D01*
X163730349Y-108068087D01*
X163730344Y-108068091D01*
X163725541Y-108071678D01*
X163721502Y-108076109D01*
X163721501Y-108076110D01*
X163712766Y-108085693D01*
X163579835Y-108231528D01*
X163576709Y-108236638D01*
X163576706Y-108236643D01*
X163470110Y-108410932D01*
X163470107Y-108410938D01*
X163466983Y-108416046D01*
X163391059Y-108618575D01*
X163354802Y-108831807D01*
X163359521Y-109048048D01*
X163360783Y-109053908D01*
X163360783Y-109053911D01*
X163367282Y-109084097D01*
X163405044Y-109259495D01*
X163407389Y-109265007D01*
X163407390Y-109265009D01*
X163481168Y-109438401D01*
X163489729Y-109458520D01*
X163493076Y-109463491D01*
X163493079Y-109463497D01*
X163575063Y-109585271D01*
X163610522Y-109637940D01*
X163614345Y-109642156D01*
X168896880Y-114924691D01*
X168904044Y-114933176D01*
X168904257Y-114932992D01*
X168908172Y-114937528D01*
X168911643Y-114942421D01*
X168915974Y-114946567D01*
X168980153Y-115008005D01*
X168982117Y-115009928D01*
X169010307Y-115038118D01*
X169012619Y-115040027D01*
X169012622Y-115040030D01*
X169016224Y-115043004D01*
X169023121Y-115049139D01*
X169063546Y-115087837D01*
X169063550Y-115087840D01*
X169067885Y-115091990D01*
X169072924Y-115095243D01*
X169072927Y-115095246D01*
X169096800Y-115110660D01*
X169108683Y-115119358D01*
X169135225Y-115141276D01*
X169189619Y-115170994D01*
X169197539Y-115175707D01*
X169244546Y-115206059D01*
X169244550Y-115206061D01*
X169249591Y-115209316D01*
X169281520Y-115222184D01*
X169294823Y-115228472D01*
X169325035Y-115244979D01*
X169330740Y-115246805D01*
X169330742Y-115246806D01*
X169349724Y-115252882D01*
X169384055Y-115263871D01*
X169392735Y-115267005D01*
X169434299Y-115283756D01*
X169450204Y-115290166D01*
X169456090Y-115291316D01*
X169456092Y-115291316D01*
X169483985Y-115296763D01*
X169498249Y-115300425D01*
X169525327Y-115309093D01*
X169525329Y-115309093D01*
X169531032Y-115310919D01*
X169536981Y-115311634D01*
X169536987Y-115311635D01*
X169592555Y-115318311D01*
X169601675Y-115319747D01*
X169644027Y-115328017D01*
X169662487Y-115331622D01*
X169668171Y-115331900D01*
X169698145Y-115331900D01*
X169713173Y-115332799D01*
X169739833Y-115336002D01*
X169739837Y-115336002D01*
X169745780Y-115336716D01*
X169751756Y-115336293D01*
X169751759Y-115336293D01*
X169809351Y-115332215D01*
X169818250Y-115331900D01*
X185567633Y-115331900D01*
X185578694Y-115332833D01*
X185578715Y-115332553D01*
X185584688Y-115332992D01*
X185590607Y-115333998D01*
X185685371Y-115331930D01*
X185688119Y-115331900D01*
X185728041Y-115331900D01*
X185735705Y-115331169D01*
X185744901Y-115330631D01*
X185780565Y-115329853D01*
X185800852Y-115329410D01*
X185800853Y-115329410D01*
X185806848Y-115329279D01*
X185840495Y-115322035D01*
X185855044Y-115319783D01*
X185875510Y-115317830D01*
X185889315Y-115316513D01*
X185905943Y-115311635D01*
X185948768Y-115299071D01*
X185957719Y-115296797D01*
X185958560Y-115296616D01*
X186018295Y-115283756D01*
X186049966Y-115270280D01*
X186063827Y-115265317D01*
X186096860Y-115255626D01*
X186151941Y-115227258D01*
X186160286Y-115223339D01*
X186217320Y-115199071D01*
X186245879Y-115179844D01*
X186258554Y-115172348D01*
X186263812Y-115169640D01*
X186289148Y-115156591D01*
X186337874Y-115118317D01*
X186345324Y-115112894D01*
X186392981Y-115080809D01*
X186392983Y-115080807D01*
X186396740Y-115078278D01*
X186400956Y-115074455D01*
X186422149Y-115053262D01*
X186433411Y-115043271D01*
X186454522Y-115026688D01*
X186459239Y-115022983D01*
X186501020Y-114974835D01*
X186507089Y-114968322D01*
X190819891Y-110655520D01*
X190828376Y-110648356D01*
X190828192Y-110648143D01*
X190832728Y-110644228D01*
X190837621Y-110640757D01*
X190903205Y-110572247D01*
X190905128Y-110570283D01*
X190933318Y-110542093D01*
X190938207Y-110536173D01*
X190944339Y-110529279D01*
X190983037Y-110488854D01*
X190983040Y-110488850D01*
X190987190Y-110484515D01*
X191005860Y-110455600D01*
X191014558Y-110443716D01*
X191032659Y-110421797D01*
X191036476Y-110417175D01*
X191066194Y-110362781D01*
X191070907Y-110354861D01*
X191101259Y-110307854D01*
X191101261Y-110307850D01*
X191104516Y-110302809D01*
X191117384Y-110270880D01*
X191123672Y-110257578D01*
X191137303Y-110232629D01*
X191140179Y-110227365D01*
X191159068Y-110168355D01*
X191162204Y-110159668D01*
X191183126Y-110107755D01*
X191183127Y-110107752D01*
X191185366Y-110102196D01*
X191191963Y-110068413D01*
X191195626Y-110054147D01*
X191204288Y-110027088D01*
X191204290Y-110027078D01*
X191206118Y-110021368D01*
X191213508Y-109959847D01*
X191214941Y-109950748D01*
X191226822Y-109889913D01*
X191227100Y-109884229D01*
X191227100Y-109854256D01*
X191227999Y-109839228D01*
X191231202Y-109812569D01*
X191231202Y-109812563D01*
X191231916Y-109806621D01*
X191227415Y-109743050D01*
X191227100Y-109734151D01*
X191227100Y-75849167D01*
X191228033Y-75838106D01*
X191227753Y-75838085D01*
X191228192Y-75832112D01*
X191229198Y-75826193D01*
X191227130Y-75731429D01*
X191227100Y-75728681D01*
X191227100Y-75688759D01*
X191226369Y-75681095D01*
X191225831Y-75671894D01*
X191225448Y-75654319D01*
X191224479Y-75609952D01*
X191217235Y-75576305D01*
X191214983Y-75561756D01*
X191212283Y-75533461D01*
X191211713Y-75527485D01*
X191205939Y-75507802D01*
X191194271Y-75468032D01*
X191191997Y-75459081D01*
X191180218Y-75404369D01*
X191178956Y-75398505D01*
X191172657Y-75383700D01*
X191165480Y-75366834D01*
X191160516Y-75352971D01*
X191150826Y-75319940D01*
X191122458Y-75264859D01*
X191118536Y-75256507D01*
X191104490Y-75223495D01*
X191094271Y-75199480D01*
X191075044Y-75170921D01*
X191067548Y-75158246D01*
X191054541Y-75132992D01*
X191051791Y-75127652D01*
X191013517Y-75078926D01*
X191008094Y-75071476D01*
X190976009Y-75023819D01*
X190976007Y-75023817D01*
X190973478Y-75020060D01*
X190969655Y-75015844D01*
X190948462Y-74994651D01*
X190938471Y-74983389D01*
X190921888Y-74962278D01*
X190918183Y-74957561D01*
X190870035Y-74915780D01*
X190863522Y-74909711D01*
X185204311Y-69250500D01*
X185197147Y-69242015D01*
X185196934Y-69242199D01*
X185193019Y-69237663D01*
X185189548Y-69232770D01*
X185121038Y-69167186D01*
X185119074Y-69165263D01*
X185090884Y-69137073D01*
X185084964Y-69132184D01*
X185078070Y-69126052D01*
X185037645Y-69087354D01*
X185037641Y-69087351D01*
X185033306Y-69083201D01*
X185028267Y-69079948D01*
X185028264Y-69079945D01*
X185004391Y-69064531D01*
X184992507Y-69055833D01*
X184970588Y-69037732D01*
X184970589Y-69037732D01*
X184965966Y-69033915D01*
X184911572Y-69004197D01*
X184903652Y-68999484D01*
X184856645Y-68969132D01*
X184856641Y-68969130D01*
X184851600Y-68965875D01*
X184819671Y-68953007D01*
X184806369Y-68946719D01*
X184781420Y-68933088D01*
X184776156Y-68930212D01*
X184770451Y-68928386D01*
X184770449Y-68928385D01*
X184737624Y-68917878D01*
X184717136Y-68911320D01*
X184708456Y-68908186D01*
X184656550Y-68887267D01*
X184650987Y-68885025D01*
X184645101Y-68883875D01*
X184645099Y-68883875D01*
X184617206Y-68878428D01*
X184602942Y-68874766D01*
X184575864Y-68866098D01*
X184575862Y-68866098D01*
X184570159Y-68864272D01*
X184564210Y-68863557D01*
X184564204Y-68863556D01*
X184508636Y-68856880D01*
X184499516Y-68855444D01*
X184450031Y-68845781D01*
X184438704Y-68843569D01*
X184433020Y-68843291D01*
X184403046Y-68843291D01*
X184388018Y-68842392D01*
X184361358Y-68839189D01*
X184361354Y-68839189D01*
X184355411Y-68838475D01*
X184349435Y-68838898D01*
X184349432Y-68838898D01*
X184291840Y-68842976D01*
X184282941Y-68843291D01*
X180319576Y-68843291D01*
X180308515Y-68842358D01*
X180308494Y-68842638D01*
X180302521Y-68842199D01*
X180296602Y-68841193D01*
X180201839Y-68843261D01*
X180199090Y-68843291D01*
X180159168Y-68843291D01*
X180151504Y-68844022D01*
X180142308Y-68844560D01*
X180100504Y-68845472D01*
X180086359Y-68845781D01*
X180086358Y-68845781D01*
X180080361Y-68845912D01*
X180074501Y-68847174D01*
X180074498Y-68847174D01*
X180046709Y-68853157D01*
X180032157Y-68855409D01*
X180027136Y-68855888D01*
X179997894Y-68858678D01*
X179938440Y-68876120D01*
X179929495Y-68878391D01*
X179874786Y-68890170D01*
X179874780Y-68890172D01*
X179868913Y-68891435D01*
X179837229Y-68904916D01*
X179823394Y-68909870D01*
X179790349Y-68919565D01*
X179785015Y-68922312D01*
X179785013Y-68922313D01*
X179735264Y-68947936D01*
X179726904Y-68951861D01*
X179699233Y-68963635D01*
X179669889Y-68976121D01*
X179647730Y-68991040D01*
X179641336Y-68995344D01*
X179628661Y-69002840D01*
X179603392Y-69015854D01*
X179603389Y-69015856D01*
X179598061Y-69018600D01*
X179593346Y-69022304D01*
X179549342Y-69056869D01*
X179541876Y-69062303D01*
X179494234Y-69094378D01*
X179494228Y-69094382D01*
X179490468Y-69096914D01*
X179486253Y-69100736D01*
X179465060Y-69121929D01*
X179453799Y-69131919D01*
X179427970Y-69152208D01*
X179424039Y-69156738D01*
X179424038Y-69156739D01*
X179386190Y-69200355D01*
X179380120Y-69206869D01*
X175507847Y-73079142D01*
X175445535Y-73113168D01*
X175418752Y-73116047D01*
X165886820Y-73116047D01*
X165875759Y-73115114D01*
X165875738Y-73115394D01*
X165869765Y-73114955D01*
X165863846Y-73113949D01*
X165769083Y-73116017D01*
X165766334Y-73116047D01*
X165726412Y-73116047D01*
X165718748Y-73116778D01*
X165709552Y-73117316D01*
X165673888Y-73118094D01*
X165653601Y-73118537D01*
X165653600Y-73118537D01*
X165647605Y-73118668D01*
X165613959Y-73125912D01*
X165599409Y-73128164D01*
X165578943Y-73130117D01*
X165565138Y-73131434D01*
X165559378Y-73133124D01*
X165559377Y-73133124D01*
X165505685Y-73148876D01*
X165496736Y-73151150D01*
X165436158Y-73164191D01*
X165430639Y-73166539D01*
X165430637Y-73166540D01*
X165404487Y-73177667D01*
X165390626Y-73182630D01*
X165357593Y-73192321D01*
X165302512Y-73220689D01*
X165294167Y-73224608D01*
X165237133Y-73248876D01*
X165232156Y-73252227D01*
X165208574Y-73268103D01*
X165195899Y-73275599D01*
X165165305Y-73291356D01*
X165116579Y-73329630D01*
X165109129Y-73335053D01*
X165057713Y-73369669D01*
X165053497Y-73373492D01*
X165032304Y-73394685D01*
X165021043Y-73404675D01*
X164995214Y-73424964D01*
X164991283Y-73429494D01*
X164991282Y-73429495D01*
X164953434Y-73473111D01*
X164947364Y-73479625D01*
X164119709Y-74307280D01*
X164111224Y-74314444D01*
X164111408Y-74314657D01*
X164106872Y-74318572D01*
X164101979Y-74322043D01*
X164097833Y-74326374D01*
X164036395Y-74390553D01*
X164034472Y-74392517D01*
X164006282Y-74420707D01*
X164004373Y-74423019D01*
X164004370Y-74423022D01*
X164001396Y-74426624D01*
X163995261Y-74433521D01*
X163956563Y-74473946D01*
X163956560Y-74473950D01*
X163952410Y-74478285D01*
X163949157Y-74483324D01*
X163949154Y-74483327D01*
X163933740Y-74507200D01*
X163925042Y-74519083D01*
X163903124Y-74545625D01*
X163873406Y-74600019D01*
X163868693Y-74607939D01*
X163838341Y-74654946D01*
X163838339Y-74654950D01*
X163835084Y-74659991D01*
X163822216Y-74691920D01*
X163815928Y-74705222D01*
X163799421Y-74735435D01*
X163797595Y-74741140D01*
X163797594Y-74741142D01*
X163780531Y-74794449D01*
X163777395Y-74803135D01*
X163754234Y-74860604D01*
X163753084Y-74866490D01*
X163753084Y-74866492D01*
X163747637Y-74894385D01*
X163743975Y-74908648D01*
X163733481Y-74941432D01*
X163732766Y-74947381D01*
X163732765Y-74947387D01*
X163726089Y-75002955D01*
X163724653Y-75012075D01*
X163716186Y-75055435D01*
X163712778Y-75072887D01*
X163712500Y-75078571D01*
X163712500Y-75108545D01*
X163711601Y-75123573D01*
X163707684Y-75156180D01*
X163708107Y-75162156D01*
X163708107Y-75162159D01*
X163712185Y-75219751D01*
X163712500Y-75228650D01*
X163712500Y-85330299D01*
X163692498Y-85398420D01*
X163675595Y-85419394D01*
X162940194Y-86154795D01*
X162877882Y-86188821D01*
X162851099Y-86191700D01*
X162150359Y-86191700D01*
X161989085Y-86207087D01*
X161781540Y-86267974D01*
X161776213Y-86270718D01*
X161776212Y-86270718D01*
X161594583Y-86364263D01*
X161594580Y-86364265D01*
X161589252Y-86367009D01*
X161571372Y-86381054D01*
X161423878Y-86496911D01*
X161423873Y-86496915D01*
X161419161Y-86500617D01*
X161415230Y-86505147D01*
X161415229Y-86505148D01*
X161281333Y-86659448D01*
X161281329Y-86659453D01*
X161277402Y-86663979D01*
X161169093Y-86851199D01*
X161144209Y-86922857D01*
X161114946Y-87007128D01*
X161098140Y-87055523D01*
X161097279Y-87061458D01*
X161097279Y-87061460D01*
X161070769Y-87244297D01*
X161067103Y-87269577D01*
X161077104Y-87485638D01*
X161078508Y-87491463D01*
X161078508Y-87491464D01*
X161126060Y-87688772D01*
X161127780Y-87695910D01*
X161130262Y-87701368D01*
X161130263Y-87701372D01*
X161156448Y-87758962D01*
X161217303Y-87892806D01*
X161342443Y-88069221D01*
X161387928Y-88112763D01*
X161490152Y-88210621D01*
X161498685Y-88218790D01*
X161503720Y-88222041D01*
X161675354Y-88332864D01*
X161675357Y-88332865D01*
X161680391Y-88336116D01*
X161685954Y-88338358D01*
X161724918Y-88354061D01*
X161881004Y-88416966D01*
X161886885Y-88418114D01*
X161886890Y-88418116D01*
X162088841Y-88457554D01*
X162088844Y-88457554D01*
X162093287Y-88458422D01*
X162098971Y-88458700D01*
X163266433Y-88458700D01*
X163277494Y-88459633D01*
X163277515Y-88459353D01*
X163283488Y-88459792D01*
X163289407Y-88460798D01*
X163384171Y-88458730D01*
X163386919Y-88458700D01*
X163426841Y-88458700D01*
X163434505Y-88457969D01*
X163443701Y-88457431D01*
X163479365Y-88456653D01*
X163499652Y-88456210D01*
X163499653Y-88456210D01*
X163505648Y-88456079D01*
X163539295Y-88448835D01*
X163553844Y-88446583D01*
X163574310Y-88444630D01*
X163588115Y-88443313D01*
X163647568Y-88425871D01*
X163656519Y-88423597D01*
X163717095Y-88410556D01*
X163748766Y-88397080D01*
X163762627Y-88392117D01*
X163795660Y-88382426D01*
X163850741Y-88354058D01*
X163859086Y-88350139D01*
X163916120Y-88325871D01*
X163944679Y-88306644D01*
X163957354Y-88299148D01*
X163962612Y-88296440D01*
X163987948Y-88283391D01*
X164036674Y-88245117D01*
X164044124Y-88239694D01*
X164091781Y-88207609D01*
X164091783Y-88207607D01*
X164095540Y-88205078D01*
X164099756Y-88201255D01*
X164120949Y-88180062D01*
X164132211Y-88170071D01*
X164153322Y-88153488D01*
X164158039Y-88149783D01*
X164199820Y-88101635D01*
X164205889Y-88095122D01*
X165572291Y-86728720D01*
X165580776Y-86721556D01*
X165580592Y-86721343D01*
X165585128Y-86717428D01*
X165590021Y-86713957D01*
X165655605Y-86645447D01*
X165657528Y-86643483D01*
X165685718Y-86615293D01*
X165690607Y-86609373D01*
X165696739Y-86602479D01*
X165735437Y-86562054D01*
X165735440Y-86562050D01*
X165739590Y-86557715D01*
X165758260Y-86528800D01*
X165766958Y-86516916D01*
X165785059Y-86494997D01*
X165788876Y-86490375D01*
X165818594Y-86435981D01*
X165823307Y-86428061D01*
X165853659Y-86381054D01*
X165853661Y-86381050D01*
X165856916Y-86376009D01*
X165869784Y-86344080D01*
X165876072Y-86330778D01*
X165889703Y-86305829D01*
X165892579Y-86300565D01*
X165898585Y-86281804D01*
X165911468Y-86241555D01*
X165914604Y-86232868D01*
X165935526Y-86180955D01*
X165935527Y-86180952D01*
X165937766Y-86175396D01*
X165944363Y-86141613D01*
X165948026Y-86127347D01*
X165956688Y-86100288D01*
X165956690Y-86100278D01*
X165958518Y-86094568D01*
X165965908Y-86033047D01*
X165967341Y-86023948D01*
X165979222Y-85963113D01*
X165979500Y-85957429D01*
X165979500Y-85927456D01*
X165980399Y-85912428D01*
X165983602Y-85885769D01*
X165983602Y-85885763D01*
X165984316Y-85879821D01*
X165981586Y-85841255D01*
X165979815Y-85816250D01*
X165979500Y-85807351D01*
X165979500Y-80184895D01*
X167039251Y-80184895D01*
X167039548Y-80190048D01*
X167039548Y-80190051D01*
X167050049Y-80372167D01*
X167052110Y-80407915D01*
X167053247Y-80412961D01*
X167053248Y-80412967D01*
X167066197Y-80470422D01*
X167101222Y-80625839D01*
X167185266Y-80832816D01*
X167232710Y-80910238D01*
X167297723Y-81016329D01*
X167301987Y-81023288D01*
X167448250Y-81192138D01*
X167452230Y-81195442D01*
X167456981Y-81199387D01*
X167496616Y-81258290D01*
X167498113Y-81329271D01*
X167460997Y-81389793D01*
X167420725Y-81414312D01*
X167375765Y-81431167D01*
X167305295Y-81457585D01*
X167188739Y-81544939D01*
X167101385Y-81661495D01*
X167050255Y-81797884D01*
X167043500Y-81860066D01*
X167043500Y-83656334D01*
X167050255Y-83718516D01*
X167101385Y-83854905D01*
X167188739Y-83971461D01*
X167305295Y-84058815D01*
X167441684Y-84109945D01*
X167503866Y-84116700D01*
X169300134Y-84116700D01*
X169362316Y-84109945D01*
X169498705Y-84058815D01*
X169615261Y-83971461D01*
X169702615Y-83854905D01*
X169753745Y-83718516D01*
X169760500Y-83656334D01*
X169760500Y-81860066D01*
X169753745Y-81797884D01*
X169702615Y-81661495D01*
X169615261Y-81544939D01*
X169498705Y-81457585D01*
X169469253Y-81446544D01*
X169380203Y-81413160D01*
X169323439Y-81370518D01*
X169298739Y-81303956D01*
X169313947Y-81234608D01*
X169335493Y-81205927D01*
X169356098Y-81185394D01*
X169440096Y-81101689D01*
X169499594Y-81018889D01*
X169567435Y-80924477D01*
X169570453Y-80920277D01*
X169572917Y-80915293D01*
X169667136Y-80724653D01*
X169667137Y-80724651D01*
X169669430Y-80720011D01*
X169734370Y-80506269D01*
X169763529Y-80284790D01*
X169765156Y-80218200D01*
X169746852Y-79995561D01*
X169692431Y-79778902D01*
X169603354Y-79574040D01*
X169482014Y-79386477D01*
X169331670Y-79221251D01*
X169327619Y-79218052D01*
X169327615Y-79218048D01*
X169160414Y-79086000D01*
X169160410Y-79085998D01*
X169156359Y-79082798D01*
X169130821Y-79068700D01*
X169088250Y-79045200D01*
X168960789Y-78974838D01*
X168955920Y-78973114D01*
X168955916Y-78973112D01*
X168755087Y-78901995D01*
X168755083Y-78901994D01*
X168750212Y-78900269D01*
X168745119Y-78899362D01*
X168745116Y-78899361D01*
X168535373Y-78862000D01*
X168535367Y-78861999D01*
X168530284Y-78861094D01*
X168456452Y-78860192D01*
X168312081Y-78858428D01*
X168312079Y-78858428D01*
X168306911Y-78858365D01*
X168086091Y-78892155D01*
X167873756Y-78961557D01*
X167843443Y-78977337D01*
X167713080Y-79045200D01*
X167675607Y-79064707D01*
X167671474Y-79067810D01*
X167671471Y-79067812D01*
X167501100Y-79195730D01*
X167496965Y-79198835D01*
X167342629Y-79360338D01*
X167216743Y-79544880D01*
X167201003Y-79578790D01*
X167126712Y-79738837D01*
X167122688Y-79747505D01*
X167062989Y-79962770D01*
X167039251Y-80184895D01*
X165979500Y-80184895D01*
X165979500Y-75705701D01*
X165999502Y-75637580D01*
X166016405Y-75616606D01*
X166213059Y-75419952D01*
X166275371Y-75385926D01*
X166302154Y-75383047D01*
X175834086Y-75383047D01*
X175845147Y-75383980D01*
X175845168Y-75383700D01*
X175851141Y-75384139D01*
X175857060Y-75385145D01*
X175951824Y-75383077D01*
X175954572Y-75383047D01*
X175994494Y-75383047D01*
X176002158Y-75382316D01*
X176011354Y-75381778D01*
X176047018Y-75381000D01*
X176067305Y-75380557D01*
X176067306Y-75380557D01*
X176073301Y-75380426D01*
X176106948Y-75373182D01*
X176121497Y-75370930D01*
X176141963Y-75368977D01*
X176155768Y-75367660D01*
X176215221Y-75350218D01*
X176224172Y-75347944D01*
X176227795Y-75347164D01*
X176284748Y-75334903D01*
X176306410Y-75325686D01*
X176316419Y-75321427D01*
X176330280Y-75316464D01*
X176363313Y-75306773D01*
X176418394Y-75278405D01*
X176426739Y-75274486D01*
X176483773Y-75250218D01*
X176512332Y-75230991D01*
X176525007Y-75223495D01*
X176532276Y-75219751D01*
X176555601Y-75207738D01*
X176604327Y-75169464D01*
X176611777Y-75164041D01*
X176659434Y-75131956D01*
X176659436Y-75131954D01*
X176663193Y-75129425D01*
X176667409Y-75125602D01*
X176688602Y-75104409D01*
X176699864Y-75094418D01*
X176700338Y-75094046D01*
X176725692Y-75074130D01*
X176767473Y-75025982D01*
X176773542Y-75019469D01*
X180645815Y-71147196D01*
X180708127Y-71113170D01*
X180734910Y-71110291D01*
X181752943Y-71110291D01*
X181821064Y-71130293D01*
X181867557Y-71183949D01*
X181877661Y-71254223D01*
X181848167Y-71318803D01*
X181828511Y-71337115D01*
X181819139Y-71344139D01*
X181731785Y-71460695D01*
X181680655Y-71597084D01*
X181673900Y-71659266D01*
X181673900Y-73455534D01*
X181680655Y-73517716D01*
X181731785Y-73654105D01*
X181819139Y-73770661D01*
X181935695Y-73858015D01*
X181944104Y-73861167D01*
X181944105Y-73861168D01*
X182052851Y-73901935D01*
X182109616Y-73944576D01*
X182134316Y-74011138D01*
X182119109Y-74080487D01*
X182099716Y-74106968D01*
X181973029Y-74239538D01*
X181970115Y-74243810D01*
X181970114Y-74243811D01*
X181884956Y-74368649D01*
X181847143Y-74424080D01*
X181831403Y-74457990D01*
X181756966Y-74618351D01*
X181753088Y-74626705D01*
X181693389Y-74841970D01*
X181669651Y-75064095D01*
X181669948Y-75069248D01*
X181669948Y-75069251D01*
X181677775Y-75204998D01*
X181682510Y-75287115D01*
X181683647Y-75292161D01*
X181683648Y-75292167D01*
X181704136Y-75383077D01*
X181731622Y-75505039D01*
X181776657Y-75615948D01*
X181805014Y-75685782D01*
X181815666Y-75712016D01*
X181818365Y-75716420D01*
X181926380Y-75892685D01*
X181932387Y-75902488D01*
X182078650Y-76071338D01*
X182166118Y-76143955D01*
X182239504Y-76204881D01*
X182250526Y-76214032D01*
X182291060Y-76237718D01*
X182323845Y-76256876D01*
X182372569Y-76308514D01*
X182385640Y-76378297D01*
X182358909Y-76444069D01*
X182318455Y-76477427D01*
X182306007Y-76483907D01*
X182301874Y-76487010D01*
X182301871Y-76487012D01*
X182277647Y-76505200D01*
X182127365Y-76618035D01*
X182119671Y-76626086D01*
X182015441Y-76735157D01*
X181973029Y-76779538D01*
X181970115Y-76783810D01*
X181970114Y-76783811D01*
X181903952Y-76880801D01*
X181847143Y-76964080D01*
X181753088Y-77166705D01*
X181693389Y-77381970D01*
X181669651Y-77604095D01*
X181669948Y-77609248D01*
X181669948Y-77609251D01*
X181678917Y-77764795D01*
X181682510Y-77827115D01*
X181683647Y-77832161D01*
X181683648Y-77832167D01*
X181700773Y-77908153D01*
X181714650Y-77969728D01*
X181715853Y-77975068D01*
X181711317Y-78045920D01*
X181682031Y-78091864D01*
X174258147Y-85515748D01*
X174249861Y-85523288D01*
X174243382Y-85527400D01*
X174237957Y-85533177D01*
X174196757Y-85577051D01*
X174194002Y-85579893D01*
X174174265Y-85599630D01*
X174171785Y-85602827D01*
X174164082Y-85611847D01*
X174133814Y-85644079D01*
X174129995Y-85651025D01*
X174129993Y-85651028D01*
X174124052Y-85661834D01*
X174113201Y-85678353D01*
X174100786Y-85694359D01*
X174097641Y-85701628D01*
X174097638Y-85701632D01*
X174083226Y-85734937D01*
X174078009Y-85745587D01*
X174056705Y-85784340D01*
X174054734Y-85792015D01*
X174054734Y-85792016D01*
X174051667Y-85803962D01*
X174045263Y-85822666D01*
X174037219Y-85841255D01*
X174035980Y-85849078D01*
X174035977Y-85849088D01*
X174030301Y-85884924D01*
X174027895Y-85896544D01*
X174018872Y-85931689D01*
X174016900Y-85939370D01*
X174016900Y-85959624D01*
X174015349Y-85979334D01*
X174012180Y-85999343D01*
X174012926Y-86007235D01*
X174016341Y-86043361D01*
X174016900Y-86055219D01*
X174016900Y-94169870D01*
X173996898Y-94237991D01*
X173943242Y-94284484D01*
X173872968Y-94294588D01*
X173839651Y-94284977D01*
X173719519Y-94231491D01*
X173719518Y-94231491D01*
X173713488Y-94228806D01*
X173620087Y-94208953D01*
X173533144Y-94190472D01*
X173533139Y-94190472D01*
X173526687Y-94189100D01*
X173335713Y-94189100D01*
X173329261Y-94190472D01*
X173329256Y-94190472D01*
X173242313Y-94208953D01*
X173148912Y-94228806D01*
X173142882Y-94231491D01*
X173142881Y-94231491D01*
X172980478Y-94303797D01*
X172980476Y-94303798D01*
X172974448Y-94306482D01*
X172819947Y-94418734D01*
X172815532Y-94423637D01*
X172810620Y-94428060D01*
X172809495Y-94426811D01*
X172756186Y-94459651D01*
X172723000Y-94464100D01*
X168970594Y-94464100D01*
X168902473Y-94444098D01*
X168881499Y-94427195D01*
X168485522Y-94031218D01*
X168451496Y-93968906D01*
X168449307Y-93955293D01*
X168432632Y-93796635D01*
X168432632Y-93796633D01*
X168431942Y-93790072D01*
X168372927Y-93608444D01*
X168367381Y-93598837D01*
X168285194Y-93456486D01*
X168277440Y-93443056D01*
X168149653Y-93301134D01*
X167995152Y-93188882D01*
X167989124Y-93186198D01*
X167989122Y-93186197D01*
X167826719Y-93113891D01*
X167826718Y-93113891D01*
X167820688Y-93111206D01*
X167727287Y-93091353D01*
X167640344Y-93072872D01*
X167640339Y-93072872D01*
X167633887Y-93071500D01*
X167442913Y-93071500D01*
X167436461Y-93072872D01*
X167436456Y-93072872D01*
X167349513Y-93091353D01*
X167256112Y-93111206D01*
X167250082Y-93113891D01*
X167250081Y-93113891D01*
X167087678Y-93186197D01*
X167087676Y-93186198D01*
X167081648Y-93188882D01*
X166927147Y-93301134D01*
X166799360Y-93443056D01*
X166796061Y-93448769D01*
X166796058Y-93448774D01*
X166725536Y-93570922D01*
X166674153Y-93619915D01*
X166604440Y-93633351D01*
X166538529Y-93606964D01*
X166527322Y-93597017D01*
X165349652Y-92419347D01*
X165342112Y-92411061D01*
X165338000Y-92404582D01*
X165288348Y-92357956D01*
X165285507Y-92355202D01*
X165265770Y-92335465D01*
X165262573Y-92332985D01*
X165253551Y-92325280D01*
X165247051Y-92319176D01*
X165221321Y-92295014D01*
X165214375Y-92291195D01*
X165214372Y-92291193D01*
X165203566Y-92285252D01*
X165187047Y-92274401D01*
X165186583Y-92274041D01*
X165171041Y-92261986D01*
X165163772Y-92258841D01*
X165163768Y-92258838D01*
X165130463Y-92244426D01*
X165119813Y-92239209D01*
X165081060Y-92217905D01*
X165061437Y-92212867D01*
X165042734Y-92206463D01*
X165031420Y-92201567D01*
X165031419Y-92201567D01*
X165024145Y-92198419D01*
X165016322Y-92197180D01*
X165016312Y-92197177D01*
X164980476Y-92191501D01*
X164968856Y-92189095D01*
X164933711Y-92180072D01*
X164933710Y-92180072D01*
X164926030Y-92178100D01*
X164905776Y-92178100D01*
X164886065Y-92176549D01*
X164884203Y-92176254D01*
X164866057Y-92173380D01*
X164835654Y-92176254D01*
X164822039Y-92177541D01*
X164810181Y-92178100D01*
X156096795Y-92178100D01*
X156028674Y-92158098D01*
X155982181Y-92104442D01*
X155972077Y-92034168D01*
X155976963Y-92013162D01*
X155983902Y-91991808D01*
X155983903Y-91991803D01*
X155985942Y-91985528D01*
X155987101Y-91974506D01*
X156005214Y-91802165D01*
X156005904Y-91795600D01*
X156000140Y-91740758D01*
X155986632Y-91612235D01*
X155986632Y-91612233D01*
X155985942Y-91605672D01*
X155926927Y-91424044D01*
X155831440Y-91258656D01*
X155758263Y-91177385D01*
X155727547Y-91113379D01*
X155725900Y-91093076D01*
X155725900Y-88940536D01*
X155745902Y-88872415D01*
X155799558Y-88825922D01*
X155869832Y-88815818D01*
X155893232Y-88821508D01*
X155934655Y-88835892D01*
X155934657Y-88835893D01*
X155940323Y-88837860D01*
X155946258Y-88838721D01*
X155946260Y-88838721D01*
X156148437Y-88868036D01*
X156148440Y-88868036D01*
X156154377Y-88868897D01*
X156370438Y-88858896D01*
X156525574Y-88821508D01*
X156574877Y-88809626D01*
X156574879Y-88809625D01*
X156580710Y-88808220D01*
X156586168Y-88805738D01*
X156586172Y-88805737D01*
X156719720Y-88745016D01*
X156777606Y-88718697D01*
X156954021Y-88593557D01*
X157067521Y-88474993D01*
X157099445Y-88441645D01*
X157103590Y-88437315D01*
X157150887Y-88364065D01*
X157217664Y-88260646D01*
X157217665Y-88260643D01*
X157220916Y-88255609D01*
X157301766Y-88054996D01*
X157302914Y-88049115D01*
X157302916Y-88049110D01*
X157342354Y-87847159D01*
X157342354Y-87847156D01*
X157343222Y-87842713D01*
X157343500Y-87837029D01*
X157343500Y-82411301D01*
X157363502Y-82343180D01*
X157380405Y-82322206D01*
X161178640Y-78523971D01*
X161180537Y-78521673D01*
X161180545Y-78521665D01*
X161258334Y-78427466D01*
X161281798Y-78399053D01*
X161380225Y-78218900D01*
X161382627Y-78214504D01*
X161382628Y-78214501D01*
X161385501Y-78209243D01*
X161451440Y-78003246D01*
X161455467Y-77969728D01*
X161476524Y-77794445D01*
X161476524Y-77794442D01*
X161477238Y-77788499D01*
X161475357Y-77761931D01*
X161462386Y-77578729D01*
X161462385Y-77578725D01*
X161461962Y-77572746D01*
X161406164Y-77363775D01*
X161311856Y-77169125D01*
X161182443Y-76995819D01*
X161022594Y-76850113D01*
X161017480Y-76846985D01*
X161017477Y-76846983D01*
X160901090Y-76775801D01*
X160838075Y-76737261D01*
X160635547Y-76661337D01*
X160493877Y-76637248D01*
X160428233Y-76626086D01*
X160428230Y-76626086D01*
X160422315Y-76625080D01*
X160376217Y-76626086D01*
X160212072Y-76629668D01*
X160212071Y-76629668D01*
X160206074Y-76629799D01*
X160200214Y-76631061D01*
X160200211Y-76631061D01*
X160138858Y-76644270D01*
X159994626Y-76675322D01*
X159989114Y-76677667D01*
X159989112Y-76677668D01*
X159914675Y-76709342D01*
X159795602Y-76760008D01*
X159664070Y-76848560D01*
X159596393Y-76870011D01*
X159527861Y-76851467D01*
X159480233Y-76798816D01*
X159473871Y-76782976D01*
X159424402Y-76630728D01*
X159422360Y-76624443D01*
X159418661Y-76618035D01*
X159330174Y-76464773D01*
X159326873Y-76459055D01*
X159268332Y-76394038D01*
X159203508Y-76322044D01*
X159203507Y-76322043D01*
X159199086Y-76317133D01*
X159057180Y-76214032D01*
X159049927Y-76208762D01*
X159049926Y-76208761D01*
X159044585Y-76204881D01*
X159038557Y-76202197D01*
X159038555Y-76202196D01*
X158876152Y-76129890D01*
X158876151Y-76129890D01*
X158870121Y-76127205D01*
X158776720Y-76107352D01*
X158689777Y-76088871D01*
X158689772Y-76088871D01*
X158683320Y-76087499D01*
X158492346Y-76087499D01*
X158485894Y-76088871D01*
X158485889Y-76088871D01*
X158398946Y-76107352D01*
X158305545Y-76127205D01*
X158299515Y-76129890D01*
X158299514Y-76129890D01*
X158137111Y-76202196D01*
X158137109Y-76202197D01*
X158131081Y-76204881D01*
X158125740Y-76208761D01*
X158125739Y-76208762D01*
X158118486Y-76214032D01*
X157976580Y-76317133D01*
X157972159Y-76322043D01*
X157972158Y-76322044D01*
X157907335Y-76394038D01*
X157848793Y-76459055D01*
X157845492Y-76464773D01*
X157757006Y-76618035D01*
X157753306Y-76624443D01*
X157694291Y-76806071D01*
X157693601Y-76812632D01*
X157693601Y-76812634D01*
X157677684Y-76964080D01*
X157674329Y-76995999D01*
X157694291Y-77185927D01*
X157753306Y-77367555D01*
X157789907Y-77430949D01*
X157806644Y-77499941D01*
X157783424Y-77567033D01*
X157769882Y-77583042D01*
X157588129Y-77764795D01*
X157525817Y-77798821D01*
X157499034Y-77801700D01*
X148567168Y-77801700D01*
X148555985Y-77801173D01*
X148548492Y-77799498D01*
X148540566Y-77799747D01*
X148540565Y-77799747D01*
X148480402Y-77801638D01*
X148476444Y-77801700D01*
X148448544Y-77801700D01*
X148444554Y-77802204D01*
X148432720Y-77803136D01*
X148388511Y-77804526D01*
X148380895Y-77806739D01*
X148380893Y-77806739D01*
X148369052Y-77810179D01*
X148349693Y-77814188D01*
X148348383Y-77814354D01*
X148329603Y-77816726D01*
X148322237Y-77819642D01*
X148322231Y-77819644D01*
X148288498Y-77833000D01*
X148277268Y-77836845D01*
X148242417Y-77846970D01*
X148234807Y-77849181D01*
X148227984Y-77853216D01*
X148217366Y-77859495D01*
X148199613Y-77868192D01*
X148191968Y-77871219D01*
X148180783Y-77875648D01*
X148174368Y-77880309D01*
X148145012Y-77901637D01*
X148135095Y-77908151D01*
X148097038Y-77930658D01*
X148082717Y-77944979D01*
X148067684Y-77957819D01*
X148051293Y-77969728D01*
X148046242Y-77975834D01*
X148023102Y-78003805D01*
X148015112Y-78012584D01*
X144336947Y-81690748D01*
X144328661Y-81698288D01*
X144322182Y-81702400D01*
X144316757Y-81708177D01*
X144275557Y-81752051D01*
X144272802Y-81754893D01*
X144253065Y-81774630D01*
X144250585Y-81777827D01*
X144242882Y-81786847D01*
X144212614Y-81819079D01*
X144208795Y-81826025D01*
X144208793Y-81826028D01*
X144202852Y-81836834D01*
X144192001Y-81853353D01*
X144179586Y-81869359D01*
X144176441Y-81876628D01*
X144176438Y-81876632D01*
X144162026Y-81909937D01*
X144156809Y-81920587D01*
X144135505Y-81959340D01*
X144133534Y-81967015D01*
X144133534Y-81967016D01*
X144130467Y-81978962D01*
X144124063Y-81997666D01*
X144116019Y-82016255D01*
X144114780Y-82024078D01*
X144114777Y-82024088D01*
X144109101Y-82059924D01*
X144106695Y-82071544D01*
X144097672Y-82106689D01*
X144095700Y-82114370D01*
X144095700Y-82134624D01*
X144094149Y-82154334D01*
X144090980Y-82174343D01*
X144091726Y-82182235D01*
X144095141Y-82218361D01*
X144095700Y-82230219D01*
X144095700Y-83741233D01*
X144095173Y-83752416D01*
X144093498Y-83759909D01*
X144093747Y-83767835D01*
X144093747Y-83767836D01*
X144095638Y-83827986D01*
X144095700Y-83831945D01*
X144095700Y-83859856D01*
X144096197Y-83863790D01*
X144096197Y-83863791D01*
X144096205Y-83863856D01*
X144097138Y-83875693D01*
X144098527Y-83919889D01*
X144101033Y-83928514D01*
X144104178Y-83939339D01*
X144108187Y-83958700D01*
X144110726Y-83978797D01*
X144113645Y-83986168D01*
X144113645Y-83986170D01*
X144127004Y-84019912D01*
X144130849Y-84031142D01*
X144138889Y-84058815D01*
X144143182Y-84073593D01*
X144147215Y-84080412D01*
X144147217Y-84080417D01*
X144153493Y-84091028D01*
X144162188Y-84108776D01*
X144169648Y-84127617D01*
X144174310Y-84134033D01*
X144174310Y-84134034D01*
X144195636Y-84163387D01*
X144202152Y-84173307D01*
X144224658Y-84211362D01*
X144238979Y-84225683D01*
X144251819Y-84240716D01*
X144263728Y-84257107D01*
X144269834Y-84262158D01*
X144297805Y-84285298D01*
X144306584Y-84293288D01*
X146700395Y-86687099D01*
X146734421Y-86749411D01*
X146737300Y-86776194D01*
X146737300Y-87176176D01*
X146717298Y-87244297D01*
X146704942Y-87260479D01*
X146631760Y-87341756D01*
X146587510Y-87418399D01*
X146573092Y-87443372D01*
X146521710Y-87492365D01*
X146451996Y-87505801D01*
X146386085Y-87479415D01*
X146374878Y-87469467D01*
X137466093Y-78560682D01*
X137463795Y-78558785D01*
X137463787Y-78558777D01*
X137393782Y-78500967D01*
X137341175Y-78457524D01*
X137151365Y-78353821D01*
X137013562Y-78309710D01*
X136951073Y-78289707D01*
X136951071Y-78289707D01*
X136945368Y-78287881D01*
X136854256Y-78276936D01*
X136736567Y-78262798D01*
X136736563Y-78262798D01*
X136730620Y-78262084D01*
X136724644Y-78262507D01*
X136724641Y-78262507D01*
X136520850Y-78276936D01*
X136520846Y-78276937D01*
X136514867Y-78277360D01*
X136509074Y-78278907D01*
X136509073Y-78278907D01*
X136311690Y-78331611D01*
X136311688Y-78331612D01*
X136305897Y-78333158D01*
X136111246Y-78427466D01*
X136106440Y-78431055D01*
X136106438Y-78431056D01*
X135942744Y-78553291D01*
X135942741Y-78553294D01*
X135937941Y-78556878D01*
X135792235Y-78716728D01*
X135789109Y-78721838D01*
X135789106Y-78721843D01*
X135682510Y-78896132D01*
X135682507Y-78896138D01*
X135679383Y-78901246D01*
X135603459Y-79103775D01*
X135602453Y-79109692D01*
X135573969Y-79277212D01*
X135567202Y-79317007D01*
X135571921Y-79533248D01*
X135617444Y-79744695D01*
X135702129Y-79943720D01*
X135705476Y-79948691D01*
X135705479Y-79948697D01*
X135740505Y-80000722D01*
X135822922Y-80123140D01*
X135826745Y-80127356D01*
X145020794Y-89321405D01*
X145054820Y-89383717D01*
X145049755Y-89454532D01*
X145007208Y-89511368D01*
X144940688Y-89536179D01*
X144931699Y-89536500D01*
X140928995Y-89536500D01*
X140860874Y-89516498D01*
X140839900Y-89499595D01*
X140291522Y-88951217D01*
X140257496Y-88888905D01*
X140255307Y-88875292D01*
X140238632Y-88716635D01*
X140238632Y-88716633D01*
X140237942Y-88710072D01*
X140178927Y-88528444D01*
X140083440Y-88363056D01*
X140032647Y-88306644D01*
X139960075Y-88226045D01*
X139960074Y-88226044D01*
X139955653Y-88221134D01*
X139801152Y-88108882D01*
X139795124Y-88106198D01*
X139795122Y-88106197D01*
X139632719Y-88033891D01*
X139632718Y-88033891D01*
X139626688Y-88031206D01*
X139528258Y-88010284D01*
X139446344Y-87992872D01*
X139446339Y-87992872D01*
X139439887Y-87991500D01*
X139248913Y-87991500D01*
X139242461Y-87992872D01*
X139242456Y-87992872D01*
X139160542Y-88010284D01*
X139062112Y-88031206D01*
X139056082Y-88033891D01*
X139056081Y-88033891D01*
X138893678Y-88106197D01*
X138893676Y-88106198D01*
X138887648Y-88108882D01*
X138733147Y-88221134D01*
X138728726Y-88226044D01*
X138728725Y-88226045D01*
X138656154Y-88306644D01*
X138605360Y-88363056D01*
X138509873Y-88528444D01*
X138450858Y-88710072D01*
X138450168Y-88716633D01*
X138450168Y-88716635D01*
X138434194Y-88868619D01*
X138430896Y-88900000D01*
X138431586Y-88906565D01*
X138443683Y-89021657D01*
X138450858Y-89089928D01*
X138509873Y-89271556D01*
X138513176Y-89277278D01*
X138513177Y-89277279D01*
X138525983Y-89299459D01*
X138605360Y-89436944D01*
X138609778Y-89441851D01*
X138609779Y-89441852D01*
X138710608Y-89553834D01*
X138733147Y-89578866D01*
X138887648Y-89691118D01*
X138893676Y-89693802D01*
X138893678Y-89693803D01*
X139056081Y-89766109D01*
X139062112Y-89768794D01*
X139155512Y-89788647D01*
X139242456Y-89807128D01*
X139242461Y-89807128D01*
X139248913Y-89808500D01*
X139304806Y-89808500D01*
X139372927Y-89828502D01*
X139393901Y-89845405D01*
X139733501Y-90185005D01*
X139767527Y-90247317D01*
X139762462Y-90318132D01*
X139719915Y-90374968D01*
X139653395Y-90399779D01*
X139644406Y-90400100D01*
X120474396Y-90400100D01*
X120463213Y-90399573D01*
X120455720Y-90397898D01*
X120447794Y-90398147D01*
X120447793Y-90398147D01*
X120387630Y-90400038D01*
X120383672Y-90400100D01*
X120355772Y-90400100D01*
X120351782Y-90400604D01*
X120339948Y-90401536D01*
X120295739Y-90402926D01*
X120288123Y-90405139D01*
X120288121Y-90405139D01*
X120276280Y-90408579D01*
X120256921Y-90412588D01*
X120255611Y-90412754D01*
X120236831Y-90415126D01*
X120229465Y-90418042D01*
X120229459Y-90418044D01*
X120195726Y-90431400D01*
X120184496Y-90435245D01*
X120149645Y-90445370D01*
X120142035Y-90447581D01*
X120135212Y-90451616D01*
X120124594Y-90457895D01*
X120106841Y-90466592D01*
X120099196Y-90469619D01*
X120088011Y-90474048D01*
X120081596Y-90478709D01*
X120052240Y-90500037D01*
X120042323Y-90506551D01*
X120004266Y-90529058D01*
X119989945Y-90543379D01*
X119974912Y-90556219D01*
X119958521Y-90568128D01*
X119953470Y-90574234D01*
X119930330Y-90602205D01*
X119922340Y-90610984D01*
X114110947Y-96422376D01*
X114102661Y-96429916D01*
X114096182Y-96434028D01*
X114090757Y-96439805D01*
X114049557Y-96483679D01*
X114046802Y-96486521D01*
X114027065Y-96506258D01*
X114024585Y-96509455D01*
X114016882Y-96518475D01*
X113986614Y-96550707D01*
X113982795Y-96557653D01*
X113982793Y-96557656D01*
X113976852Y-96568462D01*
X113966001Y-96584981D01*
X113953586Y-96600987D01*
X113950441Y-96608256D01*
X113950438Y-96608260D01*
X113936026Y-96641565D01*
X113930809Y-96652215D01*
X113909505Y-96690968D01*
X113907534Y-96698643D01*
X113907534Y-96698644D01*
X113904467Y-96710590D01*
X113898063Y-96729294D01*
X113890019Y-96747883D01*
X113888780Y-96755706D01*
X113888777Y-96755716D01*
X113883101Y-96791552D01*
X113880695Y-96803172D01*
X113873806Y-96830005D01*
X113869700Y-96845998D01*
X113869700Y-96866252D01*
X113868149Y-96885962D01*
X113864980Y-96905971D01*
X112166900Y-96905971D01*
X112166900Y-77758534D01*
X138951100Y-77758534D01*
X138957855Y-77820716D01*
X139008985Y-77957105D01*
X139096339Y-78073661D01*
X139212895Y-78161015D01*
X139349284Y-78212145D01*
X139411466Y-78218900D01*
X141207734Y-78218900D01*
X141269916Y-78212145D01*
X141406305Y-78161015D01*
X141522861Y-78073661D01*
X141610215Y-77957105D01*
X141661345Y-77820716D01*
X141668100Y-77758534D01*
X141668100Y-75962266D01*
X141661345Y-75900084D01*
X141610215Y-75763695D01*
X141522861Y-75647139D01*
X141406305Y-75559785D01*
X141269916Y-75508655D01*
X141207734Y-75501900D01*
X139411466Y-75501900D01*
X139349284Y-75508655D01*
X139212895Y-75559785D01*
X139096339Y-75647139D01*
X139008985Y-75763695D01*
X138957855Y-75900084D01*
X138951100Y-75962266D01*
X138951100Y-77758534D01*
X112166900Y-77758534D01*
X112166900Y-75180369D01*
X151491100Y-75180369D01*
X151491400Y-75183425D01*
X151491400Y-75183432D01*
X151495329Y-75223495D01*
X151505520Y-75327433D01*
X151507302Y-75333334D01*
X151507302Y-75333336D01*
X151521559Y-75380557D01*
X151562684Y-75516769D01*
X151655534Y-75691396D01*
X151685943Y-75728681D01*
X151776640Y-75839887D01*
X151776643Y-75839890D01*
X151780535Y-75844662D01*
X151785282Y-75848589D01*
X151785284Y-75848591D01*
X151928175Y-75966801D01*
X151928179Y-75966803D01*
X151932925Y-75970730D01*
X152106899Y-76064798D01*
X152295832Y-76123282D01*
X152301957Y-76123926D01*
X152301958Y-76123926D01*
X152486396Y-76143311D01*
X152486398Y-76143311D01*
X152492525Y-76143955D01*
X152575024Y-76136447D01*
X152683349Y-76126589D01*
X152683352Y-76126588D01*
X152689488Y-76126030D01*
X152695394Y-76124292D01*
X152695398Y-76124291D01*
X152820407Y-76087499D01*
X152879219Y-76070190D01*
X152884677Y-76067337D01*
X152884681Y-76067335D01*
X152975453Y-76019880D01*
X153054490Y-75978560D01*
X153208625Y-75854632D01*
X153335754Y-75703126D01*
X153338721Y-75697728D01*
X153338725Y-75697723D01*
X153428067Y-75535208D01*
X153431033Y-75529813D01*
X153433446Y-75522208D01*
X153488973Y-75347164D01*
X153488973Y-75347163D01*
X153490835Y-75341294D01*
X153508100Y-75187373D01*
X153508100Y-74997738D01*
X153528102Y-74929617D01*
X153581758Y-74883124D01*
X153652032Y-74873020D01*
X153661586Y-74874772D01*
X153666060Y-74875772D01*
X153836143Y-74913790D01*
X153841688Y-74914100D01*
X153974844Y-74914100D01*
X154109637Y-74899457D01*
X154227790Y-74859694D01*
X154274804Y-74843872D01*
X154274806Y-74843871D01*
X154281275Y-74841694D01*
X154436505Y-74748423D01*
X154441462Y-74743735D01*
X154441465Y-74743733D01*
X154563127Y-74628682D01*
X154563129Y-74628680D01*
X154568085Y-74623993D01*
X154571917Y-74618355D01*
X154571920Y-74618351D01*
X154666042Y-74479855D01*
X154669877Y-74474212D01*
X154737130Y-74306066D01*
X154738244Y-74299338D01*
X154738245Y-74299334D01*
X154765593Y-74134139D01*
X154765593Y-74134136D01*
X154766708Y-74127402D01*
X154765638Y-74106968D01*
X154761803Y-74033798D01*
X158872492Y-74033798D01*
X158872849Y-74040615D01*
X158872849Y-74040619D01*
X158877751Y-74134139D01*
X158881970Y-74214647D01*
X158883781Y-74221220D01*
X158883781Y-74221223D01*
X158928248Y-74382659D01*
X158930061Y-74389241D01*
X159014522Y-74549436D01*
X159018927Y-74554649D01*
X159018930Y-74554653D01*
X159127006Y-74682543D01*
X159127010Y-74682547D01*
X159131413Y-74687757D01*
X159136837Y-74691904D01*
X159136838Y-74691905D01*
X159269857Y-74793606D01*
X159269861Y-74793609D01*
X159275278Y-74797750D01*
X159361972Y-74838176D01*
X159433231Y-74871405D01*
X159433234Y-74871406D01*
X159439408Y-74874285D01*
X159446056Y-74875771D01*
X159446059Y-74875772D01*
X159542286Y-74897281D01*
X159616143Y-74913790D01*
X159621688Y-74914100D01*
X159754844Y-74914100D01*
X159889637Y-74899457D01*
X159964912Y-74874124D01*
X160035853Y-74871354D01*
X160097032Y-74907377D01*
X160129023Y-74970758D01*
X160131100Y-74993543D01*
X160131100Y-75180369D01*
X160131400Y-75183425D01*
X160131400Y-75183432D01*
X160135329Y-75223495D01*
X160145520Y-75327433D01*
X160147302Y-75333334D01*
X160147302Y-75333336D01*
X160161559Y-75380557D01*
X160202684Y-75516769D01*
X160295534Y-75691396D01*
X160325943Y-75728681D01*
X160416640Y-75839887D01*
X160416643Y-75839890D01*
X160420535Y-75844662D01*
X160425282Y-75848589D01*
X160425284Y-75848591D01*
X160568175Y-75966801D01*
X160568179Y-75966803D01*
X160572925Y-75970730D01*
X160746899Y-76064798D01*
X160935832Y-76123282D01*
X160941957Y-76123926D01*
X160941958Y-76123926D01*
X161126396Y-76143311D01*
X161126398Y-76143311D01*
X161132525Y-76143955D01*
X161215024Y-76136447D01*
X161323349Y-76126589D01*
X161323352Y-76126588D01*
X161329488Y-76126030D01*
X161335394Y-76124292D01*
X161335398Y-76124291D01*
X161460407Y-76087499D01*
X161519219Y-76070190D01*
X161524677Y-76067337D01*
X161524681Y-76067335D01*
X161615453Y-76019880D01*
X161694490Y-75978560D01*
X161848625Y-75854632D01*
X161975754Y-75703126D01*
X161978721Y-75697728D01*
X161978725Y-75697723D01*
X162068067Y-75535208D01*
X162071033Y-75529813D01*
X162073446Y-75522208D01*
X162128973Y-75347164D01*
X162128973Y-75347163D01*
X162130835Y-75341294D01*
X162148100Y-75187373D01*
X162148100Y-73980831D01*
X162147414Y-73973827D01*
X162136435Y-73861866D01*
X162133680Y-73833767D01*
X162076516Y-73644431D01*
X161983666Y-73469804D01*
X161901998Y-73369669D01*
X161862560Y-73321313D01*
X161862557Y-73321310D01*
X161858665Y-73316538D01*
X161852324Y-73311292D01*
X161711025Y-73194399D01*
X161711021Y-73194397D01*
X161706275Y-73190470D01*
X161532301Y-73096402D01*
X161343368Y-73037918D01*
X161337243Y-73037274D01*
X161337242Y-73037274D01*
X161152804Y-73017889D01*
X161152802Y-73017889D01*
X161146675Y-73017245D01*
X161064176Y-73024753D01*
X160955851Y-73034611D01*
X160955848Y-73034612D01*
X160949712Y-73035170D01*
X160943806Y-73036908D01*
X160943802Y-73036909D01*
X160838676Y-73067849D01*
X160759981Y-73091010D01*
X160754523Y-73093863D01*
X160754519Y-73093865D01*
X160707327Y-73118537D01*
X160584710Y-73182640D01*
X160430575Y-73306568D01*
X160426611Y-73311292D01*
X160366867Y-73382492D01*
X160307758Y-73421819D01*
X160236770Y-73422945D01*
X160193819Y-73401599D01*
X160143922Y-73363450D01*
X160013652Y-73302704D01*
X159985969Y-73289795D01*
X159985966Y-73289794D01*
X159979792Y-73286915D01*
X159973144Y-73285429D01*
X159973141Y-73285428D01*
X159808094Y-73248536D01*
X159808095Y-73248536D01*
X159803057Y-73247410D01*
X159797512Y-73247100D01*
X159664356Y-73247100D01*
X159529563Y-73261743D01*
X159411410Y-73301506D01*
X159364396Y-73317328D01*
X159364394Y-73317329D01*
X159357925Y-73319506D01*
X159202695Y-73412777D01*
X159197738Y-73417465D01*
X159197735Y-73417467D01*
X159076073Y-73532518D01*
X159071115Y-73537207D01*
X159067283Y-73542845D01*
X159067280Y-73542849D01*
X158994235Y-73650331D01*
X158969323Y-73686988D01*
X158902070Y-73855134D01*
X158900956Y-73861862D01*
X158900955Y-73861866D01*
X158876243Y-74011138D01*
X158872492Y-74033798D01*
X154761803Y-74033798D01*
X154757587Y-73953366D01*
X154757230Y-73946553D01*
X154733904Y-73861866D01*
X154710952Y-73778541D01*
X154709139Y-73771959D01*
X154624678Y-73611764D01*
X154620273Y-73606551D01*
X154620270Y-73606547D01*
X154512194Y-73478657D01*
X154512190Y-73478653D01*
X154507787Y-73473443D01*
X154488806Y-73458931D01*
X154369343Y-73367594D01*
X154369339Y-73367591D01*
X154363922Y-73363450D01*
X154233652Y-73302704D01*
X154205969Y-73289795D01*
X154205966Y-73289794D01*
X154199792Y-73286915D01*
X154193144Y-73285429D01*
X154193141Y-73285428D01*
X154028094Y-73248536D01*
X154028095Y-73248536D01*
X154023057Y-73247410D01*
X154017512Y-73247100D01*
X153884356Y-73247100D01*
X153749563Y-73261743D01*
X153631410Y-73301506D01*
X153584396Y-73317328D01*
X153584394Y-73317329D01*
X153577925Y-73319506D01*
X153572070Y-73323024D01*
X153431998Y-73407187D01*
X153363306Y-73425127D01*
X153295819Y-73403080D01*
X153269461Y-73378820D01*
X153222560Y-73321313D01*
X153222557Y-73321310D01*
X153218665Y-73316538D01*
X153212324Y-73311292D01*
X153071025Y-73194399D01*
X153071021Y-73194397D01*
X153066275Y-73190470D01*
X152892301Y-73096402D01*
X152703368Y-73037918D01*
X152697243Y-73037274D01*
X152697242Y-73037274D01*
X152512804Y-73017889D01*
X152512802Y-73017889D01*
X152506675Y-73017245D01*
X152424176Y-73024753D01*
X152315851Y-73034611D01*
X152315848Y-73034612D01*
X152309712Y-73035170D01*
X152303806Y-73036908D01*
X152303802Y-73036909D01*
X152198676Y-73067849D01*
X152119981Y-73091010D01*
X152114523Y-73093863D01*
X152114519Y-73093865D01*
X152067327Y-73118537D01*
X151944710Y-73182640D01*
X151790575Y-73306568D01*
X151663446Y-73458074D01*
X151660479Y-73463472D01*
X151660475Y-73463477D01*
X151616841Y-73542849D01*
X151568167Y-73631387D01*
X151566306Y-73637254D01*
X151566305Y-73637256D01*
X151521487Y-73778541D01*
X151508365Y-73819906D01*
X151491100Y-73973827D01*
X151491100Y-75180369D01*
X112166900Y-75180369D01*
X112166900Y-70850369D01*
X151491100Y-70850369D01*
X151491400Y-70853425D01*
X151491400Y-70853432D01*
X151492130Y-70860873D01*
X151505520Y-70997433D01*
X151562684Y-71186769D01*
X151655534Y-71361396D01*
X151725891Y-71447662D01*
X151776640Y-71509887D01*
X151776643Y-71509890D01*
X151780535Y-71514662D01*
X151785282Y-71518589D01*
X151785284Y-71518591D01*
X151928175Y-71636801D01*
X151928179Y-71636803D01*
X151932925Y-71640730D01*
X152106899Y-71734798D01*
X152295832Y-71793282D01*
X152301957Y-71793926D01*
X152301958Y-71793926D01*
X152486396Y-71813311D01*
X152486398Y-71813311D01*
X152492525Y-71813955D01*
X152575024Y-71806447D01*
X152683349Y-71796589D01*
X152683352Y-71796588D01*
X152689488Y-71796030D01*
X152695394Y-71794292D01*
X152695398Y-71794291D01*
X152800524Y-71763351D01*
X152879219Y-71740190D01*
X152884677Y-71737337D01*
X152884681Y-71737335D01*
X153040509Y-71655869D01*
X153054490Y-71648560D01*
X153208625Y-71524632D01*
X153335754Y-71373126D01*
X153338721Y-71367728D01*
X153338725Y-71367723D01*
X153428067Y-71205208D01*
X153431033Y-71199813D01*
X153433446Y-71192208D01*
X153488973Y-71017164D01*
X153488973Y-71017163D01*
X153490835Y-71011294D01*
X153508100Y-70857373D01*
X153508100Y-70850369D01*
X160131100Y-70850369D01*
X160131400Y-70853425D01*
X160131400Y-70853432D01*
X160132130Y-70860873D01*
X160145520Y-70997433D01*
X160202684Y-71186769D01*
X160295534Y-71361396D01*
X160365891Y-71447662D01*
X160416640Y-71509887D01*
X160416643Y-71509890D01*
X160420535Y-71514662D01*
X160425282Y-71518589D01*
X160425284Y-71518591D01*
X160568175Y-71636801D01*
X160568179Y-71636803D01*
X160572925Y-71640730D01*
X160746899Y-71734798D01*
X160935832Y-71793282D01*
X160941957Y-71793926D01*
X160941958Y-71793926D01*
X161126396Y-71813311D01*
X161126398Y-71813311D01*
X161132525Y-71813955D01*
X161215024Y-71806447D01*
X161323349Y-71796589D01*
X161323352Y-71796588D01*
X161329488Y-71796030D01*
X161335394Y-71794292D01*
X161335398Y-71794291D01*
X161440524Y-71763351D01*
X161519219Y-71740190D01*
X161524677Y-71737337D01*
X161524681Y-71737335D01*
X161680509Y-71655869D01*
X161694490Y-71648560D01*
X161848625Y-71524632D01*
X161975754Y-71373126D01*
X161978721Y-71367728D01*
X161978725Y-71367723D01*
X162068067Y-71205208D01*
X162071033Y-71199813D01*
X162073446Y-71192208D01*
X162128973Y-71017164D01*
X162128973Y-71017163D01*
X162130835Y-71011294D01*
X162148100Y-70857373D01*
X162148100Y-69950831D01*
X162147414Y-69943827D01*
X162134281Y-69809901D01*
X162133680Y-69803767D01*
X162076516Y-69614431D01*
X161983666Y-69439804D01*
X161913309Y-69353538D01*
X161862560Y-69291313D01*
X161862557Y-69291310D01*
X161858665Y-69286538D01*
X161852324Y-69281292D01*
X161711025Y-69164399D01*
X161711021Y-69164397D01*
X161706275Y-69160470D01*
X161532301Y-69066402D01*
X161343368Y-69007918D01*
X161337243Y-69007274D01*
X161337242Y-69007274D01*
X161152804Y-68987889D01*
X161152802Y-68987889D01*
X161146675Y-68987245D01*
X161064176Y-68994753D01*
X160955851Y-69004611D01*
X160955848Y-69004612D01*
X160949712Y-69005170D01*
X160943806Y-69006908D01*
X160943802Y-69006909D01*
X160861798Y-69031044D01*
X160759981Y-69061010D01*
X160754523Y-69063863D01*
X160754519Y-69063865D01*
X160681873Y-69101844D01*
X160584710Y-69152640D01*
X160430575Y-69276568D01*
X160303446Y-69428074D01*
X160300479Y-69433472D01*
X160300475Y-69433477D01*
X160296997Y-69439804D01*
X160208167Y-69601387D01*
X160206306Y-69607254D01*
X160206305Y-69607256D01*
X160150227Y-69784036D01*
X160148365Y-69789906D01*
X160131100Y-69943827D01*
X160131100Y-70850369D01*
X153508100Y-70850369D01*
X153508100Y-69950831D01*
X153507414Y-69943827D01*
X153494281Y-69809901D01*
X153493680Y-69803767D01*
X153436516Y-69614431D01*
X153343666Y-69439804D01*
X153273309Y-69353538D01*
X153222560Y-69291313D01*
X153222557Y-69291310D01*
X153218665Y-69286538D01*
X153212324Y-69281292D01*
X153071025Y-69164399D01*
X153071021Y-69164397D01*
X153066275Y-69160470D01*
X152892301Y-69066402D01*
X152703368Y-69007918D01*
X152697243Y-69007274D01*
X152697242Y-69007274D01*
X152512804Y-68987889D01*
X152512802Y-68987889D01*
X152506675Y-68987245D01*
X152424176Y-68994753D01*
X152315851Y-69004611D01*
X152315848Y-69004612D01*
X152309712Y-69005170D01*
X152303806Y-69006908D01*
X152303802Y-69006909D01*
X152221798Y-69031044D01*
X152119981Y-69061010D01*
X152114523Y-69063863D01*
X152114519Y-69063865D01*
X152041873Y-69101844D01*
X151944710Y-69152640D01*
X151790575Y-69276568D01*
X151663446Y-69428074D01*
X151660479Y-69433472D01*
X151660475Y-69433477D01*
X151656997Y-69439804D01*
X151568167Y-69601387D01*
X151566306Y-69607254D01*
X151566305Y-69607256D01*
X151510227Y-69784036D01*
X151508365Y-69789906D01*
X151491100Y-69943827D01*
X151491100Y-70850369D01*
X112166900Y-70850369D01*
X112166900Y-68300100D01*
X112186902Y-68231979D01*
X112240558Y-68185486D01*
X112292900Y-68174100D01*
X198552300Y-68174100D01*
X198620421Y-68194102D01*
G37*
%TD.AperFunction*%
%TA.AperFunction,Conductor*%
G36*
X176776844Y-84893026D02*
G01*
X176833680Y-84935573D01*
X176858491Y-85002093D01*
X176852645Y-85050018D01*
X176815408Y-85164622D01*
X176814718Y-85171183D01*
X176814718Y-85171185D01*
X176801507Y-85296885D01*
X176795446Y-85354550D01*
X176815408Y-85544478D01*
X176874423Y-85726106D01*
X176877726Y-85731828D01*
X176877727Y-85731829D01*
X176882669Y-85740389D01*
X176969910Y-85891494D01*
X176974328Y-85896401D01*
X176974329Y-85896402D01*
X177089663Y-86024493D01*
X177097697Y-86033416D01*
X177128667Y-86055917D01*
X177242104Y-86138334D01*
X177252198Y-86145668D01*
X177258226Y-86148352D01*
X177258228Y-86148353D01*
X177420631Y-86220659D01*
X177426662Y-86223344D01*
X177512338Y-86241555D01*
X177607006Y-86261678D01*
X177607011Y-86261678D01*
X177613463Y-86263050D01*
X177669356Y-86263050D01*
X177737477Y-86283052D01*
X177758451Y-86299955D01*
X178667943Y-87209447D01*
X178675487Y-87217737D01*
X178679600Y-87224218D01*
X178685377Y-87229643D01*
X178729267Y-87270858D01*
X178732109Y-87273613D01*
X178751830Y-87293334D01*
X178755025Y-87295812D01*
X178764047Y-87303518D01*
X178796279Y-87333786D01*
X178803228Y-87337606D01*
X178814032Y-87343546D01*
X178830556Y-87354399D01*
X178846559Y-87366813D01*
X178887143Y-87384376D01*
X178897773Y-87389583D01*
X178936540Y-87410895D01*
X178944217Y-87412866D01*
X178944222Y-87412868D01*
X178956158Y-87415932D01*
X178974866Y-87422337D01*
X178993455Y-87430381D01*
X179001280Y-87431620D01*
X179001282Y-87431621D01*
X179037119Y-87437297D01*
X179048740Y-87439704D01*
X179083889Y-87448728D01*
X179091570Y-87450700D01*
X179111831Y-87450700D01*
X179131540Y-87452251D01*
X179151543Y-87455419D01*
X179159435Y-87454673D01*
X179164662Y-87454179D01*
X179195554Y-87451259D01*
X179207411Y-87450700D01*
X179479400Y-87450700D01*
X179547521Y-87470702D01*
X179566747Y-87487043D01*
X179567020Y-87486740D01*
X179571932Y-87491163D01*
X179576347Y-87496066D01*
X179597929Y-87511746D01*
X179720118Y-87600522D01*
X179730848Y-87608318D01*
X179736876Y-87611002D01*
X179736878Y-87611003D01*
X179899281Y-87683309D01*
X179905312Y-87685994D01*
X179998712Y-87705847D01*
X180085656Y-87724328D01*
X180085661Y-87724328D01*
X180092113Y-87725700D01*
X180283087Y-87725700D01*
X180289539Y-87724328D01*
X180289544Y-87724328D01*
X180376488Y-87705847D01*
X180469888Y-87685994D01*
X180475919Y-87683309D01*
X180638322Y-87611003D01*
X180638324Y-87611002D01*
X180644352Y-87608318D01*
X180798853Y-87496066D01*
X180807250Y-87486740D01*
X180922221Y-87359052D01*
X180922222Y-87359051D01*
X180926640Y-87354144D01*
X181001653Y-87224218D01*
X181018823Y-87194479D01*
X181018824Y-87194478D01*
X181022127Y-87188756D01*
X181081142Y-87007128D01*
X181082712Y-87007638D01*
X181112510Y-86952448D01*
X181174660Y-86918128D01*
X181245499Y-86922857D01*
X181291121Y-86952025D01*
X181682178Y-87343082D01*
X181716204Y-87405394D01*
X181714500Y-87465848D01*
X181693389Y-87541970D01*
X181692841Y-87547100D01*
X181692840Y-87547104D01*
X181683054Y-87638681D01*
X181669651Y-87764095D01*
X181669948Y-87769248D01*
X181669948Y-87769251D01*
X181680353Y-87949698D01*
X181682510Y-87987115D01*
X181683647Y-87992161D01*
X181683648Y-87992167D01*
X181715853Y-88135068D01*
X181711317Y-88205920D01*
X181682031Y-88251864D01*
X181465147Y-88468748D01*
X181456861Y-88476288D01*
X181450382Y-88480400D01*
X181444957Y-88486177D01*
X181403757Y-88530051D01*
X181401002Y-88532893D01*
X181381265Y-88552630D01*
X181378785Y-88555827D01*
X181371082Y-88564847D01*
X181340814Y-88597079D01*
X181336995Y-88604025D01*
X181336993Y-88604028D01*
X181331052Y-88614834D01*
X181320201Y-88631353D01*
X181307786Y-88647359D01*
X181304641Y-88654628D01*
X181304638Y-88654632D01*
X181290226Y-88687937D01*
X181285009Y-88698587D01*
X181263705Y-88737340D01*
X181261734Y-88745015D01*
X181261734Y-88745016D01*
X181258667Y-88756962D01*
X181252263Y-88775666D01*
X181244219Y-88794255D01*
X181242980Y-88802078D01*
X181242977Y-88802088D01*
X181237301Y-88837924D01*
X181234895Y-88849544D01*
X181229023Y-88872415D01*
X181223900Y-88892370D01*
X181223900Y-88912624D01*
X181222349Y-88932334D01*
X181219180Y-88952343D01*
X181219926Y-88960235D01*
X181223341Y-88996361D01*
X181223900Y-89008219D01*
X181223900Y-91944805D01*
X181203898Y-92012926D01*
X181186995Y-92033900D01*
X173531500Y-99689395D01*
X173469188Y-99723421D01*
X173442405Y-99726300D01*
X173386513Y-99726300D01*
X173380061Y-99727672D01*
X173380056Y-99727672D01*
X173293112Y-99746153D01*
X173199712Y-99766006D01*
X173193682Y-99768691D01*
X173193681Y-99768691D01*
X173031278Y-99840997D01*
X173031276Y-99840998D01*
X173025248Y-99843682D01*
X173019907Y-99847562D01*
X173019906Y-99847563D01*
X172871515Y-99955376D01*
X172865450Y-99957540D01*
X172851229Y-99977611D01*
X172796267Y-100038653D01*
X172742960Y-100097856D01*
X172647473Y-100263244D01*
X172588458Y-100444872D01*
X172587768Y-100451433D01*
X172587768Y-100451435D01*
X172574952Y-100573373D01*
X172568496Y-100634800D01*
X172569186Y-100641365D01*
X172584740Y-100789349D01*
X172588458Y-100824728D01*
X172647473Y-101006356D01*
X172650776Y-101012078D01*
X172650777Y-101012079D01*
X172670477Y-101046200D01*
X172742960Y-101171744D01*
X172747378Y-101176651D01*
X172747379Y-101176652D01*
X172851037Y-101291776D01*
X172870747Y-101313666D01*
X173025248Y-101425918D01*
X173031276Y-101428602D01*
X173031278Y-101428603D01*
X173138956Y-101476544D01*
X173199712Y-101503594D01*
X173293112Y-101523447D01*
X173380056Y-101541928D01*
X173380061Y-101541928D01*
X173386513Y-101543300D01*
X173577487Y-101543300D01*
X173583939Y-101541928D01*
X173583944Y-101541928D01*
X173670888Y-101523447D01*
X173764288Y-101503594D01*
X173825044Y-101476544D01*
X173932722Y-101428603D01*
X173932724Y-101428602D01*
X173938752Y-101425918D01*
X174093253Y-101313666D01*
X174112963Y-101291776D01*
X174216621Y-101176652D01*
X174216622Y-101176651D01*
X174221040Y-101171744D01*
X174293523Y-101046200D01*
X174313223Y-101012079D01*
X174313224Y-101012078D01*
X174316527Y-101006356D01*
X174375542Y-100824728D01*
X174379261Y-100789349D01*
X174387002Y-100715696D01*
X174392907Y-100659506D01*
X174419920Y-100593850D01*
X174429122Y-100583582D01*
X182249647Y-92763057D01*
X182257937Y-92755513D01*
X182264418Y-92751400D01*
X182311059Y-92701732D01*
X182313813Y-92698891D01*
X182333534Y-92679170D01*
X182336012Y-92675975D01*
X182343718Y-92666953D01*
X182368558Y-92640501D01*
X182373986Y-92634721D01*
X182383746Y-92616968D01*
X182394599Y-92600445D01*
X182402153Y-92590706D01*
X182407013Y-92584441D01*
X182424576Y-92543857D01*
X182429783Y-92533227D01*
X182451095Y-92494460D01*
X182453066Y-92486783D01*
X182453068Y-92486778D01*
X182456132Y-92474842D01*
X182462538Y-92456130D01*
X182467433Y-92444819D01*
X182470581Y-92437545D01*
X182471821Y-92429717D01*
X182471823Y-92429710D01*
X182477499Y-92393876D01*
X182479905Y-92382256D01*
X182488928Y-92347111D01*
X182488928Y-92347110D01*
X182490900Y-92339430D01*
X182490900Y-92319176D01*
X182492451Y-92299465D01*
X182494380Y-92287286D01*
X182495620Y-92279457D01*
X182491459Y-92235438D01*
X182490900Y-92223581D01*
X182490900Y-91766452D01*
X182510902Y-91698331D01*
X182564558Y-91651838D01*
X182634832Y-91641734D01*
X182652054Y-91645455D01*
X182657299Y-91646979D01*
X182760650Y-91668006D01*
X182774699Y-91666810D01*
X182778400Y-91656465D01*
X182778400Y-90209400D01*
X182798402Y-90141279D01*
X182852058Y-90094786D01*
X182904400Y-90083400D01*
X183160400Y-90083400D01*
X183228521Y-90103402D01*
X183275014Y-90157058D01*
X183286400Y-90209400D01*
X183286400Y-91655917D01*
X183290464Y-91669759D01*
X183303878Y-91671793D01*
X183310584Y-91670934D01*
X183320666Y-91668791D01*
X183411693Y-91641482D01*
X183482688Y-91641066D01*
X183542639Y-91679098D01*
X183572510Y-91743505D01*
X183573900Y-91762168D01*
X183573900Y-102116508D01*
X183553898Y-102184629D01*
X183536995Y-102205603D01*
X182552195Y-103190403D01*
X182489883Y-103224429D01*
X182419068Y-103219364D01*
X182362232Y-103176817D01*
X182337421Y-103110297D01*
X182337100Y-103101308D01*
X182337100Y-97634359D01*
X182321713Y-97473085D01*
X182260826Y-97265540D01*
X182246885Y-97238472D01*
X182164537Y-97078583D01*
X182164535Y-97078580D01*
X182161791Y-97073252D01*
X182106164Y-97002435D01*
X182031889Y-96907878D01*
X182031885Y-96907873D01*
X182028183Y-96903161D01*
X182004022Y-96882195D01*
X181869352Y-96765333D01*
X181869347Y-96765329D01*
X181864821Y-96761402D01*
X181677601Y-96653093D01*
X181509524Y-96594727D01*
X181478942Y-96584107D01*
X181478940Y-96584106D01*
X181473277Y-96582140D01*
X181467342Y-96581279D01*
X181467340Y-96581279D01*
X181265163Y-96551964D01*
X181265160Y-96551964D01*
X181259223Y-96551103D01*
X181043162Y-96561104D01*
X180907830Y-96593719D01*
X180838723Y-96610374D01*
X180838721Y-96610375D01*
X180832890Y-96611780D01*
X180827432Y-96614262D01*
X180827428Y-96614263D01*
X180735415Y-96656099D01*
X180635994Y-96701303D01*
X180459579Y-96826443D01*
X180448212Y-96838317D01*
X180316163Y-96976258D01*
X180310010Y-96982685D01*
X180306759Y-96987720D01*
X180199537Y-97153778D01*
X180192684Y-97164391D01*
X180111834Y-97365004D01*
X180110686Y-97370885D01*
X180110684Y-97370890D01*
X180072353Y-97567172D01*
X180070378Y-97577287D01*
X180070100Y-97582971D01*
X180070100Y-103569699D01*
X180050098Y-103637820D01*
X180033195Y-103658794D01*
X179932395Y-103759594D01*
X179870083Y-103793620D01*
X179799268Y-103788555D01*
X179742432Y-103746008D01*
X179717621Y-103679488D01*
X179717300Y-103670499D01*
X179717300Y-102688066D01*
X179710545Y-102625884D01*
X179659415Y-102489495D01*
X179572061Y-102372939D01*
X179455505Y-102285585D01*
X179442932Y-102280872D01*
X179337003Y-102241160D01*
X179280239Y-102198518D01*
X179255539Y-102131956D01*
X179270747Y-102062608D01*
X179292293Y-102033927D01*
X179350486Y-101975937D01*
X179396896Y-101929689D01*
X179456394Y-101846889D01*
X179524235Y-101752477D01*
X179527253Y-101748277D01*
X179537028Y-101728500D01*
X179623936Y-101552653D01*
X179623937Y-101552651D01*
X179626230Y-101548011D01*
X179681443Y-101366284D01*
X179689665Y-101339223D01*
X179689665Y-101339221D01*
X179691170Y-101334269D01*
X179720329Y-101112790D01*
X179720891Y-101089804D01*
X179721874Y-101049565D01*
X179721874Y-101049561D01*
X179721956Y-101046200D01*
X179703652Y-100823561D01*
X179649231Y-100606902D01*
X179560154Y-100402040D01*
X179508484Y-100322171D01*
X179441622Y-100218817D01*
X179441620Y-100218814D01*
X179438814Y-100214477D01*
X179288470Y-100049251D01*
X179284419Y-100046052D01*
X179284415Y-100046048D01*
X179117214Y-99914000D01*
X179117210Y-99913998D01*
X179113159Y-99910798D01*
X178917589Y-99802838D01*
X178912720Y-99801114D01*
X178912716Y-99801112D01*
X178711887Y-99729995D01*
X178711883Y-99729994D01*
X178707012Y-99728269D01*
X178701919Y-99727362D01*
X178701916Y-99727361D01*
X178492173Y-99690000D01*
X178492167Y-99689999D01*
X178487084Y-99689094D01*
X178413252Y-99688192D01*
X178268881Y-99686428D01*
X178268879Y-99686428D01*
X178263711Y-99686365D01*
X178042891Y-99720155D01*
X177830556Y-99789557D01*
X177632407Y-99892707D01*
X177628274Y-99895810D01*
X177628271Y-99895812D01*
X177457900Y-100023730D01*
X177453765Y-100026835D01*
X177435405Y-100046048D01*
X177330577Y-100155744D01*
X177299429Y-100188338D01*
X177296515Y-100192610D01*
X177296514Y-100192611D01*
X177222202Y-100301549D01*
X177173543Y-100372880D01*
X177143040Y-100438594D01*
X177091693Y-100549212D01*
X177079488Y-100575505D01*
X177019789Y-100790770D01*
X176996051Y-101012895D01*
X176996348Y-101018048D01*
X176996348Y-101018051D01*
X177007902Y-101218428D01*
X177008910Y-101235915D01*
X177010047Y-101240961D01*
X177010048Y-101240967D01*
X177026432Y-101313666D01*
X177058022Y-101453839D01*
X177142066Y-101660816D01*
X177258787Y-101851288D01*
X177405050Y-102020138D01*
X177409030Y-102023442D01*
X177413781Y-102027387D01*
X177453416Y-102086290D01*
X177454913Y-102157271D01*
X177417797Y-102217793D01*
X177377524Y-102242312D01*
X177262095Y-102285585D01*
X177145539Y-102372939D01*
X177058185Y-102489495D01*
X177007055Y-102625884D01*
X177000300Y-102688066D01*
X177000300Y-104001700D01*
X176980298Y-104069821D01*
X176926642Y-104116314D01*
X176874300Y-104127700D01*
X168649194Y-104127700D01*
X168581073Y-104107698D01*
X168534580Y-104054042D01*
X168524476Y-103983768D01*
X168553970Y-103919188D01*
X168560099Y-103912605D01*
X172668498Y-99804206D01*
X172691852Y-99791454D01*
X172697674Y-99776499D01*
X172708359Y-99764345D01*
X175042647Y-97430057D01*
X175050937Y-97422513D01*
X175057418Y-97418400D01*
X175070354Y-97404625D01*
X175104058Y-97368733D01*
X175106813Y-97365891D01*
X175126534Y-97346170D01*
X175129012Y-97342975D01*
X175136718Y-97333953D01*
X175161558Y-97307501D01*
X175166986Y-97301721D01*
X175176746Y-97283968D01*
X175187599Y-97267445D01*
X175195153Y-97257706D01*
X175200013Y-97251441D01*
X175217576Y-97210857D01*
X175222783Y-97200227D01*
X175244095Y-97161460D01*
X175246066Y-97153783D01*
X175246068Y-97153778D01*
X175249132Y-97141842D01*
X175255538Y-97123130D01*
X175259176Y-97114725D01*
X175263581Y-97104545D01*
X175264821Y-97096717D01*
X175264823Y-97096710D01*
X175270499Y-97060876D01*
X175272905Y-97049256D01*
X175281928Y-97014111D01*
X175281928Y-97014110D01*
X175283900Y-97006430D01*
X175283900Y-96986176D01*
X175285451Y-96966465D01*
X175287380Y-96954286D01*
X175288620Y-96946457D01*
X175284459Y-96902438D01*
X175283900Y-96890581D01*
X175283900Y-86333994D01*
X175303902Y-86265873D01*
X175320805Y-86244899D01*
X176643717Y-84921987D01*
X176706029Y-84887961D01*
X176776844Y-84893026D01*
G37*
%TD.AperFunction*%
%TD*%
M02*
