%TF.GenerationSoftware,KiCad,Pcbnew,(6.0.10)*%
%TF.CreationDate,2023-04-05T20:44:51-05:00*%
%TF.ProjectId,445_PD,3434355f-5044-42e6-9b69-6361645f7063,rev?*%
%TF.SameCoordinates,Original*%
%TF.FileFunction,Paste,Top*%
%TF.FilePolarity,Positive*%
%FSLAX46Y46*%
G04 Gerber Fmt 4.6, Leading zero omitted, Abs format (unit mm)*
G04 Created by KiCad (PCBNEW (6.0.10)) date 2023-04-05 20:44:51*
%MOMM*%
%LPD*%
G01*
G04 APERTURE LIST*
G04 Aperture macros list*
%AMRoundRect*
0 Rectangle with rounded corners*
0 $1 Rounding radius*
0 $2 $3 $4 $5 $6 $7 $8 $9 X,Y pos of 4 corners*
0 Add a 4 corners polygon primitive as box body*
4,1,4,$2,$3,$4,$5,$6,$7,$8,$9,$2,$3,0*
0 Add four circle primitives for the rounded corners*
1,1,$1+$1,$2,$3*
1,1,$1+$1,$4,$5*
1,1,$1+$1,$6,$7*
1,1,$1+$1,$8,$9*
0 Add four rect primitives between the rounded corners*
20,1,$1+$1,$2,$3,$4,$5,0*
20,1,$1+$1,$4,$5,$6,$7,0*
20,1,$1+$1,$6,$7,$8,$9,0*
20,1,$1+$1,$8,$9,$2,$3,0*%
G04 Aperture macros list end*
%ADD10C,0.010000*%
%ADD11RoundRect,0.062500X-0.062500X-0.350000X0.062500X-0.350000X0.062500X0.350000X-0.062500X0.350000X0*%
%ADD12RoundRect,0.062500X-0.350000X-0.062500X0.350000X-0.062500X0.350000X0.062500X-0.350000X0.062500X0*%
%ADD13RoundRect,0.250000X-0.295000X-0.295000X0.295000X-0.295000X0.295000X0.295000X-0.295000X0.295000X0*%
%ADD14R,1.600000X1.400000*%
%ADD15RoundRect,0.250000X0.350000X0.450000X-0.350000X0.450000X-0.350000X-0.450000X0.350000X-0.450000X0*%
%ADD16RoundRect,0.250000X-0.350000X-0.450000X0.350000X-0.450000X0.350000X0.450000X-0.350000X0.450000X0*%
%ADD17R,0.400000X0.750000*%
%ADD18R,0.600000X1.150000*%
%ADD19R,0.300000X1.150000*%
%ADD20RoundRect,0.237500X0.287500X0.237500X-0.287500X0.237500X-0.287500X-0.237500X0.287500X-0.237500X0*%
%ADD21RoundRect,0.237500X-0.287500X-0.237500X0.287500X-0.237500X0.287500X0.237500X-0.287500X0.237500X0*%
%ADD22R,0.450000X0.600000*%
%ADD23RoundRect,0.250000X-0.337500X-0.475000X0.337500X-0.475000X0.337500X0.475000X-0.337500X0.475000X0*%
%ADD24RoundRect,0.250000X0.337500X0.475000X-0.337500X0.475000X-0.337500X-0.475000X0.337500X-0.475000X0*%
G04 APERTURE END LIST*
%TO.C,Q1*%
G36*
X151462600Y-84883600D02*
G01*
X150937600Y-84883600D01*
X150937600Y-84483600D01*
X151462600Y-84483600D01*
X151462600Y-84883600D01*
G37*
D10*
X151462600Y-84883600D02*
X150937600Y-84883600D01*
X150937600Y-84483600D01*
X151462600Y-84483600D01*
X151462600Y-84883600D01*
G36*
X148477600Y-84883600D02*
G01*
X147952600Y-84883600D01*
X147952600Y-84483600D01*
X148477600Y-84483600D01*
X148477600Y-84883600D01*
G37*
X148477600Y-84883600D02*
X147952600Y-84883600D01*
X147952600Y-84483600D01*
X148477600Y-84483600D01*
X148477600Y-84883600D01*
G36*
X150482600Y-84743600D02*
G01*
X148932600Y-84743600D01*
X148932600Y-83223600D01*
X150482600Y-83223600D01*
X150482600Y-84743600D01*
G37*
X150482600Y-84743600D02*
X148932600Y-84743600D01*
X148932600Y-83223600D01*
X150482600Y-83223600D01*
X150482600Y-84743600D01*
%TD*%
D11*
%TO.C,U1*%
X164154800Y-98519900D03*
X164654800Y-98519900D03*
X165154800Y-98519900D03*
X165654800Y-98519900D03*
X166154800Y-98519900D03*
X166654800Y-98519900D03*
D12*
X167367300Y-99232400D03*
X167367300Y-99732400D03*
X167367300Y-100232400D03*
X167367300Y-100732400D03*
X167367300Y-101232400D03*
X167367300Y-101732400D03*
D11*
X166654800Y-102444900D03*
X166154800Y-102444900D03*
X165654800Y-102444900D03*
X165154800Y-102444900D03*
X164654800Y-102444900D03*
X164154800Y-102444900D03*
D12*
X163442300Y-101732400D03*
X163442300Y-101232400D03*
X163442300Y-100732400D03*
X163442300Y-100232400D03*
X163442300Y-99732400D03*
X163442300Y-99232400D03*
D13*
X166079800Y-99807400D03*
X166079800Y-101157400D03*
X164729800Y-99807400D03*
X164729800Y-101157400D03*
%TD*%
D14*
%TO.C,S2*%
X127137100Y-123318400D03*
X127137100Y-120318400D03*
X119937100Y-120318400D03*
X119937100Y-123318400D03*
%TD*%
D15*
%TO.C,R13*%
X159546800Y-84937600D03*
X157546800Y-84937600D03*
%TD*%
D16*
%TO.C,R12*%
X139568500Y-87105600D03*
X141568500Y-87105600D03*
%TD*%
D15*
%TO.C,R11*%
X132130800Y-86969600D03*
X130130800Y-86969600D03*
%TD*%
D16*
%TO.C,R10*%
X129962400Y-92608400D03*
X131962400Y-92608400D03*
%TD*%
%TO.C,R9*%
X130080000Y-114452400D03*
X132080000Y-114452400D03*
%TD*%
%TO.C,R8*%
X131978400Y-103733600D03*
X129978400Y-103733600D03*
%TD*%
%TO.C,R7*%
X130064000Y-109118400D03*
X132064000Y-109118400D03*
%TD*%
D15*
%TO.C,R6*%
X122208800Y-114909600D03*
X120208800Y-114909600D03*
%TD*%
D16*
%TO.C,R5*%
X130216400Y-81940400D03*
X132216400Y-81940400D03*
%TD*%
D15*
%TO.C,R4*%
X141884400Y-114655600D03*
X139884400Y-114655600D03*
%TD*%
%TO.C,R3*%
X141833600Y-104190800D03*
X139833600Y-104190800D03*
%TD*%
D16*
%TO.C,R2*%
X139926000Y-109300800D03*
X141926000Y-109300800D03*
%TD*%
D15*
%TO.C,R1*%
X131962400Y-98145600D03*
X129962400Y-98145600D03*
%TD*%
D17*
%TO.C,Q1*%
X150682600Y-86208600D03*
X148732600Y-86208600D03*
X150032600Y-86208600D03*
X149382600Y-86208600D03*
%TD*%
D18*
%TO.C,J1*%
X160019600Y-75155600D03*
X159219600Y-75155600D03*
D19*
X158069600Y-75155600D03*
X157069600Y-75155600D03*
X156569600Y-75155600D03*
X155569600Y-75155600D03*
D18*
X154419600Y-75155600D03*
X153619600Y-75155600D03*
X153619600Y-75155600D03*
X154419600Y-75155600D03*
D19*
X155069600Y-75155600D03*
X156069600Y-75155600D03*
X157569600Y-75155600D03*
X158569600Y-75155600D03*
D18*
X159219600Y-75155600D03*
X160019600Y-75155600D03*
%TD*%
D20*
%TO.C,D4*%
X146417000Y-118160800D03*
X144667000Y-118160800D03*
%TD*%
D21*
%TO.C,D3*%
X120435400Y-92608400D03*
X122185400Y-92608400D03*
%TD*%
%TO.C,D2*%
X120271600Y-98298000D03*
X122021600Y-98298000D03*
%TD*%
D22*
%TO.C,D1*%
X134518400Y-120819200D03*
X134518400Y-122919200D03*
%TD*%
D23*
%TO.C,C4*%
X139707800Y-92964000D03*
X141782800Y-92964000D03*
%TD*%
D24*
%TO.C,C3*%
X132253900Y-76606400D03*
X130178900Y-76606400D03*
%TD*%
D23*
%TO.C,C2*%
X120069700Y-103936800D03*
X122144700Y-103936800D03*
%TD*%
%TO.C,C1*%
X120222100Y-109321600D03*
X122297100Y-109321600D03*
%TD*%
M02*
