M48
; DRILL file {KiCad (6.0.10)} date Wed Apr  5 21:14:26 2023
; FORMAT={-:-/ absolute / inch / decimal}
; #@! TF.CreationDate,2023-04-05T21:14:26-05:00
; #@! TF.GenerationSoftware,Kicad,Pcbnew,(6.0.10)
; #@! TF.FileFunction,Plated,1,2,PTH
FMAT,2
INCH
; #@! TA.AperFunction,Plated,PTH,ComponentDrill
T1C0.0118
; #@! TA.AperFunction,Plated,PTH,ViaDrill
T2C0.0157
; #@! TA.AperFunction,Plated,PTH,ComponentDrill
T3C0.0354
; #@! TA.AperFunction,Plated,PTH,ComponentDrill
T4C0.0394
; #@! TA.AperFunction,Plated,PTH,ComponentDrill
T5C0.0512
%
G90
G05
T1
X5.575Y-2.8168
X5.575Y-2.8769
X5.605Y-2.7868
X5.605Y-2.8469
X5.605Y-2.9069
X5.635Y-2.8168
X5.635Y-2.8769
X5.6651Y-2.7868
X5.6651Y-2.8469
X5.6651Y-2.9069
X5.6951Y-2.8168
X5.6951Y-2.8769
T2
X4.9091Y-4.1291
X4.9098Y-3.2614
X5.1807Y-5.1161
X5.335Y-5.1159
X5.4319Y-3.526
X5.4323Y-3.7587
X5.498Y-4.6362
X5.6314Y-4.8807
X5.68Y-4.88
X5.6883Y-4.8417
X5.702Y-4.2934
X5.7096Y-4.9921
X5.7337Y-4.6839
X5.8035Y-4.4993
X5.812Y-5.0634
X5.882Y-5.2784
X5.9362Y-5.1941
X6.2386Y-3.3843
X6.2626Y-3.4795
X6.3906Y-4.9917
X6.5067Y-2.6724
X6.5107Y-2.9906
X6.5894Y-2.7094
X6.7768Y-3.0469
X6.7862Y-2.9902
X6.8598Y-3.8043
X6.9181Y-3.3602
X7.1773Y-5.4466
X7.33Y-4.81
X7.418Y-5.436
X8.0662Y-4.7052
T3
X5.7314Y-5.4434
X5.8298Y-5.4434
X5.9086Y-5.4434
X6.007Y-5.4434
T4
X4.79Y-2.575
X4.79Y-2.675
X4.79Y-2.775
X4.79Y-2.875
X4.79Y-2.975
X4.79Y-3.075
X4.79Y-3.27
X4.79Y-3.37
X4.79Y-3.47
X4.79Y-3.57
X4.79Y-3.67
X4.79Y-3.77
X5.0488Y-2.5713
X5.0488Y-2.6713
X5.0488Y-2.7713
X5.0488Y-2.8713
X5.0488Y-2.9713
X5.0488Y-3.0713
X5.0488Y-3.1713
X5.0488Y-3.2713
X5.0488Y-3.3713
X5.0488Y-3.4713
X5.0488Y-3.5713
X5.0488Y-3.6713
X5.0488Y-3.7713
X5.0488Y-3.8713
X5.0488Y-3.9713
X5.0488Y-4.0713
X6.3732Y-2.5701
X6.3732Y-2.6701
X6.3732Y-2.7701
X6.3732Y-2.8701
X6.3732Y-2.9701
X6.3732Y-3.0701
X6.3732Y-3.1701
X6.3732Y-3.2701
X6.3732Y-3.3701
X6.3732Y-3.4701
X6.3732Y-3.5701
X6.3732Y-3.6701
X6.3732Y-3.7701
X6.3732Y-3.8701
X6.3732Y-3.9701
X6.3732Y-4.0701
X6.69Y-2.0102
X6.69Y-2.1102
X6.69Y-2.2102
X6.69Y-2.3102
X6.69Y-2.4102
X6.69Y-2.5102
X6.69Y-2.6102
X6.69Y-2.7102
X6.69Y-2.8102
X6.69Y-2.9102
X6.69Y-3.0706
X6.69Y-3.1706
X6.69Y-3.2706
X6.69Y-3.3706
X6.69Y-3.4706
X6.69Y-3.5706
X6.69Y-3.6706
X6.69Y-3.7706
X7.0921Y-4.1547
X7.44Y-4.22
X7.44Y-4.32
X8.3921Y-5.5709
X8.3921Y-5.6709
T5
G00X5.6106Y-5.4867
M15
G01X5.6106Y-5.4473
M16
G05
G00X5.8889Y-5.6316
M15
G01X5.8495Y-5.6316
M16
G05
G00X6.1279Y-5.4473
M15
G01X6.1279Y-5.4867
M16
G05
T0
M30
