%TF.GenerationSoftware,KiCad,Pcbnew,(6.0.10)*%
%TF.CreationDate,2023-04-05T18:46:28-05:00*%
%TF.ProjectId,445,3434352e-6b69-4636-9164-5f7063625858,rev?*%
%TF.SameCoordinates,Original*%
%TF.FileFunction,Legend,Top*%
%TF.FilePolarity,Positive*%
%FSLAX46Y46*%
G04 Gerber Fmt 4.6, Leading zero omitted, Abs format (unit mm)*
G04 Created by KiCad (PCBNEW (6.0.10)) date 2023-04-05 18:46:28*
%MOMM*%
%LPD*%
G01*
G04 APERTURE LIST*
%ADD10C,0.300000*%
%ADD11C,0.125000*%
%ADD12C,0.150000*%
%ADD13C,0.120000*%
%ADD14C,0.127000*%
%ADD15C,0.200000*%
G04 APERTURE END LIST*
D10*
X196532571Y-128885142D02*
X197675428Y-128885142D01*
X201485571Y-128885142D02*
X202628428Y-128885142D01*
X202057000Y-129456571D02*
X202057000Y-128313714D01*
D11*
X142701428Y-107458571D02*
X142844285Y-107506190D01*
X142891904Y-107553809D01*
X142939523Y-107649047D01*
X142939523Y-107791904D01*
X142891904Y-107887142D01*
X142844285Y-107934761D01*
X142749047Y-107982380D01*
X142368095Y-107982380D01*
X142368095Y-106982380D01*
X142701428Y-106982380D01*
X142796666Y-107030000D01*
X142844285Y-107077619D01*
X142891904Y-107172857D01*
X142891904Y-107268095D01*
X142844285Y-107363333D01*
X142796666Y-107410952D01*
X142701428Y-107458571D01*
X142368095Y-107458571D01*
X151189523Y-103817142D02*
X151141904Y-103864761D01*
X150999047Y-103912380D01*
X150903809Y-103912380D01*
X150760952Y-103864761D01*
X150665714Y-103769523D01*
X150618095Y-103674285D01*
X150570476Y-103483809D01*
X150570476Y-103340952D01*
X150618095Y-103150476D01*
X150665714Y-103055238D01*
X150760952Y-102960000D01*
X150903809Y-102912380D01*
X150999047Y-102912380D01*
X151141904Y-102960000D01*
X151189523Y-103007619D01*
X146705714Y-106138571D02*
X147039047Y-106138571D01*
X147181904Y-106662380D02*
X146705714Y-106662380D01*
X146705714Y-105662380D01*
X147181904Y-105662380D01*
X150171428Y-107528571D02*
X150314285Y-107576190D01*
X150361904Y-107623809D01*
X150409523Y-107719047D01*
X150409523Y-107861904D01*
X150361904Y-107957142D01*
X150314285Y-108004761D01*
X150219047Y-108052380D01*
X149838095Y-108052380D01*
X149838095Y-107052380D01*
X150171428Y-107052380D01*
X150266666Y-107100000D01*
X150314285Y-107147619D01*
X150361904Y-107242857D01*
X150361904Y-107338095D01*
X150314285Y-107433333D01*
X150266666Y-107480952D01*
X150171428Y-107528571D01*
X149838095Y-107528571D01*
D10*
X186564285Y-70579057D02*
X187064285Y-70579057D01*
X187278571Y-71364771D02*
X186564285Y-71364771D01*
X186564285Y-69864771D01*
X187278571Y-69864771D01*
X188778571Y-71221914D02*
X188707142Y-71293342D01*
X188492857Y-71364771D01*
X188350000Y-71364771D01*
X188135714Y-71293342D01*
X187992857Y-71150485D01*
X187921428Y-71007628D01*
X187850000Y-70721914D01*
X187850000Y-70507628D01*
X187921428Y-70221914D01*
X187992857Y-70079057D01*
X188135714Y-69936200D01*
X188350000Y-69864771D01*
X188492857Y-69864771D01*
X188707142Y-69936200D01*
X188778571Y-70007628D01*
X189421428Y-70579057D02*
X189921428Y-70579057D01*
X190135714Y-71364771D02*
X189421428Y-71364771D01*
X189421428Y-69864771D01*
X190135714Y-69864771D01*
X191421428Y-70364771D02*
X191421428Y-71364771D01*
X191064285Y-69793342D02*
X190707142Y-70864771D01*
X191635714Y-70864771D01*
X192850000Y-70364771D02*
X192850000Y-71364771D01*
X192492857Y-69793342D02*
X192135714Y-70864771D01*
X193064285Y-70864771D01*
X194350000Y-69864771D02*
X193635714Y-69864771D01*
X193564285Y-70579057D01*
X193635714Y-70507628D01*
X193778571Y-70436200D01*
X194135714Y-70436200D01*
X194278571Y-70507628D01*
X194350000Y-70579057D01*
X194421428Y-70721914D01*
X194421428Y-71079057D01*
X194350000Y-71221914D01*
X194278571Y-71293342D01*
X194135714Y-71364771D01*
X193778571Y-71364771D01*
X193635714Y-71293342D01*
X193564285Y-71221914D01*
X196992857Y-69936200D02*
X196850000Y-69864771D01*
X196635714Y-69864771D01*
X196421428Y-69936200D01*
X196278571Y-70079057D01*
X196207142Y-70221914D01*
X196135714Y-70507628D01*
X196135714Y-70721914D01*
X196207142Y-71007628D01*
X196278571Y-71150485D01*
X196421428Y-71293342D01*
X196635714Y-71364771D01*
X196778571Y-71364771D01*
X196992857Y-71293342D01*
X197064285Y-71221914D01*
X197064285Y-70721914D01*
X196778571Y-70721914D01*
X197707142Y-71364771D02*
X197707142Y-70364771D01*
X197707142Y-70650485D02*
X197778571Y-70507628D01*
X197850000Y-70436200D01*
X197992857Y-70364771D01*
X198135714Y-70364771D01*
X198850000Y-71364771D02*
X198707142Y-71293342D01*
X198635714Y-71221914D01*
X198564285Y-71079057D01*
X198564285Y-70650485D01*
X198635714Y-70507628D01*
X198707142Y-70436200D01*
X198850000Y-70364771D01*
X199064285Y-70364771D01*
X199207142Y-70436200D01*
X199278571Y-70507628D01*
X199350000Y-70650485D01*
X199350000Y-71079057D01*
X199278571Y-71221914D01*
X199207142Y-71293342D01*
X199064285Y-71364771D01*
X198850000Y-71364771D01*
X200635714Y-70364771D02*
X200635714Y-71364771D01*
X199992857Y-70364771D02*
X199992857Y-71150485D01*
X200064285Y-71293342D01*
X200207142Y-71364771D01*
X200421428Y-71364771D01*
X200564285Y-71293342D01*
X200635714Y-71221914D01*
X201350000Y-70364771D02*
X201350000Y-71864771D01*
X201350000Y-70436200D02*
X201492857Y-70364771D01*
X201778571Y-70364771D01*
X201921428Y-70436200D01*
X201992857Y-70507628D01*
X202064285Y-70650485D01*
X202064285Y-71079057D01*
X201992857Y-71221914D01*
X201921428Y-71293342D01*
X201778571Y-71364771D01*
X201492857Y-71364771D01*
X201350000Y-71293342D01*
X203778571Y-70007628D02*
X203850000Y-69936200D01*
X203992857Y-69864771D01*
X204350000Y-69864771D01*
X204492857Y-69936200D01*
X204564285Y-70007628D01*
X204635714Y-70150485D01*
X204635714Y-70293342D01*
X204564285Y-70507628D01*
X203707142Y-71364771D01*
X204635714Y-71364771D01*
X205350000Y-71364771D02*
X205635714Y-71364771D01*
X205778571Y-71293342D01*
X205850000Y-71221914D01*
X205992857Y-71007628D01*
X206064285Y-70721914D01*
X206064285Y-70150485D01*
X205992857Y-70007628D01*
X205921428Y-69936200D01*
X205778571Y-69864771D01*
X205492857Y-69864771D01*
X205350000Y-69936200D01*
X205278571Y-70007628D01*
X205207142Y-70150485D01*
X205207142Y-70507628D01*
X205278571Y-70650485D01*
X205350000Y-70721914D01*
X205492857Y-70793342D01*
X205778571Y-70793342D01*
X205921428Y-70721914D01*
X205992857Y-70650485D01*
X206064285Y-70507628D01*
X187635714Y-72279771D02*
X188492857Y-72279771D01*
X188064285Y-73779771D02*
X188064285Y-72279771D01*
X188992857Y-73779771D02*
X188992857Y-72279771D01*
X189635714Y-73779771D02*
X189635714Y-72994057D01*
X189564285Y-72851200D01*
X189421428Y-72779771D01*
X189207142Y-72779771D01*
X189064285Y-72851200D01*
X188992857Y-72922628D01*
X190921428Y-73708342D02*
X190778571Y-73779771D01*
X190492857Y-73779771D01*
X190350000Y-73708342D01*
X190278571Y-73565485D01*
X190278571Y-72994057D01*
X190350000Y-72851200D01*
X190492857Y-72779771D01*
X190778571Y-72779771D01*
X190921428Y-72851200D01*
X190992857Y-72994057D01*
X190992857Y-73136914D01*
X190278571Y-73279771D01*
X191635714Y-73779771D02*
X191635714Y-72779771D01*
X191635714Y-73065485D02*
X191707142Y-72922628D01*
X191778571Y-72851200D01*
X191921428Y-72779771D01*
X192064285Y-72779771D01*
X192564285Y-73779771D02*
X192564285Y-72779771D01*
X192564285Y-72922628D02*
X192635714Y-72851200D01*
X192778571Y-72779771D01*
X192992857Y-72779771D01*
X193135714Y-72851200D01*
X193207142Y-72994057D01*
X193207142Y-73779771D01*
X193207142Y-72994057D02*
X193278571Y-72851200D01*
X193421428Y-72779771D01*
X193635714Y-72779771D01*
X193778571Y-72851200D01*
X193850000Y-72994057D01*
X193850000Y-73779771D01*
X195207142Y-73779771D02*
X195207142Y-72994057D01*
X195135714Y-72851200D01*
X194992857Y-72779771D01*
X194707142Y-72779771D01*
X194564285Y-72851200D01*
X195207142Y-73708342D02*
X195064285Y-73779771D01*
X194707142Y-73779771D01*
X194564285Y-73708342D01*
X194492857Y-73565485D01*
X194492857Y-73422628D01*
X194564285Y-73279771D01*
X194707142Y-73208342D01*
X195064285Y-73208342D01*
X195207142Y-73136914D01*
X196135714Y-73779771D02*
X195992857Y-73708342D01*
X195921428Y-73565485D01*
X195921428Y-72279771D01*
X197850000Y-73779771D02*
X197850000Y-72279771D01*
X198421428Y-72279771D01*
X198564285Y-72351200D01*
X198635714Y-72422628D01*
X198707142Y-72565485D01*
X198707142Y-72779771D01*
X198635714Y-72922628D01*
X198564285Y-72994057D01*
X198421428Y-73065485D01*
X197850000Y-73065485D01*
X199350000Y-73779771D02*
X199350000Y-72779771D01*
X199350000Y-73065485D02*
X199421428Y-72922628D01*
X199492857Y-72851200D01*
X199635714Y-72779771D01*
X199778571Y-72779771D01*
X200278571Y-73779771D02*
X200278571Y-72779771D01*
X200278571Y-72279771D02*
X200207142Y-72351200D01*
X200278571Y-72422628D01*
X200350000Y-72351200D01*
X200278571Y-72279771D01*
X200278571Y-72422628D01*
X200992857Y-72779771D02*
X200992857Y-73779771D01*
X200992857Y-72922628D02*
X201064285Y-72851200D01*
X201207142Y-72779771D01*
X201421428Y-72779771D01*
X201564285Y-72851200D01*
X201635714Y-72994057D01*
X201635714Y-73779771D01*
X202135714Y-72779771D02*
X202707142Y-72779771D01*
X202350000Y-72279771D02*
X202350000Y-73565485D01*
X202421428Y-73708342D01*
X202564285Y-73779771D01*
X202707142Y-73779771D01*
X203778571Y-73708342D02*
X203635714Y-73779771D01*
X203350000Y-73779771D01*
X203207142Y-73708342D01*
X203135714Y-73565485D01*
X203135714Y-72994057D01*
X203207142Y-72851200D01*
X203350000Y-72779771D01*
X203635714Y-72779771D01*
X203778571Y-72851200D01*
X203850000Y-72994057D01*
X203850000Y-73136914D01*
X203135714Y-73279771D01*
X204492857Y-73779771D02*
X204492857Y-72779771D01*
X204492857Y-73065485D02*
X204564285Y-72922628D01*
X204635714Y-72851200D01*
X204778571Y-72779771D01*
X204921428Y-72779771D01*
X189135714Y-76194771D02*
X189135714Y-74694771D01*
X189635714Y-75766200D01*
X190135714Y-74694771D01*
X190135714Y-76194771D01*
X191707142Y-76051914D02*
X191635714Y-76123342D01*
X191421428Y-76194771D01*
X191278571Y-76194771D01*
X191064285Y-76123342D01*
X190921428Y-75980485D01*
X190850000Y-75837628D01*
X190778571Y-75551914D01*
X190778571Y-75337628D01*
X190850000Y-75051914D01*
X190921428Y-74909057D01*
X191064285Y-74766200D01*
X191278571Y-74694771D01*
X191421428Y-74694771D01*
X191635714Y-74766200D01*
X191707142Y-74837628D01*
X192350000Y-74694771D02*
X192350000Y-75909057D01*
X192421428Y-76051914D01*
X192492857Y-76123342D01*
X192635714Y-76194771D01*
X192921428Y-76194771D01*
X193064285Y-76123342D01*
X193135714Y-76051914D01*
X193207142Y-75909057D01*
X193207142Y-74694771D01*
X195564285Y-75409057D02*
X195778571Y-75480485D01*
X195850000Y-75551914D01*
X195921428Y-75694771D01*
X195921428Y-75909057D01*
X195850000Y-76051914D01*
X195778571Y-76123342D01*
X195635714Y-76194771D01*
X195064285Y-76194771D01*
X195064285Y-74694771D01*
X195564285Y-74694771D01*
X195707142Y-74766200D01*
X195778571Y-74837628D01*
X195850000Y-74980485D01*
X195850000Y-75123342D01*
X195778571Y-75266200D01*
X195707142Y-75337628D01*
X195564285Y-75409057D01*
X195064285Y-75409057D01*
X196778571Y-76194771D02*
X196635714Y-76123342D01*
X196564285Y-76051914D01*
X196492857Y-75909057D01*
X196492857Y-75480485D01*
X196564285Y-75337628D01*
X196635714Y-75266200D01*
X196778571Y-75194771D01*
X196992857Y-75194771D01*
X197135714Y-75266200D01*
X197207142Y-75337628D01*
X197278571Y-75480485D01*
X197278571Y-75909057D01*
X197207142Y-76051914D01*
X197135714Y-76123342D01*
X196992857Y-76194771D01*
X196778571Y-76194771D01*
X198564285Y-76194771D02*
X198564285Y-75409057D01*
X198492857Y-75266200D01*
X198350000Y-75194771D01*
X198064285Y-75194771D01*
X197921428Y-75266200D01*
X198564285Y-76123342D02*
X198421428Y-76194771D01*
X198064285Y-76194771D01*
X197921428Y-76123342D01*
X197850000Y-75980485D01*
X197850000Y-75837628D01*
X197921428Y-75694771D01*
X198064285Y-75623342D01*
X198421428Y-75623342D01*
X198564285Y-75551914D01*
X199278571Y-76194771D02*
X199278571Y-75194771D01*
X199278571Y-75480485D02*
X199350000Y-75337628D01*
X199421428Y-75266200D01*
X199564285Y-75194771D01*
X199707142Y-75194771D01*
X200850000Y-76194771D02*
X200850000Y-74694771D01*
X200850000Y-76123342D02*
X200707142Y-76194771D01*
X200421428Y-76194771D01*
X200278571Y-76123342D01*
X200207142Y-76051914D01*
X200135714Y-75909057D01*
X200135714Y-75480485D01*
X200207142Y-75337628D01*
X200278571Y-75266200D01*
X200421428Y-75194771D01*
X200707142Y-75194771D01*
X200850000Y-75266200D01*
X202564285Y-75194771D02*
X202921428Y-76194771D01*
X203278571Y-75194771D01*
X203778571Y-74837628D02*
X203850000Y-74766200D01*
X203992857Y-74694771D01*
X204350000Y-74694771D01*
X204492857Y-74766200D01*
X204564285Y-74837628D01*
X204635714Y-74980485D01*
X204635714Y-75123342D01*
X204564285Y-75337628D01*
X203707142Y-76194771D01*
X204635714Y-76194771D01*
D11*
X153475714Y-108718571D02*
X153809047Y-108718571D01*
X153951904Y-109242380D02*
X153475714Y-109242380D01*
X153475714Y-108242380D01*
X153951904Y-108242380D01*
X145069523Y-103697142D02*
X145021904Y-103744761D01*
X144879047Y-103792380D01*
X144783809Y-103792380D01*
X144640952Y-103744761D01*
X144545714Y-103649523D01*
X144498095Y-103554285D01*
X144450476Y-103363809D01*
X144450476Y-103220952D01*
X144498095Y-103030476D01*
X144545714Y-102935238D01*
X144640952Y-102840000D01*
X144783809Y-102792380D01*
X144879047Y-102792380D01*
X145021904Y-102840000D01*
X145069523Y-102887619D01*
D10*
X138578571Y-92147142D02*
X139721428Y-92147142D01*
X141048571Y-92167142D02*
X142191428Y-92167142D01*
X141620000Y-92738571D02*
X141620000Y-91595714D01*
D12*
%TO.C,Q3*%
X150979619Y-106099238D02*
X150932000Y-106194476D01*
X150836761Y-106289714D01*
X150693904Y-106432571D01*
X150646285Y-106527809D01*
X150646285Y-106623047D01*
X150884380Y-106575428D02*
X150836761Y-106670666D01*
X150741523Y-106765904D01*
X150551047Y-106813523D01*
X150217714Y-106813523D01*
X150027238Y-106765904D01*
X149932000Y-106670666D01*
X149884380Y-106575428D01*
X149884380Y-106384952D01*
X149932000Y-106289714D01*
X150027238Y-106194476D01*
X150217714Y-106146857D01*
X150551047Y-106146857D01*
X150741523Y-106194476D01*
X150836761Y-106289714D01*
X150884380Y-106384952D01*
X150884380Y-106575428D01*
X149884380Y-105813523D02*
X149884380Y-105194476D01*
X150265333Y-105527809D01*
X150265333Y-105384952D01*
X150312952Y-105289714D01*
X150360571Y-105242095D01*
X150455809Y-105194476D01*
X150693904Y-105194476D01*
X150789142Y-105242095D01*
X150836761Y-105289714D01*
X150884380Y-105384952D01*
X150884380Y-105670666D01*
X150836761Y-105765904D01*
X150789142Y-105813523D01*
%TO.C,R27*%
X174327142Y-80612380D02*
X173993809Y-80136190D01*
X173755714Y-80612380D02*
X173755714Y-79612380D01*
X174136666Y-79612380D01*
X174231904Y-79660000D01*
X174279523Y-79707619D01*
X174327142Y-79802857D01*
X174327142Y-79945714D01*
X174279523Y-80040952D01*
X174231904Y-80088571D01*
X174136666Y-80136190D01*
X173755714Y-80136190D01*
X174708095Y-79707619D02*
X174755714Y-79660000D01*
X174850952Y-79612380D01*
X175089047Y-79612380D01*
X175184285Y-79660000D01*
X175231904Y-79707619D01*
X175279523Y-79802857D01*
X175279523Y-79898095D01*
X175231904Y-80040952D01*
X174660476Y-80612380D01*
X175279523Y-80612380D01*
X175612857Y-79612380D02*
X176279523Y-79612380D01*
X175850952Y-80612380D01*
%TO.C,J5*%
X212826666Y-138622380D02*
X212826666Y-139336666D01*
X212779047Y-139479523D01*
X212683809Y-139574761D01*
X212540952Y-139622380D01*
X212445714Y-139622380D01*
X213779047Y-138622380D02*
X213302857Y-138622380D01*
X213255238Y-139098571D01*
X213302857Y-139050952D01*
X213398095Y-139003333D01*
X213636190Y-139003333D01*
X213731428Y-139050952D01*
X213779047Y-139098571D01*
X213826666Y-139193809D01*
X213826666Y-139431904D01*
X213779047Y-139527142D01*
X213731428Y-139574761D01*
X213636190Y-139622380D01*
X213398095Y-139622380D01*
X213302857Y-139574761D01*
X213255238Y-139527142D01*
%TO.C,U3*%
X185915595Y-147703880D02*
X185915595Y-148513404D01*
X185963214Y-148608642D01*
X186010833Y-148656261D01*
X186106071Y-148703880D01*
X186296547Y-148703880D01*
X186391785Y-148656261D01*
X186439404Y-148608642D01*
X186487023Y-148513404D01*
X186487023Y-147703880D01*
X186867976Y-147703880D02*
X187487023Y-147703880D01*
X187153690Y-148084833D01*
X187296547Y-148084833D01*
X187391785Y-148132452D01*
X187439404Y-148180071D01*
X187487023Y-148275309D01*
X187487023Y-148513404D01*
X187439404Y-148608642D01*
X187391785Y-148656261D01*
X187296547Y-148703880D01*
X187010833Y-148703880D01*
X186915595Y-148656261D01*
X186867976Y-148608642D01*
X179425119Y-146918166D02*
X179901309Y-146918166D01*
X179329880Y-147203880D02*
X179663214Y-146203880D01*
X179996547Y-147203880D01*
X180329880Y-147203880D02*
X180329880Y-146203880D01*
X180710833Y-146203880D01*
X180806071Y-146251500D01*
X180853690Y-146299119D01*
X180901309Y-146394357D01*
X180901309Y-146537214D01*
X180853690Y-146632452D01*
X180806071Y-146680071D01*
X180710833Y-146727690D01*
X180329880Y-146727690D01*
X181758452Y-146203880D02*
X181567976Y-146203880D01*
X181472738Y-146251500D01*
X181425119Y-146299119D01*
X181329880Y-146441976D01*
X181282261Y-146632452D01*
X181282261Y-147013404D01*
X181329880Y-147108642D01*
X181377500Y-147156261D01*
X181472738Y-147203880D01*
X181663214Y-147203880D01*
X181758452Y-147156261D01*
X181806071Y-147108642D01*
X181853690Y-147013404D01*
X181853690Y-146775309D01*
X181806071Y-146680071D01*
X181758452Y-146632452D01*
X181663214Y-146584833D01*
X181472738Y-146584833D01*
X181377500Y-146632452D01*
X181329880Y-146680071D01*
X181282261Y-146775309D01*
X182187023Y-146203880D02*
X182806071Y-146203880D01*
X182472738Y-146584833D01*
X182615595Y-146584833D01*
X182710833Y-146632452D01*
X182758452Y-146680071D01*
X182806071Y-146775309D01*
X182806071Y-147013404D01*
X182758452Y-147108642D01*
X182710833Y-147156261D01*
X182615595Y-147203880D01*
X182329880Y-147203880D01*
X182234642Y-147156261D01*
X182187023Y-147108642D01*
X183139404Y-146203880D02*
X183758452Y-146203880D01*
X183425119Y-146584833D01*
X183567976Y-146584833D01*
X183663214Y-146632452D01*
X183710833Y-146680071D01*
X183758452Y-146775309D01*
X183758452Y-147013404D01*
X183710833Y-147108642D01*
X183663214Y-147156261D01*
X183567976Y-147203880D01*
X183282261Y-147203880D01*
X183187023Y-147156261D01*
X183139404Y-147108642D01*
X184663214Y-146203880D02*
X184187023Y-146203880D01*
X184139404Y-146680071D01*
X184187023Y-146632452D01*
X184282261Y-146584833D01*
X184520357Y-146584833D01*
X184615595Y-146632452D01*
X184663214Y-146680071D01*
X184710833Y-146775309D01*
X184710833Y-147013404D01*
X184663214Y-147108642D01*
X184615595Y-147156261D01*
X184520357Y-147203880D01*
X184282261Y-147203880D01*
X184187023Y-147156261D01*
X184139404Y-147108642D01*
X185567976Y-146203880D02*
X185377500Y-146203880D01*
X185282261Y-146251500D01*
X185234642Y-146299119D01*
X185139404Y-146441976D01*
X185091785Y-146632452D01*
X185091785Y-147013404D01*
X185139404Y-147108642D01*
X185187023Y-147156261D01*
X185282261Y-147203880D01*
X185472738Y-147203880D01*
X185567976Y-147156261D01*
X185615595Y-147108642D01*
X185663214Y-147013404D01*
X185663214Y-146775309D01*
X185615595Y-146680071D01*
X185567976Y-146632452D01*
X185472738Y-146584833D01*
X185282261Y-146584833D01*
X185187023Y-146632452D01*
X185139404Y-146680071D01*
X185091785Y-146775309D01*
X186806071Y-146156261D02*
X185948928Y-147441976D01*
X187091785Y-146918166D02*
X187567976Y-146918166D01*
X186996547Y-147203880D02*
X187329880Y-146203880D01*
X187663214Y-147203880D01*
X187996547Y-147203880D02*
X187996547Y-146203880D01*
X188377500Y-146203880D01*
X188472738Y-146251500D01*
X188520357Y-146299119D01*
X188567976Y-146394357D01*
X188567976Y-146537214D01*
X188520357Y-146632452D01*
X188472738Y-146680071D01*
X188377500Y-146727690D01*
X187996547Y-146727690D01*
X189425119Y-146203880D02*
X189234642Y-146203880D01*
X189139404Y-146251500D01*
X189091785Y-146299119D01*
X188996547Y-146441976D01*
X188948928Y-146632452D01*
X188948928Y-147013404D01*
X188996547Y-147108642D01*
X189044166Y-147156261D01*
X189139404Y-147203880D01*
X189329880Y-147203880D01*
X189425119Y-147156261D01*
X189472738Y-147108642D01*
X189520357Y-147013404D01*
X189520357Y-146775309D01*
X189472738Y-146680071D01*
X189425119Y-146632452D01*
X189329880Y-146584833D01*
X189139404Y-146584833D01*
X189044166Y-146632452D01*
X188996547Y-146680071D01*
X188948928Y-146775309D01*
X189853690Y-146203880D02*
X190472738Y-146203880D01*
X190139404Y-146584833D01*
X190282261Y-146584833D01*
X190377500Y-146632452D01*
X190425119Y-146680071D01*
X190472738Y-146775309D01*
X190472738Y-147013404D01*
X190425119Y-147108642D01*
X190377500Y-147156261D01*
X190282261Y-147203880D01*
X189996547Y-147203880D01*
X189901309Y-147156261D01*
X189853690Y-147108642D01*
X190806071Y-146203880D02*
X191425119Y-146203880D01*
X191091785Y-146584833D01*
X191234642Y-146584833D01*
X191329880Y-146632452D01*
X191377500Y-146680071D01*
X191425119Y-146775309D01*
X191425119Y-147013404D01*
X191377500Y-147108642D01*
X191329880Y-147156261D01*
X191234642Y-147203880D01*
X190948928Y-147203880D01*
X190853690Y-147156261D01*
X190806071Y-147108642D01*
X192329880Y-146203880D02*
X191853690Y-146203880D01*
X191806071Y-146680071D01*
X191853690Y-146632452D01*
X191948928Y-146584833D01*
X192187023Y-146584833D01*
X192282261Y-146632452D01*
X192329880Y-146680071D01*
X192377500Y-146775309D01*
X192377500Y-147013404D01*
X192329880Y-147108642D01*
X192282261Y-147156261D01*
X192187023Y-147203880D01*
X191948928Y-147203880D01*
X191853690Y-147156261D01*
X191806071Y-147108642D01*
X192710833Y-146203880D02*
X193377500Y-146203880D01*
X192948928Y-147203880D01*
%TO.C,C10*%
X207342142Y-131819642D02*
X207294523Y-131867261D01*
X207151666Y-131914880D01*
X207056428Y-131914880D01*
X206913571Y-131867261D01*
X206818333Y-131772023D01*
X206770714Y-131676785D01*
X206723095Y-131486309D01*
X206723095Y-131343452D01*
X206770714Y-131152976D01*
X206818333Y-131057738D01*
X206913571Y-130962500D01*
X207056428Y-130914880D01*
X207151666Y-130914880D01*
X207294523Y-130962500D01*
X207342142Y-131010119D01*
X208294523Y-131914880D02*
X207723095Y-131914880D01*
X208008809Y-131914880D02*
X208008809Y-130914880D01*
X207913571Y-131057738D01*
X207818333Y-131152976D01*
X207723095Y-131200595D01*
X208913571Y-130914880D02*
X209008809Y-130914880D01*
X209104047Y-130962500D01*
X209151666Y-131010119D01*
X209199285Y-131105357D01*
X209246904Y-131295833D01*
X209246904Y-131533928D01*
X209199285Y-131724404D01*
X209151666Y-131819642D01*
X209104047Y-131867261D01*
X209008809Y-131914880D01*
X208913571Y-131914880D01*
X208818333Y-131867261D01*
X208770714Y-131819642D01*
X208723095Y-131724404D01*
X208675476Y-131533928D01*
X208675476Y-131295833D01*
X208723095Y-131105357D01*
X208770714Y-131010119D01*
X208818333Y-130962500D01*
X208913571Y-130914880D01*
%TO.C,U5*%
X132652380Y-82411904D02*
X133461904Y-82411904D01*
X133557142Y-82364285D01*
X133604761Y-82316666D01*
X133652380Y-82221428D01*
X133652380Y-82030952D01*
X133604761Y-81935714D01*
X133557142Y-81888095D01*
X133461904Y-81840476D01*
X132652380Y-81840476D01*
X132652380Y-80888095D02*
X132652380Y-81364285D01*
X133128571Y-81411904D01*
X133080952Y-81364285D01*
X133033333Y-81269047D01*
X133033333Y-81030952D01*
X133080952Y-80935714D01*
X133128571Y-80888095D01*
X133223809Y-80840476D01*
X133461904Y-80840476D01*
X133557142Y-80888095D01*
X133604761Y-80935714D01*
X133652380Y-81030952D01*
X133652380Y-81269047D01*
X133604761Y-81364285D01*
X133557142Y-81411904D01*
%TO.C,C7*%
X185600833Y-134451442D02*
X185553214Y-134499061D01*
X185410357Y-134546680D01*
X185315119Y-134546680D01*
X185172261Y-134499061D01*
X185077023Y-134403823D01*
X185029404Y-134308585D01*
X184981785Y-134118109D01*
X184981785Y-133975252D01*
X185029404Y-133784776D01*
X185077023Y-133689538D01*
X185172261Y-133594300D01*
X185315119Y-133546680D01*
X185410357Y-133546680D01*
X185553214Y-133594300D01*
X185600833Y-133641919D01*
X185934166Y-133546680D02*
X186600833Y-133546680D01*
X186172261Y-134546680D01*
%TO.C,J6*%
X188642666Y-104310380D02*
X188642666Y-105024666D01*
X188595047Y-105167523D01*
X188499809Y-105262761D01*
X188356952Y-105310380D01*
X188261714Y-105310380D01*
X189547428Y-104310380D02*
X189356952Y-104310380D01*
X189261714Y-104358000D01*
X189214095Y-104405619D01*
X189118857Y-104548476D01*
X189071238Y-104738952D01*
X189071238Y-105119904D01*
X189118857Y-105215142D01*
X189166476Y-105262761D01*
X189261714Y-105310380D01*
X189452190Y-105310380D01*
X189547428Y-105262761D01*
X189595047Y-105215142D01*
X189642666Y-105119904D01*
X189642666Y-104881809D01*
X189595047Y-104786571D01*
X189547428Y-104738952D01*
X189452190Y-104691333D01*
X189261714Y-104691333D01*
X189166476Y-104738952D01*
X189118857Y-104786571D01*
X189071238Y-104881809D01*
%TO.C,J14*%
X147368476Y-144764380D02*
X147368476Y-145478666D01*
X147320857Y-145621523D01*
X147225619Y-145716761D01*
X147082761Y-145764380D01*
X146987523Y-145764380D01*
X148368476Y-145764380D02*
X147797047Y-145764380D01*
X148082761Y-145764380D02*
X148082761Y-144764380D01*
X147987523Y-144907238D01*
X147892285Y-145002476D01*
X147797047Y-145050095D01*
X149225619Y-145097714D02*
X149225619Y-145764380D01*
X148987523Y-144716761D02*
X148749428Y-145431047D01*
X149368476Y-145431047D01*
%TO.C,R2*%
X179963333Y-100342380D02*
X179630000Y-99866190D01*
X179391904Y-100342380D02*
X179391904Y-99342380D01*
X179772857Y-99342380D01*
X179868095Y-99390000D01*
X179915714Y-99437619D01*
X179963333Y-99532857D01*
X179963333Y-99675714D01*
X179915714Y-99770952D01*
X179868095Y-99818571D01*
X179772857Y-99866190D01*
X179391904Y-99866190D01*
X180344285Y-99437619D02*
X180391904Y-99390000D01*
X180487142Y-99342380D01*
X180725238Y-99342380D01*
X180820476Y-99390000D01*
X180868095Y-99437619D01*
X180915714Y-99532857D01*
X180915714Y-99628095D01*
X180868095Y-99770952D01*
X180296666Y-100342380D01*
X180915714Y-100342380D01*
%TO.C,U4*%
X147398095Y-120222380D02*
X147398095Y-121031904D01*
X147445714Y-121127142D01*
X147493333Y-121174761D01*
X147588571Y-121222380D01*
X147779047Y-121222380D01*
X147874285Y-121174761D01*
X147921904Y-121127142D01*
X147969523Y-121031904D01*
X147969523Y-120222380D01*
X148874285Y-120555714D02*
X148874285Y-121222380D01*
X148636190Y-120174761D02*
X148398095Y-120889047D01*
X149017142Y-120889047D01*
%TO.C,S5*%
X132904761Y-114536404D02*
X132952380Y-114393547D01*
X132952380Y-114155452D01*
X132904761Y-114060214D01*
X132857142Y-114012595D01*
X132761904Y-113964976D01*
X132666666Y-113964976D01*
X132571428Y-114012595D01*
X132523809Y-114060214D01*
X132476190Y-114155452D01*
X132428571Y-114345928D01*
X132380952Y-114441166D01*
X132333333Y-114488785D01*
X132238095Y-114536404D01*
X132142857Y-114536404D01*
X132047619Y-114488785D01*
X132000000Y-114441166D01*
X131952380Y-114345928D01*
X131952380Y-114107833D01*
X132000000Y-113964976D01*
X131952380Y-113060214D02*
X131952380Y-113536404D01*
X132428571Y-113584023D01*
X132380952Y-113536404D01*
X132333333Y-113441166D01*
X132333333Y-113203071D01*
X132380952Y-113107833D01*
X132428571Y-113060214D01*
X132523809Y-113012595D01*
X132761904Y-113012595D01*
X132857142Y-113060214D01*
X132904761Y-113107833D01*
X132952380Y-113203071D01*
X132952380Y-113441166D01*
X132904761Y-113536404D01*
X132857142Y-113584023D01*
%TO.C,R21*%
X207522142Y-113704880D02*
X207188809Y-113228690D01*
X206950714Y-113704880D02*
X206950714Y-112704880D01*
X207331666Y-112704880D01*
X207426904Y-112752500D01*
X207474523Y-112800119D01*
X207522142Y-112895357D01*
X207522142Y-113038214D01*
X207474523Y-113133452D01*
X207426904Y-113181071D01*
X207331666Y-113228690D01*
X206950714Y-113228690D01*
X207903095Y-112800119D02*
X207950714Y-112752500D01*
X208045952Y-112704880D01*
X208284047Y-112704880D01*
X208379285Y-112752500D01*
X208426904Y-112800119D01*
X208474523Y-112895357D01*
X208474523Y-112990595D01*
X208426904Y-113133452D01*
X207855476Y-113704880D01*
X208474523Y-113704880D01*
X209426904Y-113704880D02*
X208855476Y-113704880D01*
X209141190Y-113704880D02*
X209141190Y-112704880D01*
X209045952Y-112847738D01*
X208950714Y-112942976D01*
X208855476Y-112990595D01*
%TO.C,C9*%
X207800833Y-127379642D02*
X207753214Y-127427261D01*
X207610357Y-127474880D01*
X207515119Y-127474880D01*
X207372261Y-127427261D01*
X207277023Y-127332023D01*
X207229404Y-127236785D01*
X207181785Y-127046309D01*
X207181785Y-126903452D01*
X207229404Y-126712976D01*
X207277023Y-126617738D01*
X207372261Y-126522500D01*
X207515119Y-126474880D01*
X207610357Y-126474880D01*
X207753214Y-126522500D01*
X207800833Y-126570119D01*
X208277023Y-127474880D02*
X208467500Y-127474880D01*
X208562738Y-127427261D01*
X208610357Y-127379642D01*
X208705595Y-127236785D01*
X208753214Y-127046309D01*
X208753214Y-126665357D01*
X208705595Y-126570119D01*
X208657976Y-126522500D01*
X208562738Y-126474880D01*
X208372261Y-126474880D01*
X208277023Y-126522500D01*
X208229404Y-126570119D01*
X208181785Y-126665357D01*
X208181785Y-126903452D01*
X208229404Y-126998690D01*
X208277023Y-127046309D01*
X208372261Y-127093928D01*
X208562738Y-127093928D01*
X208657976Y-127046309D01*
X208705595Y-126998690D01*
X208753214Y-126903452D01*
%TO.C,R29*%
X144647380Y-130141857D02*
X144171190Y-130475190D01*
X144647380Y-130713285D02*
X143647380Y-130713285D01*
X143647380Y-130332333D01*
X143695000Y-130237095D01*
X143742619Y-130189476D01*
X143837857Y-130141857D01*
X143980714Y-130141857D01*
X144075952Y-130189476D01*
X144123571Y-130237095D01*
X144171190Y-130332333D01*
X144171190Y-130713285D01*
X143742619Y-129760904D02*
X143695000Y-129713285D01*
X143647380Y-129618047D01*
X143647380Y-129379952D01*
X143695000Y-129284714D01*
X143742619Y-129237095D01*
X143837857Y-129189476D01*
X143933095Y-129189476D01*
X144075952Y-129237095D01*
X144647380Y-129808523D01*
X144647380Y-129189476D01*
X144647380Y-128713285D02*
X144647380Y-128522809D01*
X144599761Y-128427571D01*
X144552142Y-128379952D01*
X144409285Y-128284714D01*
X144218809Y-128237095D01*
X143837857Y-128237095D01*
X143742619Y-128284714D01*
X143695000Y-128332333D01*
X143647380Y-128427571D01*
X143647380Y-128618047D01*
X143695000Y-128713285D01*
X143742619Y-128760904D01*
X143837857Y-128808523D01*
X144075952Y-128808523D01*
X144171190Y-128760904D01*
X144218809Y-128713285D01*
X144266428Y-128618047D01*
X144266428Y-128427571D01*
X144218809Y-128332333D01*
X144171190Y-128284714D01*
X144075952Y-128237095D01*
%TO.C,D6*%
X199641904Y-128972380D02*
X199641904Y-127972380D01*
X199880000Y-127972380D01*
X200022857Y-128020000D01*
X200118095Y-128115238D01*
X200165714Y-128210476D01*
X200213333Y-128400952D01*
X200213333Y-128543809D01*
X200165714Y-128734285D01*
X200118095Y-128829523D01*
X200022857Y-128924761D01*
X199880000Y-128972380D01*
X199641904Y-128972380D01*
X201070476Y-127972380D02*
X200880000Y-127972380D01*
X200784761Y-128020000D01*
X200737142Y-128067619D01*
X200641904Y-128210476D01*
X200594285Y-128400952D01*
X200594285Y-128781904D01*
X200641904Y-128877142D01*
X200689523Y-128924761D01*
X200784761Y-128972380D01*
X200975238Y-128972380D01*
X201070476Y-128924761D01*
X201118095Y-128877142D01*
X201165714Y-128781904D01*
X201165714Y-128543809D01*
X201118095Y-128448571D01*
X201070476Y-128400952D01*
X200975238Y-128353333D01*
X200784761Y-128353333D01*
X200689523Y-128400952D01*
X200641904Y-128448571D01*
X200594285Y-128543809D01*
%TO.C,Q2*%
X142978619Y-106099238D02*
X142931000Y-106194476D01*
X142835761Y-106289714D01*
X142692904Y-106432571D01*
X142645285Y-106527809D01*
X142645285Y-106623047D01*
X142883380Y-106575428D02*
X142835761Y-106670666D01*
X142740523Y-106765904D01*
X142550047Y-106813523D01*
X142216714Y-106813523D01*
X142026238Y-106765904D01*
X141931000Y-106670666D01*
X141883380Y-106575428D01*
X141883380Y-106384952D01*
X141931000Y-106289714D01*
X142026238Y-106194476D01*
X142216714Y-106146857D01*
X142550047Y-106146857D01*
X142740523Y-106194476D01*
X142835761Y-106289714D01*
X142883380Y-106384952D01*
X142883380Y-106575428D01*
X141978619Y-105765904D02*
X141931000Y-105718285D01*
X141883380Y-105623047D01*
X141883380Y-105384952D01*
X141931000Y-105289714D01*
X141978619Y-105242095D01*
X142073857Y-105194476D01*
X142169095Y-105194476D01*
X142311952Y-105242095D01*
X142883380Y-105813523D01*
X142883380Y-105194476D01*
%TO.C,R22*%
X180502380Y-141942857D02*
X180026190Y-142276190D01*
X180502380Y-142514285D02*
X179502380Y-142514285D01*
X179502380Y-142133333D01*
X179550000Y-142038095D01*
X179597619Y-141990476D01*
X179692857Y-141942857D01*
X179835714Y-141942857D01*
X179930952Y-141990476D01*
X179978571Y-142038095D01*
X180026190Y-142133333D01*
X180026190Y-142514285D01*
X179597619Y-141561904D02*
X179550000Y-141514285D01*
X179502380Y-141419047D01*
X179502380Y-141180952D01*
X179550000Y-141085714D01*
X179597619Y-141038095D01*
X179692857Y-140990476D01*
X179788095Y-140990476D01*
X179930952Y-141038095D01*
X180502380Y-141609523D01*
X180502380Y-140990476D01*
X179597619Y-140609523D02*
X179550000Y-140561904D01*
X179502380Y-140466666D01*
X179502380Y-140228571D01*
X179550000Y-140133333D01*
X179597619Y-140085714D01*
X179692857Y-140038095D01*
X179788095Y-140038095D01*
X179930952Y-140085714D01*
X180502380Y-140657142D01*
X180502380Y-140038095D01*
%TO.C,C1*%
X190860033Y-140404742D02*
X190812414Y-140452361D01*
X190669557Y-140499980D01*
X190574319Y-140499980D01*
X190431461Y-140452361D01*
X190336223Y-140357123D01*
X190288604Y-140261885D01*
X190240985Y-140071409D01*
X190240985Y-139928552D01*
X190288604Y-139738076D01*
X190336223Y-139642838D01*
X190431461Y-139547600D01*
X190574319Y-139499980D01*
X190669557Y-139499980D01*
X190812414Y-139547600D01*
X190860033Y-139595219D01*
X191812414Y-140499980D02*
X191240985Y-140499980D01*
X191526700Y-140499980D02*
X191526700Y-139499980D01*
X191431461Y-139642838D01*
X191336223Y-139738076D01*
X191240985Y-139785695D01*
%TO.C,J15*%
X127430476Y-62432380D02*
X127430476Y-63146666D01*
X127382857Y-63289523D01*
X127287619Y-63384761D01*
X127144761Y-63432380D01*
X127049523Y-63432380D01*
X128430476Y-63432380D02*
X127859047Y-63432380D01*
X128144761Y-63432380D02*
X128144761Y-62432380D01*
X128049523Y-62575238D01*
X127954285Y-62670476D01*
X127859047Y-62718095D01*
X129335238Y-62432380D02*
X128859047Y-62432380D01*
X128811428Y-62908571D01*
X128859047Y-62860952D01*
X128954285Y-62813333D01*
X129192380Y-62813333D01*
X129287619Y-62860952D01*
X129335238Y-62908571D01*
X129382857Y-63003809D01*
X129382857Y-63241904D01*
X129335238Y-63337142D01*
X129287619Y-63384761D01*
X129192380Y-63432380D01*
X128954285Y-63432380D01*
X128859047Y-63384761D01*
X128811428Y-63337142D01*
%TO.C,R1*%
X186053333Y-100312380D02*
X185720000Y-99836190D01*
X185481904Y-100312380D02*
X185481904Y-99312380D01*
X185862857Y-99312380D01*
X185958095Y-99360000D01*
X186005714Y-99407619D01*
X186053333Y-99502857D01*
X186053333Y-99645714D01*
X186005714Y-99740952D01*
X185958095Y-99788571D01*
X185862857Y-99836190D01*
X185481904Y-99836190D01*
X187005714Y-100312380D02*
X186434285Y-100312380D01*
X186720000Y-100312380D02*
X186720000Y-99312380D01*
X186624761Y-99455238D01*
X186529523Y-99550476D01*
X186434285Y-99598095D01*
%TO.C,R25*%
X150745380Y-114520857D02*
X150269190Y-114854190D01*
X150745380Y-115092285D02*
X149745380Y-115092285D01*
X149745380Y-114711333D01*
X149793000Y-114616095D01*
X149840619Y-114568476D01*
X149935857Y-114520857D01*
X150078714Y-114520857D01*
X150173952Y-114568476D01*
X150221571Y-114616095D01*
X150269190Y-114711333D01*
X150269190Y-115092285D01*
X149840619Y-114139904D02*
X149793000Y-114092285D01*
X149745380Y-113997047D01*
X149745380Y-113758952D01*
X149793000Y-113663714D01*
X149840619Y-113616095D01*
X149935857Y-113568476D01*
X150031095Y-113568476D01*
X150173952Y-113616095D01*
X150745380Y-114187523D01*
X150745380Y-113568476D01*
X149745380Y-112663714D02*
X149745380Y-113139904D01*
X150221571Y-113187523D01*
X150173952Y-113139904D01*
X150126333Y-113044666D01*
X150126333Y-112806571D01*
X150173952Y-112711333D01*
X150221571Y-112663714D01*
X150316809Y-112616095D01*
X150554904Y-112616095D01*
X150650142Y-112663714D01*
X150697761Y-112711333D01*
X150745380Y-112806571D01*
X150745380Y-113044666D01*
X150697761Y-113139904D01*
X150650142Y-113187523D01*
%TO.C,J16*%
X161070476Y-62402380D02*
X161070476Y-63116666D01*
X161022857Y-63259523D01*
X160927619Y-63354761D01*
X160784761Y-63402380D01*
X160689523Y-63402380D01*
X162070476Y-63402380D02*
X161499047Y-63402380D01*
X161784761Y-63402380D02*
X161784761Y-62402380D01*
X161689523Y-62545238D01*
X161594285Y-62640476D01*
X161499047Y-62688095D01*
X162927619Y-62402380D02*
X162737142Y-62402380D01*
X162641904Y-62450000D01*
X162594285Y-62497619D01*
X162499047Y-62640476D01*
X162451428Y-62830952D01*
X162451428Y-63211904D01*
X162499047Y-63307142D01*
X162546666Y-63354761D01*
X162641904Y-63402380D01*
X162832380Y-63402380D01*
X162927619Y-63354761D01*
X162975238Y-63307142D01*
X163022857Y-63211904D01*
X163022857Y-62973809D01*
X162975238Y-62878571D01*
X162927619Y-62830952D01*
X162832380Y-62783333D01*
X162641904Y-62783333D01*
X162546666Y-62830952D01*
X162499047Y-62878571D01*
X162451428Y-62973809D01*
%TO.C,R26*%
X174199642Y-76002380D02*
X173866309Y-75526190D01*
X173628214Y-76002380D02*
X173628214Y-75002380D01*
X174009166Y-75002380D01*
X174104404Y-75050000D01*
X174152023Y-75097619D01*
X174199642Y-75192857D01*
X174199642Y-75335714D01*
X174152023Y-75430952D01*
X174104404Y-75478571D01*
X174009166Y-75526190D01*
X173628214Y-75526190D01*
X174580595Y-75097619D02*
X174628214Y-75050000D01*
X174723452Y-75002380D01*
X174961547Y-75002380D01*
X175056785Y-75050000D01*
X175104404Y-75097619D01*
X175152023Y-75192857D01*
X175152023Y-75288095D01*
X175104404Y-75430952D01*
X174532976Y-76002380D01*
X175152023Y-76002380D01*
X176009166Y-75002380D02*
X175818690Y-75002380D01*
X175723452Y-75050000D01*
X175675833Y-75097619D01*
X175580595Y-75240476D01*
X175532976Y-75430952D01*
X175532976Y-75811904D01*
X175580595Y-75907142D01*
X175628214Y-75954761D01*
X175723452Y-76002380D01*
X175913928Y-76002380D01*
X176009166Y-75954761D01*
X176056785Y-75907142D01*
X176104404Y-75811904D01*
X176104404Y-75573809D01*
X176056785Y-75478571D01*
X176009166Y-75430952D01*
X175913928Y-75383333D01*
X175723452Y-75383333D01*
X175628214Y-75430952D01*
X175580595Y-75478571D01*
X175532976Y-75573809D01*
%TO.C,R20*%
X184549642Y-126274880D02*
X184216309Y-125798690D01*
X183978214Y-126274880D02*
X183978214Y-125274880D01*
X184359166Y-125274880D01*
X184454404Y-125322500D01*
X184502023Y-125370119D01*
X184549642Y-125465357D01*
X184549642Y-125608214D01*
X184502023Y-125703452D01*
X184454404Y-125751071D01*
X184359166Y-125798690D01*
X183978214Y-125798690D01*
X184930595Y-125370119D02*
X184978214Y-125322500D01*
X185073452Y-125274880D01*
X185311547Y-125274880D01*
X185406785Y-125322500D01*
X185454404Y-125370119D01*
X185502023Y-125465357D01*
X185502023Y-125560595D01*
X185454404Y-125703452D01*
X184882976Y-126274880D01*
X185502023Y-126274880D01*
X186121071Y-125274880D02*
X186216309Y-125274880D01*
X186311547Y-125322500D01*
X186359166Y-125370119D01*
X186406785Y-125465357D01*
X186454404Y-125655833D01*
X186454404Y-125893928D01*
X186406785Y-126084404D01*
X186359166Y-126179642D01*
X186311547Y-126227261D01*
X186216309Y-126274880D01*
X186121071Y-126274880D01*
X186025833Y-126227261D01*
X185978214Y-126179642D01*
X185930595Y-126084404D01*
X185882976Y-125893928D01*
X185882976Y-125655833D01*
X185930595Y-125465357D01*
X185978214Y-125370119D01*
X186025833Y-125322500D01*
X186121071Y-125274880D01*
%TO.C,J7*%
X179806666Y-102652380D02*
X179806666Y-103366666D01*
X179759047Y-103509523D01*
X179663809Y-103604761D01*
X179520952Y-103652380D01*
X179425714Y-103652380D01*
X180187619Y-102652380D02*
X180854285Y-102652380D01*
X180425714Y-103652380D01*
%TO.C,R30*%
X139637142Y-97422380D02*
X139303809Y-96946190D01*
X139065714Y-97422380D02*
X139065714Y-96422380D01*
X139446666Y-96422380D01*
X139541904Y-96470000D01*
X139589523Y-96517619D01*
X139637142Y-96612857D01*
X139637142Y-96755714D01*
X139589523Y-96850952D01*
X139541904Y-96898571D01*
X139446666Y-96946190D01*
X139065714Y-96946190D01*
X139970476Y-96422380D02*
X140589523Y-96422380D01*
X140256190Y-96803333D01*
X140399047Y-96803333D01*
X140494285Y-96850952D01*
X140541904Y-96898571D01*
X140589523Y-96993809D01*
X140589523Y-97231904D01*
X140541904Y-97327142D01*
X140494285Y-97374761D01*
X140399047Y-97422380D01*
X140113333Y-97422380D01*
X140018095Y-97374761D01*
X139970476Y-97327142D01*
X141208571Y-96422380D02*
X141303809Y-96422380D01*
X141399047Y-96470000D01*
X141446666Y-96517619D01*
X141494285Y-96612857D01*
X141541904Y-96803333D01*
X141541904Y-97041428D01*
X141494285Y-97231904D01*
X141446666Y-97327142D01*
X141399047Y-97374761D01*
X141303809Y-97422380D01*
X141208571Y-97422380D01*
X141113333Y-97374761D01*
X141065714Y-97327142D01*
X141018095Y-97231904D01*
X140970476Y-97041428D01*
X140970476Y-96803333D01*
X141018095Y-96612857D01*
X141065714Y-96517619D01*
X141113333Y-96470000D01*
X141208571Y-96422380D01*
%TO.C,C11*%
X147617142Y-132298142D02*
X147569523Y-132345761D01*
X147426666Y-132393380D01*
X147331428Y-132393380D01*
X147188571Y-132345761D01*
X147093333Y-132250523D01*
X147045714Y-132155285D01*
X146998095Y-131964809D01*
X146998095Y-131821952D01*
X147045714Y-131631476D01*
X147093333Y-131536238D01*
X147188571Y-131441000D01*
X147331428Y-131393380D01*
X147426666Y-131393380D01*
X147569523Y-131441000D01*
X147617142Y-131488619D01*
X148569523Y-132393380D02*
X147998095Y-132393380D01*
X148283809Y-132393380D02*
X148283809Y-131393380D01*
X148188571Y-131536238D01*
X148093333Y-131631476D01*
X147998095Y-131679095D01*
X149521904Y-132393380D02*
X148950476Y-132393380D01*
X149236190Y-132393380D02*
X149236190Y-131393380D01*
X149140952Y-131536238D01*
X149045714Y-131631476D01*
X148950476Y-131679095D01*
%TO.C,C12*%
X138682142Y-121124857D02*
X138729761Y-121172476D01*
X138777380Y-121315333D01*
X138777380Y-121410571D01*
X138729761Y-121553428D01*
X138634523Y-121648666D01*
X138539285Y-121696285D01*
X138348809Y-121743904D01*
X138205952Y-121743904D01*
X138015476Y-121696285D01*
X137920238Y-121648666D01*
X137825000Y-121553428D01*
X137777380Y-121410571D01*
X137777380Y-121315333D01*
X137825000Y-121172476D01*
X137872619Y-121124857D01*
X138777380Y-120172476D02*
X138777380Y-120743904D01*
X138777380Y-120458190D02*
X137777380Y-120458190D01*
X137920238Y-120553428D01*
X138015476Y-120648666D01*
X138063095Y-120743904D01*
X137872619Y-119791523D02*
X137825000Y-119743904D01*
X137777380Y-119648666D01*
X137777380Y-119410571D01*
X137825000Y-119315333D01*
X137872619Y-119267714D01*
X137967857Y-119220095D01*
X138063095Y-119220095D01*
X138205952Y-119267714D01*
X138777380Y-119839142D01*
X138777380Y-119220095D01*
%TO.C,R28*%
X133901142Y-124491380D02*
X133567809Y-124015190D01*
X133329714Y-124491380D02*
X133329714Y-123491380D01*
X133710666Y-123491380D01*
X133805904Y-123539000D01*
X133853523Y-123586619D01*
X133901142Y-123681857D01*
X133901142Y-123824714D01*
X133853523Y-123919952D01*
X133805904Y-123967571D01*
X133710666Y-124015190D01*
X133329714Y-124015190D01*
X134282095Y-123586619D02*
X134329714Y-123539000D01*
X134424952Y-123491380D01*
X134663047Y-123491380D01*
X134758285Y-123539000D01*
X134805904Y-123586619D01*
X134853523Y-123681857D01*
X134853523Y-123777095D01*
X134805904Y-123919952D01*
X134234476Y-124491380D01*
X134853523Y-124491380D01*
X135424952Y-123919952D02*
X135329714Y-123872333D01*
X135282095Y-123824714D01*
X135234476Y-123729476D01*
X135234476Y-123681857D01*
X135282095Y-123586619D01*
X135329714Y-123539000D01*
X135424952Y-123491380D01*
X135615428Y-123491380D01*
X135710666Y-123539000D01*
X135758285Y-123586619D01*
X135805904Y-123681857D01*
X135805904Y-123729476D01*
X135758285Y-123824714D01*
X135710666Y-123872333D01*
X135615428Y-123919952D01*
X135424952Y-123919952D01*
X135329714Y-123967571D01*
X135282095Y-124015190D01*
X135234476Y-124110428D01*
X135234476Y-124300904D01*
X135282095Y-124396142D01*
X135329714Y-124443761D01*
X135424952Y-124491380D01*
X135615428Y-124491380D01*
X135710666Y-124443761D01*
X135758285Y-124396142D01*
X135805904Y-124300904D01*
X135805904Y-124110428D01*
X135758285Y-124015190D01*
X135710666Y-123967571D01*
X135615428Y-123919952D01*
%TO.C,L1*%
X201795833Y-132314880D02*
X201319642Y-132314880D01*
X201319642Y-131314880D01*
X202652976Y-132314880D02*
X202081547Y-132314880D01*
X202367261Y-132314880D02*
X202367261Y-131314880D01*
X202272023Y-131457738D01*
X202176785Y-131552976D01*
X202081547Y-131600595D01*
%TO.C,C6*%
X191155833Y-123029642D02*
X191108214Y-123077261D01*
X190965357Y-123124880D01*
X190870119Y-123124880D01*
X190727261Y-123077261D01*
X190632023Y-122982023D01*
X190584404Y-122886785D01*
X190536785Y-122696309D01*
X190536785Y-122553452D01*
X190584404Y-122362976D01*
X190632023Y-122267738D01*
X190727261Y-122172500D01*
X190870119Y-122124880D01*
X190965357Y-122124880D01*
X191108214Y-122172500D01*
X191155833Y-122220119D01*
X192012976Y-122124880D02*
X191822500Y-122124880D01*
X191727261Y-122172500D01*
X191679642Y-122220119D01*
X191584404Y-122362976D01*
X191536785Y-122553452D01*
X191536785Y-122934404D01*
X191584404Y-123029642D01*
X191632023Y-123077261D01*
X191727261Y-123124880D01*
X191917738Y-123124880D01*
X192012976Y-123077261D01*
X192060595Y-123029642D01*
X192108214Y-122934404D01*
X192108214Y-122696309D01*
X192060595Y-122601071D01*
X192012976Y-122553452D01*
X191917738Y-122505833D01*
X191727261Y-122505833D01*
X191632023Y-122553452D01*
X191584404Y-122601071D01*
X191536785Y-122696309D01*
%TO.C,R24*%
X143760380Y-114520857D02*
X143284190Y-114854190D01*
X143760380Y-115092285D02*
X142760380Y-115092285D01*
X142760380Y-114711333D01*
X142808000Y-114616095D01*
X142855619Y-114568476D01*
X142950857Y-114520857D01*
X143093714Y-114520857D01*
X143188952Y-114568476D01*
X143236571Y-114616095D01*
X143284190Y-114711333D01*
X143284190Y-115092285D01*
X142855619Y-114139904D02*
X142808000Y-114092285D01*
X142760380Y-113997047D01*
X142760380Y-113758952D01*
X142808000Y-113663714D01*
X142855619Y-113616095D01*
X142950857Y-113568476D01*
X143046095Y-113568476D01*
X143188952Y-113616095D01*
X143760380Y-114187523D01*
X143760380Y-113568476D01*
X143093714Y-112711333D02*
X143760380Y-112711333D01*
X142712761Y-112949428D02*
X143427047Y-113187523D01*
X143427047Y-112568476D01*
%TO.C,R19*%
X191144880Y-118405357D02*
X190668690Y-118738690D01*
X191144880Y-118976785D02*
X190144880Y-118976785D01*
X190144880Y-118595833D01*
X190192500Y-118500595D01*
X190240119Y-118452976D01*
X190335357Y-118405357D01*
X190478214Y-118405357D01*
X190573452Y-118452976D01*
X190621071Y-118500595D01*
X190668690Y-118595833D01*
X190668690Y-118976785D01*
X191144880Y-117452976D02*
X191144880Y-118024404D01*
X191144880Y-117738690D02*
X190144880Y-117738690D01*
X190287738Y-117833928D01*
X190382976Y-117929166D01*
X190430595Y-118024404D01*
X191144880Y-116976785D02*
X191144880Y-116786309D01*
X191097261Y-116691071D01*
X191049642Y-116643452D01*
X190906785Y-116548214D01*
X190716309Y-116500595D01*
X190335357Y-116500595D01*
X190240119Y-116548214D01*
X190192500Y-116595833D01*
X190144880Y-116691071D01*
X190144880Y-116881547D01*
X190192500Y-116976785D01*
X190240119Y-117024404D01*
X190335357Y-117072023D01*
X190573452Y-117072023D01*
X190668690Y-117024404D01*
X190716309Y-116976785D01*
X190763928Y-116881547D01*
X190763928Y-116691071D01*
X190716309Y-116595833D01*
X190668690Y-116548214D01*
X190573452Y-116500595D01*
%TO.C,C8*%
X207998333Y-121789642D02*
X207950714Y-121837261D01*
X207807857Y-121884880D01*
X207712619Y-121884880D01*
X207569761Y-121837261D01*
X207474523Y-121742023D01*
X207426904Y-121646785D01*
X207379285Y-121456309D01*
X207379285Y-121313452D01*
X207426904Y-121122976D01*
X207474523Y-121027738D01*
X207569761Y-120932500D01*
X207712619Y-120884880D01*
X207807857Y-120884880D01*
X207950714Y-120932500D01*
X207998333Y-120980119D01*
X208569761Y-121313452D02*
X208474523Y-121265833D01*
X208426904Y-121218214D01*
X208379285Y-121122976D01*
X208379285Y-121075357D01*
X208426904Y-120980119D01*
X208474523Y-120932500D01*
X208569761Y-120884880D01*
X208760238Y-120884880D01*
X208855476Y-120932500D01*
X208903095Y-120980119D01*
X208950714Y-121075357D01*
X208950714Y-121122976D01*
X208903095Y-121218214D01*
X208855476Y-121265833D01*
X208760238Y-121313452D01*
X208569761Y-121313452D01*
X208474523Y-121361071D01*
X208426904Y-121408690D01*
X208379285Y-121503928D01*
X208379285Y-121694404D01*
X208426904Y-121789642D01*
X208474523Y-121837261D01*
X208569761Y-121884880D01*
X208760238Y-121884880D01*
X208855476Y-121837261D01*
X208903095Y-121789642D01*
X208950714Y-121694404D01*
X208950714Y-121503928D01*
X208903095Y-121408690D01*
X208855476Y-121361071D01*
X208760238Y-121313452D01*
%TO.C,D7*%
X139511904Y-93562380D02*
X139511904Y-92562380D01*
X139750000Y-92562380D01*
X139892857Y-92610000D01*
X139988095Y-92705238D01*
X140035714Y-92800476D01*
X140083333Y-92990952D01*
X140083333Y-93133809D01*
X140035714Y-93324285D01*
X139988095Y-93419523D01*
X139892857Y-93514761D01*
X139750000Y-93562380D01*
X139511904Y-93562380D01*
X140416666Y-92562380D02*
X141083333Y-92562380D01*
X140654761Y-93562380D01*
%TO.C,R23*%
X198729642Y-123114880D02*
X198396309Y-122638690D01*
X198158214Y-123114880D02*
X198158214Y-122114880D01*
X198539166Y-122114880D01*
X198634404Y-122162500D01*
X198682023Y-122210119D01*
X198729642Y-122305357D01*
X198729642Y-122448214D01*
X198682023Y-122543452D01*
X198634404Y-122591071D01*
X198539166Y-122638690D01*
X198158214Y-122638690D01*
X199110595Y-122210119D02*
X199158214Y-122162500D01*
X199253452Y-122114880D01*
X199491547Y-122114880D01*
X199586785Y-122162500D01*
X199634404Y-122210119D01*
X199682023Y-122305357D01*
X199682023Y-122400595D01*
X199634404Y-122543452D01*
X199062976Y-123114880D01*
X199682023Y-123114880D01*
X200015357Y-122114880D02*
X200634404Y-122114880D01*
X200301071Y-122495833D01*
X200443928Y-122495833D01*
X200539166Y-122543452D01*
X200586785Y-122591071D01*
X200634404Y-122686309D01*
X200634404Y-122924404D01*
X200586785Y-123019642D01*
X200539166Y-123067261D01*
X200443928Y-123114880D01*
X200158214Y-123114880D01*
X200062976Y-123067261D01*
X200015357Y-123019642D01*
D13*
%TO.C,Q3*%
X154392000Y-106004000D02*
X154392000Y-106654000D01*
X151272000Y-106004000D02*
X151272000Y-105354000D01*
X154392000Y-106004000D02*
X154392000Y-105354000D01*
X151272000Y-106004000D02*
X151272000Y-107679000D01*
%TO.C,R27*%
X175197064Y-79245000D02*
X174742936Y-79245000D01*
X175197064Y-77775000D02*
X174742936Y-77775000D01*
%TO.C,J5*%
X211830000Y-142770000D02*
X214490000Y-142770000D01*
X211830000Y-140170000D02*
X213160000Y-140170000D01*
X211830000Y-141500000D02*
X211830000Y-140170000D01*
X214490000Y-142770000D02*
X214490000Y-145370000D01*
X211830000Y-142770000D02*
X211830000Y-145370000D01*
X211830000Y-145370000D02*
X214490000Y-145370000D01*
%TO.C,C10*%
X208246252Y-129047500D02*
X207723748Y-129047500D01*
X208246252Y-130517500D02*
X207723748Y-130517500D01*
%TO.C,U5*%
X134690000Y-63775000D02*
X134310000Y-63775000D01*
X152930000Y-57360000D02*
X152930000Y-63775000D01*
X134690000Y-57360000D02*
X134690000Y-63775000D01*
X152930000Y-82320000D02*
X152930000Y-83100000D01*
X134690000Y-82320000D02*
X134690000Y-83100000D01*
X152930000Y-83100000D02*
X151930000Y-83100000D01*
X134690000Y-57360000D02*
X152930000Y-57360000D01*
X134690000Y-83100000D02*
X135690000Y-83100000D01*
%TO.C,C7*%
X186428748Y-134951800D02*
X186951252Y-134951800D01*
X186428748Y-136421800D02*
X186951252Y-136421800D01*
%TO.C,J6*%
X187646000Y-108458000D02*
X187646000Y-111058000D01*
X190306000Y-108458000D02*
X190306000Y-111058000D01*
X187646000Y-108458000D02*
X190306000Y-108458000D01*
X187646000Y-111058000D02*
X190306000Y-111058000D01*
X187646000Y-105858000D02*
X188976000Y-105858000D01*
X187646000Y-107188000D02*
X187646000Y-105858000D01*
%TO.C,J14*%
X142378000Y-143162000D02*
X147328000Y-143162000D01*
X155778000Y-143162000D02*
X150828000Y-143162000D01*
X155778000Y-143162000D02*
X155778000Y-140562000D01*
X142378000Y-143162000D02*
X142378000Y-140562000D01*
X142378000Y-137162000D02*
X155778000Y-137162000D01*
%TO.C,R2*%
X180357064Y-98975000D02*
X179902936Y-98975000D01*
X180357064Y-97505000D02*
X179902936Y-97505000D01*
%TO.C,U4*%
X146023000Y-122403000D02*
X146023000Y-121928000D01*
X146023000Y-121928000D02*
X146498000Y-121928000D01*
X150243000Y-122403000D02*
X150243000Y-121928000D01*
X150243000Y-126148000D02*
X149768000Y-126148000D01*
X150243000Y-125673000D02*
X150243000Y-126148000D01*
X146023000Y-125673000D02*
X146023000Y-126148000D01*
X150243000Y-121928000D02*
X149768000Y-121928000D01*
D14*
%TO.C,S5*%
X133885000Y-110049500D02*
X138385000Y-110049500D01*
X138385000Y-114549500D02*
X133885000Y-114549500D01*
X133885000Y-114549500D02*
X133885000Y-110049500D01*
X138385000Y-110049500D02*
X138385000Y-114549500D01*
D15*
X137735000Y-117299500D02*
G75*
G03*
X137735000Y-117299500I-100000J0D01*
G01*
D13*
%TO.C,R21*%
X207937936Y-114167500D02*
X208392064Y-114167500D01*
X207937936Y-115637500D02*
X208392064Y-115637500D01*
%TO.C,C9*%
X208228752Y-124607500D02*
X207706248Y-124607500D01*
X208228752Y-126077500D02*
X207706248Y-126077500D01*
%TO.C,R29*%
X141810000Y-129271936D02*
X141810000Y-129726064D01*
X143280000Y-129271936D02*
X143280000Y-129726064D01*
%TO.C,D6*%
X200412500Y-129227500D02*
X197952500Y-129227500D01*
X197952500Y-129227500D02*
X197952500Y-130697500D01*
X197952500Y-130697500D02*
X200412500Y-130697500D01*
%TO.C,Q2*%
X146391000Y-106004000D02*
X146391000Y-105354000D01*
X143271000Y-106004000D02*
X143271000Y-105354000D01*
X146391000Y-106004000D02*
X146391000Y-106654000D01*
X143271000Y-106004000D02*
X143271000Y-107679000D01*
%TO.C,R22*%
X181057500Y-142479564D02*
X181057500Y-142025436D01*
X182527500Y-142479564D02*
X182527500Y-142025436D01*
%TO.C,C1*%
X190187948Y-141352600D02*
X190710452Y-141352600D01*
X190187948Y-142822600D02*
X190710452Y-142822600D01*
%TO.C,J15*%
X126910000Y-104740000D02*
X129570000Y-104740000D01*
X129570000Y-66580000D02*
X129570000Y-104740000D01*
X126910000Y-66580000D02*
X126910000Y-104740000D01*
X126910000Y-63980000D02*
X128240000Y-63980000D01*
X126910000Y-66580000D02*
X129570000Y-66580000D01*
X126910000Y-65310000D02*
X126910000Y-63980000D01*
%TO.C,R1*%
X185992936Y-102245000D02*
X186447064Y-102245000D01*
X185992936Y-100775000D02*
X186447064Y-100775000D01*
%TO.C,R25*%
X152678000Y-114105064D02*
X152678000Y-113650936D01*
X151208000Y-114105064D02*
X151208000Y-113650936D01*
%TO.C,J16*%
X160550000Y-66550000D02*
X160550000Y-104710000D01*
X160550000Y-63950000D02*
X161880000Y-63950000D01*
X160550000Y-66550000D02*
X163210000Y-66550000D01*
X163210000Y-66550000D02*
X163210000Y-104710000D01*
X160550000Y-65280000D02*
X160550000Y-63950000D01*
X160550000Y-104710000D02*
X163210000Y-104710000D01*
%TO.C,R26*%
X175069564Y-74635000D02*
X174615436Y-74635000D01*
X175069564Y-73165000D02*
X174615436Y-73165000D01*
%TO.C,R20*%
X184965436Y-126737500D02*
X185419564Y-126737500D01*
X184965436Y-128207500D02*
X185419564Y-128207500D01*
%TO.C,J7*%
X178810000Y-105530000D02*
X178810000Y-104200000D01*
X178810000Y-106860000D02*
X181470000Y-106860000D01*
X181470000Y-106800000D02*
X181470000Y-106860000D01*
X178810000Y-104200000D02*
X180140000Y-104200000D01*
X178810000Y-106800000D02*
X178810000Y-106860000D01*
X178810000Y-106800000D02*
X181470000Y-106800000D01*
%TO.C,R30*%
X140052936Y-99355000D02*
X140507064Y-99355000D01*
X140052936Y-97885000D02*
X140507064Y-97885000D01*
%TO.C,C11*%
X148521252Y-129526000D02*
X147998748Y-129526000D01*
X148521252Y-130996000D02*
X147998748Y-130996000D01*
%TO.C,C12*%
X139270000Y-120743252D02*
X139270000Y-120220748D01*
X140740000Y-120743252D02*
X140740000Y-120220748D01*
%TO.C,R28*%
X134316936Y-126424000D02*
X134771064Y-126424000D01*
X134316936Y-124954000D02*
X134771064Y-124954000D01*
%TO.C,L1*%
X196212500Y-132712500D02*
X207712500Y-132712500D01*
X195562500Y-133362500D02*
X195562500Y-136112500D01*
X208362500Y-142112500D02*
X208362500Y-144862500D01*
X195562500Y-142112500D02*
X195562500Y-144862500D01*
X207712500Y-145512500D02*
X196212500Y-145512500D01*
X208362500Y-133362500D02*
X208362500Y-136112500D01*
X208362500Y-133362500D02*
G75*
G03*
X207712500Y-132712500I-650000J0D01*
G01*
X195562500Y-144862500D02*
G75*
G03*
X196212500Y-145512500I650001J1D01*
G01*
X196212500Y-132712500D02*
G75*
G03*
X195562500Y-133362500I1J-650001D01*
G01*
X207712500Y-145512500D02*
G75*
G03*
X208362500Y-144862500I0J650000D01*
G01*
%TO.C,C6*%
X191061248Y-123617500D02*
X191583752Y-123617500D01*
X191061248Y-125087500D02*
X191583752Y-125087500D01*
%TO.C,R24*%
X144223000Y-114105064D02*
X144223000Y-113650936D01*
X145693000Y-114105064D02*
X145693000Y-113650936D01*
%TO.C,R19*%
X193077500Y-117989564D02*
X193077500Y-117535436D01*
X191607500Y-117989564D02*
X191607500Y-117535436D01*
%TO.C,C8*%
X208426252Y-120487500D02*
X207903748Y-120487500D01*
X208426252Y-119017500D02*
X207903748Y-119017500D01*
%TO.C,D7*%
X141050000Y-93805000D02*
X138590000Y-93805000D01*
X138590000Y-93805000D02*
X138590000Y-95275000D01*
X138590000Y-95275000D02*
X141050000Y-95275000D01*
%TO.C,R23*%
X199145436Y-125047500D02*
X199599564Y-125047500D01*
X199145436Y-123577500D02*
X199599564Y-123577500D01*
%TD*%
M02*
