%TF.GenerationSoftware,KiCad,Pcbnew,(6.0.10)*%
%TF.CreationDate,2023-04-05T18:46:28-05:00*%
%TF.ProjectId,445,3434352e-6b69-4636-9164-5f7063625858,rev?*%
%TF.SameCoordinates,Original*%
%TF.FileFunction,Soldermask,Top*%
%TF.FilePolarity,Negative*%
%FSLAX46Y46*%
G04 Gerber Fmt 4.6, Leading zero omitted, Abs format (unit mm)*
G04 Created by KiCad (PCBNEW (6.0.10)) date 2023-04-05 18:46:28*
%MOMM*%
%LPD*%
G01*
G04 APERTURE LIST*
G04 Aperture macros list*
%AMRoundRect*
0 Rectangle with rounded corners*
0 $1 Rounding radius*
0 $2 $3 $4 $5 $6 $7 $8 $9 X,Y pos of 4 corners*
0 Add a 4 corners polygon primitive as box body*
4,1,4,$2,$3,$4,$5,$6,$7,$8,$9,$2,$3,0*
0 Add four circle primitives for the rounded corners*
1,1,$1+$1,$2,$3*
1,1,$1+$1,$4,$5*
1,1,$1+$1,$6,$7*
1,1,$1+$1,$8,$9*
0 Add four rect primitives between the rounded corners*
20,1,$1+$1,$2,$3,$4,$5,0*
20,1,$1+$1,$4,$5,$6,$7,0*
20,1,$1+$1,$6,$7,$8,$9,0*
20,1,$1+$1,$8,$9,$2,$3,0*%
G04 Aperture macros list end*
%ADD10RoundRect,0.150000X0.150000X-0.587500X0.150000X0.587500X-0.150000X0.587500X-0.150000X-0.587500X0*%
%ADD11RoundRect,0.250000X0.350000X0.450000X-0.350000X0.450000X-0.350000X-0.450000X0.350000X-0.450000X0*%
%ADD12R,1.700000X1.700000*%
%ADD13O,1.700000X1.700000*%
%ADD14R,0.812800X1.498600*%
%ADD15R,0.609600X0.304800*%
%ADD16R,0.406400X1.727200*%
%ADD17RoundRect,0.250000X0.337500X0.475000X-0.337500X0.475000X-0.337500X-0.475000X0.337500X-0.475000X0*%
%ADD18R,1.500000X0.900000*%
%ADD19R,0.900000X1.500000*%
%ADD20C,0.475000*%
%ADD21R,4.200000X4.200000*%
%ADD22RoundRect,0.250000X-0.337500X-0.475000X0.337500X-0.475000X0.337500X0.475000X-0.337500X0.475000X0*%
%ADD23R,1.300000X1.300000*%
%ADD24C,1.300000*%
%ADD25O,1.900000X2.900000*%
%ADD26O,2.900000X1.900000*%
%ADD27RoundRect,0.062500X0.062500X-0.350000X0.062500X0.350000X-0.062500X0.350000X-0.062500X-0.350000X0*%
%ADD28RoundRect,0.062500X0.350000X-0.062500X0.350000X0.062500X-0.350000X0.062500X-0.350000X-0.062500X0*%
%ADD29R,2.600000X2.600000*%
%ADD30R,1.400000X1.600000*%
%ADD31RoundRect,0.250000X-0.350000X-0.450000X0.350000X-0.450000X0.350000X0.450000X-0.350000X0.450000X0*%
%ADD32RoundRect,0.250000X-0.450000X0.350000X-0.450000X-0.350000X0.450000X-0.350000X0.450000X0.350000X0*%
%ADD33RoundRect,0.237500X-0.287500X-0.237500X0.287500X-0.237500X0.287500X0.237500X-0.287500X0.237500X0*%
%ADD34RoundRect,0.250000X0.450000X-0.350000X0.450000X0.350000X-0.450000X0.350000X-0.450000X-0.350000X0*%
%ADD35RoundRect,0.250000X0.475000X-0.337500X0.475000X0.337500X-0.475000X0.337500X-0.475000X-0.337500X0*%
%ADD36R,2.900000X5.400000*%
G04 APERTURE END LIST*
D10*
%TO.C,Q3*%
X151882000Y-106941500D03*
X153782000Y-106941500D03*
X152832000Y-105066500D03*
%TD*%
D11*
%TO.C,R27*%
X175970000Y-78510000D03*
X173970000Y-78510000D03*
%TD*%
D12*
%TO.C,J5*%
X213160000Y-141500000D03*
D13*
X213160000Y-144040000D03*
%TD*%
D14*
%TO.C,U3*%
X185667650Y-140130213D03*
D15*
X185566050Y-141174788D03*
X185566050Y-141625638D03*
X185566050Y-142076488D03*
X187813950Y-142076488D03*
X187813950Y-141625638D03*
X187813950Y-141174788D03*
D14*
X187712350Y-140130213D03*
D16*
X186690000Y-140015913D03*
%TD*%
D17*
%TO.C,C10*%
X209022500Y-129782500D03*
X206947500Y-129782500D03*
%TD*%
D18*
%TO.C,U5*%
X135060000Y-64970000D03*
X135060000Y-66240000D03*
X135060000Y-67510000D03*
X135060000Y-68780000D03*
X135060000Y-70050000D03*
X135060000Y-71320000D03*
X135060000Y-72590000D03*
X135060000Y-73860000D03*
X135060000Y-75130000D03*
X135060000Y-76400000D03*
X135060000Y-77670000D03*
X135060000Y-78940000D03*
X135060000Y-80210000D03*
X135060000Y-81480000D03*
D19*
X138100000Y-82730000D03*
X139370000Y-82730000D03*
X140640000Y-82730000D03*
X141910000Y-82730000D03*
X143180000Y-82730000D03*
X144450000Y-82730000D03*
X145720000Y-82730000D03*
X146990000Y-82730000D03*
X148260000Y-82730000D03*
X149530000Y-82730000D03*
D18*
X152560000Y-81480000D03*
X152560000Y-80210000D03*
X152560000Y-78940000D03*
X152560000Y-77670000D03*
X152560000Y-76400000D03*
X152560000Y-75130000D03*
X152560000Y-73860000D03*
X152560000Y-72590000D03*
X152560000Y-71320000D03*
X152560000Y-70050000D03*
X152560000Y-68780000D03*
X152560000Y-67510000D03*
X152560000Y-66240000D03*
X152560000Y-64970000D03*
D20*
X142367500Y-70785000D03*
X141605000Y-73072500D03*
X143892500Y-72310000D03*
X144655000Y-73072500D03*
X142367500Y-73835000D03*
D21*
X143130000Y-72310000D03*
D20*
X144655000Y-71547500D03*
X141605000Y-71547500D03*
X142367500Y-72310000D03*
X143130000Y-71547500D03*
X143130000Y-73072500D03*
X143892500Y-73835000D03*
X143892500Y-70785000D03*
%TD*%
D22*
%TO.C,C7*%
X185652500Y-135686800D03*
X187727500Y-135686800D03*
%TD*%
D12*
%TO.C,J6*%
X188976000Y-107188000D03*
D13*
X188976000Y-109728000D03*
%TD*%
D23*
%TO.C,J14*%
X152578000Y-138262000D03*
D24*
X150078000Y-138262000D03*
X148078000Y-138262000D03*
X145578000Y-138262000D03*
D25*
X142508000Y-138862000D03*
D26*
X149078000Y-143042000D03*
D25*
X155648000Y-138862000D03*
%TD*%
D11*
%TO.C,R2*%
X181130000Y-98240000D03*
X179130000Y-98240000D03*
%TD*%
D27*
%TO.C,U4*%
X146883000Y-125975500D03*
X147383000Y-125975500D03*
X147883000Y-125975500D03*
X148383000Y-125975500D03*
X148883000Y-125975500D03*
X149383000Y-125975500D03*
D28*
X150070500Y-125288000D03*
X150070500Y-124788000D03*
X150070500Y-124288000D03*
X150070500Y-123788000D03*
X150070500Y-123288000D03*
X150070500Y-122788000D03*
D27*
X149383000Y-122100500D03*
X148883000Y-122100500D03*
X148383000Y-122100500D03*
X147883000Y-122100500D03*
X147383000Y-122100500D03*
X146883000Y-122100500D03*
D28*
X146195500Y-122788000D03*
X146195500Y-123288000D03*
X146195500Y-123788000D03*
X146195500Y-124288000D03*
X146195500Y-124788000D03*
X146195500Y-125288000D03*
D29*
X148133000Y-124038000D03*
%TD*%
D30*
%TO.C,S5*%
X137635000Y-115899500D03*
X137635000Y-108699500D03*
X134635000Y-115899500D03*
X134635000Y-108699500D03*
%TD*%
D31*
%TO.C,R21*%
X207165000Y-114902500D03*
X209165000Y-114902500D03*
%TD*%
D17*
%TO.C,C9*%
X209005000Y-125342500D03*
X206930000Y-125342500D03*
%TD*%
D32*
%TO.C,R29*%
X142545000Y-128499000D03*
X142545000Y-130499000D03*
%TD*%
D33*
%TO.C,D6*%
X198737500Y-129962500D03*
X200487500Y-129962500D03*
%TD*%
D10*
%TO.C,Q2*%
X143881000Y-106941500D03*
X145781000Y-106941500D03*
X144831000Y-105066500D03*
%TD*%
D34*
%TO.C,R22*%
X181792500Y-143252500D03*
X181792500Y-141252500D03*
%TD*%
D22*
%TO.C,C1*%
X189411700Y-142087600D03*
X191486700Y-142087600D03*
%TD*%
D12*
%TO.C,J15*%
X128240000Y-65310000D03*
D13*
X128240000Y-67850000D03*
X128240000Y-70390000D03*
X128240000Y-72930000D03*
X128240000Y-75470000D03*
X128240000Y-78010000D03*
X128240000Y-80550000D03*
X128240000Y-83090000D03*
X128240000Y-85630000D03*
X128240000Y-88170000D03*
X128240000Y-90710000D03*
X128240000Y-93250000D03*
X128240000Y-95790000D03*
X128240000Y-98330000D03*
X128240000Y-100870000D03*
X128240000Y-103410000D03*
%TD*%
D31*
%TO.C,R1*%
X185220000Y-101510000D03*
X187220000Y-101510000D03*
%TD*%
D34*
%TO.C,R25*%
X151943000Y-114878000D03*
X151943000Y-112878000D03*
%TD*%
D12*
%TO.C,J16*%
X161880000Y-65280000D03*
D13*
X161880000Y-67820000D03*
X161880000Y-70360000D03*
X161880000Y-72900000D03*
X161880000Y-75440000D03*
X161880000Y-77980000D03*
X161880000Y-80520000D03*
X161880000Y-83060000D03*
X161880000Y-85600000D03*
X161880000Y-88140000D03*
X161880000Y-90680000D03*
X161880000Y-93220000D03*
X161880000Y-95760000D03*
X161880000Y-98300000D03*
X161880000Y-100840000D03*
X161880000Y-103380000D03*
%TD*%
D11*
%TO.C,R26*%
X175842500Y-73900000D03*
X173842500Y-73900000D03*
%TD*%
D31*
%TO.C,R20*%
X184192500Y-127472500D03*
X186192500Y-127472500D03*
%TD*%
D12*
%TO.C,J7*%
X180140000Y-105530000D03*
%TD*%
D31*
%TO.C,R30*%
X139280000Y-98620000D03*
X141280000Y-98620000D03*
%TD*%
D17*
%TO.C,C11*%
X149297500Y-130261000D03*
X147222500Y-130261000D03*
%TD*%
D35*
%TO.C,C12*%
X140005000Y-121519500D03*
X140005000Y-119444500D03*
%TD*%
D31*
%TO.C,R28*%
X133544000Y-125689000D03*
X135544000Y-125689000D03*
%TD*%
D36*
%TO.C,L1*%
X197112500Y-139112500D03*
X206812500Y-139112500D03*
%TD*%
D22*
%TO.C,C6*%
X190285000Y-124352500D03*
X192360000Y-124352500D03*
%TD*%
D34*
%TO.C,R24*%
X144958000Y-114878000D03*
X144958000Y-112878000D03*
%TD*%
%TO.C,R19*%
X192342500Y-118762500D03*
X192342500Y-116762500D03*
%TD*%
D17*
%TO.C,C8*%
X209202500Y-119752500D03*
X207127500Y-119752500D03*
%TD*%
D33*
%TO.C,D7*%
X139375000Y-94540000D03*
X141125000Y-94540000D03*
%TD*%
D31*
%TO.C,R23*%
X198372500Y-124312500D03*
X200372500Y-124312500D03*
%TD*%
D12*
%TO.C,J3*%
X169926000Y-51059000D03*
D13*
X169926000Y-53599000D03*
X169926000Y-56139000D03*
X169926000Y-58679000D03*
X169926000Y-61219000D03*
X169926000Y-63759000D03*
X169926000Y-66299000D03*
X169926000Y-68839000D03*
X169926000Y-71379000D03*
X169926000Y-73919000D03*
%TD*%
D12*
%TO.C,J1*%
X121666000Y-65405000D03*
D13*
X121666000Y-67945000D03*
X121666000Y-70485000D03*
X121666000Y-73025000D03*
X121666000Y-75565000D03*
X121666000Y-78105000D03*
%TD*%
D12*
%TO.C,J2*%
X121666000Y-83058000D03*
D13*
X121666000Y-85598000D03*
X121666000Y-88138000D03*
X121666000Y-90678000D03*
X121666000Y-93218000D03*
X121666000Y-95758000D03*
%TD*%
D12*
%TO.C,J4*%
X169926000Y-77993000D03*
D13*
X169926000Y-80533000D03*
X169926000Y-83073000D03*
X169926000Y-85613000D03*
X169926000Y-88153000D03*
X169926000Y-90693000D03*
X169926000Y-93233000D03*
X169926000Y-95773000D03*
%TD*%
M02*
