%TF.GenerationSoftware,KiCad,Pcbnew,(6.0.10)*%
%TF.CreationDate,2023-04-05T18:46:28-05:00*%
%TF.ProjectId,445,3434352e-6b69-4636-9164-5f7063625858,rev?*%
%TF.SameCoordinates,Original*%
%TF.FileFunction,Soldermask,Bot*%
%TF.FilePolarity,Negative*%
%FSLAX46Y46*%
G04 Gerber Fmt 4.6, Leading zero omitted, Abs format (unit mm)*
G04 Created by KiCad (PCBNEW (6.0.10)) date 2023-04-05 18:46:28*
%MOMM*%
%LPD*%
G01*
G04 APERTURE LIST*
%ADD10R,1.700000X1.700000*%
%ADD11O,1.700000X1.700000*%
%ADD12R,1.300000X1.300000*%
%ADD13C,1.300000*%
%ADD14O,1.900000X2.900000*%
%ADD15O,2.900000X1.900000*%
G04 APERTURE END LIST*
D10*
%TO.C,J5*%
X213160000Y-141500000D03*
D11*
X213160000Y-144040000D03*
%TD*%
D10*
%TO.C,J6*%
X188976000Y-107188000D03*
D11*
X188976000Y-109728000D03*
%TD*%
D12*
%TO.C,J14*%
X152578000Y-138262000D03*
D13*
X150078000Y-138262000D03*
X148078000Y-138262000D03*
X145578000Y-138262000D03*
D14*
X142508000Y-138862000D03*
D15*
X149078000Y-143042000D03*
D14*
X155648000Y-138862000D03*
%TD*%
D10*
%TO.C,J15*%
X128240000Y-65310000D03*
D11*
X128240000Y-67850000D03*
X128240000Y-70390000D03*
X128240000Y-72930000D03*
X128240000Y-75470000D03*
X128240000Y-78010000D03*
X128240000Y-80550000D03*
X128240000Y-83090000D03*
X128240000Y-85630000D03*
X128240000Y-88170000D03*
X128240000Y-90710000D03*
X128240000Y-93250000D03*
X128240000Y-95790000D03*
X128240000Y-98330000D03*
X128240000Y-100870000D03*
X128240000Y-103410000D03*
%TD*%
D10*
%TO.C,J16*%
X161880000Y-65280000D03*
D11*
X161880000Y-67820000D03*
X161880000Y-70360000D03*
X161880000Y-72900000D03*
X161880000Y-75440000D03*
X161880000Y-77980000D03*
X161880000Y-80520000D03*
X161880000Y-83060000D03*
X161880000Y-85600000D03*
X161880000Y-88140000D03*
X161880000Y-90680000D03*
X161880000Y-93220000D03*
X161880000Y-95760000D03*
X161880000Y-98300000D03*
X161880000Y-100840000D03*
X161880000Y-103380000D03*
%TD*%
D10*
%TO.C,J7*%
X180140000Y-105530000D03*
%TD*%
%TO.C,J3*%
X169926000Y-51059000D03*
D11*
X169926000Y-53599000D03*
X169926000Y-56139000D03*
X169926000Y-58679000D03*
X169926000Y-61219000D03*
X169926000Y-63759000D03*
X169926000Y-66299000D03*
X169926000Y-68839000D03*
X169926000Y-71379000D03*
X169926000Y-73919000D03*
%TD*%
D10*
%TO.C,J1*%
X121666000Y-65405000D03*
D11*
X121666000Y-67945000D03*
X121666000Y-70485000D03*
X121666000Y-73025000D03*
X121666000Y-75565000D03*
X121666000Y-78105000D03*
%TD*%
D10*
%TO.C,J2*%
X121666000Y-83058000D03*
D11*
X121666000Y-85598000D03*
X121666000Y-88138000D03*
X121666000Y-90678000D03*
X121666000Y-93218000D03*
X121666000Y-95758000D03*
%TD*%
D10*
%TO.C,J4*%
X169926000Y-77993000D03*
D11*
X169926000Y-80533000D03*
X169926000Y-83073000D03*
X169926000Y-85613000D03*
X169926000Y-88153000D03*
X169926000Y-90693000D03*
X169926000Y-93233000D03*
X169926000Y-95773000D03*
%TD*%
M02*
